<svg width="32" height="32" viewBox="0 0 32 32" fill="none" xmlns="http://www.w3.org/2000/svg">
<path d="M15.9997 25.1473C16.6526 25.1473 17.1147 24.6852 17.1147 24.0223V11.6172L17.0343 9.44751L19.6359 12.3504L21.9261 14.6205C22.127 14.8214 22.4082 14.952 22.7196 14.952C23.3323 14.952 23.7944 14.4899 23.7944 13.8571C23.7944 13.5658 23.6839 13.2946 23.4428 13.0535L16.8234 6.42407C16.6024 6.19305 16.3011 6.07251 15.9997 6.07251C15.6883 6.07251 15.387 6.19305 15.166 6.42407L8.55664 13.0535C8.31557 13.2946 8.20508 13.5658 8.20508 13.8571C8.20508 14.4899 8.65709 14.952 9.26981 14.952C9.59124 14.952 9.87249 14.8214 10.0734 14.6205L12.3535 12.3504L14.9651 9.43746L14.8747 11.6172V24.0223C14.8747 24.6852 15.3368 25.1473 15.9997 25.1473Z" fill="white"/>
</svg>
