<svg width="33" height="33" viewBox="0 0 33 33" fill="none" xmlns="http://www.w3.org/2000/svg">
<path d="M16.445 6.23193C15.7821 6.23193 15.32 6.69399 15.32 7.35693V19.7621L15.4104 21.9418L12.7988 19.0288L10.5187 16.7587C10.3178 16.5578 10.0366 16.4272 9.71512 16.4272C9.1024 16.4272 8.65039 16.8893 8.65039 17.5221C8.65039 17.8134 8.76088 18.0846 9.00195 18.3257L15.6113 24.9551C15.8323 25.1862 16.1336 25.3067 16.445 25.3067C16.7464 25.3067 17.0477 25.1862 17.2687 24.9551L23.8881 18.3257C24.1292 18.0846 24.2397 17.8134 24.2397 17.5221C24.2397 16.8893 23.7776 16.4272 23.1649 16.4272C22.8535 16.4272 22.5723 16.5578 22.3714 16.7587L20.0812 19.0288L17.4796 21.9317L17.56 19.7621V7.35693C17.56 6.69399 17.0979 6.23193 16.445 6.23193Z" fill="white"/>
</svg>
