<svg width="48" height="48" viewBox="0 0 48 48" fill="none" xmlns="http://www.w3.org/2000/svg">
<path d="M26.6064 43.2654C32.814 43.2654 36.5506 41.0355 36.5506 37.314V29.1477C39.1572 26.8575 40.679 23.1962 40.679 19.1432C40.679 9.72635 34.5769 3.4585 25.4162 3.4585C16.3006 3.4585 10.2287 9.59075 10.2287 18.8117C10.2287 19.324 10.2437 19.761 10.2889 20.1828L8.11928 24.0701C7.5618 25.0495 7.30566 25.9836 7.30566 26.8575C7.30566 28.5149 8.34528 29.8558 10.2287 30.2476V33.3062C10.2287 36.3949 12.3531 37.9317 15.3062 37.6153L16.8129 37.4496C16.9033 41.0958 20.5646 43.2654 26.6064 43.2654ZM26.6064 40.3575C22.2069 40.3575 19.5702 39.0015 19.5702 36.8168V34.7526C19.5702 34.406 19.3592 34.2403 19.0278 34.2704L14.9597 34.7074C13.7694 34.843 13.1366 34.3307 13.1366 33.0801V28.2889C13.1366 28.0478 12.9558 27.882 12.6996 27.882H11.871C10.9067 27.882 10.3492 27.3999 10.3492 26.6466C10.3492 26.2548 10.4848 25.7877 10.756 25.3207L13.2872 20.7704C13.1818 20.0924 13.1215 19.4295 13.1215 18.7665C13.1215 11.3235 18.0333 6.36642 25.4162 6.36642C32.8291 6.36642 37.7711 11.4741 37.7711 19.1432C37.7711 22.8798 36.2041 26.1192 33.6277 27.6862V36.8168C33.6277 39.0015 30.9909 40.3575 26.6064 40.3575ZM15.472 16.3408C15.472 19.2185 17.4608 21.1772 20.429 21.1772C20.8358 21.1772 21.2125 21.1471 21.5741 21.0718C22.4781 21.8553 23.7739 22.3073 25.1902 22.3073C25.7326 22.3073 26.3202 22.247 26.8927 22.0963C27.4653 22.6689 28.3241 23.0003 29.3336 23.0003H29.7102C29.9814 24.507 30.9608 25.5316 32.1963 25.5316C33.9742 25.5316 35.2398 23.5578 35.2398 20.7554C35.2398 20.0171 35.2097 19.4445 35.1645 18.9323C35.6768 18.2693 35.963 17.3954 35.963 16.386C35.963 14.382 34.6371 12.8151 32.6182 12.3781C32.1812 10.6153 30.6595 9.34968 28.8062 9.34968C28.6706 9.34968 28.4898 9.37981 28.309 9.40995C27.6461 8.67167 26.6516 8.21966 25.5819 8.21966C24.4067 8.21966 23.3821 8.6566 22.674 9.37981C22.1466 9.16888 21.6042 9.06341 21.0317 9.06341C19.0127 9.06341 17.4909 10.4496 17.4909 12.3329V12.348C16.2404 13.252 15.472 14.7587 15.472 16.3408ZM21.5741 12.1069C21.559 12.6041 21.9056 12.9658 22.3877 12.9658C22.8698 12.9658 23.1862 12.6493 23.2164 12.1672C23.2616 10.8112 24.2409 9.86196 25.5819 9.86196C26.3654 9.86196 27.0735 10.2838 27.3598 10.9317C27.4803 11.1577 27.7214 11.1728 28.0679 11.0824C28.2487 11.0372 28.4446 11.007 28.6556 11.007C30.0266 11.0221 31.0813 12.0768 31.0813 13.463C31.0813 16.9133 26.064 16.401 26.064 20.0924C26.064 20.2582 26.0791 20.4239 26.1092 20.5896C25.8531 20.6348 25.5819 20.6499 25.3258 20.6499C24.6929 20.6499 24.0752 20.5143 23.5629 20.2883C24.6779 19.5349 25.3408 18.3145 25.3408 16.8229C25.3408 16.7325 25.3258 16.6421 25.3258 16.5517C26.9229 16.0545 27.7666 14.8943 27.7515 13.1164C27.7515 12.6795 27.3598 12.2877 26.9078 12.2877C26.4708 12.2877 26.0942 12.6644 26.1092 13.1164C26.1243 14.1259 25.7326 14.7135 24.8737 14.9697C24.708 14.6985 24.5121 14.4574 24.2711 14.2615C23.9547 13.9903 23.7437 13.8848 23.4424 13.8848C22.9753 13.8848 22.6438 14.2012 22.6438 14.6382C22.6438 15.1203 22.9 15.2559 23.2616 15.5874C23.5479 15.8586 23.6985 16.2805 23.6985 16.7928C23.6985 18.4351 22.4178 19.5199 20.4591 19.5199C18.4402 19.5199 17.1143 18.2693 17.1143 16.3408C17.1143 15.497 17.4307 14.6985 17.9881 14.1108C18.5456 14.9546 19.525 15.4518 20.7454 15.4518C21.1823 15.4518 21.5741 15.0751 21.5741 14.6382C21.5741 14.1862 21.1974 13.8095 20.7454 13.8095C19.7811 13.8095 19.1483 13.2219 19.1483 12.3329C19.1483 11.3837 19.9318 10.7057 21.0166 10.7057C21.2727 10.7057 21.5439 10.7509 21.8001 10.8262C21.6645 11.218 21.5891 11.6399 21.5741 12.1069ZM30.5841 19.5952C30.5841 20.0322 30.9156 20.3787 31.3827 20.4239C32.1963 20.4842 32.9346 20.3636 33.5674 20.1226C33.5825 20.3034 33.5825 20.5143 33.5825 20.7403C33.5825 22.5634 32.9496 23.8893 32.1963 23.8893C31.5333 23.8893 31.0813 23.0455 31.0813 21.8402C31.0813 21.6142 30.9156 21.4937 30.7047 21.4937C30.5088 21.4937 30.2677 21.5087 30.0417 21.5087C28.52 21.5087 27.7365 21.0115 27.7365 20.0472C27.7365 17.5913 32.3018 18.0735 32.7236 14.0656C33.703 14.3519 34.3057 15.2107 34.3057 16.386C34.3057 17.9529 33.1606 18.9172 31.4128 18.7816C30.9608 18.7515 30.5841 19.1432 30.5841 19.5952Z" fill="white"/>
</svg>
