<svg width="32" height="32" viewBox="0 0 32 32" fill="none" xmlns="http://www.w3.org/2000/svg">
<path fill-rule="evenodd" clip-rule="evenodd" d="M22.4646 12.0796C22.9729 12.6124 22.953 13.4564 22.4202 13.9647L15.0827 20.9647C14.5672 21.4564 13.7562 21.4561 13.2412 20.9639L9.57866 17.4639C9.04628 16.9551 9.02713 16.1111 9.53589 15.5788C10.0446 15.0464 10.8886 15.0272 11.421 15.536L14.1631 18.1564L20.5795 12.0352C21.1123 11.5269 21.9563 11.5468 22.4646 12.0796Z" fill="#FAB300"/>
<path fill-rule="evenodd" clip-rule="evenodd" d="M15.9998 5.33328C10.1088 5.33328 5.33317 10.1089 5.33317 15.9999C5.33317 21.891 10.1088 26.6666 15.9998 26.6666C21.8909 26.6666 26.6665 21.891 26.6665 15.9999C26.6665 10.1089 21.8909 5.33328 15.9998 5.33328ZM2.6665 15.9999C2.6665 8.63615 8.63604 2.66661 15.9998 2.66661C23.3636 2.66661 29.3332 8.63615 29.3332 15.9999C29.3332 23.3637 23.3636 29.3333 15.9998 29.3333C8.63604 29.3333 2.6665 23.3637 2.6665 15.9999Z" fill="#FAB300"/>
</svg>
