<svg width="48" height="48" viewBox="0 0 48 48" fill="none" xmlns="http://www.w3.org/2000/svg">
<path d="M11.0723 34.783C11.0723 38.0375 12.7447 39.725 15.969 39.725H32.0153C35.2397 39.725 36.9121 38.0375 36.9121 34.783V12.0469C36.9121 8.80755 35.2397 7.10498 32.0153 7.10498H15.969C12.7447 7.10498 11.0723 8.80755 11.0723 12.0469V34.783ZM14.0254 34.6022V12.2277C14.0254 10.8265 14.7486 10.0581 16.2101 10.0581H31.7592C33.2207 10.0581 33.959 10.8265 33.959 12.2277V34.6022C33.959 36.0034 33.2207 36.7718 31.7592 36.7718H16.2101C14.7486 36.7718 14.0254 36.0034 14.0254 34.6022ZM18.4099 15.2863H30.0566C30.5991 15.2863 31.0209 14.8494 31.0209 14.307C31.0209 13.7796 30.5991 13.3728 30.0566 13.3728H18.4099C17.8524 13.3728 17.4456 13.7796 17.4456 14.307C17.4456 14.8494 17.8524 15.2863 18.4099 15.2863ZM18.4099 19.6106H25.2201C25.7776 19.6106 26.1844 19.1736 26.1844 18.6312C26.1844 18.1039 25.7776 17.6971 25.2201 17.6971H18.4099C17.8524 17.6971 17.4456 18.1039 17.4456 18.6312C17.4456 19.1736 17.8524 19.6106 18.4099 19.6106ZM18.6359 34.0296H29.3636C30.6593 34.0296 31.3223 33.3667 31.3223 32.0709V23.9649C31.3223 22.6842 30.6593 22.0213 29.3636 22.0213H18.6359C17.3853 22.0213 16.6621 22.6842 16.6621 23.9649V32.0709C16.6621 33.3667 17.3853 34.0296 18.6359 34.0296Z" fill="white"/>
</svg>
