<svg width="48" height="48" viewBox="0 0 48 48" fill="none" xmlns="http://www.w3.org/2000/svg">
<path d="M13.6187 37.5103H34.3659C37.6354 37.5103 39.338 35.8228 39.338 32.5984V14.2619C39.338 11.0376 37.6354 9.3501 34.3659 9.3501H13.6187C10.3642 9.3501 8.66162 11.0225 8.66162 14.2619V32.5984C8.66162 35.8228 10.3642 37.5103 13.6187 37.5103ZM13.6036 34.5119C12.353 34.5119 11.6599 33.864 11.6599 32.5382V18.6765C11.6599 17.3507 12.353 16.7028 13.6036 16.7028H34.3809C35.6315 16.7028 36.3246 17.3507 36.3246 18.6765V32.5382C36.3246 33.864 35.6315 34.5119 34.3809 34.5119H13.6036ZM16.18 22.1118H31.8346C32.377 22.1118 32.7838 21.6899 32.7838 21.1325C32.7838 20.6051 32.377 20.1983 31.8346 20.1983H16.18C15.6226 20.1983 15.2158 20.6051 15.2158 21.1325C15.2158 21.6899 15.6226 22.1118 16.18 22.1118ZM16.18 26.5566H31.8346C32.377 26.5566 32.7838 26.1498 32.7838 25.6224C32.7838 25.08 32.377 24.6431 31.8346 24.6431H16.18C15.6226 24.6431 15.2158 25.08 15.2158 25.6224C15.2158 26.1498 15.6226 26.5566 16.18 26.5566ZM16.18 31.0013H26.064C26.6064 31.0013 27.0132 30.5945 27.0132 30.0672C27.0132 29.5248 26.6064 29.1029 26.064 29.1029H16.18C15.6226 29.1029 15.2158 29.5248 15.2158 30.0672C15.2158 30.5945 15.6226 31.0013 16.18 31.0013Z" fill="white"/>
</svg>
