<svg width="48" height="48" viewBox="0 0 48 48" fill="none" xmlns="http://www.w3.org/2000/svg">
<path d="M34.8484 35.4155C39.5493 35.4155 43.2558 31.9652 43.2558 27.656C43.2558 24.4468 41.4327 21.5991 38.4344 20.3486C38.4494 13.5383 33.5376 8.62646 27.2245 8.62646C23.2167 8.62646 20.2033 10.6906 18.32 13.4328C14.493 12.4083 10.4701 15.2559 10.3194 19.5048C6.86907 20.1226 4.74463 23.2113 4.74463 26.9931C4.74463 31.5735 8.75244 35.4005 14.0259 35.4005L34.8484 35.4155ZM34.8484 32.4021H33.3417C32.1665 29.9764 29.2736 27.4602 24.9494 27.4602C20.6101 27.4602 17.7324 29.9764 16.5421 32.4021H14.0409C10.455 32.4021 7.78816 29.901 7.78816 26.9931C7.78816 23.9797 9.64139 21.7498 12.7151 21.7498C12.9411 21.7498 13.0315 21.6293 13.0164 21.4183C12.926 16.9434 16.1353 15.4066 19.3747 16.4312C19.5705 16.4914 19.6911 16.4462 19.7815 16.2805C21.2731 13.6588 23.4729 11.6248 27.2095 11.6248C31.9405 11.6248 35.3155 15.3765 35.5415 19.761C35.5867 20.5746 35.5264 21.4485 35.4662 22.1717C35.436 22.3826 35.5264 22.5031 35.7223 22.5333C38.4494 23.0606 40.2123 24.9892 40.2123 27.656C40.2123 30.2928 37.8769 32.4021 34.8484 32.4021ZM24.9494 25.6672C27.1643 25.6823 28.9572 23.6633 28.9572 21.2676C28.9572 18.9172 27.1643 16.9886 24.9494 16.9886C22.7195 16.9886 20.9265 18.9172 20.9265 21.2676C20.9416 23.6482 22.7195 25.6521 24.9494 25.6672Z" fill="white"/>
</svg>
