<svg width="200" height="200" viewBox="0 0 200 200" fill="none" xmlns="http://www.w3.org/2000/svg">
<path d="M183.454 103.725L186.078 104.075L184.881 101.712L185.942 101.235L186.936 103.699L188.383 101.471L189.333 102.143L187.706 104.233L190.348 104.391L190.237 105.54L187.613 105.19L188.81 107.553L187.749 108.03L186.755 105.566L185.308 107.794L184.358 107.122L185.985 105.033L183.343 104.874L183.454 103.725Z" fill="white"/>
<path d="M178.426 138.577C179.001 138.791 179.555 138.747 180.089 138.444C180.623 138.142 181.06 137.659 181.401 136.996C181.65 136.511 181.789 136.046 181.819 135.602C181.847 135.161 181.776 134.769 181.606 134.425C181.434 134.084 181.174 133.824 180.824 133.644C180.532 133.494 180.245 133.435 179.963 133.466C179.683 133.502 179.417 133.595 179.164 133.745C178.915 133.896 178.684 134.07 178.47 134.267C178.26 134.465 178.076 134.652 177.918 134.828L177.047 135.787C176.826 136.033 176.56 136.298 176.248 136.579C175.935 136.864 175.582 137.109 175.189 137.313C174.798 137.522 174.372 137.641 173.911 137.67C173.45 137.699 172.962 137.581 172.449 137.318C171.857 137.014 171.402 136.584 171.084 136.028C170.763 135.476 170.614 134.832 170.637 134.096C170.657 133.363 170.884 132.576 171.316 131.734C171.719 130.95 172.194 130.336 172.742 129.892C173.288 129.451 173.872 129.183 174.493 129.088C175.113 128.996 175.733 129.083 176.354 129.347L175.651 130.717C175.219 130.54 174.805 130.503 174.409 130.606C174.016 130.715 173.657 130.923 173.333 131.229C173.01 131.541 172.737 131.915 172.514 132.35C172.254 132.856 172.102 133.352 172.059 133.84C172.02 134.328 172.088 134.767 172.263 135.154C172.441 135.543 172.73 135.84 173.13 136.045C173.493 136.232 173.841 136.282 174.174 136.196C174.507 136.11 174.829 135.938 175.142 135.68C175.455 135.422 175.764 135.127 176.069 134.797L177.146 133.647C177.831 132.918 178.531 132.421 179.243 132.156C179.956 131.892 180.681 131.949 181.419 132.328C182.033 132.643 182.482 133.083 182.768 133.649C183.056 134.221 183.182 134.853 183.146 135.546C183.111 136.245 182.914 136.944 182.555 137.643C182.193 138.349 181.744 138.911 181.209 139.33C180.677 139.751 180.112 140.01 179.512 140.108C178.91 140.209 178.328 140.126 177.767 139.86L178.426 138.577Z" fill="white"/>
<path d="M164.46 157.884L165.443 156.763C165.824 156.979 166.209 157.112 166.598 157.16C166.985 157.211 167.364 157.192 167.736 157.103C168.109 157.019 168.461 156.872 168.794 156.663C169.127 156.453 169.428 156.195 169.697 155.888C170.189 155.327 170.493 154.695 170.608 153.992C170.722 153.291 170.62 152.565 170.304 151.813C169.985 151.065 169.425 150.339 168.623 149.636C167.822 148.933 167.029 148.472 166.245 148.254C165.458 148.038 164.725 148.032 164.045 148.236C163.363 148.442 162.776 148.826 162.285 149.386C162.015 149.694 161.798 150.026 161.634 150.383C161.47 150.741 161.369 151.108 161.332 151.485C161.294 151.868 161.326 152.248 161.428 152.625C161.529 153.008 161.711 153.372 161.972 153.718L160.989 154.839C160.59 154.34 160.301 153.815 160.123 153.264C159.945 152.714 159.87 152.158 159.899 151.596C159.93 151.037 160.059 150.492 160.286 149.961C160.51 149.432 160.826 148.934 161.236 148.467C161.928 147.677 162.737 147.144 163.662 146.868C164.587 146.591 165.559 146.589 166.58 146.86C167.6 147.131 168.598 147.695 169.575 148.551C170.551 149.407 171.24 150.324 171.642 151.3C172.044 152.276 172.168 153.241 172.015 154.194C171.861 155.147 171.438 156.018 170.746 156.807C170.336 157.274 169.884 157.653 169.389 157.944C168.891 158.238 168.366 158.436 167.813 158.537C167.263 158.642 166.704 158.641 166.135 158.537C165.569 158.435 165.01 158.217 164.46 157.884Z" fill="white"/>
<path d="M151.541 159.374L158.564 169.487L155.147 171.86C154.357 172.409 153.614 172.724 152.92 172.807C152.228 172.892 151.598 172.785 151.029 172.487C150.461 172.189 149.97 171.742 149.556 171.146C149.143 170.55 148.897 169.937 148.821 169.307C148.745 168.677 148.867 168.055 149.188 167.442C149.511 166.832 150.064 166.255 150.848 165.711L153.613 163.791L154.381 164.897L151.655 166.79C151.115 167.165 150.736 167.546 150.516 167.932C150.293 168.321 150.208 168.712 150.261 169.105C150.313 169.503 150.48 169.904 150.761 170.309C151.042 170.714 151.364 171.015 151.726 171.213C152.087 171.411 152.492 171.477 152.939 171.41C153.388 171.347 153.885 171.126 154.432 170.747L156.585 169.251L150.317 160.224L151.541 159.374ZM149.936 167.223L144.292 164.408L145.714 163.42L151.318 166.263L149.936 167.223Z" fill="white"/>
<path d="M128.719 179.264C128.263 178.048 128.088 176.915 128.195 175.865C128.302 174.814 128.648 173.906 129.233 173.138C129.818 172.37 130.603 171.802 131.586 171.433C132.569 171.064 133.533 170.976 134.479 171.169C135.425 171.363 136.284 171.82 137.055 172.54C137.826 173.261 138.44 174.23 138.896 175.445C139.352 176.661 139.527 177.794 139.42 178.845C139.314 179.895 138.968 180.804 138.382 181.572C137.797 182.339 137.013 182.907 136.03 183.276C135.046 183.645 134.082 183.733 133.136 183.54C132.191 183.347 131.332 182.89 130.561 182.169C129.789 181.448 129.175 180.48 128.719 179.264ZM130.07 178.757C130.445 179.755 130.928 180.535 131.519 181.097C132.107 181.659 132.751 182.011 133.45 182.151C134.145 182.293 134.842 182.232 135.54 181.97C136.238 181.709 136.804 181.295 137.238 180.73C137.669 180.166 137.922 179.478 137.998 178.666C138.071 177.855 137.92 176.951 137.545 175.952C137.171 174.954 136.69 174.174 136.102 173.611C135.51 173.049 134.867 172.698 134.171 172.556C133.472 172.416 132.774 172.477 132.076 172.739C131.378 173.001 130.814 173.414 130.383 173.978C129.949 174.543 129.695 175.231 129.623 176.042C129.547 176.854 129.696 177.759 130.07 178.757Z" fill="white"/>
<path d="M116.896 176.598L118.364 188.823L116.884 189.001L115.574 178.089L109.891 178.771L109.733 177.458L116.896 176.598Z" fill="white"/>
<path d="M99.9821 178.346L98.797 190.601L97.313 190.458L98.3707 179.519L92.6738 178.968L92.8011 177.651L99.9821 178.346Z" fill="white"/>
<path d="M68.5698 171.397L71.9302 173.17L66.1831 184.059L62.6739 182.207C61.6176 181.65 60.8288 180.955 60.3074 180.122C59.7842 179.293 59.5365 178.367 59.5644 177.344C59.5904 176.324 59.9008 175.251 60.4957 174.124C61.0944 172.99 61.8118 172.12 62.6481 171.514C63.4824 170.912 64.402 170.595 65.4067 170.564C66.4095 170.535 67.4639 170.813 68.5698 171.397ZM69.9942 173.644L68.0376 172.611C67.1372 172.136 66.2994 171.916 65.5241 171.951C64.7488 171.986 64.0465 172.248 63.4173 172.736C62.788 173.224 62.2395 173.911 61.7718 174.797C61.3079 175.676 61.052 176.509 61.0042 177.295C60.9546 178.085 61.1254 178.8 61.5165 179.442C61.9057 180.087 62.5256 180.634 63.3764 181.083L65.4819 182.194L69.9942 173.644Z" fill="white"/>
<path d="M42.999 161.452C43.8763 160.495 44.8074 159.826 45.7922 159.445C46.777 159.065 47.7441 158.962 48.6935 159.136C49.6429 159.31 50.5047 159.752 51.2789 160.461C52.0531 161.171 52.5683 161.991 52.8245 162.921C53.0807 163.852 53.0622 164.824 52.7688 165.839C52.4755 166.853 51.8902 167.839 51.0128 168.796C50.1355 169.753 49.2044 170.422 48.2196 170.803C47.2348 171.183 46.2677 171.287 45.3183 171.112C44.3689 170.938 43.5071 170.496 42.7329 169.787C41.9587 169.077 41.4435 168.257 41.1873 167.327C40.9311 166.396 40.9496 165.424 41.243 164.41C41.5363 163.395 42.1216 162.41 42.999 161.452ZM44.0628 162.427C43.3425 163.213 42.866 163.997 42.6335 164.779C42.398 165.558 42.3761 166.291 42.5677 166.977C42.7564 167.661 43.1256 168.255 43.6752 168.759C44.2248 169.262 44.85 169.58 45.5507 169.711C46.2485 169.839 46.9767 169.754 47.7352 169.454C48.4908 169.151 49.2287 168.607 49.949 167.821C50.6693 167.035 51.1472 166.253 51.3827 165.473C51.6153 164.692 51.6372 163.959 51.4485 163.275C51.2568 162.588 50.8862 161.993 50.3366 161.489C49.787 160.986 49.1633 160.67 48.4655 160.541C47.7647 160.41 47.0366 160.496 46.281 160.798C45.5225 161.098 44.7831 161.641 44.0628 162.427Z" fill="white"/>
<path d="M38.6155 148.22L29.8625 157.511L29.0728 156.218L36.2897 148.795L36.2271 148.693L26.3026 151.683L25.4252 150.246L32.617 142.782L32.5544 142.68L22.655 145.711L21.8653 144.418L34.128 140.873L34.9302 142.186L27.9733 149.62L28.0234 149.702L37.8132 146.907L38.6155 148.22Z" fill="white"/>
<path d="M13.5951 124.106L25.4418 120.75L25.835 122.139L18.362 131.229L18.3947 131.344L27.6962 128.71L28.1025 130.145L16.2559 133.5L15.8626 132.112L23.3523 122.992L23.3195 122.876L13.9949 125.517L13.5951 124.106Z" fill="white"/>
<path d="M17.3309 96.1559L14.7113 95.7753L15.881 98.1516L14.8147 98.6166L13.8492 96.1414L12.376 98.3523L11.4341 97.6697L13.0856 95.5991L10.4453 95.4097L10.5697 94.2621L13.1892 94.6428L12.0196 92.2664L13.0859 91.8014L14.0513 94.2766L15.5245 92.0657L16.4665 92.7483L14.815 94.8189L17.4552 95.0083L17.3309 96.1559Z" fill="white"/>
<path d="M22.656 61.527C22.0836 61.3065 21.5287 61.3445 20.9915 61.641C20.4543 61.9376 20.0117 62.4156 19.6638 63.0749C19.4093 63.5569 19.2647 64.0199 19.2299 64.4638C19.1969 64.9041 19.2635 65.2973 19.4298 65.6434C19.598 65.986 19.8558 66.2489 20.2032 66.4322C20.4938 66.5856 20.7802 66.6484 21.0623 66.6205C21.3427 66.5873 21.61 66.4972 21.8643 66.3504C22.115 66.2017 22.3482 66.0303 22.564 65.836C22.7763 65.6398 22.9624 65.4548 23.1222 65.2808L24.0036 64.332C24.2277 64.0877 24.497 63.8265 24.8115 63.5484C25.1278 63.2666 25.4836 63.0262 25.8789 62.8269C26.2724 62.6222 26.6998 62.5078 27.1611 62.4839C27.6224 62.46 28.1083 62.5827 28.6187 62.8521C29.2071 63.1627 29.6575 63.5975 29.9697 64.1565C30.2838 64.7121 30.4256 65.3579 30.3951 66.0941C30.3664 66.8268 30.1313 67.6114 29.6898 68.4479C29.2783 69.2277 28.796 69.8366 28.2432 70.2745C27.6922 70.7088 27.1055 70.9702 26.4833 71.0587C25.8628 71.1437 25.2437 71.0503 24.6257 70.7785L25.3441 69.4174C25.774 69.599 26.1872 69.6403 26.5838 69.5415C26.9788 69.4372 27.34 69.2336 27.6676 68.9306C27.9935 68.6222 28.2706 68.2518 28.4988 67.8193C28.7645 67.316 28.9215 66.821 28.9698 66.3344C29.0146 65.846 28.9516 65.4071 28.7809 65.0179C28.6066 64.6268 28.321 64.3265 27.924 64.117C27.5624 63.9261 27.2149 63.8719 26.8814 63.9542C26.5479 64.0365 26.2233 64.2051 25.9075 64.4599C25.5918 64.7147 25.2797 65.0055 24.9713 65.3322L23.8813 66.47C23.1878 67.1917 22.4832 67.6809 21.7675 67.9377C21.0519 68.1945 20.3272 68.1292 19.5935 67.742C18.9838 67.4202 18.5391 66.9748 18.2594 66.4057C17.978 65.8311 17.8592 65.1974 17.9031 64.5045C17.9454 63.8062 18.1498 63.1097 18.5165 62.415C18.8869 61.7131 19.342 61.1557 19.8818 60.7426C20.418 60.3277 20.9865 60.0749 21.5873 59.9841C22.19 59.8897 22.7707 59.9787 23.3295 60.2509L22.656 61.527Z" fill="white"/>
<path d="M36.8517 42.2829L35.8564 43.3931C35.4783 43.1725 35.0947 43.0359 34.7058 42.9833C34.3196 42.9277 33.9401 42.9428 33.5673 43.0284C33.1942 43.1083 32.8401 43.2511 32.505 43.4567C32.17 43.6624 31.866 43.9174 31.5931 44.2218C31.0954 44.7768 30.7849 45.4054 30.6614 46.1076C30.5406 46.8067 30.6342 47.5339 30.9422 48.2891C31.2529 49.0413 31.8052 49.7733 32.599 50.485C33.3928 51.1967 34.1805 51.666 34.9621 51.893C35.7463 52.117 36.4794 52.1309 37.1612 51.9348C37.8458 51.7357 38.4368 51.3585 38.9345 50.8035C39.2074 50.4991 39.4278 50.1691 39.5957 49.8137C39.7637 49.4583 39.8686 49.0921 39.9105 48.7151C39.952 48.3325 39.9242 47.9523 39.8269 47.5744C39.7294 47.1909 39.5518 46.8245 39.2944 46.4752L40.2896 45.3651C40.6833 45.8687 40.9661 46.3968 41.1382 46.9494C41.3103 47.502 41.379 48.0588 41.3443 48.6199C41.3066 49.1782 41.1717 49.722 40.9394 50.2513C40.7099 50.7775 40.3877 51.272 39.973 51.7345C39.272 52.5164 38.4577 53.0405 37.5299 53.3069C36.6021 53.5732 35.6295 53.5653 34.6122 53.283C33.5949 53.0008 32.6027 52.4262 31.6358 51.5593C30.6689 50.6925 29.9898 49.7688 29.5985 48.7882C29.2073 47.8076 29.0935 46.8417 29.2574 45.8904C29.4212 44.9392 29.8536 44.0726 30.5545 43.2907C30.9692 42.8281 31.4257 42.4541 31.9238 42.1686C32.4247 41.8802 32.952 41.6882 33.506 41.5927C34.0569 41.4945 34.6164 41.5009 35.1845 41.6118C35.7495 41.72 36.3053 41.9438 36.8517 42.2829Z" fill="white"/>
<path d="M49.4304 41.1825L42.4818 31.0179L45.9163 28.67C46.7104 28.1272 47.455 27.8172 48.15 27.7402C48.8428 27.6599 49.4722 27.771 50.0382 28.0734C50.6043 28.3759 51.092 28.8266 51.5014 29.4255C51.9108 30.0244 52.1514 30.6391 52.2232 31.2697C52.2951 31.9003 52.1683 32.521 51.843 33.1318C51.5155 33.7393 50.958 34.3122 50.1705 34.8505L47.3911 36.7505L46.6311 35.6388L49.3708 33.7659C49.9134 33.3949 50.2959 33.017 50.5182 32.6319C50.7438 32.2447 50.8315 31.8546 50.7814 31.4616C50.7323 31.0631 50.5686 30.6603 50.2904 30.2533C50.0122 29.8463 49.6929 29.5427 49.3326 29.3423C48.9723 29.142 48.5685 29.0733 48.1212 29.1363C47.6717 29.196 47.1723 29.4136 46.623 29.7891L44.4591 31.2684L50.6613 40.3411L49.4304 41.1825ZM51.0935 33.3456L56.7164 36.2017L55.287 37.1789L49.7038 34.2956L51.0935 33.3456Z" fill="white"/>
<path d="M72.503 21.3588C72.9455 22.5797 73.1075 23.7147 72.9889 24.7638C72.8703 25.8128 72.5141 26.7179 71.9202 27.4788C71.3263 28.2397 70.5357 28.7991 69.5484 29.1569C68.5611 29.5147 67.5958 29.5917 66.6522 29.388C65.7087 29.1843 64.8554 28.7177 64.0922 27.9882C63.329 27.2587 62.7262 26.2835 62.2837 25.0626C61.8412 23.8417 61.6793 22.7067 61.7978 21.6576C61.9164 20.6085 62.2726 19.7035 62.8665 18.9426C63.4604 18.1817 64.251 17.6223 65.2383 17.2645C66.2256 16.9067 67.191 16.8296 68.1345 17.0334C69.078 17.2371 69.9313 17.7037 70.6945 18.4332C71.4577 19.1627 72.0605 20.1379 72.503 21.3588ZM71.1465 21.8505C70.7832 20.8481 70.3089 20.0629 69.7236 19.4949C69.1421 18.9255 68.5027 18.5668 67.8053 18.4188C67.1117 18.2695 66.4144 18.3218 65.7136 18.5758C65.0127 18.8298 64.4419 19.2371 64.0013 19.7975C63.5644 20.3566 63.3033 21.0416 63.2178 21.8528C63.1362 22.6625 63.277 23.5686 63.6402 24.5709C64.0035 25.5733 64.4759 26.3591 65.0574 26.9285C65.6427 27.4966 66.2822 27.8552 66.9758 28.0046C67.6731 28.1526 68.3723 28.0996 69.0732 27.8456C69.774 27.5915 70.3429 27.185 70.7798 26.6259C71.2204 26.0655 71.4815 25.3804 71.5632 24.5707C71.6487 23.7595 71.5097 22.8528 71.1465 21.8505Z" fill="white"/>
<path d="M84.2877 24.0524L82.9613 11.8114L84.4436 11.6507L85.6276 22.5768L91.3177 21.9602L91.4602 23.2752L84.2877 24.0524Z" fill="white"/>
<path d="M101.216 22.4005L102.542 10.1594L104.025 10.32L102.841 21.2461L108.531 21.8627L108.388 23.1777L101.216 22.4005Z" fill="white"/>
<path d="M132.585 29.5425L129.245 27.7319L135.112 16.9071L138.601 18.798C139.651 19.3671 140.432 20.0709 140.944 20.9092C141.458 21.744 141.695 22.6728 141.656 23.6956C141.619 24.7148 141.296 25.7847 140.689 26.9052C140.078 28.0328 139.351 28.8947 138.508 29.4909C137.667 30.0836 136.744 30.3903 135.739 30.4108C134.736 30.4279 133.685 30.1384 132.585 29.5425ZM131.186 27.2796L133.131 28.3339C134.026 28.819 134.861 29.0484 135.637 29.022C136.412 28.9957 137.118 28.7419 137.752 28.2607C138.387 27.7796 138.943 27.0985 139.42 26.2176C139.894 25.3437 140.159 24.5141 140.216 23.7286C140.274 22.9397 140.111 22.2223 139.727 21.5765C139.345 20.9272 138.731 20.3733 137.886 19.915L135.793 18.7804L131.186 27.2796Z" fill="white"/>
<path d="M158.21 39.7757C157.323 40.7235 156.384 41.3823 155.395 41.7521C154.407 42.1219 153.438 42.2145 152.491 42.03C151.543 41.8455 150.686 41.3943 149.92 40.6764C149.154 39.9586 148.647 39.1329 148.401 38.1996C148.155 37.2662 148.185 36.294 148.489 35.2831C148.793 34.2722 149.389 33.2928 150.277 32.345C151.165 31.3972 152.103 30.7385 153.092 30.3687C154.081 29.9989 155.049 29.9062 155.996 30.0908C156.944 30.2753 157.801 30.7265 158.567 31.4443C159.334 32.1622 159.84 32.9878 160.086 33.9212C160.332 34.8546 160.303 35.8267 159.999 36.8376C159.694 37.8486 159.098 38.8279 158.21 39.7757ZM157.157 38.7893C157.886 38.0112 158.371 37.2326 158.612 36.4534C158.856 35.677 158.886 34.9444 158.702 34.2557C158.521 33.5697 158.158 32.9719 157.614 32.4623C157.07 31.9527 156.448 31.6285 155.749 31.4897C155.052 31.3537 154.323 31.4314 153.562 31.7229C152.803 32.0171 152.059 32.5533 151.33 33.3314C150.601 34.1095 150.115 34.8868 149.871 35.6632C149.63 36.4424 149.6 37.175 149.781 37.8609C149.965 38.5496 150.329 39.1488 150.874 39.6584C151.418 40.1681 152.038 40.4909 152.734 40.6269C153.434 40.7657 154.163 40.6879 154.921 40.3937C155.683 40.1023 156.428 39.5675 157.157 38.7893Z" fill="white"/>
<path d="M162.645 53.2303L171.5 44.0364L172.275 45.338L164.977 52.6809L165.038 52.7842L174.995 49.9039L175.857 51.3501L168.583 58.7343L168.645 58.8376L178.577 55.916L179.352 57.2176L167.051 60.6266L166.263 59.3044L173.302 51.9483L173.253 51.8656L163.433 54.5525L162.645 53.2303Z" fill="white"/>
<path d="M187.377 77.5223L175.493 80.7428L175.115 79.3501L182.691 70.3456L182.66 70.2296L173.329 72.7582L172.939 71.3191L184.823 68.0986L185.2 69.4912L177.608 78.5252L177.639 78.6413L186.993 76.1064L187.377 77.5223Z" fill="white"/>
</svg>
