<svg width="192" height="194" viewBox="0 0 192 194" fill="none" xmlns="http://www.w3.org/2000/svg">
<path d="M170.541 109.336L181.674 112.719L180.492 116.611C180.256 117.387 179.928 117.986 179.507 118.408C179.089 118.832 178.618 119.098 178.094 119.208C177.573 119.319 177.041 119.292 176.497 119.127C176.019 118.982 175.65 118.777 175.39 118.511C175.129 118.25 174.949 117.954 174.852 117.624C174.753 117.297 174.709 116.961 174.719 116.615L174.61 116.582C174.485 116.916 174.261 117.222 173.939 117.501C173.617 117.779 173.218 117.972 172.741 118.081C172.265 118.19 171.733 118.155 171.146 117.976C170.588 117.807 170.125 117.528 169.756 117.138C169.387 116.749 169.155 116.241 169.061 115.615C168.966 114.988 169.052 114.237 169.318 113.359L170.541 109.336ZM171.327 111.048L170.514 113.723C170.247 114.603 170.227 115.28 170.456 115.754C170.687 116.232 171.047 116.545 171.536 116.693C171.913 116.808 172.29 116.818 172.667 116.722C173.048 116.628 173.389 116.433 173.689 116.136C173.992 115.84 174.218 115.45 174.365 114.964L175.198 112.224L171.327 111.048ZM176.372 112.581L175.612 115.081C175.489 115.487 175.457 115.878 175.518 116.252C175.577 116.631 175.723 116.96 175.954 117.24C176.185 117.524 176.496 117.725 176.887 117.844C177.376 117.993 177.843 117.948 178.287 117.711C178.735 117.475 179.071 116.987 179.296 116.248L180.069 113.704L176.372 112.581Z" fill="white"/>
<path d="M167.128 122.156L167.793 120.836L176.259 129.891L175.604 131.19L163.29 129.765L163.955 128.446L174.267 129.752L174.308 129.671L167.128 122.156ZM170.941 124.689L168.259 130.006L167.143 129.443L169.824 124.126L170.941 124.689Z" fill="white"/>
<path d="M162.725 145.93L163.583 144.812C163.955 144.992 164.326 145.093 164.696 145.115C165.064 145.139 165.421 145.098 165.766 144.99C166.112 144.888 166.435 144.728 166.736 144.51C167.037 144.292 167.305 144.03 167.54 143.723C167.969 143.164 168.216 142.549 168.282 141.879C168.345 141.211 168.205 140.533 167.86 139.843C167.513 139.157 166.94 138.507 166.14 137.894C165.341 137.281 164.565 136.895 163.812 136.738C163.057 136.583 162.365 136.623 161.737 136.857C161.106 137.094 160.576 137.492 160.147 138.051C159.912 138.358 159.728 138.684 159.596 139.031C159.463 139.378 159.391 139.731 159.378 140.089C159.367 140.453 159.42 140.809 159.539 141.158C159.659 141.513 159.853 141.845 160.121 142.156L159.263 143.273C158.856 142.827 158.551 142.35 158.349 141.842C158.147 141.334 158.042 140.814 158.034 140.283C158.029 139.754 158.117 139.232 158.298 138.716C158.476 138.204 158.744 137.714 159.101 137.249C159.706 136.461 160.435 135.909 161.29 135.591C162.145 135.273 163.062 135.21 164.041 135.403C165.02 135.595 165.997 136.065 166.97 136.812C167.944 137.559 168.651 138.38 169.09 139.276C169.53 140.172 169.706 141.074 169.621 141.982C169.535 142.89 169.19 143.738 168.586 144.526C168.229 144.991 167.826 145.377 167.377 145.682C166.926 145.99 166.442 146.209 165.927 146.339C165.415 146.471 164.888 146.505 164.344 146.442C163.804 146.381 163.264 146.21 162.725 145.93Z" fill="white"/>
<path d="M154.092 144.906L161.985 153.456L160.95 154.412L157.034 150.17L156.934 150.263L157.008 158.05L155.656 159.299L155.685 152.127L147.763 150.748L149.016 149.592L155.657 150.823L155.616 148.634L153.057 145.862L154.092 144.906Z" fill="white"/>
<path d="M147.02 165.626L147.632 166.717L140.021 170.988L139.409 169.898L142.6 168.107L137.516 159.05L138.745 158.36L143.829 167.417L147.02 165.626Z" fill="white"/>
<path d="M122.655 172.551C122.285 171.381 122.176 170.303 122.329 169.317C122.482 168.331 122.854 167.49 123.445 166.795C124.035 166.1 124.804 165.603 125.75 165.303C126.696 165.004 127.611 164.969 128.494 165.198C129.377 165.428 130.164 165.902 130.856 166.62C131.548 167.339 132.079 168.284 132.449 169.454C132.819 170.624 132.928 171.702 132.775 172.688C132.622 173.674 132.25 174.515 131.66 175.21C131.069 175.905 130.301 176.402 129.354 176.702C128.408 177.001 127.493 177.036 126.61 176.806C125.728 176.577 124.94 176.103 124.248 175.384C123.556 174.666 123.025 173.721 122.655 172.551ZM123.955 172.14C124.259 173.101 124.676 173.861 125.206 174.42C125.733 174.98 126.323 175.344 126.976 175.511C127.625 175.679 128.285 175.657 128.957 175.445C129.629 175.232 130.183 174.87 130.621 174.358C131.056 173.847 131.329 173.211 131.442 172.448C131.551 171.687 131.453 170.826 131.149 169.865C130.846 168.904 130.43 168.144 129.903 167.583C129.373 167.024 128.783 166.66 128.134 166.492C127.481 166.325 126.819 166.348 126.147 166.56C125.476 166.773 124.923 167.134 124.488 167.645C124.05 168.157 123.777 168.794 123.668 169.555C123.556 170.318 123.651 171.179 123.955 172.14Z" fill="white"/>
<path d="M113.181 180.373L113.272 181.619L104.569 182.258L104.477 181.012L108.126 180.744L107.366 170.385L108.771 170.282L109.532 180.641L113.181 180.373Z" fill="white"/>
<path d="M98.625 171.647L97.2825 183.205L95.8828 183.043L96.4807 177.896L90.3176 177.18L89.7197 182.327L88.32 182.165L89.6625 170.606L91.0622 170.768L90.4618 175.938L96.6249 176.654L97.2253 171.484L98.625 171.647Z" fill="white"/>
<path d="M85.0022 170.494L81.831 181.69L75.0741 179.776L75.4147 178.573L80.8159 180.103L81.8874 176.32L76.8361 174.889L77.1768 173.687L82.2281 175.117L83.3057 171.313L77.8171 169.758L78.1578 168.555L85.0022 170.494Z" fill="white"/>
<path d="M64.587 175.569L63.9751 176.659L56.3648 172.387L56.9766 171.297L60.1674 173.088L65.2512 164.031L66.4799 164.721L61.3962 173.778L64.587 175.569Z" fill="white"/>
<path d="M46.0506 158.46C46.853 157.531 47.7142 156.874 48.6341 156.487C49.5539 156.101 50.4647 155.977 51.3663 156.115C52.268 156.254 53.0943 156.647 53.8451 157.296C54.596 157.945 55.1052 158.706 55.3728 159.578C55.6405 160.45 55.6496 161.369 55.4004 162.335C55.1512 163.301 54.6253 164.249 53.8229 165.177C53.0204 166.106 52.1592 166.763 51.2393 167.15C50.3195 167.536 49.4087 167.66 48.5071 167.522C47.6054 167.384 46.7791 166.99 46.0283 166.341C45.2774 165.692 44.7682 164.931 44.5006 164.059C44.233 163.187 44.2238 162.268 44.473 161.302C44.7222 160.336 45.2481 159.389 46.0506 158.46ZM47.0823 159.352C46.4234 160.114 45.9949 160.868 45.7967 161.612C45.5957 162.355 45.5951 163.048 45.795 163.691C45.9921 164.332 46.3571 164.883 46.8902 165.344C47.4233 165.804 48.0226 166.087 48.6881 166.192C49.3508 166.294 50.0364 166.193 50.7447 165.889C51.4501 165.582 52.1323 165.048 52.7911 164.285C53.45 163.523 53.8799 162.771 54.081 162.028C54.2792 161.283 54.2797 160.591 54.0827 159.95C53.8828 159.306 53.5163 158.754 52.9832 158.294C52.4501 157.833 51.8523 157.551 51.1896 157.449C50.524 157.345 49.8385 157.446 49.133 157.752C48.4247 158.056 47.7411 158.589 47.0823 159.352Z" fill="white"/>
<path d="M45.7579 151.224L36.7629 158.606L34.2685 155.567C33.6894 154.861 33.3434 154.18 33.2305 153.523C33.1122 152.865 33.1794 152.252 33.432 151.682C33.6846 151.112 34.0759 150.609 34.6058 150.174C35.1358 149.739 35.7064 149.452 36.3176 149.314C36.9263 149.172 37.5434 149.219 38.1687 149.455C38.7911 149.694 39.3895 150.164 39.9638 150.864L41.7517 153.042L40.7854 153.835L39.0264 151.692C38.6299 151.209 38.2281 150.889 37.8209 150.733C37.4137 150.577 37.014 150.55 36.6218 150.652C36.2243 150.752 35.8455 150.95 35.4854 151.246C35.1252 151.542 34.8584 151.873 34.6849 152.241C34.509 152.606 34.4619 153.002 34.5436 153.43C34.6223 153.861 34.8623 154.32 35.2636 154.809L36.8352 156.724L44.8639 150.135L45.7579 151.224Z" fill="white"/>
<path d="M20.0349 116.002L17.5607 116.371L19.2669 118.203L18.4287 118.914L16.8804 116.938L16.1499 119.34L15.1114 118.979L16.0415 116.655L13.6007 117.204L13.4004 116.131L15.8746 115.762L14.1684 113.93L15.0066 113.219L16.5549 115.195L17.2853 112.793L18.3238 113.154L17.3938 115.478L19.8346 114.929L20.0349 116.002Z" fill="white"/>
<path d="M24.3118 79.733L13.4325 75.6042L14.876 71.8008C15.1636 71.0429 15.5318 70.4676 15.9807 70.0747C16.4261 69.6806 16.914 69.4465 17.4445 69.3723C17.9715 69.2968 18.5006 69.3598 19.0318 69.5614C19.4993 69.7388 19.8537 69.9686 20.0951 70.2506C20.3378 70.5291 20.4967 70.8365 20.5716 71.1729C20.6479 71.5057 20.6694 71.844 20.6361 72.1879L20.7423 72.2282C20.8899 71.9034 21.1338 71.6131 21.474 71.3573C21.8141 71.1015 22.2255 70.9355 22.7082 70.8594C23.1909 70.7833 23.719 70.8541 24.2927 71.0718C24.8381 71.2788 25.2816 71.5889 25.6231 72.0021C25.9646 72.4153 26.1614 72.9377 26.2134 73.5692C26.2655 74.2007 26.1288 74.945 25.8036 75.802L24.3118 79.733ZM23.6431 77.9721L24.6349 75.3585C24.9615 74.4979 25.0269 73.8239 24.8311 73.3363C24.6331 72.8439 24.2951 72.5069 23.817 72.3255C23.4487 72.1857 23.0731 72.1505 22.6902 72.22C22.3038 72.288 21.9509 72.46 21.6315 72.7358C21.3085 73.0103 21.057 73.3848 20.8769 73.8594L19.8608 76.5367L23.6431 77.9721ZM18.7134 76.1012L19.6408 73.6576C19.7913 73.261 19.8491 72.8738 19.8143 72.4959C19.7807 72.1145 19.6579 71.7762 19.4459 71.481C19.2351 71.1822 18.9385 70.9603 18.556 70.8151C18.0779 70.6337 17.6093 70.6462 17.1501 70.8528C16.6873 71.058 16.3188 71.5218 16.0446 72.2443L15.1011 74.7304L18.7134 76.1012Z" fill="white"/>
<path d="M28.6462 66.9901L27.8901 68.2592L20.0799 58.6331L20.8243 57.3835L33.008 59.6681L32.252 60.9372L22.0569 58.9114L22.0104 58.9895L28.6462 66.9901ZM25.0203 64.1952L28.0678 59.0795L29.1416 59.7193L26.0942 64.8349L25.0203 64.1952Z" fill="white"/>
<path d="M34.6118 43.6537L33.6788 44.7097C33.3199 44.5038 32.9565 44.3773 32.5886 44.3303C32.2233 44.2804 31.8647 44.2972 31.513 44.3807C31.1609 44.4589 30.8272 44.5962 30.512 44.7929C30.1968 44.9895 29.9113 45.2325 29.6554 45.5221C29.189 46.0501 28.8998 46.6463 28.7879 47.3107C28.6786 47.9722 28.772 48.6588 29.0683 49.3704C29.3671 50.0792 29.894 50.7671 30.6491 51.4342C31.4042 52.1013 32.1519 52.5395 32.892 52.7486C33.6347 52.9549 34.3276 52.9631 34.9706 52.773C35.6162 52.5801 36.1722 52.2197 36.6386 51.6917C36.8945 51.4021 37.1005 51.0888 37.2568 50.7517C37.413 50.4147 37.5096 50.0679 37.5466 49.7114C37.5833 49.3495 37.5544 48.9904 37.4599 48.6339C37.365 48.2722 37.1947 47.9271 36.949 47.5988L37.882 46.5428C38.2574 47.0161 38.5283 47.5132 38.6948 48.0342C38.8612 48.5553 38.9299 49.081 38.901 49.6115C38.8693 50.1394 38.7455 50.6543 38.5296 51.156C38.3163 51.655 38.0152 52.1244 37.6265 52.5644C36.9694 53.3082 36.2034 53.8091 35.3284 54.0671C34.4534 54.3252 33.5343 54.3244 32.5709 54.0646C31.6076 53.8049 30.666 53.2687 29.7463 52.4562C28.8265 51.6436 28.1784 50.7753 27.8019 49.8513C27.4254 48.9273 27.3113 48.0152 27.4596 47.1151C27.6078 46.215 28.0105 45.3931 28.6676 44.6493C29.0563 44.2093 29.4851 43.8527 29.9539 43.5795C30.4252 43.3035 30.9223 43.1184 31.4452 43.0244C31.9652 42.9278 32.494 42.93 33.0316 43.0309C33.5663 43.1293 34.093 43.3369 34.6118 43.6537Z" fill="white"/>
<path d="M43.1055 45.2715L35.8221 36.1964L36.921 35.3145L40.5343 39.8166L40.6406 39.7312L41.1041 31.9573L42.5398 30.805L42.015 37.9579L49.8232 39.8801L48.4938 40.947L41.9532 39.2606L41.843 41.4472L44.2044 44.3895L43.1055 45.2715Z" fill="white"/>
<path d="M51.6495 24.9995L51.1158 23.8692L59.0076 20.143L59.5413 21.2734L56.2325 22.8356L60.6671 32.2277L59.3929 32.8293L54.9583 23.4373L51.6495 24.9995Z" fill="white"/>
<path d="M76.1991 19.8331C76.4885 21.0258 76.5233 22.1087 76.3034 23.082C76.0835 24.0552 75.6552 24.8685 75.0186 25.5219C74.382 26.1753 73.5815 26.619 72.6171 26.853C71.6526 27.087 70.7378 27.0596 69.8725 26.7706C69.0072 26.4816 68.2539 25.955 67.6124 25.1908C66.9709 24.4266 66.5055 23.4481 66.2161 22.2555C65.9267 21.0628 65.8919 19.9799 66.1118 19.0066C66.3317 18.0334 66.7599 17.2201 67.3966 16.5667C68.0332 15.9133 68.8337 15.4696 69.7981 15.2356C70.7626 15.0016 71.6774 15.029 72.5427 15.318C73.4079 15.607 74.1613 16.1336 74.8028 16.8978C75.4443 17.662 75.9097 18.6404 76.1991 19.8331ZM74.8739 20.1547C74.6363 19.1755 74.272 18.3889 73.7809 17.7947C73.2936 17.1997 72.73 16.7966 72.0902 16.5854C71.454 16.3734 70.7936 16.3505 70.109 16.5166C69.4243 16.6827 68.846 17.0062 68.3741 17.4871C67.9059 17.9671 67.5897 18.5837 67.4256 19.3368C67.2651 20.0891 67.3037 20.9548 67.5413 21.9339C67.7789 22.9131 68.1413 23.7002 68.6287 24.2952C69.1198 24.8894 69.6834 25.2924 70.3195 25.5045C70.9593 25.7156 71.6216 25.7381 72.3062 25.572C72.9909 25.4059 73.5674 25.0828 74.0355 24.6028C74.5074 24.1219 74.8236 23.5053 74.9841 22.7531C75.1482 22 75.1115 21.1338 74.8739 20.1547Z" fill="white"/>
<path d="M86.597 12.5621V11.3121H95.3243V12.5621H91.6652V22.9485H90.2561V12.5621H86.597Z" fill="white"/>
<path d="M99.9719 22.222L102.108 10.7834L103.493 11.0422L102.542 16.1359L108.641 17.2751L109.593 12.1813L110.978 12.44L108.841 23.8786L107.456 23.6199L108.412 18.5038L102.313 17.3646L101.357 22.4807L99.9719 22.222Z" fill="white"/>
<path d="M113.719 24.3339L117.643 13.3791L124.254 15.7472L123.832 16.9239L118.548 15.031L117.222 18.7326L122.164 20.5029L121.743 21.6797L116.8 19.9094L115.467 23.6323L120.837 25.5559L120.416 26.7327L113.719 24.3339Z" fill="white"/>
<path d="M134.269 20.5373L134.952 19.4901L142.263 24.2558L141.581 25.303L138.515 23.3049L132.844 32.0059L131.663 31.2365L137.335 22.5354L134.269 20.5373Z" fill="white"/>
<path d="M151.88 39.0122C151.015 39.8832 150.11 40.4797 149.166 40.8019C148.222 41.1241 147.305 41.185 146.415 40.9847C145.525 40.7843 144.728 40.3346 144.023 39.6354C143.319 38.9362 142.863 38.1423 142.657 37.2538C142.45 36.3653 142.504 35.4478 142.819 34.5011C143.135 33.5545 143.725 32.6457 144.589 31.7747C145.454 30.9038 146.358 30.3072 147.303 29.9851C148.247 29.6629 149.164 29.602 150.054 29.8023C150.944 30.0026 151.741 30.4524 152.446 31.1516C153.15 31.8508 153.605 32.6446 153.812 33.5331C154.019 34.4216 153.965 35.3392 153.65 36.2858C153.334 37.2325 152.744 38.1413 151.88 39.0122ZM150.912 38.0515C151.622 37.3364 152.101 36.6142 152.35 35.8848C152.602 35.158 152.651 34.4668 152.495 33.8111C152.343 33.1581 152.017 32.5834 151.517 32.0871C151.017 31.5907 150.439 31.2674 149.782 31.1171C149.128 30.9694 148.437 31.0229 147.709 31.2773C146.984 31.5344 146.267 32.0204 145.557 32.7355C144.847 33.4505 144.366 34.1714 144.115 34.8982C143.865 35.6276 143.817 36.3189 143.969 36.9719C144.124 37.6275 144.452 38.2035 144.952 38.6999C145.452 39.1963 146.029 39.5183 146.683 39.6659C147.34 39.8162 148.031 39.7628 148.756 39.5057C149.483 39.2513 150.202 38.7665 150.912 38.0515Z" fill="white"/>
<path d="M151.716 46.2648L161.2 39.5232L163.478 42.728C164.007 43.472 164.305 44.1757 164.372 44.839C164.445 45.5032 164.335 46.1108 164.044 46.6619C163.752 47.213 163.327 47.6871 162.768 48.0843C162.209 48.4815 161.62 48.7283 161.001 48.8246C160.384 48.924 159.772 48.8341 159.164 48.5548C158.56 48.2734 157.995 47.7637 157.471 47.0258L155.838 44.7287L156.857 44.0046L158.463 46.2646C158.825 46.774 159.204 47.1205 159.6 47.3042C159.995 47.4878 160.392 47.5427 160.79 47.4688C161.194 47.3957 161.585 47.2242 161.965 46.9543C162.345 46.6844 162.634 46.372 162.833 46.0171C163.033 45.6653 163.108 45.2731 163.056 44.8406C163.007 44.4059 162.799 43.9307 162.433 43.4151L160.998 41.3959L152.532 47.4133L151.716 46.2648Z" fill="white"/>
<path d="M173.921 78.1397L176.396 77.7796L174.697 75.9415L175.538 75.2333L177.079 77.2158L177.818 74.8164L178.855 75.1813L177.916 77.5016L180.359 76.9626L180.555 78.0357L178.08 78.3959L179.779 80.2339L178.938 80.9421L177.397 78.9596L176.658 81.359L175.621 80.9942L176.56 78.6738L174.117 79.2129L173.921 78.1397Z" fill="white"/>
</svg>
