<svg width="48" height="48" viewBox="0 0 48 48" fill="none" xmlns="http://www.w3.org/2000/svg">
<path d="M38.9612 11.3388L40.0912 10.1485C40.6638 9.54583 40.709 8.71715 40.1364 8.1446L39.7447 7.7378C39.2324 7.22552 38.3736 7.30085 37.8161 7.85833L36.6409 9.00342L38.9612 11.3388ZM21.1219 27.3701L24.2107 26.0743L37.8613 12.4236L35.541 10.1184L21.8903 23.7841L20.5343 26.7674C20.3836 27.1139 20.7754 27.5057 21.1219 27.3701ZM15.3965 37.48H32.9495C35.8424 37.48 37.5449 35.7925 37.5449 32.5682V16.6574L34.5315 19.6558V32.2969C34.5315 33.7434 33.7631 34.4666 32.7536 34.4666H15.5924C14.2062 34.4666 13.4528 33.7434 13.4528 32.2969V15.5576C13.4528 14.1111 14.2062 13.3879 15.5924 13.3879H28.3842L31.3825 10.3745H15.3965C12.142 10.3745 10.4395 12.062 10.4395 15.2863V32.5682C10.4395 35.7925 12.142 37.48 15.3965 37.48Z" fill="white"/>
</svg>
