<svg width="48" height="48" viewBox="0 0 48 48" fill="none" xmlns="http://www.w3.org/2000/svg">
<path d="M7.36607 34.6926C8.39062 34.6926 8.93304 34.2707 9.26451 33.1859L10.9068 28.5453H19.495L21.1373 33.1859C21.4687 34.2707 22.0112 34.6926 23.0357 34.6926C24.1205 34.6926 24.8136 34.0447 24.8136 33.0352C24.8136 32.6586 24.7533 32.3421 24.6027 31.9203L17.9732 13.9906C17.5061 12.6798 16.6323 12.062 15.216 12.062C13.8599 12.062 12.986 12.6798 12.534 13.9755L5.85937 32.0107C5.70871 32.4024 5.64844 32.7339 5.64844 33.0654C5.64844 34.0748 6.29632 34.6926 7.36607 34.6926ZM11.7807 25.7127L15.1708 15.9493H15.2612L18.6512 25.7127H11.7807ZM33.6579 34.8131C36.2494 34.8131 38.2232 33.6078 39.1423 31.4532H39.2628V33.2763C39.2779 34.2556 39.9107 34.8282 40.7846 34.8282C41.7037 34.8282 42.3365 34.2255 42.3365 33.216V19.1284C42.3365 18.1039 41.7037 17.5012 40.7846 17.5012C39.8956 17.5012 39.2628 18.1039 39.2628 19.1284V20.9365H39.1423C38.2232 18.812 36.1741 17.5313 33.6579 17.5313C29.4693 17.5313 26.7271 20.9666 26.7271 26.1647C26.7271 31.3929 29.4693 34.8131 33.6579 34.8131ZM34.5619 32.1463C31.7595 32.1463 29.9967 29.841 29.9967 26.1798C29.9967 22.5185 31.7595 20.1982 34.5619 20.1982C37.3493 20.1982 39.1875 22.5788 39.1875 26.1948C39.1875 29.841 37.3795 32.1463 34.5619 32.1463Z" fill="white"/>
</svg>
