<svg width="117" height="32" viewBox="0 0 117 32" fill="none" xmlns="http://www.w3.org/2000/svg">
<path d="M93.0249 31.5741H83.8994L94.1808 0.425781H105.74L116.021 31.5741H106.896L100.082 9.00373H99.8386L93.0249 31.5741ZM91.3215 19.2851H108.477V25.6121H91.3215V19.2851Z" fill="white"/>
<path d="M76.1276 10.1597C76.0465 9.14576 75.6663 8.35488 74.987 7.78707C74.3178 7.21926 73.2988 6.93536 71.9299 6.93536C71.0579 6.93536 70.3431 7.04182 69.7854 7.25475C69.2379 7.45754 68.8323 7.73638 68.5687 8.09125C68.3051 8.44613 68.1682 8.85171 68.1581 9.30799C68.1378 9.68314 68.2037 10.0228 68.3558 10.327C68.518 10.621 68.7715 10.8897 69.1162 11.1331C69.461 11.3663 69.902 11.5792 70.4394 11.7719C70.9768 11.9645 71.6156 12.1369 72.3558 12.289L74.9109 12.8365C76.6346 13.2015 78.1099 13.6831 79.3368 14.2814C80.5636 14.8796 81.5674 15.5843 82.3482 16.3954C83.1289 17.1965 83.7018 18.0989 84.0668 19.1027C84.442 20.1065 84.6346 21.2015 84.6448 22.3878C84.6346 24.436 84.1226 26.1698 83.1086 27.5894C82.0947 29.0089 80.6448 30.0887 78.7588 30.8289C76.883 31.5691 74.627 31.9392 71.9908 31.9392C69.2835 31.9392 66.9211 31.5387 64.9033 30.7376C62.8957 29.9366 61.3342 28.7047 60.2189 27.0418C59.1137 25.3688 58.556 23.2294 58.5459 20.6236H66.5763C66.627 21.5767 66.8653 22.3777 67.2911 23.0266C67.717 23.6755 68.3152 24.1673 69.0858 24.5019C69.8666 24.8365 70.7943 25.0038 71.8691 25.0038C72.7715 25.0038 73.5269 24.8923 74.1353 24.6692C74.7436 24.4461 75.205 24.1369 75.5193 23.7414C75.8336 23.346 75.9958 22.8948 76.006 22.3878C75.9958 21.9113 75.8387 21.4956 75.5345 21.1407C75.2404 20.7757 74.7538 20.4512 74.0744 20.1673C73.3951 19.8733 72.4775 19.5995 71.3216 19.346L68.2189 18.6768C65.461 18.0786 63.2861 17.0798 61.6942 15.6806C60.1124 14.2712 59.3266 12.3498 59.3368 9.91635C59.3266 7.93916 59.8539 6.21039 60.9185 4.73004C61.9933 3.23954 63.4787 2.07858 65.3748 1.24715C67.281 0.415716 69.4661 0 71.9299 0C74.4445 0 76.6194 0.420786 78.4546 1.26236C80.2899 2.10393 81.7043 3.29024 82.698 4.82129C83.7018 6.34221 84.2088 8.12167 84.2189 10.1597H76.1276Z" fill="white"/>
<path d="M57.1364 16C57.1364 19.4677 56.4621 22.3929 55.1136 24.7757C53.7651 27.1483 51.945 28.948 49.6535 30.1749C47.362 31.3916 44.8069 32 41.9881 32C39.1491 32 36.5838 31.3866 34.2923 30.1597C32.0109 28.9227 30.196 27.1179 28.8474 24.7453C27.509 22.3625 26.8398 19.4474 26.8398 16C26.8398 12.5323 27.509 9.61217 28.8474 7.23955C30.196 4.85678 32.0109 3.05703 34.2923 1.8403C36.5838 0.613435 39.1491 0 41.9881 0C44.8069 0 47.362 0.613435 49.6535 1.8403C51.945 3.05703 53.7651 4.85678 55.1136 7.23955C56.4621 9.61217 57.1364 12.5323 57.1364 16ZM48.4368 16C48.4368 14.1343 48.1884 12.5627 47.6916 11.2852C47.2049 9.99746 46.4799 9.02408 45.5167 8.36502C44.5635 7.69582 43.3874 7.36122 41.9881 7.36122C40.5889 7.36122 39.4077 7.69582 38.4444 8.36502C37.4913 9.02408 36.7663 9.99746 36.2695 11.2852C35.7828 12.5627 35.5395 14.1343 35.5395 16C35.5395 17.8657 35.7828 19.4423 36.2695 20.73C36.7663 22.0076 37.4913 22.981 38.4444 23.6502C39.4077 24.3093 40.5889 24.6388 41.9881 24.6388C43.3874 24.6388 44.5635 24.3093 45.5167 23.6502C46.4799 22.981 47.2049 22.0076 47.6916 20.73C48.1884 19.4423 48.4368 17.8657 48.4368 16Z" fill="white"/>
<path d="M0.0664062 31.5741V0.425781H13.5113C15.8231 0.425781 17.8459 0.846567 19.5797 1.68814C21.3136 2.52971 22.6621 3.74137 23.6253 5.32312C24.5886 6.90487 25.0702 8.80094 25.0702 11.0113C25.0702 13.242 24.5734 15.1229 23.5797 16.6539C22.5962 18.185 21.2122 19.3409 19.4276 20.1216C17.6532 20.9023 15.5797 21.2927 13.2071 21.2927H5.17667V14.7224H11.5037C12.4973 14.7224 13.344 14.6007 14.0436 14.3573C14.7534 14.1039 15.2958 13.7033 15.671 13.1558C16.0563 12.6083 16.2489 11.8935 16.2489 11.0113C16.2489 10.1191 16.0563 9.3941 15.671 8.83643C15.2958 8.26862 14.7534 7.8529 14.0436 7.58928C13.344 7.31551 12.4973 7.17863 11.5037 7.17863H8.52268V31.5741H0.0664062ZM18.3174 17.2775L26.1044 31.5741H16.9181L9.31355 17.2775H18.3174Z" fill="white"/>
</svg>
