<svg width="24" height="24" viewBox="0 0 24 24" fill="none" xmlns="http://www.w3.org/2000/svg">
<path d="M8.17882 4.93045C8.11825 4.80161 8.02226 4.69266 7.90207 4.61635C7.78187 4.54004 7.64244 4.49951 7.50007 4.49951C7.3577 4.49951 7.21826 4.54004 7.09807 4.61635C6.97788 4.69266 6.88189 4.80161 6.82132 4.93045L0.821318 17.6805C0.779398 17.7696 0.755444 17.8661 0.750825 17.9645C0.746206 18.0629 0.761012 18.1612 0.794398 18.2539C0.861823 18.4411 1.00083 18.5938 1.18085 18.6784C1.36087 18.7631 1.56714 18.7728 1.7543 18.7053C1.94145 18.6379 2.09416 18.4989 2.17882 18.3189L3.74069 15.0001H11.2594L12.8213 18.3189C12.8632 18.408 12.9223 18.488 12.9951 18.5543C13.068 18.6206 13.1532 18.672 13.2458 18.7053C13.3385 18.7387 13.4369 18.7535 13.5352 18.7489C13.6336 18.7443 13.7302 18.7203 13.8193 18.6784C13.9084 18.6365 13.9884 18.5774 14.0547 18.5046C14.121 18.4318 14.1724 18.3466 14.2057 18.2539C14.2391 18.1612 14.2539 18.0629 14.2493 17.9645C14.2447 17.8661 14.2207 17.7696 14.1788 17.6805L8.17882 4.93045ZM4.44663 13.5001L7.50007 7.0117L10.5535 13.5001H4.44663ZM18.7501 9.00014C17.5538 9.00014 16.6191 9.32545 15.9723 9.96764C15.8368 10.1088 15.7619 10.2973 15.7635 10.493C15.7651 10.6886 15.8431 10.8759 15.9808 11.0148C16.1186 11.1538 16.3051 11.2334 16.5007 11.2367C16.6963 11.24 16.8855 11.1668 17.0279 11.0326C17.3841 10.6792 17.9654 10.5001 18.7501 10.5001C19.9904 10.5001 21.0001 11.3439 21.0001 12.3751V12.677C20.3345 12.2317 19.5508 11.996 18.7501 12.0001C16.6819 12.0001 15.0001 13.5142 15.0001 15.3751C15.0001 17.2361 16.6819 18.7501 18.7501 18.7501C19.5512 18.7536 20.3349 18.5169 21.0001 18.0705C21.0094 18.2694 21.0974 18.4564 21.2446 18.5905C21.3918 18.7245 21.5863 18.7946 21.7852 18.7853C21.9841 18.776 22.1712 18.688 22.3053 18.5408C22.4393 18.3935 22.5094 18.1991 22.5001 18.0001V12.3751C22.5001 10.5142 20.8182 9.00014 18.7501 9.00014ZM18.7501 17.2501C17.5098 17.2501 16.5001 16.4064 16.5001 15.3751C16.5001 14.3439 17.5098 13.5001 18.7501 13.5001C19.9904 13.5001 21.0001 14.3439 21.0001 15.3751C21.0001 16.4064 19.9904 17.2501 18.7501 17.2501Z" fill="white"/>
</svg>
