<svg width="64" height="64" viewBox="0 0 64 64" fill="none" xmlns="http://www.w3.org/2000/svg">
<path d="M60.6479 3.04761H50.4892C50.286 3.04761 50.1844 3.14919 50.0828 3.25078C49.9812 3.35237 49.9812 3.55554 49.9812 3.65713L52.013 11.7841C52.1146 11.9873 52.3177 12.1905 52.5209 12.1905H58.6161C58.8193 12.1905 59.0225 11.9873 59.1241 11.7841L61.1558 3.65713C61.1558 3.55554 61.1558 3.35237 61.0542 3.25078C60.9526 3.14919 60.8511 3.04761 60.6479 3.04761ZM58.2098 11.1746H52.9273L51.0987 4.06348H59.9368L58.2098 11.1746Z" fill="#181F4E"/>
<path d="M52.5209 23.3651H29.1558L24.8892 19.0984V11.9873C24.8892 11.7841 24.8892 11.6825 24.7876 11.4794C24.4828 11.7841 24.178 11.9873 23.8733 12.1905V19.3016C23.8733 19.4032 23.9749 19.6063 23.9749 19.7079L28.5463 24.2794C28.6479 24.3809 28.7495 24.3809 28.9526 24.3809H52.5209C53.3336 24.3809 54.0447 25.0921 54.0447 25.9048C54.0447 26.7175 53.3336 27.4286 52.5209 27.4286H36.2669C35.9622 27.4286 35.759 27.6317 35.759 27.9365V37.5873H28.6479V28.7492C28.6479 28.6476 28.5463 28.4444 28.5463 28.3428L21.3336 21.2317C21.0288 20.927 20.9273 20.5206 20.9273 20.1143V12.1905C20.5209 11.9873 20.2161 11.7841 20.013 11.4794C20.013 11.6825 19.9114 11.7841 19.9114 11.9873V20.1143C19.9114 20.8254 20.2161 21.4349 20.6225 21.9428L27.632 28.9524V47.746H24.0765C22.6542 47.746 21.5368 48.8635 21.5368 50.2857C21.5368 51.7079 22.6542 52.8254 24.0765 52.8254L21.232 55.6698C20.7241 56.1778 20.5209 56.7873 20.5209 57.4984C20.5209 58.2095 20.8257 58.819 21.232 59.327C21.74 59.8349 22.3495 60.0381 23.0606 60.0381C23.7717 60.0381 24.3812 59.8349 24.8892 59.327L31.2892 52.927H34.3368C35.759 52.927 36.8765 51.8095 36.8765 50.3873V28.4444H52.6225C54.0447 28.4444 55.1622 27.327 55.1622 25.9048C55.1622 24.4825 53.9431 23.3651 52.5209 23.3651ZM24.0765 51.8095C23.2638 51.8095 22.5527 51.0984 22.5527 50.2857C22.5527 49.473 23.2638 48.7619 24.0765 48.7619H27.632V49.2698L25.0923 51.8095H24.0765ZM34.2352 51.8095H32.2034C32.5082 51.4032 32.7114 50.8952 32.7114 50.2857V42.1587C32.7114 41.854 32.5082 41.6508 32.2034 41.6508C31.8987 41.6508 31.6955 41.854 31.6955 42.1587V50.2857C31.6955 50.6921 31.4923 51.0984 31.2892 51.4032L30.7812 51.8095L24.0765 58.5143C23.4669 59.1238 22.5527 59.1238 21.9431 58.5143C21.6384 58.2095 21.5368 57.8032 21.5368 57.3968C21.5368 56.9905 21.74 56.5841 21.9431 56.2794L28.5463 49.6762C28.6479 49.5746 28.6479 49.473 28.6479 49.2698V38.6032H35.759V50.2857C35.759 51.2 35.0479 51.8095 34.2352 51.8095Z" fill="#181F4E"/>
<path d="M32.2034 22.3492C34.1336 22.3492 35.759 20.7238 35.759 18.7936C35.759 16.8635 34.2352 15.2381 32.2034 15.2381C30.1717 15.2381 28.6479 16.8635 28.6479 18.7936C28.6479 20.7238 30.2733 22.3492 32.2034 22.3492ZM32.2034 16.254C33.6257 16.254 34.7431 17.3714 34.7431 18.7936C34.7431 20.2159 33.6257 21.3333 32.2034 21.3333C30.7812 21.3333 29.6638 20.2159 29.6638 18.7936C29.6638 17.3714 30.7812 16.254 32.2034 16.254Z" fill="#181F4E"/>
<path d="M22.4511 12.5968C22.959 12.5968 23.4669 12.4952 23.9749 12.1905C24.3812 11.9873 24.686 11.7841 24.8892 11.4794C25.4987 10.8698 26.0066 9.95554 26.0066 8.93967C26.0066 7.00951 24.3812 5.38412 22.4511 5.38412C20.5209 5.38412 18.8955 7.00951 18.8955 8.93967C18.8955 9.95554 19.3019 10.8698 20.013 11.4794C20.3177 11.7841 20.6225 11.9873 20.9273 12.1905C21.3336 12.3936 21.8415 12.5968 22.4511 12.5968ZM22.4511 6.50158C23.8733 6.50158 24.9907 7.61904 24.9907 9.04126C24.9907 9.65078 24.7876 10.1587 24.4828 10.5651C24.2796 10.8698 23.9749 11.073 23.7717 11.2762C23.3653 11.4794 22.959 11.5809 22.5527 11.5809C22.1463 11.5809 21.6384 11.4794 21.3336 11.2762C21.0288 11.073 20.8257 10.8698 20.6225 10.5651C20.3177 10.1587 20.1146 9.65078 20.1146 9.04126C19.9114 7.61904 21.0288 6.50158 22.4511 6.50158Z" fill="#181F4E"/>
<path d="M46.2225 56.2794C47.1368 55.9746 47.6447 55.2635 47.6447 54.4508C47.6447 53.1301 46.5273 52.3175 45.0034 52.3175C43.2765 52.3175 42.159 53.3333 42.159 54.7555H43.378C43.378 53.8413 43.9876 53.2317 45.0034 53.2317C45.9177 53.2317 46.4257 53.7397 46.4257 54.4508C46.4257 55.3651 45.7146 55.7714 44.9019 55.7714H44.3939V56.7873H44.9019C45.8161 56.7873 46.6288 57.2952 46.6288 58.2095C46.6288 59.1238 45.9177 59.6317 44.9019 59.6317C43.886 59.6317 43.1749 59.0222 43.1749 58.0063H41.9558C41.9558 59.6317 43.0733 60.6476 44.8003 60.6476C46.5273 60.6476 47.7463 59.6317 47.7463 58.3111C47.8479 57.2952 47.2384 56.5841 46.2225 56.2794Z" fill="#181F4E"/>
<path d="M54.1463 55.0603L53.4352 54.3492L51.505 56.2794L49.5749 54.3492L48.8638 55.0603L50.7939 56.9905L48.8638 58.9206L49.5749 59.6317L51.505 57.7016L53.4352 59.6317L54.1463 58.9206L52.2161 56.9905L54.1463 55.0603Z" fill="#181F4E"/>
<path d="M59.2257 56.2794C60.14 55.9746 60.6479 55.2635 60.6479 54.4508C60.6479 53.1301 59.5304 52.3175 58.0066 52.3175C56.2796 52.3175 55.1622 53.3333 55.1622 54.7555H56.3812C56.3812 53.8413 56.9907 53.2317 58.0066 53.2317C58.9209 53.2317 59.4288 53.7397 59.4288 54.4508C59.4288 55.3651 58.7177 55.7714 57.905 55.7714H57.3971V56.7873H57.905C58.8193 56.7873 59.632 57.2952 59.632 58.2095C59.632 59.1238 58.9209 59.6317 57.905 59.6317C56.8892 59.6317 56.178 59.0222 56.178 58.0063H54.959C54.959 59.6317 56.0765 60.6476 57.8034 60.6476C59.5304 60.6476 60.7495 59.6317 60.7495 58.3111C60.8511 57.2952 60.2415 56.5841 59.2257 56.2794Z" fill="#181F4E"/>
</svg>
