<svg width="64" height="64" viewBox="0 0 64 64" fill="none" xmlns="http://www.w3.org/2000/svg">
<path d="M31.289 54.8571H29.9683C29.7651 54.8571 29.562 54.9587 29.4604 55.1619L25.8032 64H26.9207L30.2731 55.873H30.9842L34.3366 64H35.454L31.7969 55.1619C31.6953 55.0603 31.4921 54.8571 31.289 54.8571Z" fill="#181F4E"/>
<path d="M54.1461 22.146H45.308V14.7301C45.308 14.6285 45.308 14.5269 45.308 14.4254V14.3238C45.308 14.3238 45.308 14.3238 45.308 14.2222C45.308 14.2222 45.308 14.2222 45.308 14.1206C45.308 14.019 45.308 14.019 45.308 13.9174C45.308 13.8158 45.2064 13.6127 45.2064 13.5111C45.2064 13.5111 45.2064 13.5111 45.2064 13.4095C45.2064 13.4095 45.2064 13.4095 45.2064 13.3079V13.2063C45.1048 13.0031 45.0032 12.8 44.9017 12.6984C44.8001 12.4952 44.6985 12.3936 44.4953 12.1904C44.4953 12.1904 44.4953 12.0888 44.3937 12.0888C44.1905 11.8857 43.9874 11.7841 43.8858 11.6825C42.4636 10.7682 40.635 10.9714 39.4159 12.0888L31.4921 20.0127C30.781 20.7238 30.4763 21.5365 30.4763 22.5523V24.5841C30.4763 26.0063 31.5937 27.1238 33.0159 27.1238H40.4318V36.5714H10.2604C8.83816 36.5714 7.7207 37.6888 7.7207 39.1111C7.7207 40.5333 8.83816 41.6508 10.2604 41.6508H26.0064V52.8254L21.3334 64H22.4509L26.9207 53.1301C26.9207 53.0285 26.9207 53.0285 26.9207 52.9269V51.8095H34.0318V52.9269C34.0318 53.0285 34.0318 53.0285 34.0318 53.1301L38.7048 64H39.8223L35.1493 52.8254V41.6508H42.7683C44.1905 41.6508 45.308 40.5333 45.308 39.1111V27.2254H54.1461C55.5683 27.2254 56.6858 26.1079 56.6858 24.6857C56.6858 23.2634 55.5683 22.146 54.1461 22.146ZM32.9144 26.2095C32.3048 26.2095 31.6953 25.8031 31.4921 25.2952C31.3905 25.092 31.3905 24.8888 31.3905 24.6857V23.1619H40.1271V26.2095H32.9144ZM39.4159 22.146L40.2286 21.3333V22.146H39.4159ZM44.2921 39.1111C44.2921 39.9238 43.581 40.6349 42.7683 40.6349H34.6413C34.3366 40.6349 34.1334 40.8381 34.1334 41.1428V50.7936H27.0223V41.1428C27.0223 40.8381 26.8191 40.6349 26.5144 40.6349H10.2604C9.44769 40.6349 8.73658 39.9238 8.73658 39.1111C8.73658 38.2984 9.44769 37.5873 10.2604 37.5873H40.7366C41.0413 37.5873 41.2445 37.3841 41.2445 37.0793V33.0158C41.6509 33.3206 42.1588 33.5238 42.7683 33.5238C43.3778 33.5238 43.8858 33.3206 44.2921 33.0158V39.1111ZM44.2921 31.0857C44.2921 31.8984 43.581 32.6095 42.7683 32.6095C41.9556 32.6095 41.2445 31.8984 41.2445 31.0857C41.2445 30.273 41.9556 29.5619 42.7683 29.5619C43.581 29.4603 44.2921 30.1714 44.2921 31.0857ZM44.2921 28.9523C43.8858 28.6476 43.3778 28.4444 42.7683 28.4444C42.1588 28.4444 41.6509 28.6476 41.2445 28.9523V17.8793C41.2445 17.6761 41.1429 17.5746 41.0413 17.473C40.9398 17.473 40.8382 17.3714 40.7366 17.3714C40.4318 17.3714 40.2286 17.5746 40.2286 17.8793V19.9111L37.9937 22.146H31.4921C31.5937 21.8412 31.6953 21.5365 31.8985 21.2317C32.0001 21.1301 32.1017 20.9269 32.2032 20.8254L40.1271 12.9015C40.3302 12.6984 40.5334 12.5968 40.7366 12.4952C40.7366 12.4952 40.8382 12.4952 40.8382 12.3936C41.1429 12.1904 41.5493 12.0888 41.9556 12.0888C42.0572 12.0888 42.0572 12.0888 42.1588 12.0888H42.2604C42.4636 12.0888 42.6667 12.1904 42.8699 12.292C43.1747 12.3936 43.4794 12.5968 43.6826 12.8L43.7842 12.9015C43.8858 13.0031 43.9874 13.1047 43.9874 13.2063C43.9874 13.2063 43.9874 13.3079 44.089 13.3079C44.1905 13.4095 44.1905 13.5111 44.1905 13.6127V13.7142C44.1905 13.8158 44.2921 13.9174 44.2921 14.1206C44.2921 14.2222 44.2921 14.2222 44.2921 14.3238C44.2921 14.4254 44.2921 14.5269 44.2921 14.6285V28.9523ZM54.1461 26.2095H45.308V23.1619H54.1461C54.9588 23.1619 55.6699 23.873 55.6699 24.6857C55.6699 25.4984 55.0604 26.2095 54.1461 26.2095Z" fill="#181F4E"/>
<path d="M47.5429 12.5968C48.4572 12.5968 49.3715 12.1904 50.0826 11.5809C50.7937 10.9714 51.0985 10.0571 51.0985 9.04122C51.0985 8.12694 50.6921 7.21265 50.0826 6.50154C48.6604 5.07932 46.4255 5.07932 45.1048 6.50154C44.3937 7.21265 44.089 8.02535 44.089 9.04122C44.089 9.95551 44.4953 10.8698 45.1048 11.5809C45.7144 12.292 46.5271 12.5968 47.5429 12.5968ZM45.7144 7.21265C46.2223 6.70472 46.8318 6.50154 47.5429 6.50154C48.254 6.50154 48.8636 6.70472 49.3715 7.21265C49.8794 7.72059 50.0826 8.33011 50.0826 9.04122C50.0826 9.75234 49.7778 10.3619 49.3715 10.8698C48.4572 11.7841 46.7302 11.7841 45.8159 10.8698C45.308 10.3619 45.1048 9.75234 45.1048 9.04122C45.0032 8.33011 45.2064 7.72059 45.7144 7.21265Z" fill="#181F4E"/>
<path d="M30.5778 35.5555C32.508 35.5555 34.1334 33.9301 34.1334 32C34.1334 30.0698 32.508 28.4444 30.5778 28.4444C28.6477 28.4444 27.0223 30.0698 27.0223 32C27.0223 33.9301 28.6477 35.5555 30.5778 35.5555ZM30.5778 29.4603C32.0001 29.4603 33.1175 30.5777 33.1175 32C33.1175 33.4222 32.0001 34.5396 30.5778 34.5396C29.1556 34.5396 28.0382 33.4222 28.0382 32C28.0382 30.6793 29.1556 29.4603 30.5778 29.4603Z" fill="#181F4E"/>
</svg>
