<svg width="64" height="64" viewBox="0 0 64 64" fill="none" xmlns="http://www.w3.org/2000/svg">
<path d="M0 33.219L30.7809 64H32.2032L0 31.7968V33.219Z" fill="#181F4E"/>
<path d="M27.4286 30.6794H24.7873L20.1143 26.0063C20.5206 25.7016 21.0286 25.6 21.5365 25.6H22.3492L21.8413 25.0921L21.3333 24.6857C20.419 24.6857 19.6063 25.0921 18.9968 25.7016L17.5746 27.1238C16.5587 28.1397 16.5587 29.7651 17.5746 30.6794L23.6698 36.7746L18.2857 42.1587C17.7778 42.6667 17.5746 43.2762 17.5746 43.9873C17.5746 44.6984 17.8794 45.3079 18.2857 45.8159C18.7936 46.3238 19.4032 46.527 20.1143 46.527C20.8254 46.527 21.4349 46.3238 21.9429 45.8159L29.1556 38.6032C30.1714 37.5873 30.1714 35.9619 29.1556 35.0476L25.9048 31.7968H28.4444L27.9365 31.2889L27.4286 30.6794ZM28.3429 35.7587C28.9524 36.3682 28.9524 37.2825 28.3429 37.8921L21.1302 45.1048C20.5206 45.7143 19.6063 45.7143 18.9968 45.1048C18.6921 44.8 18.5905 44.3936 18.5905 43.9873C18.5905 43.5809 18.7937 43.1746 18.9968 42.8698L24.7873 37.1809C24.8889 37.0794 24.8889 36.9778 24.8889 36.7746C24.8889 36.673 24.7873 36.4698 24.7873 36.3682L19.0984 30.6794L18.2857 29.9682C17.8794 29.5619 17.7778 28.8508 17.981 28.2413C18.0825 28.0381 18.1841 27.9365 18.2857 27.7333L19.3016 26.7174L28.3429 35.7587Z" fill="#181F4E"/>
<path d="M16.8635 18.6921C16.6603 18.4889 16.3556 18.4889 16.1524 18.6921C15.9492 18.8952 15.9492 19.2 16.1524 19.4032L21.8413 25.0921L22.3492 25.6L27.4286 30.6794L31.1873 34.4381V33.0159L16.8635 18.6921Z" fill="#181F4E"/>
<path d="M40.8381 24.5841C38.9079 24.5841 37.2825 26.2095 37.2825 28.1397C37.2825 30.0698 38.9079 31.6952 40.8381 31.6952C42.7683 31.6952 44.3936 30.0698 44.3936 28.1397C44.3936 26.2095 42.7683 24.5841 40.8381 24.5841ZM40.8381 30.6794C39.4159 30.6794 38.2984 29.5619 38.2984 28.1397C38.2984 26.7175 39.4159 25.6 40.8381 25.6C42.2603 25.6 43.3778 26.7175 43.3778 28.1397C43.3778 29.5619 42.1587 30.6794 40.8381 30.6794Z" fill="#181F4E"/>
<path d="M36.1651 35.2508V28.1397C36.1651 26.2095 34.5397 24.5841 32.6095 24.5841H22.654L23.6698 25.6H32.6095C34.0317 25.6 35.1492 26.7175 35.1492 28.1397V35.3524C35.1492 35.454 35.2508 35.6571 35.2508 35.7587L40.4317 40.9397C40.7365 41.2444 40.8381 41.6508 40.8381 42.0571C40.8381 42.4635 40.6349 42.9714 40.3302 43.1746C39.7206 43.6825 38.8063 43.5809 38.1968 42.9714L32.5079 37.2825C32.2032 36.9778 32.1016 36.5714 32.1016 36.1651V28.9524C32 28.7492 31.8984 28.546 31.5936 28.546C31.2889 28.546 31.0857 28.7492 31.0857 29.054V30.5778H28.7492L29.7651 31.5936H31.0857V36.1651C31.0857 36.8762 31.3905 37.4857 31.7968 37.9936L37.4857 43.6825C37.9937 44.1905 38.7048 44.4952 39.4159 44.4952C40.0254 44.4952 40.5333 44.2921 41.0413 43.8857C41.6508 43.3778 41.9556 42.6667 41.9556 41.9555C41.9556 41.2444 41.6508 40.6349 41.2444 40.127L36.1651 35.2508Z" fill="#181F4E"/>
<path d="M27.6317 58.0063C28.1397 58.5143 28.7492 58.7174 29.4603 58.7174C30.1714 58.7174 30.7809 58.4127 31.2889 58.0063C31.4921 57.8032 31.4921 57.4984 31.2889 57.2952C31.0857 57.092 30.781 57.092 30.5778 57.2952C29.9683 57.9047 28.9524 57.9047 28.4444 57.2952L6.80635 35.7587C6.60317 35.5555 6.19683 35.5555 6.09524 35.7587C5.99365 35.9619 5.89206 36.2667 6.09524 36.4698L27.6317 58.0063Z" fill="#181F4E"/>
</svg>
