<svg width="64" height="64" viewBox="0 0 64 64" fill="none" xmlns="http://www.w3.org/2000/svg">
<path d="M28.1398 18.3873C30.07 18.3873 31.6954 16.7619 31.6954 14.8317C31.6954 12.9016 30.07 11.2762 28.1398 11.2762C26.2097 11.2762 24.5843 12.9016 24.5843 14.8317C24.5843 16.7619 26.2097 18.3873 28.1398 18.3873ZM28.1398 12.292C29.5621 12.292 30.6795 13.4095 30.6795 14.8317C30.6795 16.2539 29.5621 17.3714 28.1398 17.3714C26.7176 17.3714 25.6001 16.2539 25.6001 14.8317C25.6001 13.4095 26.7176 12.292 28.1398 12.292Z" fill="#181F4E"/>
<path d="M47.8478 24.3809C47.2382 29.0539 45.2065 33.3206 41.8541 36.673C41.6509 36.8762 41.6509 37.1809 41.8541 37.3841C41.9557 37.4857 42.0573 37.4857 42.2605 37.4857C42.4636 37.4857 42.5652 37.4857 42.6668 37.3841C46.2224 33.8285 48.3557 29.3587 48.8636 24.4825C48.762 24.4825 48.6605 24.4825 48.5589 24.4825C48.2541 24.4825 48.0509 24.3809 47.8478 24.3809Z" fill="#181F4E"/>
<path d="M48.4573 19.4031C48.5589 19.4031 48.6605 19.4031 48.7621 19.4031C48.2541 14.527 46.0192 9.95553 42.5652 6.50156C42.362 6.29839 42.0573 6.29839 41.8541 6.50156C41.6509 6.70474 41.6509 7.0095 41.8541 7.21267C45.2065 10.5651 47.2382 14.8317 47.7462 19.4031V19.5047C48.0509 19.4032 48.2541 19.4031 48.4573 19.4031Z" fill="#181F4E"/>
<path d="M48.8636 19.4031C48.762 19.4031 48.6605 19.4031 48.5589 19.4031C48.3557 19.4031 48.1525 19.4032 47.8478 19.5047V19.4031H15.9494C14.5271 19.4031 13.4097 20.5206 13.4097 21.9428C13.4097 23.3651 14.5271 24.4825 15.9494 24.4825H23.5684V35.6571L15.9494 53.9428C15.4414 55.2635 16.0509 56.6857 17.3716 57.2952C17.6763 57.3968 17.9811 57.4984 18.3874 57.4984C19.4033 57.4984 20.3176 56.8889 20.724 55.9746L27.8351 38.8063H28.5462L35.6573 55.9746C36.1652 57.2952 37.689 57.9047 39.0097 57.3968C40.3303 56.8889 40.9398 55.365 40.4319 54.0444L32.8128 35.7587V24.5841H47.8478V24.4825C48.0509 24.5841 48.2541 24.5841 48.5589 24.5841C48.6605 24.5841 48.762 24.5841 48.8636 24.5841C50.0827 24.3809 51.0986 23.3651 51.0986 22.0444C51.0986 20.7238 50.0827 19.6063 48.8636 19.4031ZM48.9652 23.3651C48.8636 23.3651 48.6605 23.4666 48.5589 23.4666C48.3557 23.4666 48.1525 23.4666 47.9494 23.3651C47.4414 23.1619 47.0351 22.5524 47.0351 21.9428C47.0351 21.3333 47.4414 20.7238 47.9494 20.5206C48.1525 20.419 48.3557 20.419 48.5589 20.419C48.762 20.419 48.8636 20.419 48.9652 20.5206C49.5747 20.7238 50.0827 21.3333 50.0827 21.9428C50.0827 22.5524 49.5747 23.1619 48.9652 23.3651ZM36.5716 55.4666L29.3589 37.9936C29.2573 37.7905 29.0541 37.6889 28.8509 37.6889H27.5303C27.3271 37.6889 27.124 37.7905 27.0224 37.9936L19.8097 55.4666C19.5049 56.2793 18.5906 56.5841 17.7779 56.2793C16.9652 55.9746 16.6605 55.0603 16.9652 54.2476L24.5843 35.8603C24.5843 35.7587 24.5843 35.7587 24.5843 35.6571V34.5397H31.6954V35.6571C31.6954 35.7587 31.6954 35.7587 31.6954 35.8603L39.3144 54.2476C39.6192 55.0603 39.3144 55.873 38.5017 56.2793C37.7906 56.6857 36.8763 56.2793 36.5716 55.4666ZM14.4255 21.9428C14.4255 21.1301 15.1367 20.419 15.9494 20.419H24.0763C24.889 20.419 25.6001 21.1301 25.6001 21.9428C25.6001 22.7555 24.889 23.4666 24.0763 23.4666H15.9494C15.1367 23.4666 14.4255 22.7555 14.4255 21.9428ZM32.2033 23.4666C31.8986 23.4666 31.6954 23.6698 31.6954 23.9746V33.6254H24.5843V24.3809C25.7017 24.1778 26.616 23.1619 26.616 21.9428C26.616 21.3333 26.4128 20.8254 26.1081 20.419H46.4255C46.1208 20.8254 45.9176 21.3333 45.9176 21.9428C45.9176 22.5524 46.1208 23.0603 46.4255 23.4666H32.2033Z" fill="#181F4E"/>
</svg>
