<svg width="64" height="64" viewBox="0 0 64 64" fill="none" xmlns="http://www.w3.org/2000/svg">
<g clip-path="url(#clip0_4580_1607)">
<path d="M22.0442 44.9016C22.9585 44.9016 23.8727 44.4953 24.5839 43.8857C25.295 43.2762 25.5997 42.3619 25.5997 41.346C25.5997 40.4318 25.1934 39.5175 24.5839 38.8064C23.1616 37.3841 20.9267 37.3841 19.6061 38.8064C18.1839 40.2286 18.1839 42.4635 19.6061 43.7841C20.2156 44.4952 21.1299 44.9016 22.0442 44.9016ZM20.3172 39.5175C20.8251 39.0095 21.4347 38.8064 22.1458 38.8064C22.8569 38.8064 23.4664 39.0095 23.9743 39.5175C24.4823 40.0254 24.6854 40.6349 24.6854 41.346C24.6854 42.0572 24.3807 42.6667 23.9743 43.1746C23.06 44.0889 21.3331 44.0889 20.4188 43.1746C19.3013 42.1587 19.3013 40.5333 20.3172 39.5175Z" fill="#181F4E"/>
<path d="M54.7553 15.0349C55.7712 14.0191 55.7712 12.3937 54.7553 11.4794C53.7394 10.4635 52.114 10.4635 51.1997 11.4794L38.6029 24.0762L38.2981 23.7714V4.46986C38.2981 3.04764 37.1807 1.93018 35.7585 1.93018C34.3362 1.93018 33.2188 3.04764 33.2188 4.46986V23.7714L32.5077 24.381L25.7013 31.1873L14.5267 20.0127C13.5108 18.9968 11.8854 18.9968 10.9712 20.0127C9.95528 21.0286 9.95528 22.654 10.9712 23.5683L27.4283 40.2286V54.8572H28.4442V40.0254C28.4442 39.9238 28.3426 39.7206 28.3426 39.6191L11.6823 22.9587C11.0727 22.3492 11.0727 21.4349 11.6823 20.8254C12.2918 20.2159 13.2061 20.2159 13.8156 20.8254L25.295 32.3048C25.4981 32.508 25.8029 32.508 26.0061 32.3048L32.8124 25.4984L37.7902 30.4762L31.5934 36.673C31.4918 36.7746 31.4918 36.8762 31.4918 37.0794V54.8572H32.5077V37.2826L54.7553 15.0349ZM33.5235 24.7873L34.0315 24.2794C34.1331 24.1778 34.1331 24.0762 34.1331 23.873V4.46986C34.1331 3.65716 34.8442 2.94605 35.6569 2.94605C36.4696 2.94605 37.1807 3.65716 37.1807 4.46986V23.9746C37.1807 24.0762 37.2823 24.2794 37.2823 24.381L38.095 25.1937C38.1966 25.2953 38.2981 25.2953 38.5013 25.2953C38.7045 25.2953 38.8061 25.1937 38.9077 25.1937L51.9108 12.1905C52.5204 11.581 53.4347 11.581 54.0442 12.1905C54.6537 12.8 54.6537 13.7143 54.0442 14.3238L38.6029 29.7651L33.5235 24.7873Z" fill="#181F4E"/>
<path d="M32.5077 54.8572H31.4918H28.4442H27.4283H11.6823C9.14259 54.8572 7.11084 56.9905 7.11084 59.4286V64H8.12671V59.4286C8.12671 57.4984 9.75211 55.873 11.6823 55.873H63.9997V54.8572H32.5077Z" fill="#181F4E"/>
</g>
<defs>
<clipPath id="clip0_4580_1607">
<rect width="64" height="64" fill="white"/>
</clipPath>
</defs>
</svg>
