<svg width="64" height="64" viewBox="0 0 64 64" fill="none" xmlns="http://www.w3.org/2000/svg">
<g clip-path="url(#clip0_4580_1277)">
<path d="M33.219 24.5841C34.2349 23.5682 34.2349 21.9428 33.219 21.0285L26.0063 13.8158C25.0921 12.9016 23.6698 12.8 22.654 13.6127V9.65077C22.654 8.22854 21.5365 7.11108 20.1143 7.11108C18.6921 7.11108 17.5746 8.22854 17.5746 9.65077V30.8825C17.8794 31.0857 18.2857 31.1873 18.5905 31.2889V9.65077C18.6921 8.83807 19.3016 8.12696 20.2159 8.12696C21.1302 8.12696 21.7397 8.83807 21.7397 9.65077V27.9365C21.7397 28.2412 21.9429 28.4444 22.2476 28.4444H23.3651C23.4667 28.4444 23.6698 28.3428 23.7714 28.3428L28.9524 23.1619C29.054 23.0603 29.054 22.9587 29.054 22.7555C29.054 22.5524 28.9524 22.4508 28.9524 22.3492L23.1619 16.5587C22.8571 16.2539 22.7556 15.8476 22.7556 15.4412C22.7556 15.0349 22.9587 14.6285 23.1619 14.3238C23.7714 13.7143 24.7873 13.7143 25.2952 14.3238L32.5079 21.5365C33.1175 22.146 33.1175 23.0603 32.5079 23.6698L25.9048 30.4762C25.8032 30.5778 25.8032 30.6793 25.8032 30.8825V30.9841C26.1079 31.1873 26.5143 31.2889 26.819 31.3905V31.0857L33.219 24.5841ZM27.8349 22.8571L23.1619 27.4285H22.654V17.6762L27.8349 22.8571Z" fill="#181F4E"/>
<path d="M22.2476 47.746C20.3175 47.746 18.6921 49.3714 18.6921 51.3016C18.6921 53.2317 20.3175 54.8571 22.2476 54.8571C24.1778 54.8571 25.8032 53.2317 25.8032 51.3016C25.8032 49.3714 24.1778 47.746 22.2476 47.746ZM22.2476 53.8412C20.8254 53.8412 19.7079 52.7238 19.7079 51.3016C19.7079 49.8793 20.8254 48.7619 22.2476 48.7619C23.6698 48.7619 24.7873 49.8793 24.7873 51.3016C24.7873 52.7238 23.5683 53.8412 22.2476 53.8412Z" fill="#181F4E"/>
<path d="M14.2222 36.673C13.2063 35.6571 11.581 35.6571 10.6667 36.673L4.97778 42.3619C4.06349 43.2762 3.86032 44.6984 4.57143 45.7143C4.97778 46.3238 5.68889 46.7301 6.4 46.7301C7.11111 46.8317 7.92381 46.527 8.43175 46.019L12.3936 42.0571L16.3556 46.019C16.8635 46.527 17.473 46.7301 18.1841 46.7301H26.3111C26.4127 46.7301 26.5143 46.7301 26.5143 46.7301H26.6159C27.1238 46.6285 27.6317 46.4254 28.0381 46.019L32 42.0571L35.9619 46.019C36.4698 46.527 37.0794 46.7301 37.7905 46.7301H45.9175C46.6286 46.7301 47.2381 46.4254 47.746 46.019L51.7079 42.0571L55.5683 45.9174C56.4825 46.8317 57.9048 46.9333 58.9206 46.2222C59.5302 45.8158 59.9365 45.1047 59.9365 44.3936C60.0381 43.6825 59.7333 42.8698 59.2254 42.3619L53.4349 36.5714C52.5206 35.6571 50.7936 35.6571 49.8794 36.5714L46.4254 40.0254V32C46.2222 32.1016 46.1206 32.1016 45.9175 32.2031C45.4095 32.4063 44.8 32.5079 44.2921 32.5079H45.4095V41.346C45.4095 41.5492 45.5111 41.7524 45.7143 41.8539C45.9175 41.9555 46.1206 41.8539 46.2222 41.7524L50.4889 37.4857C51.0984 36.8762 52.1143 36.8762 52.6222 37.4857L58.4127 43.2762C58.7175 43.5809 58.9206 43.9873 58.819 44.4952C58.819 44.9016 58.5143 45.3079 58.2095 45.6127C57.6 46.019 56.7873 45.9174 56.1778 45.4095L51.9111 41.1428C51.7079 40.9397 51.4032 40.9397 51.2 41.1428L46.9333 45.4095C46.6286 45.7143 46.2222 45.8158 45.8159 45.8158H37.6889C37.2825 45.8158 36.8762 45.6127 36.5714 45.4095L32.3048 41.1428C32.2032 41.0412 32.1016 41.0412 32 41.0412C31.8984 41.0412 31.6952 41.1428 31.5936 41.1428L27.327 45.4095C27.1238 45.5111 26.819 45.7143 26.4127 45.7143C26.3111 45.7143 26.2095 45.7143 26.1079 45.7143C25.7016 45.7143 25.2952 45.4095 24.9905 45.1047C24.5841 44.4952 24.6857 43.6825 25.1936 43.073L30.8825 37.3841C31.2889 36.9778 32 36.8762 32.5079 37.0793C32.7111 37.1809 32.8127 37.2825 33.0159 37.3841L37.2825 41.6508H37.3841C37.4857 41.7524 37.6889 41.7524 37.8921 41.7524C38.0952 41.6508 38.1968 41.4476 38.1968 41.2444V32.5079H44.1905C43.3778 32.5079 42.6667 32.3047 41.9556 32C41.6508 31.8984 41.346 31.6952 41.1429 31.492H39.2127C38.9079 31.6952 38.6032 31.8984 38.2984 32C38.0952 32.1016 37.8921 32.2031 37.6889 32.2031C37.5873 32.2031 37.4857 32.3047 37.2825 32.3047H37.1809V40.0254L33.727 36.5714C33.5238 36.3682 33.219 36.1651 32.9143 36.0635C32 35.6571 30.8825 35.8603 30.1714 36.5714L26.7175 40.0254V32.3047H26.6159C26.0063 32.1016 25.3968 31.8984 24.7873 31.492H22.8571C21.3333 32.6095 19.3016 32.8127 17.5746 32V40.0254L14.2222 36.673ZM17.7778 41.7524C17.8794 41.8539 18.1841 41.9555 18.2857 41.8539C18.4889 41.7524 18.5905 41.5492 18.5905 41.346V32.5079H25.7016V41.0412L24.4825 42.2603C23.5683 43.1746 23.4667 44.5968 24.1778 45.6127C24.1778 45.6127 24.1778 45.6127 24.1778 45.7143H18.0825C17.6762 45.7143 17.2698 45.5111 16.9651 45.3079L12.6984 41.0412C12.5968 40.9397 12.4952 40.9397 12.2921 40.9397C12.0889 40.9397 11.9873 40.9397 11.8857 41.0412L7.61905 45.3079C7.31429 45.6127 6.90794 45.8158 6.4 45.7143C5.99365 45.7143 5.5873 45.4095 5.28254 45.1047C4.87619 44.4952 4.97778 43.6825 5.48571 43.073L11.1746 37.3841C11.7841 36.7746 12.6984 36.7746 13.3079 37.3841L17.7778 41.7524Z" fill="#181F4E"/>
<path d="M52.8254 21.0285L45.6127 13.8158C44.6984 12.9016 43.2762 12.8 42.2603 13.6127V9.65077C42.2603 8.22854 41.1429 7.11108 39.7206 7.11108C38.2984 7.11108 37.1809 8.22854 37.1809 9.65077V31.2889C37.4857 31.1873 37.8921 31.0857 38.1968 30.8825V9.65077C38.1968 8.83807 38.9079 8.12696 39.7206 8.12696C40.5333 8.12696 41.2444 8.83807 41.2444 9.65077V27.8349C41.2444 28.1397 41.4476 28.3428 41.7524 28.3428H42.9714C43.073 28.3428 43.2762 28.2412 43.3778 28.2412L48.5587 23.0603C48.6603 22.9587 48.6603 22.8571 48.6603 22.6539C48.6603 22.4508 48.5587 22.3492 48.5587 22.2476L42.7682 16.4571C42.4635 16.1524 42.3619 15.8476 42.3619 15.4412C42.3619 15.0349 42.5651 14.6285 42.7682 14.4254C43.3778 13.8158 44.3936 13.8158 44.9016 14.4254L52.1143 21.6381C52.7238 22.2476 52.7238 23.1619 52.1143 23.7714L45.5111 30.4762C45.4095 30.5778 45.4095 30.6793 45.4095 30.8825V31.3905C45.9175 31.2889 46.4254 30.9841 46.8317 30.6793L52.8254 24.6857C53.8413 23.6698 53.8413 22.0444 52.8254 21.0285ZM47.4413 22.8571L42.7682 27.4285H42.2603V17.6762L47.4413 22.8571Z" fill="#181F4E"/>
<path d="M41.7524 47.746C39.8222 47.746 38.1968 49.3714 38.1968 51.3016C38.1968 53.2317 39.8222 54.8571 41.7524 54.8571C43.6825 54.8571 45.3079 53.2317 45.3079 51.3016C45.3079 49.3714 43.7841 47.746 41.7524 47.746ZM41.7524 53.8412C40.3302 53.8412 39.2127 52.7238 39.2127 51.3016C39.2127 49.8793 40.3302 48.7619 41.7524 48.7619C43.1746 48.7619 44.2921 49.8793 44.2921 51.3016C44.2921 52.7238 43.1746 53.8412 41.7524 53.8412Z" fill="#181F4E"/>
<path d="M63.2889 30.3746C61.7651 31.7968 59.0222 31.7968 57.4984 30.3746L56.6857 29.5619C56.4825 29.3587 56.1778 29.3587 55.9746 29.5619L55.1619 30.3746C53.5365 31.8984 50.9968 31.8984 49.3714 30.3746L48.5587 29.5619C48.3556 29.3587 48.0508 29.3587 47.8476 29.5619L47.0349 30.3746C46.9333 30.4762 46.8317 30.4762 46.7302 30.5778C46.3238 30.8825 45.8159 31.1873 45.3079 31.2889C43.8857 31.6952 42.3619 31.3905 41.2444 30.3746L40.4317 29.5619C40.2286 29.3587 39.9238 29.3587 39.7206 29.5619L38.9079 30.3746C38.7048 30.5778 38.4 30.7809 38.1968 30.8825C37.8921 31.0857 37.4857 31.1873 37.1809 31.2889C35.7587 31.6952 34.2349 31.3905 33.1175 30.3746L32.3048 29.5619C32.1016 29.3587 31.7968 29.3587 31.5936 29.5619L30.7809 30.3746C29.6635 31.3905 28.1397 31.6952 26.7175 31.2889C26.4127 31.1873 26.0063 31.0857 25.7016 30.8825C25.4984 30.7809 25.1936 30.5778 24.9905 30.3746L24.1778 29.5619C23.9746 29.3587 23.6698 29.3587 23.4667 29.5619L22.654 30.3746C21.8413 31.0857 20.8254 31.492 19.8095 31.492C19.4032 31.492 18.9968 31.3904 18.6921 31.2889C18.3873 31.1873 17.981 31.0857 17.6762 30.8825C17.473 30.7809 17.1683 30.5778 16.9651 30.3746L16.1524 29.5619C15.9492 29.3587 15.6444 29.3587 15.4413 29.5619L14.6286 30.3746C13.0032 31.8984 10.4635 31.8984 8.83809 30.3746L8.0254 29.5619C7.82222 29.3587 7.51746 29.3587 7.31429 29.5619L6.50159 30.3746C4.87619 31.8984 2.33651 31.8984 0.711111 30.3746L0 29.7651V31.1873C1.93016 33.0158 5.18095 33.0158 7.11111 31.1873L7.61905 30.7809L8.12698 31.1873C10.0571 33.0158 13.3079 33.0158 15.2381 31.1873L15.746 30.7809L16.254 31.1873C16.6603 31.5936 17.1683 31.8984 17.6762 32.1016C19.4032 32.8127 21.4349 32.7111 22.9587 31.5936C23.1619 31.492 23.2635 31.3905 23.4667 31.1873L23.9746 30.7809L24.4825 31.1873C24.6857 31.2889 24.7873 31.3905 24.9905 31.5936C25.4984 32 26.1079 32.3047 26.819 32.4063H26.9206C28.546 32.8127 30.3746 32.4063 31.6952 31.1873L32.2032 30.7809L32.7111 31.1873C34.0317 32.4063 35.7587 32.8127 37.4857 32.4063H37.5873C37.6889 32.4063 37.8921 32.3047 37.9937 32.3047C38.1968 32.2031 38.4 32.2031 38.6032 32.1016C38.9079 32 39.2127 31.7968 39.5175 31.5936C39.7206 31.492 39.8222 31.3905 40.0254 31.1873L40.5333 30.7809L41.0413 31.1873C41.1429 31.2889 41.346 31.3905 41.5492 31.5936C41.854 31.7968 42.0571 32 42.3619 32.1016C43.073 32.4063 43.7841 32.6095 44.5968 32.6095C45.2063 32.6095 45.7143 32.5079 46.2222 32.3047C46.4254 32.2031 46.527 32.2031 46.7302 32.1016C47.2381 31.8984 47.746 31.5936 48.1524 31.1873L48.6603 30.7809L49.1683 31.1873C51.0984 33.0158 54.3492 33.0158 56.2794 31.1873L56.7873 30.7809L57.2952 31.1873C58.2095 32.1016 59.5302 32.6095 60.8508 32.6095C62.1714 32.6095 63.4921 32.1016 64.4063 31.1873V29.7651L63.2889 30.3746Z" fill="#181F4E"/>
</g>
<defs>
<clipPath id="clip0_4580_1277">
<rect width="64" height="64" fill="white"/>
</clipPath>
</defs>
</svg>
