<svg width="64" height="64" viewBox="0 0 64 64" fill="none" xmlns="http://www.w3.org/2000/svg">
<path d="M43.8858 21.5365C44.8 21.5365 45.7143 21.1302 46.4254 20.5207C47.1365 19.9111 47.4413 18.9969 47.4413 17.981C47.4413 17.0667 47.035 16.1524 46.4254 15.4413C45.0032 14.0191 42.7683 14.0191 41.4477 15.4413C40.0254 16.8635 40.0254 19.0984 41.4477 20.4191C41.9556 21.1302 42.8699 21.5365 43.8858 21.5365ZM45.6127 16.1524C46.1207 16.6603 46.3238 17.2699 46.3238 17.981C46.3238 18.6921 46.0191 19.3016 45.6127 19.8096C44.6985 20.7238 42.9715 20.7238 42.0572 19.8096C41.0413 18.7937 41.0413 17.1683 42.0572 16.254C42.5651 15.7461 43.1746 15.5429 43.8858 15.5429C44.5969 15.5429 45.1048 15.7461 45.6127 16.1524Z" fill="#181F4E"/>
<path d="M48.5588 21.2318L44.5969 25.1937L40.635 21.2318L34.9461 15.4413C33.9302 14.4254 32.3048 14.4254 31.3905 15.4413L25.6 21.2318C24.5842 22.2476 24.5842 23.873 25.6 24.7873C26.108 25.2953 26.7175 25.4984 27.4286 25.4984C28.1397 25.4984 28.7492 25.1937 29.2572 24.7873L33.2191 20.8254L34.6413 22.2476L26.4127 30.4762C25.8032 31.0857 25.6 31.8984 25.7016 32.6096L12.5969 45.6127C11.581 46.6286 11.581 48.254 12.5969 49.1683C13.1048 49.6762 13.7143 49.8794 14.4254 49.8794C15.035 49.8794 15.7461 49.6762 16.254 49.1683L28.8508 36.5715L32.4064 40.127L27.0223 45.5111C26.0064 46.527 26.0064 48.1524 27.0223 49.0667C27.5302 49.5746 28.1397 49.7778 28.8508 49.7778C29.4604 49.7778 30.1715 49.5746 30.6794 49.0667L37.8921 41.854C38.908 40.8381 38.908 39.2127 37.8921 38.2984L33.2191 33.6254L39.7207 27.1238L42.9715 30.3746C43.4794 30.8826 44.0889 31.0857 44.8 31.0857C45.5111 31.0857 46.1207 30.781 46.6286 30.3746L52.4191 24.5842C52.927 24.0762 53.1302 23.4667 53.1302 22.7556C53.1302 22.0445 52.8254 21.435 52.4191 20.927C51.0984 20.2159 49.4731 20.2159 48.5588 21.2318ZM43.4794 29.8667L38.5016 24.7873C38.5016 24.7873 38.4 24.7873 38.4 24.6857C38.1969 24.5842 37.9937 24.5842 37.7905 24.7873C37.5873 24.9905 37.5873 25.2953 37.7905 25.4984L38.908 26.6159L32.4064 33.1175L28.7492 29.4603L36.2667 21.9429C37.181 21.0286 38.908 21.0286 39.8223 21.9429L44.1905 26.3111C44.3937 26.5143 44.6985 26.5143 44.9016 26.3111L49.1683 22.0445C49.7778 21.435 50.6921 21.435 51.3016 22.0445C51.6064 22.3492 51.708 22.7556 51.708 23.1619C51.708 23.5683 51.5048 23.9746 51.3016 24.2794L45.5112 30.0699C45.2064 30.3746 44.9016 30.4762 44.3937 30.4762C44.1905 30.273 43.7842 30.1715 43.4794 29.8667ZM27.6318 48.5588C27.327 48.254 27.2254 47.8476 27.2254 47.4413C27.2254 47.0349 27.4286 46.6286 27.6318 46.3238L33.4223 40.5334C33.5239 40.4318 33.5238 40.3302 33.5238 40.127C33.5238 39.9238 33.4223 39.8223 33.4223 39.7207L26.9207 33.2191C26.8191 33.1175 26.7175 32.9143 26.6159 32.8127C26.5143 32.6096 26.5143 32.4064 26.5143 32.2032C26.5143 31.7969 26.6159 31.3905 26.9207 31.0857L28.0381 29.9683L36.9778 38.908C37.5873 39.5175 37.5873 40.4318 36.9778 41.0413L29.7651 48.254C29.2572 49.1683 28.2413 49.1683 27.6318 48.5588ZM13.308 48.5588C12.6985 47.9492 12.6985 47.035 13.308 46.4254L25.9048 33.8286C26.0064 33.9302 26.108 34.1334 26.2096 34.235L28.0381 36.0635L15.4413 48.5588C14.8318 49.1683 13.9175 49.1683 13.308 48.5588ZM32.7112 19.8096L28.4445 24.0762C27.835 24.6857 26.8191 24.6857 26.3112 24.0762C25.7016 23.4667 25.7016 22.5524 26.3112 21.9429L32.1016 16.1524C32.7112 15.5429 33.6254 15.5429 34.235 16.1524L38.2985 20.2159C37.3842 20.2159 36.3683 20.5207 35.6572 21.2318L35.3524 21.5365L33.5238 19.708C33.2191 19.6064 32.9143 19.6064 32.7112 19.8096Z" fill="#181F4E"/>
</svg>
