<svg width="64" height="64" viewBox="0 0 64 64" fill="none" xmlns="http://www.w3.org/2000/svg">
<path d="M55.6698 5.58728C55.6698 5.58728 52.2158 6.60315 52.0126 6.60315C51.6063 6.70474 51.3015 7.11109 51.3015 7.61903C51.3015 8.12696 51.6063 8.43172 52.0126 8.6349C52.2158 8.6349 55.6698 9.65077 55.6698 9.65077H55.7714C55.873 9.65077 55.9745 9.65077 56.0761 9.54918C56.1777 9.4476 56.2793 9.34601 56.2793 9.14284V6.09522C56.2793 5.89204 56.1777 5.79045 56.0761 5.68887C55.9745 5.58728 55.7714 5.58728 55.6698 5.58728ZM55.2634 8.53331C53.1301 7.92379 52.419 7.72061 52.2158 7.72061C52.419 7.61903 53.1301 7.51744 55.2634 6.90792V8.53331Z" fill="#181F4E"/>
<path d="M43.4793 16.8635L38.5015 21.8412H23.2634C22.5523 21.8412 21.9428 22.146 21.4349 22.5524L17.473 26.5143L13.5111 22.5524C13.4095 22.4508 13.4095 22.4508 13.3079 22.3492C13.3079 22.3492 13.2063 22.3492 13.2063 22.2476C13.1047 22.146 13.0031 22.146 13.0031 22.146C12.9015 22.146 12.9015 22.0444 12.7999 22.0444C12.6984 22.0444 12.5968 21.9428 12.5968 21.9428C12.4952 21.9428 12.4952 21.8412 12.3936 21.8412C12.292 21.8412 12.1904 21.8412 12.0888 21.8412C11.9872 21.8412 11.9872 21.8412 11.8857 21.8412C11.7841 21.8412 11.6825 21.8412 11.6825 21.8412C11.5809 21.8412 11.4793 21.8412 11.3777 21.8412C11.2761 21.8412 11.1745 21.9428 11.1745 21.9428C11.073 21.9428 11.073 21.9428 10.9714 22.0444C10.8698 22.0444 10.8698 22.146 10.7682 22.146C10.6666 22.146 10.6666 22.2476 10.565 22.2476C10.2603 22.3492 10.1587 22.4508 10.1587 22.4508L10.0571 22.5524C9.9555 22.6539 9.85391 22.7555 9.85391 22.8571C9.75232 22.9587 9.65074 23.1619 9.54915 23.3651C9.44756 23.4666 9.44756 23.6698 9.44756 23.7714V23.873C9.44756 24.0762 9.34598 24.1778 9.34598 24.3809C9.34598 24.5841 9.34598 24.6857 9.44756 24.8889V24.9905C9.44756 25.092 9.54915 25.2952 9.54915 25.3968C9.65074 25.6 9.75232 25.7016 9.85391 25.9047L9.9555 26.0063C10.0571 26.1079 10.0571 26.1079 10.1587 26.2095L11.4793 27.5301V26.9206C11.6825 26.9206 11.7841 27.0222 11.9872 27.0222C12.0888 27.0222 12.1904 27.0222 12.292 27.0222C12.3936 27.0222 12.3936 27.0222 12.4952 27.0222C13.5111 26.819 14.3238 25.9047 14.5269 24.8889L17.3714 27.7333C17.473 27.8349 17.5745 27.8349 17.7777 27.8349C17.9809 27.8349 18.0825 27.7333 18.1841 27.7333L22.4507 23.4666C22.7555 23.1619 23.1618 23.0603 23.5682 23.0603H39.0095C39.1111 23.0603 39.3142 22.9587 39.4158 22.9587L44.5968 17.7778C45.2063 17.1682 46.1206 17.1682 46.7301 17.7778C47.0349 18.0825 47.1365 18.4889 47.1365 18.8952C47.1365 19.3016 46.9333 19.7079 46.7301 20.0127L40.6349 25.4984C40.3301 25.8032 39.9238 25.9047 39.5174 25.9047H31.3904C31.0857 25.9047 30.8825 26.1079 30.8825 26.4127V36.0635H23.7714V27.2254C23.7714 27.0222 23.6698 26.819 23.4666 26.7174C23.2634 26.6159 23.0603 26.7174 22.9587 26.819L18.692 31.0857C18.0825 31.6952 17.0666 31.6952 16.5587 31.0857L12.3936 26.9206V28.4444L15.8476 31.8984C16.7618 32.8127 18.4888 32.8127 19.4031 31.8984L22.8571 28.4444V37.5873L9.1428 51.2C8.12693 52.2159 8.12693 53.8413 9.1428 54.7555C10.1587 55.7714 11.7841 55.7714 12.6984 54.7555L26.3111 41.1428H26.819V47.746L20.419 54.146C19.9111 54.6539 19.7079 55.2635 19.7079 55.9746C19.7079 56.6857 20.0126 57.2952 20.419 57.8032C20.9269 58.3111 21.5365 58.5143 22.2476 58.5143C22.9587 58.5143 23.5682 58.2095 24.0761 57.8032L31.2888 50.5905C31.7968 50.0825 31.9999 49.473 31.9999 48.7619V26.9206H39.619C40.3301 26.9206 40.9396 26.6159 41.4476 26.2095L47.238 20.419C47.746 19.9111 47.9491 19.3016 47.9491 18.5905C47.9491 17.8793 47.6444 17.2698 47.238 16.7619C46.1206 15.8476 44.4952 15.8476 43.4793 16.8635ZM12.292 25.8032C12.0888 25.9047 11.9872 25.9047 11.7841 25.9047C11.5809 25.9047 11.4793 25.9047 11.2761 25.8032C10.9714 25.7016 10.7682 25.4984 10.565 25.2952C10.565 25.1936 10.4634 25.1936 10.4634 25.092C10.4634 24.9905 10.4634 24.9905 10.3618 24.8889C10.3618 24.8889 10.3618 24.8889 10.3618 24.7873C10.3618 24.6857 10.3618 24.5841 10.3618 24.4825C10.3618 24.3809 10.3618 24.2793 10.3618 24.1778C10.3618 24.1778 10.3618 24.1778 10.3618 24.0762C10.3618 23.9746 10.3618 23.873 10.4634 23.873C10.565 23.6698 10.6666 23.5682 10.7682 23.3651C10.8698 23.2635 11.073 23.1619 11.2761 23.0603C11.2761 23.0603 11.2761 23.0603 11.3777 23.0603C11.5809 22.9587 11.6825 22.9587 11.8857 22.9587C12.0888 22.9587 12.1904 22.9587 12.3936 23.0603C12.5968 23.1619 12.6984 23.2635 12.9015 23.3651C13.2063 23.6698 13.3079 23.9746 13.3079 24.4825C13.3079 25.092 12.9015 25.6 12.292 25.8032ZM30.8825 48.7619C30.8825 49.1682 30.6793 49.5746 30.4761 49.8793L23.2634 57.092C22.6539 57.7016 21.638 57.7016 21.1301 57.092C20.8253 56.7873 20.7238 56.3809 20.7238 55.9746C20.7238 55.5682 20.9269 55.1619 21.1301 54.8571L27.7333 48.2539C27.8349 48.1524 27.8349 48.0508 27.8349 47.8476V40.6349C27.8349 40.3301 27.6317 40.127 27.3269 40.127H26.1079C26.0063 40.127 25.8031 40.2286 25.7015 40.2286L11.9872 54.0444C11.3777 54.654 10.4634 54.654 9.85391 54.0444C9.24439 53.4349 9.24439 52.5206 9.85391 51.9111L23.6698 38.0952C23.7714 37.9936 23.7714 37.892 23.7714 37.6889V36.9778H30.8825V48.7619Z" fill="#181F4E"/>
<path d="M11.5809 21.8412C11.6825 21.8412 11.7841 21.8412 11.7841 21.8412C11.8857 21.8412 11.8857 21.8412 11.9872 21.8412C12.0888 21.8412 12.1904 21.8412 12.292 21.8412V16.6603C14.019 16.3555 15.3396 14.4254 15.3396 12.1905C15.3396 9.65077 13.7142 7.61903 11.7841 7.61903C9.85391 7.61903 8.22852 9.65077 8.22852 12.1905C8.22852 14.527 9.54915 16.3555 11.2761 16.6603V21.8412C11.3777 21.8412 11.4793 21.8412 11.5809 21.8412ZM9.24439 12.1905C9.24439 10.2603 10.3618 8.6349 11.7841 8.6349C13.2063 8.6349 14.3238 10.2603 14.3238 12.1905C14.3238 14.1206 13.2063 15.746 11.7841 15.746C10.3618 15.746 9.24439 14.1206 9.24439 12.1905Z" fill="#181F4E"/>
<path d="M12.292 27.0222V26.819C12.1904 26.819 12.1904 26.819 12.0888 26.819C11.9872 26.819 11.8857 26.819 11.7841 26.819C11.5809 26.819 11.4793 26.819 11.2761 26.7174V28.4444C11.2761 28.7492 11.4793 28.9524 11.7841 28.9524C12.0888 28.9524 12.292 28.7492 12.292 28.4444V27.0222Z" fill="#181F4E"/>
<path d="M27.3269 20.8254C29.2571 20.8254 30.8825 19.2 30.8825 17.2698C30.8825 15.3397 29.2571 13.7143 27.3269 13.7143C25.3968 13.7143 23.7714 15.3397 23.7714 17.2698C23.7714 19.2 25.3968 20.8254 27.3269 20.8254ZM27.3269 14.7301C28.7491 14.7301 29.8666 15.8476 29.8666 17.2698C29.8666 18.692 28.7491 19.8095 27.3269 19.8095C25.9047 19.8095 24.7872 18.692 24.7872 17.2698C24.7872 15.8476 25.9047 14.7301 27.3269 14.7301Z" fill="#181F4E"/>
</svg>
