<svg width="64" height="64" viewBox="0 0 64 64" fill="none" xmlns="http://www.w3.org/2000/svg">
<path d="M49.9811 28.4445C48.8637 28.4445 47.9494 29.3587 47.9494 30.4762C47.9494 31.5937 48.8637 32.5079 49.9811 32.5079C51.0986 32.5079 52.0129 31.5937 52.0129 30.4762C52.0129 29.3587 51.0986 28.4445 49.9811 28.4445ZM49.9811 31.4921C49.3716 31.4921 48.9653 31.0857 48.9653 30.4762C48.9653 29.8667 49.3716 29.4603 49.9811 29.4603C50.5907 29.4603 50.997 29.8667 50.997 30.4762C50.997 31.0857 50.5907 31.4921 49.9811 31.4921Z" fill="#181F4E"/>
<path d="M30.07 12.3937L32.2034 10.2603C32.4065 10.0572 32.7113 10.0572 32.9145 10.2603L33.6256 10.9714C33.8288 11.1746 33.8288 11.4794 33.6256 11.6825L31.4923 13.8159C31.0859 14.2222 30.578 14.7302 30.1716 15.1365C30.578 15.1365 30.9843 15.2381 31.3907 15.3397C31.6954 15.0349 32.0002 14.8318 32.2034 14.527L34.3367 12.3937C34.9462 11.7841 34.9462 10.8699 34.3367 10.2603L33.6256 9.54921C33.0161 8.93969 32.1018 8.93969 31.4923 9.54921L29.3589 11.6825C25.6002 15.4413 21.943 19.5048 18.4891 23.6698C18.7938 23.7714 19.0986 23.873 19.4034 24.1778C22.7557 20.0127 26.3113 16.0508 30.07 12.3937Z" fill="#181F4E"/>
<path d="M26.4129 18.5905C24.2796 20.6222 22.0446 22.5524 19.7081 24.381L20.4192 25.0921C22.5526 23.3651 24.5843 21.5365 26.6161 19.7079C26.5145 19.4032 26.4129 18.9968 26.4129 18.5905Z" fill="#181F4E"/>
<path d="M41.8542 45.2064V37.181C42.3621 36.673 42.5653 36.0635 42.5653 35.454C42.5653 34.7429 42.2605 34.1333 41.8542 33.6254L32.5081 24.2794C31.1875 22.9587 28.851 22.9587 27.5303 24.2794L23.5684 28.2413L19.7081 24.381L19.5049 24.1778C19.4034 24.0762 19.4034 24.0762 19.3018 23.9746C18.997 23.7714 18.6923 23.5683 18.3875 23.4667C17.5748 23.2635 16.5589 23.4667 15.9494 24.0762C15.543 24.6857 15.2383 25.3968 15.2383 26.0064C15.2383 26.6159 15.543 27.327 15.9494 27.8349L21.7399 33.6254C22.2478 34.1333 22.8573 34.3365 23.5684 34.3365C24.2796 34.3365 24.8891 34.1333 25.397 33.6254L28.6478 30.3746L35.1494 36.8762L20.2161 51.6064C19.5049 52.3175 19.3018 53.4349 19.7081 54.3492C20.1145 55.3651 21.0288 55.873 22.0446 55.873C22.7557 55.873 23.3653 55.5683 23.8732 55.1619L36.8764 42.1587V46.2222C36.8764 46.9333 37.1811 47.5429 37.5875 48.0508L44.8002 55.2635C45.3081 55.7714 45.9176 55.9746 46.6288 55.9746C47.3399 55.9746 47.9494 55.7714 48.4573 55.2635C49.4732 54.2476 49.4732 52.6222 48.4573 51.7079L41.8542 45.2064ZM45.4097 54.5524L38.197 47.3397C37.8922 47.0349 37.7907 46.6286 37.7907 46.2222V38.2984C37.7907 38.1968 37.6891 37.9937 37.6891 37.8921H37.5875L36.47 36.7746L40.1272 33.1175L41.2446 34.2349C41.3462 34.3365 41.4478 34.4381 41.5494 34.6413V34.7429C41.651 34.8445 41.651 35.0476 41.651 35.1492V35.2508C41.651 35.454 41.651 35.5556 41.5494 35.7587V35.8603L41.4478 35.9619C41.3462 36.0635 41.3462 36.1651 41.2446 36.2667L41.0415 36.5714C40.9399 36.673 40.9399 36.7746 40.9399 36.9778V45.4095C40.9399 45.5111 41.0415 45.7143 41.0415 45.8159L47.6446 52.4191C48.2542 53.0286 48.2542 53.9429 47.6446 54.5524C47.0351 55.1619 46.0192 55.1619 45.4097 54.5524ZM20.6224 54.0445C20.4192 53.6381 20.4192 52.927 20.9272 52.4191L35.7589 37.5873L36.7748 38.6032V40.8381L23.0605 54.5524C22.7557 54.8572 22.3494 54.9587 21.943 54.9587C21.2319 54.9587 20.8256 54.4508 20.6224 54.0445ZM30.3748 28.546C30.578 28.3429 30.578 28.0381 30.3748 27.8349C30.1716 27.6318 29.9684 27.6318 29.7653 27.7333C29.7653 27.7333 29.6637 27.7333 29.6637 27.8349L24.4827 33.0159C23.8732 33.6254 22.9589 33.6254 22.3494 33.0159L16.5589 27.2254C16.4573 26.8191 16.2542 26.4127 16.2542 26.0064C16.2542 25.6 16.4573 25.1937 16.6605 24.8889C16.9653 24.5841 17.27 24.4825 17.6764 24.4825C18.0827 24.4825 18.3875 24.5841 18.6922 24.7873C18.6922 24.7873 18.7938 24.7873 18.7938 24.8889L23.0605 29.1556C23.2637 29.3587 23.5684 29.3587 23.7716 29.1556L28.1399 24.7873C28.6478 24.2794 29.2573 24.0762 29.9684 24.0762C30.6796 24.0762 31.2891 24.381 31.797 24.7873L39.3145 32.3048L35.7589 35.8603L29.2573 29.3587L30.3748 28.546Z" fill="#181F4E"/>
<path d="M29.9684 15.0349C28.0383 15.0349 26.4129 16.5587 26.4129 18.5905C26.4129 18.9968 26.5145 19.4032 26.6161 19.7079C27.124 21.1302 28.4446 22.146 29.9684 22.146C31.8986 22.146 33.524 20.5206 33.524 18.5905C33.524 17.0667 32.6097 15.8476 31.2891 15.3397C30.8827 15.2381 30.4764 15.1365 30.07 15.1365C30.07 15.1365 30.07 15.0349 29.9684 15.0349ZM29.9684 21.1302C28.6478 21.1302 27.6319 20.2159 27.4288 18.9968C27.4288 18.8952 27.4288 18.7937 27.4288 18.5905C27.4288 18.0825 27.5303 17.6762 27.8351 17.2698C28.0383 16.8635 28.343 16.5587 28.7494 16.3556C29.1557 16.1524 29.5621 16.0508 29.9684 16.0508C30.1716 16.0508 30.2732 16.0508 30.4764 16.1524C31.5938 16.3556 32.5081 17.3714 32.5081 18.5905C32.5081 20.0127 31.3907 21.1302 29.9684 21.1302Z" fill="#181F4E"/>
</svg>
