<svg width="64" height="64" viewBox="0 0 64 64" fill="none" xmlns="http://www.w3.org/2000/svg">
<path d="M59.5558 3.91107H49.6891C49.5113 3.91107 49.4224 3.99996 49.3336 4.08885C49.2447 4.17774 49.2447 4.35552 49.2447 4.53329L51.2002 12.4444C51.2891 12.6222 51.4669 12.8 51.6447 12.8H57.5113C57.778 12.8 57.9558 12.6222 57.9558 12.4444L59.9113 4.53329C59.9113 4.35552 59.9113 4.26663 59.8224 4.08885C59.8224 3.99996 59.7336 3.91107 59.5558 3.91107ZM57.2447 11.8222H52.0891L50.4002 4.88885H59.0224L57.2447 11.8222Z" fill="#181F4E"/>
<path d="M51.7336 23.6444H29.0669L24.978 19.5555V12.7111C24.978 12.5333 24.978 12.3555 24.8891 12.1777C24.6224 12.4444 24.2669 12.6222 23.9113 12.8V19.7333C23.9113 19.8222 24.0002 20 24.0891 20.0888L28.5336 24.5333C28.6224 24.6222 28.7113 24.7111 28.8891 24.7111H51.7336C52.5336 24.7111 53.2447 25.3333 53.2447 26.2222C53.2447 27.0222 52.6224 27.7333 51.7336 27.7333H35.9113C35.6447 27.7333 35.378 27.9111 35.378 28.2666V37.6H28.4447V29.0666C28.4447 28.9777 28.3558 28.8 28.2669 28.7111L21.3336 21.7777C21.0669 21.5111 20.8891 21.1555 20.8891 20.7111V12.9777C20.5336 12.8 20.2669 12.6222 19.9113 12.3555C19.9113 12.5333 19.8224 12.7111 19.8224 12.8888V20.8C19.8224 21.4222 20.0891 22.0444 20.5336 22.5777L27.378 29.4222V47.5555H23.9113C22.578 47.5555 21.4224 48.6222 21.4224 50.0444C21.4224 51.3777 22.4891 52.4444 23.8224 52.5333L21.3336 54.9333C20.8891 55.3777 20.6224 56 20.6224 56.7111C20.6224 57.4222 20.8891 57.9555 21.3336 58.4888C21.778 58.9333 22.4002 59.2 23.1113 59.2C23.8224 59.2 24.3558 58.9333 24.8891 58.4888L31.1113 52.2666H34.0447C35.378 52.2666 36.5336 51.2 36.5336 49.7777V28.5333H51.8224C53.1558 28.5333 54.3113 27.4666 54.3113 26.0444C54.1336 24.7111 53.0669 23.6444 51.7336 23.6444ZM22.6669 49.6888C22.6669 48.8888 23.2891 48.1777 24.178 48.1777H27.5558V48.6222L25.0669 51.1111H24.0891C23.2891 51.2 22.6669 50.5777 22.6669 49.6888ZM35.4669 47.7333V49.6888C35.4669 50.4888 34.8447 51.2 33.9558 51.2H32.0002C32.3558 50.7555 32.5336 50.2222 32.5336 49.6888V41.7777C32.5336 41.5111 32.3558 41.2444 32.0002 41.2444C31.7336 41.2444 31.4669 41.4222 31.4669 41.7777V49.6888C31.4669 50.0444 31.2891 50.4888 31.0224 50.7555L24.0891 57.6888C23.5558 58.2222 22.578 58.2222 22.0447 57.6888C21.778 57.4222 21.6002 57.0666 21.6002 56.6222C21.6002 56.1777 21.778 55.8222 22.0447 55.5555L28.4447 49.1555C28.5336 49.0666 28.6224 48.9777 28.6224 48.8V38.3111H35.5558V47.7333H35.4669Z" fill="#181F4E"/>
<path d="M32.0002 22.6666C33.8669 22.6666 35.4669 21.1555 35.4669 19.2C35.4669 17.2444 33.9558 15.7333 32.0002 15.7333C30.1336 15.7333 28.5336 17.2444 28.5336 19.2C28.5336 21.1555 30.1336 22.6666 32.0002 22.6666ZM32.0002 16.7111C33.3336 16.7111 34.4891 17.7777 34.4891 19.2C34.4891 20.5333 33.4224 21.6888 32.0002 21.6888C30.578 21.6888 29.5113 20.6222 29.5113 19.2C29.5113 17.8666 30.6669 16.7111 32.0002 16.7111Z" fill="#181F4E"/>
<path d="M22.4891 13.1555C23.0224 13.1555 23.5558 13.0666 24.0002 12.8C24.3558 12.6222 24.6224 12.4444 24.978 12.1777C25.6002 11.5555 26.0447 10.6666 26.0447 9.68885C26.0447 7.82218 24.5336 6.22218 22.578 6.22218C20.6224 6.22218 19.1113 7.73329 19.1113 9.68885C19.1113 10.6666 19.4669 11.5555 20.178 12.1777C20.4447 12.4444 20.8002 12.6222 21.1558 12.8C21.4224 12.9777 21.9558 13.1555 22.4891 13.1555ZM20.5336 11.2C20.178 10.7555 20.0002 10.3111 20.0002 9.68885C20.0002 8.35552 21.0669 7.19996 22.4891 7.19996C23.9113 7.19996 24.978 8.26663 24.978 9.68885C24.978 10.2222 24.8002 10.7555 24.4447 11.2C24.2669 11.4666 24.0002 11.6444 23.7336 11.8222C23.378 12 22.9335 12.1777 22.4891 12.1777C22.0447 12.1777 21.6002 12.0888 21.2447 11.8222C20.978 11.6444 20.7113 11.4666 20.5336 11.2Z" fill="#181F4E"/>
</svg>
