<svg width="64" height="64" viewBox="0 0 64 64" fill="none" xmlns="http://www.w3.org/2000/svg">
<path d="M29.9686 56.9905C30.2491 56.9905 30.4765 56.7631 30.4765 56.4825C30.4765 56.202 30.2491 55.9746 29.9686 55.9746C29.688 55.9746 29.4606 56.202 29.4606 56.4825C29.4606 56.7631 29.688 56.9905 29.9686 56.9905Z" fill="#181F4E"/>
<path d="M31.4924 56.9905C31.7729 56.9905 32.0003 56.7631 32.0003 56.4825C32.0003 56.202 31.7729 55.9746 31.4924 55.9746C31.2119 55.9746 30.9844 56.202 30.9844 56.4825C30.9844 56.7631 31.2119 56.9905 31.4924 56.9905Z" fill="#181F4E"/>
<path d="M28.4448 56.9905C28.7253 56.9905 28.9527 56.7631 28.9527 56.4825C28.9527 56.202 28.7253 55.9746 28.4448 55.9746C28.1642 55.9746 27.9368 56.202 27.9368 56.4825C27.9368 56.7631 28.1642 56.9905 28.4448 56.9905Z" fill="#181F4E"/>
<path d="M23.8733 56.9905C24.1539 56.9905 24.3813 56.7631 24.3813 56.4825C24.3813 56.202 24.1539 55.9746 23.8733 55.9746C23.5928 55.9746 23.3654 56.202 23.3654 56.4825C23.3654 56.7631 23.5928 56.9905 23.8733 56.9905Z" fill="#181F4E"/>
<path d="M26.921 56.9905C27.2015 56.9905 27.4289 56.7631 27.4289 56.4825C27.4289 56.202 27.2015 55.9746 26.921 55.9746C26.6404 55.9746 26.413 56.202 26.413 56.4825C26.413 56.7631 26.6404 56.9905 26.921 56.9905Z" fill="#181F4E"/>
<path d="M25.3971 55.9746C25.0924 55.9746 24.8892 56.1778 24.8892 56.4825C24.8892 56.7873 25.0924 56.9905 25.3971 56.9905C25.7019 56.9905 25.9051 56.7873 25.9051 56.4825C25.9051 56.1778 25.7019 55.9746 25.3971 55.9746Z" fill="#181F4E"/>
<path d="M34.54 55.9746C34.2352 55.9746 34.0321 56.1778 34.0321 56.4825C34.0321 56.7873 34.2352 56.9905 34.54 56.9905C34.8448 56.9905 35.0479 56.7873 35.0479 56.4825C35.0479 56.1778 34.7432 55.9746 34.54 55.9746Z" fill="#181F4E"/>
<path d="M40.5337 56.9905C40.8142 56.9905 41.0416 56.7631 41.0416 56.4825C41.0416 56.202 40.8142 55.9746 40.5337 55.9746C40.2531 55.9746 40.0257 56.202 40.0257 56.4825C40.0257 56.7631 40.2531 56.9905 40.5337 56.9905Z" fill="#181F4E"/>
<path d="M39.0098 56.9905C39.2904 56.9905 39.5178 56.7631 39.5178 56.4825C39.5178 56.202 39.2904 55.9746 39.0098 55.9746C38.7293 55.9746 38.5019 56.202 38.5019 56.4825C38.5019 56.7631 38.7293 56.9905 39.0098 56.9905Z" fill="#181F4E"/>
<path d="M42.0575 56.9905C42.338 56.9905 42.5654 56.7631 42.5654 56.4825C42.5654 56.202 42.338 55.9746 42.0575 55.9746C41.7769 55.9746 41.5495 56.202 41.5495 56.4825C41.5495 56.7631 41.7769 56.9905 42.0575 56.9905Z" fill="#181F4E"/>
<path d="M37.486 56.9905C37.7666 56.9905 37.994 56.7631 37.994 56.4825C37.994 56.202 37.7666 55.9746 37.486 55.9746C37.2055 55.9746 36.9781 56.202 36.9781 56.4825C36.9781 56.7631 37.2055 56.9905 37.486 56.9905Z" fill="#181F4E"/>
<path d="M22.4511 56.9905C22.7316 56.9905 22.959 56.7631 22.959 56.4825C22.959 56.202 22.7316 55.9746 22.4511 55.9746C22.1706 55.9746 21.9432 56.202 21.9432 56.4825C21.9432 56.7631 22.1706 56.9905 22.4511 56.9905Z" fill="#181F4E"/>
<path d="M33.0162 56.9905C33.2967 56.9905 33.5241 56.7631 33.5241 56.4825C33.5241 56.202 33.2967 55.9746 33.0162 55.9746C32.7357 55.9746 32.5083 56.202 32.5083 56.4825C32.5083 56.7631 32.7357 56.9905 33.0162 56.9905Z" fill="#181F4E"/>
<path d="M13.3083 56.9905C13.5888 56.9905 13.8162 56.7631 13.8162 56.4825C13.8162 56.202 13.5888 55.9746 13.3083 55.9746C13.0277 55.9746 12.8003 56.202 12.8003 56.4825C12.8003 56.7631 13.0277 56.9905 13.3083 56.9905Z" fill="#181F4E"/>
<path d="M11.7844 56.9905C12.065 56.9905 12.2924 56.7631 12.2924 56.4825C12.2924 56.202 12.065 55.9746 11.7844 55.9746C11.5039 55.9746 11.2765 56.202 11.2765 56.4825C11.2765 56.7631 11.5039 56.9905 11.7844 56.9905Z" fill="#181F4E"/>
<path d="M10.2606 56.9905C10.5412 56.9905 10.7686 56.7631 10.7686 56.4825C10.7686 56.202 10.5412 55.9746 10.2606 55.9746C9.98011 55.9746 9.7527 56.202 9.7527 56.4825C9.7527 56.7631 9.98011 56.9905 10.2606 56.9905Z" fill="#181F4E"/>
<path d="M7.3146 56.9905C7.59513 56.9905 7.82254 56.7631 7.82254 56.4825C7.82254 56.202 7.59513 55.9746 7.3146 55.9746C7.03408 55.9746 6.80666 56.202 6.80666 56.4825C6.80666 56.7631 7.03408 56.9905 7.3146 56.9905Z" fill="#181F4E"/>
<path d="M8.83841 56.9905C9.11894 56.9905 9.34635 56.7631 9.34635 56.4825C9.34635 56.202 9.11894 55.9746 8.83841 55.9746C8.55788 55.9746 8.33047 56.202 8.33047 56.4825C8.33047 56.7631 8.55788 56.9905 8.83841 56.9905Z" fill="#181F4E"/>
<path d="M2.74317 56.9905C3.0237 56.9905 3.25111 56.7631 3.25111 56.4825C3.25111 56.202 3.0237 55.9746 2.74317 55.9746C2.46265 55.9746 2.23524 56.202 2.23524 56.4825C2.23524 56.7631 2.46265 56.9905 2.74317 56.9905Z" fill="#181F4E"/>
<path d="M5.79079 56.9905C6.07132 56.9905 6.29873 56.7631 6.29873 56.4825C6.29873 56.202 6.07132 55.9746 5.79079 55.9746C5.51027 55.9746 5.28285 56.202 5.28285 56.4825C5.28285 56.7631 5.51027 56.9905 5.79079 56.9905Z" fill="#181F4E"/>
<path d="M4.26698 56.9905C4.54751 56.9905 4.77492 56.7631 4.77492 56.4825C4.77492 56.202 4.54751 55.9746 4.26698 55.9746C3.98646 55.9746 3.75905 56.202 3.75905 56.4825C3.75905 56.7631 3.98646 56.9905 4.26698 56.9905Z" fill="#181F4E"/>
<path d="M16.3559 55.9746C16.0511 55.9746 15.8479 56.1778 15.8479 56.4825C15.8479 56.7873 16.0511 56.9905 16.3559 56.9905C16.6606 56.9905 16.8638 56.7873 16.8638 56.4825C16.8638 56.1778 16.6606 55.9746 16.3559 55.9746Z" fill="#181F4E"/>
<path d="M17.8797 56.9905C18.1602 56.9905 18.3876 56.7631 18.3876 56.4825C18.3876 56.202 18.1602 55.9746 17.8797 55.9746C17.5992 55.9746 17.3717 56.202 17.3717 56.4825C17.3717 56.7631 17.5992 56.9905 17.8797 56.9905Z" fill="#181F4E"/>
<path d="M20.9273 56.9905C21.2078 56.9905 21.4352 56.7631 21.4352 56.4825C21.4352 56.202 21.2078 55.9746 20.9273 55.9746C20.6468 55.9746 20.4194 56.202 20.4194 56.4825C20.4194 56.7631 20.6468 56.9905 20.9273 56.9905Z" fill="#181F4E"/>
<path d="M19.4035 56.9905C19.684 56.9905 19.9114 56.7631 19.9114 56.4825C19.9114 56.202 19.684 55.9746 19.4035 55.9746C19.123 55.9746 18.8956 56.202 18.8956 56.4825C18.8956 56.7631 19.123 56.9905 19.4035 56.9905Z" fill="#181F4E"/>
<path d="M14.8321 56.9905C15.1126 56.9905 15.34 56.7631 15.34 56.4825C15.34 56.202 15.1126 55.9746 14.8321 55.9746C14.5515 55.9746 14.3241 56.202 14.3241 56.4825C14.3241 56.7631 14.5515 56.9905 14.8321 56.9905Z" fill="#181F4E"/>
<path d="M43.5813 56.9905C43.8618 56.9905 44.0892 56.7631 44.0892 56.4825C44.0892 56.202 43.8618 55.9746 43.5813 55.9746C43.3007 55.9746 43.0733 56.202 43.0733 56.4825C43.0733 56.7631 43.3007 56.9905 43.5813 56.9905Z" fill="#181F4E"/>
<path d="M1.21936 56.9905C1.49989 56.9905 1.7273 56.7631 1.7273 56.4825C1.7273 56.202 1.49989 55.9746 1.21936 55.9746C0.938837 55.9746 0.711426 56.202 0.711426 56.4825C0.711426 56.7631 0.938837 56.9905 1.21936 56.9905Z" fill="#181F4E"/>
<path d="M35.9622 56.9905C36.2427 56.9905 36.4702 56.7631 36.4702 56.4825C36.4702 56.202 36.2427 55.9746 35.9622 55.9746C35.6817 55.9746 35.4543 56.202 35.4543 56.4825C35.4543 56.7631 35.6817 56.9905 35.9622 56.9905Z" fill="#181F4E"/>
<path d="M63.1876 56.9905C63.4681 56.9905 63.6956 56.7631 63.6956 56.4825C63.6956 56.202 63.4681 55.9746 63.1876 55.9746C62.9071 55.9746 62.6797 56.202 62.6797 56.4825C62.6797 56.7631 62.9071 56.9905 63.1876 56.9905Z" fill="#181F4E"/>
<path d="M55.6702 56.9905C55.9507 56.9905 56.1781 56.7631 56.1781 56.4825C56.1781 56.202 55.9507 55.9746 55.6702 55.9746C55.3896 55.9746 55.1622 56.202 55.1622 56.4825C55.1622 56.7631 55.3896 56.9905 55.6702 56.9905Z" fill="#181F4E"/>
<path d="M58.7178 56.9905C58.9983 56.9905 59.2257 56.7631 59.2257 56.4825C59.2257 56.202 58.9983 55.9746 58.7178 55.9746C58.4373 55.9746 58.2098 56.202 58.2098 56.4825C58.2098 56.7631 58.4373 56.9905 58.7178 56.9905Z" fill="#181F4E"/>
<path d="M57.194 56.9905C57.4745 56.9905 57.7019 56.7631 57.7019 56.4825C57.7019 56.202 57.4745 55.9746 57.194 55.9746C56.9134 55.9746 56.686 56.202 56.686 56.4825C56.686 56.7631 56.9134 56.9905 57.194 56.9905Z" fill="#181F4E"/>
<path d="M60.2416 56.9905C60.5221 56.9905 60.7495 56.7631 60.7495 56.4825C60.7495 56.202 60.5221 55.9746 60.2416 55.9746C59.9611 55.9746 59.7336 56.202 59.7336 56.4825C59.7336 56.7631 59.9611 56.9905 60.2416 56.9905Z" fill="#181F4E"/>
<path d="M61.7654 56.9905C62.0459 56.9905 62.2733 56.7631 62.2733 56.4825C62.2733 56.202 62.0459 55.9746 61.7654 55.9746C61.4849 55.9746 61.2575 56.202 61.2575 56.4825C61.2575 56.7631 61.4849 56.9905 61.7654 56.9905Z" fill="#181F4E"/>
<path d="M45.1051 56.9905C45.3856 56.9905 45.613 56.7631 45.613 56.4825C45.613 56.202 45.3856 55.9746 45.1051 55.9746C44.8246 55.9746 44.5971 56.202 44.5971 56.4825C44.5971 56.7631 44.8246 56.9905 45.1051 56.9905Z" fill="#181F4E"/>
<path d="M54.1463 56.9905C54.4269 56.9905 54.6543 56.7631 54.6543 56.4825C54.6543 56.202 54.4269 55.9746 54.1463 55.9746C53.8658 55.9746 53.6384 56.202 53.6384 56.4825C53.6384 56.7631 53.8658 56.9905 54.1463 56.9905Z" fill="#181F4E"/>
<path d="M46.6289 56.9905C46.9094 56.9905 47.1368 56.7631 47.1368 56.4825C47.1368 56.202 46.9094 55.9746 46.6289 55.9746C46.3484 55.9746 46.121 56.202 46.121 56.4825C46.121 56.7631 46.3484 56.9905 46.6289 56.9905Z" fill="#181F4E"/>
<path d="M49.5749 56.9905C49.8554 56.9905 50.0829 56.7631 50.0829 56.4825C50.0829 56.202 49.8554 55.9746 49.5749 55.9746C49.2944 55.9746 49.067 56.202 49.067 56.4825C49.067 56.7631 49.2944 56.9905 49.5749 56.9905Z" fill="#181F4E"/>
<path d="M48.1527 56.9905C48.4332 56.9905 48.6606 56.7631 48.6606 56.4825C48.6606 56.202 48.4332 55.9746 48.1527 55.9746C47.8722 55.9746 47.6448 56.202 47.6448 56.4825C47.6448 56.7631 47.8722 56.9905 48.1527 56.9905Z" fill="#181F4E"/>
<path d="M51.0987 56.9905C51.3793 56.9905 51.6067 56.7631 51.6067 56.4825C51.6067 56.202 51.3793 55.9746 51.0987 55.9746C50.8182 55.9746 50.5908 56.202 50.5908 56.4825C50.5908 56.7631 50.8182 56.9905 51.0987 56.9905Z" fill="#181F4E"/>
<path d="M52.6225 56.9905C52.9031 56.9905 53.1305 56.7631 53.1305 56.4825C53.1305 56.202 52.9031 55.9746 52.6225 55.9746C52.342 55.9746 52.1146 56.202 52.1146 56.4825C52.1146 56.7631 52.342 56.9905 52.6225 56.9905Z" fill="#181F4E"/>
<path d="M32.2035 16.254C34.1336 16.254 35.759 14.6286 35.759 12.6984C35.759 10.7683 34.2352 9.14286 32.2035 9.14286C30.1717 9.14286 28.6479 10.7683 28.6479 12.6984C28.6479 14.6286 30.2733 16.254 32.2035 16.254ZM32.2035 10.1587C33.6257 10.1587 34.7432 11.2762 34.7432 12.6984C34.7432 14.1206 33.6257 15.2381 32.2035 15.2381C30.7813 15.2381 29.6638 14.1206 29.6638 12.6984C29.6638 11.2762 30.7813 10.1587 32.2035 10.1587Z" fill="#181F4E"/>
<path d="M52.521 17.2698H22.5527V11.6825C22.5527 11.4794 22.5527 11.3778 22.4511 11.1746C22.1463 11.4794 21.8416 11.6825 21.5368 11.8857V17.8794C21.5368 17.981 21.6384 18.1841 21.6384 18.2857C21.6384 18.3873 21.8416 18.3873 22.0448 18.3873H52.521C53.3337 18.3873 54.0448 19.0984 54.0448 19.9111C54.0448 20.7238 53.4352 21.3333 52.521 21.3333H36.267C35.9622 21.3333 35.759 21.5365 35.759 21.8413V31.4921H28.6479V21.8413C28.6479 21.5365 28.4448 21.3333 28.14 21.3333H20.013C19.2003 21.3333 18.4892 20.6222 18.4892 19.8095V11.7841C18.0829 11.581 17.7781 11.3778 17.5749 11.073C17.5749 11.2762 17.4733 11.3778 17.4733 11.581V19.7079C17.4733 21.1302 18.5908 22.2476 20.013 22.2476H27.6321V32.9143L14.0194 46.6286C13.5114 47.1365 13.3083 47.746 13.3083 48.4572C13.3083 49.1683 13.613 49.7778 14.0194 50.2857C14.5273 50.7937 15.1368 50.9968 15.8479 50.9968C16.559 50.9968 17.1686 50.6921 17.6765 50.2857L31.2892 36.5714H32.6098L34.8448 42.0572L27.8352 45.0032C27.2257 45.3079 26.7178 45.7143 26.413 46.4254C26.1083 47.0349 26.1083 47.746 26.413 48.3556C26.921 49.6762 28.4448 50.2857 29.7654 49.7778L39.1114 45.9175C40.4321 45.4095 41.0416 43.8857 40.5337 42.5651L36.7749 33.5238V22.3492H52.521C53.9432 22.3492 55.0606 21.2318 55.0606 19.8095C55.0606 18.3873 53.9432 17.2698 52.521 17.2698ZM39.5178 42.8698C39.721 43.2762 39.721 43.6825 39.5178 43.9873C39.3146 44.3937 39.1114 44.6984 38.7051 44.8L29.359 48.7619C28.5463 49.0667 27.7337 48.7619 27.3273 47.9492C27.1241 47.5429 27.1241 47.1365 27.3273 46.8318C27.5305 46.4254 27.7336 46.1206 28.14 46.0191L35.6575 42.8698C35.759 42.7683 35.8606 42.7683 35.9622 42.5651C36.0638 42.3619 36.0638 42.2603 35.9622 42.1587L33.3209 35.8603C33.2194 35.6571 33.0162 35.5556 32.813 35.5556H30.9844C30.8829 35.5556 30.6797 35.6571 30.5781 35.6571L16.8638 49.473C16.2543 50.0826 15.2384 50.0826 14.7305 49.473C14.4257 49.1683 14.3241 48.7619 14.3241 48.3556C14.3241 47.9492 14.5273 47.5429 14.7305 47.2381L28.5463 33.4222C28.6479 33.3206 28.6479 33.2191 28.6479 33.0159V32.5079H35.759V33.6254C35.759 33.727 35.759 33.727 35.759 33.8286L39.5178 42.8698Z" fill="#181F4E"/>
<path d="M20.013 12.1905C20.521 12.1905 21.0289 12.0889 21.5368 11.7841C21.9432 11.581 22.2479 11.3778 22.4511 11.073C23.0606 10.4635 23.5686 9.54921 23.5686 8.53334C23.5686 6.60318 21.9432 4.97778 20.013 4.97778C18.0829 4.97778 16.4575 6.60318 16.4575 8.53334C16.4575 9.54921 16.8638 10.4635 17.5749 11.073C17.8797 11.3778 18.1844 11.581 18.4892 11.7841C18.9971 12.0889 19.5051 12.1905 20.013 12.1905ZM17.9813 10.1587C17.6765 9.75239 17.4733 9.24445 17.4733 8.63493C17.4733 7.2127 18.5908 6.09524 20.013 6.09524C21.4352 6.09524 22.5527 7.2127 22.5527 8.63493C22.5527 9.24445 22.3495 9.75239 22.0448 10.1587C21.8416 10.4635 21.5368 10.6667 21.3336 10.8698C20.9273 11.073 20.5209 11.1746 20.1146 11.1746C19.7083 11.1746 19.2003 11.073 18.8956 10.8698C18.4892 10.6667 18.1844 10.4635 17.9813 10.1587Z" fill="#181F4E"/>
</svg>
