<svg width="64" height="64" viewBox="0 0 64 64" fill="none" xmlns="http://www.w3.org/2000/svg">
<path d="M1.524 53.5365C1.42241 53.5365 1.42241 53.6381 1.32083 53.6381C1.21924 53.6381 1.21924 53.7397 1.21924 53.8413C1.21924 53.9429 1.21924 53.9429 1.21924 54.0445C1.21924 54.146 1.32083 54.3492 1.42241 54.3492C1.42241 54.4508 1.524 54.4508 1.62559 54.4508C1.72717 54.4508 1.72717 54.4508 1.82876 54.4508C1.93035 54.4508 2.13352 54.3492 2.23511 54.2476C2.3367 54.146 2.3367 54.0445 2.3367 53.9429C2.3367 53.8413 2.3367 53.6381 2.23511 53.5365C1.93035 53.5365 1.72717 53.4349 1.524 53.5365Z" fill="#181F4E"/>
<path d="M3.9621 53.5365C3.75892 53.4349 3.55575 53.5365 3.45416 53.6381C3.35257 53.7397 3.25098 53.8413 3.25098 54.0445C3.25098 54.146 3.25098 54.146 3.25098 54.2476C3.25098 54.3492 3.35257 54.3492 3.35257 54.4508C3.45416 54.5524 3.55575 54.5524 3.65733 54.5524C3.75892 54.5524 3.75892 54.5524 3.86051 54.5524C3.9621 54.5524 3.9621 54.4508 4.06368 54.4508C4.06368 54.3492 4.16527 54.3492 4.16527 54.2476C4.16527 54.146 4.16527 54.146 4.16527 54.0445C4.16527 53.9429 4.16527 53.7397 4.06368 53.6381C4.06368 53.5365 4.06368 53.5365 3.9621 53.5365Z" fill="#181F4E"/>
<path d="M5.58749 53.5365C5.48591 53.5365 5.48591 53.6381 5.38432 53.6381C5.28273 53.6381 5.28273 53.7397 5.28273 53.8413C5.28273 53.9429 5.28273 53.9429 5.28273 54.0445C5.28273 54.146 5.38432 54.3492 5.48591 54.3492C5.48591 54.4508 5.58749 54.4508 5.68908 54.4508C5.79067 54.4508 5.79067 54.4508 5.89225 54.4508C5.99384 54.4508 6.19702 54.3492 6.2986 54.2476C6.40019 54.146 6.40019 54.0445 6.40019 53.9429C6.40019 53.8413 6.40019 53.6381 6.2986 53.5365C5.99384 53.5365 5.79067 53.4349 5.58749 53.5365Z" fill="#181F4E"/>
<path d="M8.22876 53.6381C8.02559 53.4349 7.72083 53.4349 7.51765 53.6381C7.41606 53.6381 7.41606 53.7397 7.41606 53.8413C7.41606 53.9429 7.41606 53.9429 7.41606 54.0445C7.41606 54.146 7.51765 54.3492 7.61924 54.3492C7.72083 54.4508 7.82241 54.5524 7.924 54.5524C8.02559 54.5524 8.22876 54.4508 8.33035 54.3492C8.43194 54.2476 8.43194 54.146 8.43194 54.0445C8.43194 53.9429 8.43194 53.9429 8.43194 53.8413C8.33035 53.7397 8.22876 53.6381 8.22876 53.6381Z" fill="#181F4E"/>
<path d="M10.0573 53.5365C9.85416 53.4349 9.65098 53.5365 9.5494 53.6381C9.44781 53.7397 9.34622 53.8413 9.34622 54.0445C9.34622 54.146 9.44781 54.3492 9.5494 54.3492C9.65098 54.4508 9.75257 54.5524 9.85416 54.5524C9.95575 54.5524 9.95575 54.5524 10.0573 54.5524C10.1589 54.5524 10.1589 54.4508 10.2605 54.4508C10.3621 54.3492 10.3621 54.2476 10.3621 54.146C10.3621 54.0445 10.3621 53.8413 10.2605 53.7397C10.1589 53.5365 10.1589 53.5365 10.0573 53.5365Z" fill="#181F4E"/>
<path d="M11.6827 53.5365C11.5811 53.5365 11.5811 53.6381 11.4796 53.6381C11.378 53.7397 11.2764 53.8413 11.2764 54.0445C11.2764 54.146 11.378 54.3492 11.4796 54.3492C11.5811 54.4508 11.6827 54.5524 11.7843 54.5524C11.8859 54.5524 12.0891 54.4508 12.1907 54.3492C12.2923 54.2476 12.2923 54.146 12.2923 54.0445C12.2923 53.9429 12.2923 53.7397 12.1907 53.6381C12.0891 53.5365 11.8859 53.4349 11.6827 53.5365Z" fill="#181F4E"/>
<path d="M13.6129 53.6381C13.5113 53.7397 13.4097 53.8413 13.4097 54.0445C13.4097 54.146 13.4097 54.146 13.4097 54.2476C13.4097 54.3492 13.5113 54.3492 13.5113 54.4508C13.6129 54.5524 13.7145 54.654 13.8161 54.654C13.9177 54.654 14.1208 54.5524 14.2224 54.4508C14.324 54.3492 14.324 54.2476 14.324 54.146C14.324 54.0445 14.324 53.8413 14.2224 53.7397C14.1208 53.4349 13.8161 53.4349 13.6129 53.6381Z" fill="#181F4E"/>
<path d="M16.3557 53.6381C16.1526 53.4349 15.8478 53.4349 15.6446 53.6381C15.543 53.7397 15.4415 53.8413 15.4415 54.0445C15.4415 54.146 15.543 54.3492 15.6446 54.4508C15.7462 54.5524 15.8478 54.5524 15.9494 54.5524C16.051 54.5524 16.2542 54.4508 16.3557 54.4508C16.4573 54.3492 16.4573 54.2476 16.4573 54.0445C16.4573 53.9429 16.4573 53.9429 16.4573 53.8413C16.4573 53.7397 16.3557 53.6381 16.3557 53.6381Z" fill="#181F4E"/>
<path d="M17.6764 53.6381C17.5748 53.7397 17.4732 53.8413 17.4732 54.0445C17.4732 54.146 17.5748 54.3492 17.6764 54.3492C17.778 54.4508 17.8796 54.5524 17.9811 54.5524C18.0827 54.5524 18.2859 54.4508 18.3875 54.3492C18.4891 54.2476 18.4891 54.146 18.4891 54.0445C18.4891 53.9429 18.4891 53.7397 18.3875 53.6381C18.1843 53.4349 17.8796 53.4349 17.6764 53.6381Z" fill="#181F4E"/>
<path d="M20.4192 53.6381C20.3177 53.5365 20.0129 53.4349 19.9113 53.5365C19.8097 53.5365 19.8097 53.6381 19.7081 53.6381C19.6065 53.6381 19.6065 53.7397 19.6065 53.8413C19.6065 53.9429 19.6065 53.9429 19.6065 54.0445C19.6065 54.146 19.7081 54.3492 19.8097 54.3492C19.8097 54.4508 19.9113 54.4508 20.0129 54.4508C20.1145 54.4508 20.1145 54.4508 20.2161 54.4508C20.3177 54.4508 20.5208 54.3492 20.6224 54.2476C20.724 54.146 20.724 54.0445 20.724 53.9429C20.724 53.8413 20.724 53.8413 20.724 53.7397C20.5208 53.7397 20.4192 53.6381 20.4192 53.6381Z" fill="#181F4E"/>
<path d="M22.451 53.6381C22.2478 53.4349 21.943 53.4349 21.7399 53.6381C21.6383 53.6381 21.6383 53.7397 21.6383 53.8413C21.6383 53.9429 21.6383 53.9429 21.6383 54.0445C21.6383 54.146 21.7399 54.3492 21.8415 54.3492C21.943 54.4508 22.0446 54.5524 22.1462 54.5524C22.2478 54.5524 22.451 54.4508 22.5526 54.3492C22.6542 54.2476 22.6542 54.146 22.6542 54.0445C22.6542 53.9429 22.6542 53.9429 22.6542 53.8413C22.5526 53.7397 22.451 53.6381 22.451 53.6381Z" fill="#181F4E"/>
<path d="M23.8732 53.5365C23.7716 53.5365 23.7716 53.6381 23.67 53.6381C23.5684 53.7397 23.4669 53.8413 23.4669 54.0445C23.4669 54.146 23.5684 54.3492 23.67 54.3492C23.67 54.4508 23.7716 54.4508 23.8732 54.4508C23.9748 54.4508 23.9748 54.4508 24.0764 54.4508C24.178 54.4508 24.3811 54.3492 24.4827 54.2476C24.5843 54.146 24.5843 54.0445 24.5843 53.9429C24.5843 53.8413 24.5843 53.6381 24.4827 53.5365C24.2796 53.5365 24.0764 53.4349 23.8732 53.5365Z" fill="#181F4E"/>
<path d="M25.905 53.5365C25.8034 53.5365 25.8034 53.6381 25.7018 53.6381C25.6002 53.7397 25.4986 53.8413 25.4986 54.0445C25.4986 54.146 25.6002 54.3492 25.7018 54.3492C25.7018 54.4508 25.8034 54.4508 25.905 54.4508C26.0065 54.4508 26.0065 54.4508 26.1081 54.4508C26.2097 54.4508 26.4129 54.3492 26.5145 54.2476C26.6161 54.146 26.6161 54.0445 26.6161 53.9429C26.6161 53.8413 26.6161 53.6381 26.5145 53.5365C26.3113 53.5365 26.1081 53.4349 25.905 53.5365Z" fill="#181F4E"/>
<path d="M28.5462 53.6381C28.4446 53.5365 28.1399 53.4349 27.9367 53.5365C27.8351 53.5365 27.8351 53.6381 27.7335 53.6381C27.6319 53.6381 27.6319 53.7397 27.6319 53.8413C27.6319 53.9429 27.6319 53.9429 27.6319 54.0445C27.6319 54.146 27.7335 54.3492 27.8351 54.4508C27.8351 54.4508 27.9367 54.5524 28.0383 54.5524C28.1399 54.5524 28.1399 54.5524 28.2415 54.5524C28.343 54.5524 28.5462 54.4508 28.6478 54.4508C28.7494 54.3492 28.7494 54.2476 28.7494 54.0445C28.7494 53.9429 28.7494 53.9429 28.7494 53.8413C28.6478 53.7397 28.5462 53.6381 28.5462 53.6381Z" fill="#181F4E"/>
<path d="M30.578 53.6381C30.4764 53.5365 30.4764 53.5365 30.3748 53.5365C30.1716 53.4349 29.9684 53.5365 29.8669 53.6381C29.7653 53.6381 29.7653 53.7397 29.7653 53.8413C29.7653 53.9429 29.7653 53.9429 29.7653 54.0445C29.7653 54.146 29.8669 54.3492 29.9684 54.3492C29.9684 54.4508 30.07 54.4508 30.1716 54.4508C30.2732 54.4508 30.2732 54.4508 30.3748 54.4508C30.4764 54.4508 30.6796 54.3492 30.7811 54.2476C30.8827 54.146 30.8827 54.0445 30.8827 53.9429C30.8827 53.8413 30.8827 53.8413 30.8827 53.7397C30.6796 53.7397 30.578 53.6381 30.578 53.6381Z" fill="#181F4E"/>
<path d="M31.8986 53.6381C31.797 53.7397 31.6954 53.8413 31.6954 54.0445C31.6954 54.146 31.797 54.3492 31.8986 54.4508C32.0002 54.5524 32.1018 54.5524 32.2034 54.5524C32.305 54.5524 32.5081 54.4508 32.6097 54.4508C32.7113 54.3492 32.7113 54.2476 32.7113 54.0445C32.7113 53.9429 32.7113 53.7397 32.6097 53.6381C32.4065 53.4349 32.1018 53.4349 31.8986 53.6381Z" fill="#181F4E"/>
<path d="M33.9304 53.6381C33.8288 53.7397 33.7272 53.8413 33.7272 54.0445C33.7272 54.146 33.8288 54.3492 33.9304 54.4508C34.0319 54.5524 34.1335 54.5524 34.2351 54.5524C34.3367 54.5524 34.5399 54.4508 34.6415 54.4508C34.743 54.3492 34.743 54.2476 34.743 54.0445C34.743 53.9429 34.743 53.7397 34.6415 53.6381C34.4383 53.4349 34.1335 53.4349 33.9304 53.6381Z" fill="#181F4E"/>
<path d="M35.9621 53.6381C35.8605 53.7397 35.7589 53.8413 35.7589 54.0445C35.7589 54.146 35.8605 54.3492 35.9621 54.4508C36.0637 54.5524 36.1653 54.5524 36.2669 54.5524C36.3684 54.5524 36.5716 54.4508 36.6732 54.4508C36.7748 54.3492 36.7748 54.2476 36.7748 54.0445C36.7748 53.9429 36.7748 53.7397 36.6732 53.6381C36.47 53.4349 36.1653 53.4349 35.9621 53.6381Z" fill="#181F4E"/>
<path d="M37.9938 53.6381C37.8923 53.7397 37.7907 53.8413 37.7907 54.0445C37.7907 54.146 37.8923 54.3492 37.9938 54.4508C38.0954 54.5524 38.197 54.5524 38.2986 54.5524C38.4002 54.5524 38.6034 54.4508 38.705 54.4508C38.8065 54.3492 38.8065 54.2476 38.8065 54.0445C38.8065 53.9429 38.8065 53.7397 38.705 53.6381C38.5018 53.4349 38.197 53.4349 37.9938 53.6381Z" fill="#181F4E"/>
<path d="M40.0256 53.6381C39.924 53.7397 39.8224 53.8413 39.8224 54.0445C39.8224 54.146 39.924 54.3492 40.0256 54.3492C40.1272 54.4508 40.2288 54.5524 40.3304 54.5524C40.4319 54.5524 40.6351 54.4508 40.7367 54.3492C40.8383 54.2476 40.8383 54.146 40.8383 54.0445C40.8383 53.9429 40.8383 53.7397 40.7367 53.6381C40.5335 53.4349 40.2288 53.4349 40.0256 53.6381Z" fill="#181F4E"/>
<path d="M42.0573 53.6381C41.9557 53.7397 41.8542 53.8413 41.8542 54.0445C41.8542 54.146 41.9557 54.3492 42.0573 54.4508C42.1589 54.5524 42.2605 54.5524 42.3621 54.5524C42.4637 54.5524 42.6669 54.4508 42.7684 54.4508C42.87 54.3492 42.87 54.2476 42.87 54.0445C42.87 53.9429 42.87 53.7397 42.7684 53.6381C42.5653 53.4349 42.2605 53.4349 42.0573 53.6381Z" fill="#181F4E"/>
<path d="M44.0891 53.6381C43.9875 53.7397 43.8859 53.8413 43.8859 54.0445C43.8859 54.146 43.9875 54.3492 44.0891 54.4508C44.1907 54.5524 44.2923 54.5524 44.3938 54.5524C44.4954 54.5524 44.6986 54.4508 44.8002 54.4508C44.9018 54.3492 44.9018 54.2476 44.9018 54.0445C44.9018 53.9429 44.9018 53.7397 44.8002 53.6381C44.597 53.4349 44.2923 53.4349 44.0891 53.6381Z" fill="#181F4E"/>
<path d="M46.1208 53.6381C46.0192 53.7397 45.9177 53.8413 45.9177 54.0445C45.9177 54.146 46.0192 54.3492 46.1208 54.3492C46.2224 54.4508 46.324 54.5524 46.4256 54.5524C46.5272 54.5524 46.7303 54.4508 46.8319 54.3492C46.9335 54.2476 46.9335 54.146 46.9335 54.0445C46.9335 53.9429 46.9335 53.7397 46.8319 53.6381C46.6288 53.4349 46.324 53.4349 46.1208 53.6381Z" fill="#181F4E"/>
<path d="M48.6605 53.5365C48.4573 53.4349 48.2542 53.5365 48.1526 53.6381C48.051 53.7397 47.9494 53.8413 47.9494 54.0445C47.9494 54.146 48.051 54.3492 48.1526 54.3492C48.2542 54.4508 48.3557 54.5524 48.4573 54.5524C48.5589 54.5524 48.5589 54.5524 48.6605 54.5524C48.7621 54.5524 48.7621 54.4508 48.8637 54.4508C48.9653 54.3492 48.9653 54.2476 48.9653 54.146C48.9653 54.0445 48.9653 53.8413 48.8637 53.7397C48.7621 53.5365 48.7621 53.5365 48.6605 53.5365Z" fill="#181F4E"/>
<path d="M50.2859 53.5365C50.1843 53.5365 50.1843 53.6381 50.0827 53.6381C49.9811 53.7397 49.8796 53.8413 49.8796 54.0445C49.8796 54.146 49.9811 54.3492 50.0827 54.3492C50.0827 54.4508 50.1843 54.4508 50.2859 54.4508C50.3875 54.4508 50.3875 54.4508 50.4891 54.4508C50.5907 54.4508 50.7938 54.3492 50.8954 54.2476C50.997 54.146 50.997 54.0445 50.997 53.9429C50.997 53.8413 50.997 53.6381 50.8954 53.5365C50.6923 53.5365 50.4891 53.4349 50.2859 53.5365Z" fill="#181F4E"/>
<path d="M52.724 53.5365C52.5208 53.4349 52.3177 53.5365 52.2161 53.6381C52.1145 53.7397 52.0129 53.8413 52.0129 54.0445C52.0129 54.146 52.1145 54.3492 52.2161 54.4508C52.3177 54.5524 52.4192 54.5524 52.5208 54.5524C52.6224 54.5524 52.8256 54.4508 52.9272 54.4508C53.0288 54.3492 53.0288 54.2476 53.0288 54.0445C53.0288 53.9429 53.0288 53.7397 52.9272 53.6381C52.8256 53.5365 52.8256 53.5365 52.724 53.5365Z" fill="#181F4E"/>
<path d="M54.9589 53.6381C54.7557 53.4349 54.451 53.4349 54.2478 53.6381C54.1462 53.6381 54.1462 53.7397 54.1462 53.8413C54.1462 53.9429 54.1462 53.9429 54.1462 54.0445C54.1462 54.146 54.2478 54.3492 54.3494 54.3492C54.451 54.4508 54.5526 54.5524 54.6542 54.5524C54.7557 54.5524 54.9589 54.4508 55.0605 54.3492C55.1621 54.2476 55.1621 54.146 55.1621 54.0445C55.1621 53.9429 55.1621 53.9429 55.1621 53.8413C55.0605 53.7397 54.9589 53.6381 54.9589 53.6381Z" fill="#181F4E"/>
<path d="M56.2796 53.6381C56.178 53.7397 56.0764 53.8413 56.0764 54.0445C56.0764 54.146 56.178 54.3492 56.2796 54.3492C56.3811 54.4508 56.4827 54.5524 56.5843 54.5524C56.6859 54.5524 56.8891 54.4508 56.9907 54.3492C57.0923 54.2476 57.0923 54.146 57.0923 54.0445C57.0923 53.9429 57.0923 53.7397 56.9907 53.6381C56.7875 53.4349 56.4827 53.4349 56.2796 53.6381Z" fill="#181F4E"/>
<path d="M58.3113 53.6381C58.2097 53.7397 58.1081 53.8413 58.1081 54.0445C58.1081 54.146 58.2097 54.3492 58.3113 54.4508C58.4129 54.5524 58.5145 54.5524 58.6161 54.5524C58.7177 54.5524 58.7177 54.5524 58.8192 54.5524C58.9208 54.5524 58.9208 54.4508 59.0224 54.4508C59.124 54.3492 59.124 54.2476 59.124 54.0445C59.124 53.9429 59.124 53.7397 59.0224 53.6381C58.8192 53.4349 58.5145 53.4349 58.3113 53.6381Z" fill="#181F4E"/>
<path d="M60.851 53.5365C60.6478 53.4349 60.4446 53.5365 60.3431 53.6381C60.2415 53.7397 60.1399 53.8413 60.1399 54.0445C60.1399 54.146 60.1399 54.146 60.1399 54.2476C60.1399 54.3492 60.2415 54.3492 60.2415 54.4508C60.343 54.5524 60.4446 54.5524 60.5462 54.5524C60.6478 54.5524 60.6478 54.5524 60.7494 54.5524C60.851 54.5524 60.851 54.4508 60.9526 54.4508C61.0542 54.3492 61.0542 54.3492 61.0542 54.2476C61.0542 54.146 61.0542 54.146 61.0542 54.0445C61.0542 53.9429 61.0542 53.7397 60.9526 53.6381C60.9526 53.5365 60.9526 53.5365 60.851 53.5365Z" fill="#181F4E"/>
<path d="M62.8827 53.5365C62.6796 53.4349 62.4764 53.5365 62.3748 53.6381C62.2732 53.7397 62.1716 53.8413 62.1716 54.0445C62.1716 54.146 62.1716 54.146 62.1716 54.2476C62.1716 54.3492 62.2732 54.3492 62.2732 54.4508C62.3748 54.5524 62.4764 54.5524 62.578 54.5524C62.6796 54.5524 62.6796 54.5524 62.7811 54.5524C62.8827 54.5524 62.8827 54.4508 62.9843 54.4508C63.0859 54.3492 63.0859 54.3492 63.0859 54.2476C63.0859 54.146 63.0859 54.146 63.0859 54.0445C63.0859 53.9429 63.0859 53.7397 62.9843 53.6381C62.9843 53.5365 62.9843 53.5365 62.8827 53.5365Z" fill="#181F4E"/>
<path d="M42.9716 37.2825C44.9018 37.2825 46.5272 35.6571 46.5272 33.727C46.5272 31.7968 44.9018 30.1714 42.9716 30.1714C41.0415 30.1714 39.4161 31.7968 39.4161 33.727C39.4161 35.6571 40.9399 37.2825 42.9716 37.2825ZM42.9716 31.1873C44.3938 31.1873 45.5113 32.3048 45.5113 33.727C45.5113 35.1492 44.3938 36.2667 42.9716 36.2667C41.5494 36.2667 40.4319 35.1492 40.4319 33.727C40.4319 32.3048 41.5494 31.1873 42.9716 31.1873Z" fill="#181F4E"/>
<path d="M55.9748 37.9937C54.5526 36.5714 52.3177 36.5714 50.997 37.9937C49.5748 39.4159 49.5748 41.6508 50.997 42.9714C51.7081 43.6825 52.5208 43.9873 53.5367 43.9873C54.451 43.9873 55.3653 43.581 56.0764 42.9714C56.7875 42.3619 57.0923 41.4476 57.0923 40.4318C56.9907 39.6191 56.6859 38.7048 55.9748 37.9937ZM55.2637 42.3619C54.3494 43.2762 52.6224 43.2762 51.7081 42.3619C50.6923 41.346 50.6923 39.7206 51.7081 38.8064C52.2161 38.2984 52.8256 38.0952 53.5367 38.0952C54.2478 38.0952 54.8573 38.2984 55.3653 38.8064C55.8732 39.3143 56.0764 39.9238 56.0764 40.6349C55.9748 41.2445 55.7716 41.854 55.2637 42.3619Z" fill="#181F4E"/>
<path d="M47.9494 43.8857L41.4478 41.1429C41.143 40.3302 39.7208 37.181 38.8065 34.6413C38.4002 33.727 37.7907 33.1175 36.8764 32.7111L26.5145 28.4445L24.6859 27.7333L22.1462 21.6381L25.6002 13.2064C25.905 12.5968 25.905 11.8857 25.6002 11.2762C25.2954 10.6667 24.8891 10.1587 24.178 9.95556C23.5684 9.6508 22.8573 9.6508 22.2478 9.95556C21.6383 10.2603 21.1303 10.6667 20.8256 11.3778L16.9653 20.7238C16.6605 21.3333 16.6605 22.0445 16.9653 22.654L18.4891 26.4127L15.7462 25.2952L12.2923 16.8635C11.7843 15.5429 10.2605 14.9333 8.93987 15.4413C8.33035 15.746 7.82241 16.1524 7.51765 16.8635C7.21289 17.473 7.21289 18.1841 7.51765 18.7937L11.378 28.1397C11.6827 28.7492 12.0891 29.2571 12.8002 29.5619L21.3335 33.1175C21.8415 34.0318 22.6542 34.7429 23.67 35.2508L34.0319 39.5175C34.4383 39.7206 34.8446 39.7206 35.251 39.8222L37.1811 44.3937C37.4859 45.0032 37.8923 45.5111 38.6034 45.8159L46.1208 48.9651C46.4256 49.0667 46.7304 49.1683 47.1367 49.1683C48.1526 49.1683 49.0669 48.5587 49.4732 47.6445C49.778 47.0349 49.778 46.3238 49.4732 45.7143C49.0669 44.6984 48.5589 44.1905 47.9494 43.8857ZM46.4256 47.6445L38.9081 44.4952C38.5018 44.2921 38.197 44.0889 38.0954 43.6825L36.3684 39.4159L35.9621 38.4L35.3526 37.0794C35.251 36.9778 35.1494 36.8762 35.0478 36.7746C34.9462 36.673 34.7431 36.673 34.6415 36.7746C34.3367 36.8762 34.2351 37.181 34.3367 37.4857L34.743 38.4C34.6415 38.4 34.5399 38.2984 34.4383 38.2984L24.5843 34.2349L25.4986 31.8984V31.7968L26.4129 29.4603L36.2669 33.5238C36.8764 33.8286 37.3843 34.2349 37.5875 34.8444C37.7907 35.3524 37.9938 35.9619 38.197 36.4698C38.2986 36.673 38.4002 36.9778 38.5018 37.181C39.4161 39.4159 40.3304 41.5492 40.3304 41.5492C40.4319 41.6508 40.4319 41.7524 40.6351 41.854L47.3399 44.5968C47.7462 44.8 48.051 45.0032 48.1526 45.4095C48.2542 45.8159 48.3558 46.2222 48.1526 46.527C48.051 47.6445 47.1367 47.9492 46.4256 47.6445ZM13.3081 28.4445C12.9018 28.2413 12.597 28.0381 12.4954 27.6318L8.53352 18.2857C8.33035 17.8794 8.33035 17.473 8.53352 17.1683C8.7367 16.7619 8.93987 16.4571 9.34622 16.3556C9.5494 16.254 9.75257 16.254 9.95575 16.254C10.1589 16.254 10.3621 16.254 10.5653 16.3556C10.9716 16.5587 11.2764 16.7619 11.378 17.1683L14.9335 25.8032C15.0351 25.9048 15.0351 26.0064 15.2383 26.1079L19.0986 27.7333L20.724 31.6952L13.3081 28.4445ZM22.5526 32.8127C22.3494 32.6095 22.2478 32.3048 22.0446 32.1016C22.0446 32 21.9431 32 21.9431 31.8984L20.4192 28.1397L19.8097 26.7175L17.8796 22.0445C17.6764 21.6381 17.6764 21.2318 17.8796 20.927L21.7399 11.581C21.943 11.1746 22.1462 10.8698 22.5526 10.7683C22.9589 10.5651 23.3653 10.6667 23.67 10.7683C24.0764 10.9714 24.3811 11.1746 24.4827 11.581C24.6859 11.9873 24.6859 12.3937 24.4827 12.6984L21.1303 21.3333C21.1303 21.4349 21.1303 21.4349 21.1303 21.5365C21.1303 21.6381 21.1303 21.6381 21.1303 21.7397L23.7716 28.2413C23.8732 28.3429 23.8732 28.4445 24.0764 28.546L24.2796 28.6476L25.7018 29.2571L25.397 29.6635L25.0923 30.273L24.6859 31.4921L24.5843 31.5937L24.0764 32.8127L23.5684 33.8286C23.3653 33.727 23.1621 33.6254 23.0605 33.4222C22.9589 33.3206 22.7557 33.1175 22.5526 32.8127Z" fill="#181F4E"/>
</svg>
