<svg width="64" height="64" viewBox="0 0 64 64" fill="none" xmlns="http://www.w3.org/2000/svg">
<path d="M56.5843 54.3492C56.2795 54.3492 56.0764 54.5524 56.0764 54.8571C56.0764 55.6698 55.3652 56.3809 54.5526 56.3809H7.82239C7.51763 56.3809 7.31445 56.5841 7.31445 56.8889C7.31445 57.1936 7.51763 57.3968 7.82239 57.3968H54.5526C55.9748 57.3968 57.0922 56.2794 57.0922 54.8571C57.0922 54.5524 56.8891 54.3492 56.5843 54.3492Z" fill="#181F4E"/>
<path d="M29.1557 16.254C31.0859 16.254 32.7113 14.6286 32.7113 12.6984C32.7113 10.7682 31.1875 9.14285 29.1557 9.14285C27.124 9.14285 25.6002 10.7682 25.6002 12.6984C25.6002 14.6286 27.2256 16.254 29.1557 16.254ZM29.1557 10.1587C30.5779 10.1587 31.6954 11.2762 31.6954 12.6984C31.6954 14.1206 30.5779 15.2381 29.1557 15.2381C27.7335 15.2381 26.616 14.1206 26.616 12.6984C26.616 11.2762 27.7335 10.1587 29.1557 10.1587Z" fill="#181F4E"/>
<path d="M25.6002 17.7778C25.8033 17.8794 26.0065 18.0825 26.1081 18.2857H31.5938L26.5145 20.3175C26.4129 20.927 26.1081 21.4349 25.7018 21.7397L33.2192 18.6921L34.2351 18.2857H54.5526C54.8573 18.2857 55.0605 18.0825 55.0605 17.7778C55.0605 17.473 54.8573 17.2698 54.5526 17.2698H54.0446V16.7619C54.0446 16.4571 53.8414 16.254 53.5367 16.254C53.2319 16.254 53.0287 16.4571 53.0287 16.7619V17.2698H24.1779H24.0764C24.6859 17.3714 25.1938 17.473 25.6002 17.7778Z" fill="#181F4E"/>
<path d="M15.9494 22.3492H23.5684V33.5238L15.9494 51.8095C15.4414 53.1302 16.051 54.5524 17.3716 55.1619C17.9811 55.4667 18.6922 55.4667 19.3018 55.1619C19.9113 54.8571 20.4192 54.4508 20.724 53.7397L27.8351 36.5714H28.5462L35.6573 53.7397C35.9621 54.3492 36.3684 54.8571 37.0795 55.1619C37.3843 55.2635 37.6891 55.3651 38.0954 55.3651C38.5018 55.3651 38.7049 55.2635 39.1113 55.1619C39.7208 54.8571 40.2287 54.4508 40.5335 53.7397C40.8383 53.1302 40.8383 52.419 40.5335 51.8095L32.9145 33.5238V23.873L36.3684 27.327C37.3843 28.3429 39.0097 28.3429 39.924 27.327L45.7145 21.5365C46.2224 21.0286 46.5272 20.3175 46.4256 19.5048C46.4256 18.9968 46.2224 18.5905 45.9176 18.1841H41.651L37.9938 21.8413L34.3367 18.1841L33.3208 18.5905L37.5875 22.8571C37.7906 23.0603 38.0954 23.0603 38.2986 22.8571L42.5653 18.5905C43.1748 17.9809 43.9875 17.8794 44.597 18.3873C45.0033 18.6921 45.2065 19.0984 45.2065 19.5048C45.2065 19.9111 45.1049 20.419 44.8002 20.7238L39.0097 26.5143C38.4002 27.1238 37.4859 27.1238 36.8764 26.5143L32.6097 22.3492C32.5081 22.2476 32.2033 22.146 32.1018 22.2476C31.8986 22.3492 31.797 22.5524 31.797 22.7555V31.4921H24.6859V22.3492C25.0922 22.2476 25.4986 22.0444 25.8033 21.7397C26.2097 21.3333 26.5145 20.927 26.616 20.3175C26.616 20.1143 26.616 20.0127 26.616 19.8095C26.616 19.2 26.4129 18.6921 26.1081 18.2857C26.0065 18.0825 25.8033 17.8794 25.6002 17.7778C25.1938 17.473 24.6859 17.2698 24.1779 17.2698H16.051C14.6287 17.2698 13.5113 18.3873 13.5113 19.8095C13.5113 21.2317 14.5272 22.3492 15.9494 22.3492ZM15.9494 18.2857H24.0764C24.0764 18.2857 24.0764 18.2857 24.1779 18.2857C24.3811 18.2857 24.4827 18.2857 24.5843 18.3873C25.1938 18.5905 25.6002 19.2 25.6002 19.8095C25.6002 20.2159 25.397 20.6222 25.1938 20.8254C24.8891 21.1302 24.4827 21.3333 24.0764 21.3333H15.9494C15.1367 21.3333 14.4256 20.6222 14.4256 19.8095C14.4256 18.9968 15.1367 18.2857 15.9494 18.2857ZM39.416 52.2159C39.6192 52.6222 39.6192 53.0286 39.416 53.3333C39.2129 53.6381 39.0097 54.0444 38.6033 54.146C38.197 54.2476 37.7906 54.3492 37.4859 54.146C37.0795 53.9428 36.7748 53.7397 36.6732 53.3333L29.4605 35.8603C29.3589 35.6571 29.1557 35.5555 28.9525 35.5555H27.6319C27.4287 35.5555 27.2256 35.6571 27.124 35.8603L19.9113 53.3333C19.7081 53.7397 19.5049 54.0444 19.0986 54.146C18.6922 54.3492 18.2859 54.3492 17.9811 54.146C17.1684 53.8413 16.8637 52.927 17.1684 52.1143L24.7875 33.727C24.7875 33.6254 24.7875 33.6254 24.7875 33.5238V32.5079H31.8986V33.6254C31.8986 33.727 31.8986 33.727 31.8986 33.8286L39.416 52.2159Z" fill="#181F4E"/>
</svg>
