<svg width="64" height="64" viewBox="0 0 64 64" fill="none" xmlns="http://www.w3.org/2000/svg">
<path d="M14.8317 37.8921L0 31.7968V32.9143L14.4254 38.9079C14.527 38.9079 14.527 38.9079 14.6286 38.9079C14.8317 38.9079 15.0349 38.8063 15.1365 38.6032C15.2381 38.2984 15.1365 37.9936 14.8317 37.8921Z" fill="#181F4E"/>
<path d="M29.8667 25.3968C30.273 25.6 30.781 25.7016 31.1873 25.7016C31.6952 25.7016 32.1016 25.6 32.5079 25.3968C33.4222 24.9905 34.0317 24.3809 34.4381 23.4667C35.1492 21.6381 34.3365 19.6063 32.5079 18.7936C30.6794 18.0825 28.6476 18.8952 27.8349 20.7238C27.2254 22.654 28.0381 24.6857 29.8667 25.3968ZM28.9524 21.2317C29.3587 20.2159 30.273 19.7079 31.2889 19.7079C31.5937 19.7079 31.8984 19.8095 32.3048 19.9111C33.6254 20.419 34.2349 21.9429 33.727 23.2635C33.4222 23.873 33.0159 24.3809 32.3048 24.6857C31.6952 24.9905 30.9841 24.9905 30.3746 24.6857C28.9524 23.9746 28.3429 22.4508 28.9524 21.2317Z" fill="#181F4E"/>
<path d="M21.4349 21.9429C21.8413 22.146 22.3492 22.2476 22.7556 22.2476C23.2635 22.2476 23.6698 22.146 24.0762 21.9429C24.9905 21.5365 25.6 20.927 26.0064 20.0127C26.4127 19.0984 26.4127 18.1841 26.0064 17.2698C25.6 16.3556 24.9905 15.746 24.0762 15.3397C23.1619 14.9333 22.2476 14.9333 21.3333 15.3397C20.419 15.746 19.8095 16.3556 19.4032 17.2698C18.7937 19.0984 19.6064 21.2317 21.4349 21.9429ZM20.419 17.6762C20.7238 17.0667 21.1302 16.5587 21.8413 16.254C22.146 16.1524 22.4508 16.0508 22.8571 16.0508C23.1619 16.0508 23.4667 16.1524 23.873 16.254C24.4825 16.5587 24.9905 16.9651 25.2952 17.6762C25.6 18.3873 25.6 18.9968 25.2952 19.6063C24.9905 20.2159 24.5841 20.7238 23.873 21.0286C23.2635 21.3333 22.5524 21.3333 21.9429 21.0286C20.5206 20.419 19.9111 18.9968 20.419 17.6762Z" fill="#181F4E"/>
<path d="M13.0032 18.4889C13.4095 18.6921 13.9175 18.7936 14.3238 18.7936C14.8317 18.7936 15.2381 18.6921 15.6444 18.4889C16.5587 18.0825 17.1683 17.473 17.5746 16.5587C17.981 15.6444 17.981 14.7302 17.5746 13.8159C17.1683 12.9016 16.5587 12.2921 15.6444 11.8857C13.8159 11.1746 11.7841 11.9873 10.9714 13.8159C10.3619 15.6444 11.1746 17.6762 13.0032 18.4889ZM11.9873 14.2222C12.3937 13.2063 13.3079 12.6984 14.3238 12.6984C14.6286 12.6984 14.9333 12.8 15.3397 12.9016C16.6603 13.4095 17.2698 14.9333 16.7619 16.254C16.4571 16.8635 16.0508 17.3714 15.3397 17.6762C14.7302 17.9809 14.019 17.9809 13.4095 17.6762C12.0889 16.9651 11.4794 15.4413 11.9873 14.2222Z" fill="#181F4E"/>
<path d="M4.57143 14.9333C4.97778 15.1365 5.48571 15.2381 5.89206 15.2381C6.4 15.2381 6.80635 15.1365 7.2127 14.9333C8.12698 14.527 8.73651 13.9175 9.14286 13.0032C9.54921 12.0889 9.54921 11.1746 9.14286 10.2603C8.8381 9.44761 8.12698 8.7365 7.31429 8.33015C6.4 7.9238 5.48571 7.9238 4.57143 8.33015C3.65714 8.7365 3.04762 9.34603 2.64127 10.2603C2.23492 11.1746 2.23492 12.0889 2.64127 13.0032C2.94603 13.9175 3.65714 14.6286 4.57143 14.9333ZM3.55556 10.6667C3.86032 10.0571 4.26667 9.5492 4.97778 9.24444C5.28254 9.14285 5.5873 9.14285 5.89206 9.14285C6.19683 9.14285 6.50159 9.24444 6.90794 9.34603C7.51746 9.65079 8.0254 10.0571 8.33016 10.7682C8.63492 11.4794 8.63492 12.0889 8.33016 12.6984C8.0254 13.3079 7.61905 13.8159 6.90794 14.1206C6.29841 14.4254 5.5873 14.4254 4.97778 14.1206C4.36825 13.8159 3.86032 13.4095 3.55556 12.6984C3.25079 11.9873 3.35238 11.2762 3.55556 10.6667Z" fill="#181F4E"/>
<path d="M50.4889 52.6222L27.9365 43.2762C27.6317 43.1746 27.4286 43.2762 27.2254 43.5809C27.0222 43.8857 27.2254 44.0889 27.5302 44.2921L50.0825 53.6381C50.1841 53.6381 50.1841 53.6381 50.2857 53.6381C50.4889 53.6381 50.6921 53.5365 50.7937 53.3333C50.8952 53.0286 50.7937 52.8254 50.4889 52.6222Z" fill="#181F4E"/>
<path d="M56.4825 49.0667C56.4825 48.9651 56.381 48.7619 56.2794 48.6603C56.2794 48.6603 56.2794 48.5587 56.1778 48.5587C56.0762 48.4571 55.9746 48.3556 55.873 48.254C52.3175 39.8222 45.4095 32.9143 36.8762 29.4603L0 14.1206V15.2381L36.4698 30.3746C44.3937 33.6254 50.8952 39.9238 54.4508 47.746L35.0476 39.619C34.6413 39.4159 34.2349 39.4159 33.9302 39.619C33.5238 39.8222 33.219 40.0254 33.1175 40.4317C33.0159 40.8381 32.9143 41.2444 33.1175 41.5492C33.3206 41.854 33.5238 42.2603 33.9302 42.3619L53.9429 50.7936C53.8413 50.9968 53.6381 51.0984 53.4349 51.2C53.0286 51.4032 52.6222 51.4032 52.3175 51.2L0 29.5619V30.6794L51.8095 52.1143C52.1143 52.2159 52.4191 52.3175 52.8254 52.3175C53.1302 52.3175 53.4349 52.2159 53.8413 52.1143C54.3492 51.9111 54.7556 51.6063 55.0603 51.0984C55.0603 51.0984 55.0603 51.0984 55.1619 51.0984C55.2635 51.0984 55.2635 51.0984 55.3651 51.0984C55.4667 51.0984 55.5683 51.0984 55.5683 51.0984C55.5683 51.0984 55.6698 51.0984 55.6698 50.9968C55.7714 50.9968 55.873 50.8952 55.9746 50.8952C56.0762 50.8952 56.0762 50.7936 56.0762 50.7936C56.1778 50.6921 56.1778 50.6921 56.2794 50.5905C56.381 50.4889 56.381 50.3873 56.4825 50.2857C56.4825 50.2857 56.4825 50.2857 56.4825 50.1841C56.5841 49.9809 56.5841 49.8794 56.5841 49.6762C56.5841 49.6762 56.5841 49.6762 56.5841 49.5746C56.5841 49.473 56.5841 49.3714 56.4825 49.0667C56.4825 49.1683 56.4825 49.1683 56.4825 49.0667ZM55.5683 49.7778C55.5683 49.8794 55.4667 49.981 55.3651 49.981C55.2635 49.981 55.2635 50.0825 55.1619 50.0825H54.9587L34.3365 41.5492C34.2349 41.4476 34.1333 41.4476 34.0317 41.2444C33.9302 41.1428 33.9302 40.9397 34.0317 40.8381C34.1333 40.7365 34.1333 40.6349 34.3365 40.5333C34.4381 40.5333 34.4381 40.5333 34.5397 40.5333C34.6413 40.5333 34.6413 40.5333 34.7429 40.5333L55.3651 49.0667C55.4667 49.0667 55.4667 49.1683 55.5683 49.1683C55.5683 49.1683 55.5683 49.1682 55.5683 49.2698C55.5683 49.3714 55.6698 49.473 55.6698 49.473C55.5683 49.6762 55.5683 49.6762 55.5683 49.7778Z" fill="#181F4E"/>
<path d="M15.6444 34.8444C15.8476 34.8444 16.0508 34.8444 16.254 34.7429C16.6603 34.5397 16.9651 34.3365 17.0667 33.9302C17.1683 33.5238 17.2698 33.1175 17.0667 32.8127C16.8635 32.4063 16.6603 32.1016 16.254 32L0 25.1936V26.3111L15.8476 32.9143C15.9492 33.0159 16.0508 33.0159 16.1524 33.219C16.254 33.3206 16.254 33.5238 16.1524 33.6254C16.0508 33.727 16.0508 33.8286 15.8476 33.9302C15.746 34.0317 15.5429 34.0317 15.4413 33.9302L0 27.327V28.4444L15.0349 34.6413C15.2381 34.7429 15.4413 34.8444 15.6444 34.8444Z" fill="#181F4E"/>
</svg>
