<svg width="64" height="64" viewBox="0 0 64 64" fill="none" xmlns="http://www.w3.org/2000/svg">
<path d="M25.8036 16.7619C27.7338 16.7619 29.3592 15.1365 29.3592 13.2063C29.3592 11.2762 27.7338 9.65076 25.8036 9.65076C23.8735 9.65076 22.2481 11.2762 22.2481 13.2063C22.2481 15.1365 23.7719 16.7619 25.8036 16.7619ZM25.8036 10.6666C27.2258 10.6666 28.3433 11.7841 28.3433 13.2063C28.3433 14.6285 27.2258 15.746 25.8036 15.746C24.3814 15.746 23.2639 14.6285 23.2639 13.2063C23.2639 11.7841 24.3814 10.6666 25.8036 10.6666Z" fill="#181F4E"/>
<path d="M43.5814 22.3492V21.8412H35.2512C35.1497 21.9428 35.1497 22.0444 35.0481 22.146L34.7433 22.3492L34.2354 22.8571H44.0893C43.7846 22.8571 43.5814 22.6539 43.5814 22.3492Z" fill="#181F4E"/>
<path d="M36.3687 18.7936H43.5814V18.2857C43.5814 17.9809 43.7846 17.7777 44.0893 17.7777H36.1655C36.1655 17.9809 36.2671 18.0825 36.2671 18.2857C36.2671 18.4889 36.3687 18.5904 36.3687 18.7936Z" fill="#181F4E"/>
<path d="M46.1211 17.7777H44.0893C43.7846 17.7777 43.5814 17.9809 43.5814 18.2857V18.7936V21.8412V22.3492C43.5814 22.6539 43.7846 22.8571 44.0893 22.8571H45.7147C45.9179 23.9746 46.9338 24.8889 48.1528 24.8889C49.5751 24.8889 50.6925 23.7714 50.6925 22.3492C50.6925 19.8095 48.6608 17.7777 46.1211 17.7777ZM46.629 22.7555C46.629 22.6539 46.5274 22.4508 46.5274 22.3492C46.5274 22.3492 46.5274 22.3492 46.5274 22.2476C46.5274 22.0444 46.3243 21.8412 46.0195 21.8412H44.4957V18.7936H46.0195C46.1211 18.7936 46.2227 18.7936 46.3243 18.7936C46.8322 18.7936 47.3401 18.9968 47.7465 19.2C48.0512 19.4031 48.2544 19.5047 48.5592 19.7079C49.1687 20.3174 49.5751 21.2317 49.5751 22.2476C49.5751 23.0603 48.8639 23.7714 48.0512 23.7714C47.4417 23.873 46.8322 23.4666 46.629 22.7555Z" fill="#181F4E"/>
<path d="M32.8131 23.5682L32.5084 23.1619L28.5465 27.1238C27.937 27.7333 27.0227 27.7333 26.4131 27.1238L20.7243 21.4349C20.6227 21.3333 20.5211 21.1301 20.4195 20.9269C20.3179 20.8254 20.3179 20.6222 20.3179 20.419C20.3179 20.419 20.3179 20.419 20.3179 20.3174C20.3179 19.5047 21.029 18.7936 21.8417 18.7936H31.1877C31.0862 18.5904 30.9846 18.4889 30.9846 18.2857C30.883 18.0825 30.883 17.9809 30.883 17.7777H21.9433C20.5211 17.7777 19.4036 18.8952 19.4036 20.3174C19.4036 20.5206 19.4036 20.6222 19.4036 20.8254C19.4036 20.9269 19.4036 20.9269 19.4036 20.9269C19.4036 21.0285 19.5052 21.1301 19.5052 21.2317C19.5052 21.3333 19.5052 21.3333 19.6068 21.4349C19.6068 21.5365 19.7084 21.6381 19.7084 21.7396L19.81 21.8412C19.9116 21.9428 19.9116 22.0444 20.0131 22.0444C20.0131 22.0444 20.0131 22.0444 20.1147 22.146L21.3338 23.365V43.6825L14.9338 50.0825C13.9179 51.0984 13.9179 52.7238 14.9338 53.6381C15.4417 54.146 16.0512 54.3492 16.7624 54.3492C17.3719 54.3492 18.083 54.146 18.5909 53.6381L25.8036 46.4254C26.3116 45.9174 26.5147 45.3079 26.5147 44.5968V36.9777H27.0227L32.7116 42.6666V51.8095C32.7116 53.2317 33.829 54.3492 35.2512 54.3492C36.6735 54.3492 37.7909 53.2317 37.7909 51.8095V41.6508C37.7909 40.9396 37.4862 40.3301 37.0798 39.8222L30.3751 33.5238V26.7174L33.6258 23.4666C33.5243 23.5682 33.4227 23.5682 33.3211 23.5682C33.1179 23.6698 32.9147 23.6698 32.8131 23.5682ZM36.4703 51.9111C36.4703 52.7238 35.7592 53.4349 34.9465 53.4349C34.1338 53.4349 33.4227 52.7238 33.4227 51.9111V42.565C33.4227 42.4635 33.3211 42.2603 33.3211 42.1587L27.3274 36.165C27.2258 36.0635 27.1243 36.0635 26.9211 36.0635H25.702C25.3973 36.0635 25.1941 36.2666 25.1941 36.5714V44.6984C25.1941 45.1047 24.9909 45.5111 24.7877 45.8158L17.575 53.0285C16.9655 53.6381 16.0512 53.6381 15.4417 53.0285C14.8322 52.419 14.8322 51.5047 15.4417 50.8952L22.0449 44.292C22.1465 44.1904 22.1465 44.0889 22.1465 43.8857V33.0158H29.2576V33.7269C29.2576 33.8285 29.3592 34.0317 29.3592 34.1333L35.9624 40.7365C36.2671 41.0412 36.3687 41.4476 36.3687 41.8539V51.9111H36.4703ZM22.2481 32V24.3809L25.702 27.8349C26.21 28.3428 26.8195 28.546 27.5306 28.546C28.1401 28.546 28.8512 28.3428 29.3592 27.8349L29.4608 27.7333V32H22.2481Z" fill="#181F4E"/>
<path d="M25.702 20.7238C25.4989 20.5206 25.1941 20.5206 24.9909 20.7238C24.8893 20.8254 24.8893 20.9269 24.8893 21.0285C24.8893 21.1301 24.8893 21.3333 24.9909 21.4349L27.1243 23.5682C27.3274 23.7714 27.6322 23.7714 27.8354 23.5682L30.3751 21.0285L29.9687 20.6222C29.8671 20.5206 29.8671 20.419 29.8671 20.2158C29.8671 20.1142 29.9687 20.0127 29.9687 19.9111L27.429 22.4508L25.702 20.7238Z" fill="#181F4E"/>
<path d="M35.0481 22.146C35.1497 22.0444 35.1497 21.9428 35.2512 21.8412L35.3528 21.7396C36.0639 20.9269 36.3687 19.8095 36.3687 18.7936C36.3687 18.5904 36.3687 18.4889 36.3687 18.2857C36.3687 18.0825 36.2671 17.9809 36.2671 17.7777C36.0639 16.965 35.6576 16.2539 35.0481 15.6444C34.0322 14.6285 32.4068 14.6285 31.4925 15.6444C30.883 16.2539 30.6798 17.0666 30.7814 17.7777C30.7814 17.9809 30.883 18.0825 30.883 18.2857C30.9846 18.4889 30.9846 18.5904 31.0862 18.7936C31.0862 18.7936 31.0862 18.7936 31.0862 18.8952L29.9687 20.0127C29.8671 20.1143 29.8671 20.2158 29.8671 20.3174C29.8671 20.419 29.9687 20.6222 29.9687 20.7238L32.9147 23.6698C33.0163 23.7714 33.1179 23.7714 33.3211 23.7714C33.4227 23.7714 33.5243 23.7714 33.6258 23.6698L34.8449 22.4508L35.0481 22.146ZM31.0862 20.3174L32.2036 19.2C32.3052 19.0984 32.3052 18.9968 32.3052 18.7936V18.692C32.3052 18.5904 32.3052 18.5904 32.2036 18.4889C32.2036 18.4889 32.2036 18.4889 32.2036 18.3873C32.102 18.2857 32.102 18.1841 32.0004 18.1841L31.8989 18.0825C31.7973 17.9809 31.7973 17.8793 31.7973 17.6762C31.6957 17.1682 31.7973 16.6603 32.2036 16.2539C32.8131 15.6444 33.7274 15.6444 34.337 16.2539C34.7433 16.6603 35.0481 17.1682 35.1497 17.6762C35.2512 17.8793 35.2512 17.9809 35.2512 18.1841C35.2512 18.3873 35.2512 18.4889 35.2512 18.692V18.7936C35.2512 19.0984 35.1497 19.4031 35.1497 19.7079C34.9465 20.3174 34.7433 20.8254 34.2354 21.2317L33.829 21.6381L33.3211 22.3492L33.2195 22.4508L31.0862 20.3174Z" fill="#181F4E"/>
</svg>
