<svg width="64" height="64" viewBox="0 0 64 64" fill="none" xmlns="http://www.w3.org/2000/svg">
<g clip-path="url(#clip0_4580_1727)">
<path d="M39.4159 39.8223C38.7048 40.5334 38.4 41.3461 38.4 42.3619C38.4 43.2762 38.8064 44.1905 39.4159 44.9016C40.127 45.6127 41.0413 45.9175 41.9556 45.9175C42.8698 45.9175 43.7841 45.6127 44.4952 44.9016C45.9175 43.4794 45.9175 41.2445 44.4952 39.9238C43.073 38.4 40.8381 38.4 39.4159 39.8223ZM43.6825 44.0889C42.6667 45.1048 41.0413 45.1048 40.127 44.0889C39.619 43.581 39.4159 42.9715 39.4159 42.2604C39.4159 41.5492 39.7206 40.9397 40.127 40.4318C40.6349 39.9238 41.2444 39.7207 41.9556 39.7207C42.5651 39.7207 43.2762 39.9238 43.7841 40.4318C44.6984 41.5492 44.6984 43.1746 43.6825 44.0889Z" fill="#181F4E"/>
<path d="M53.0286 24.6858C53.5365 24.1778 53.7397 23.5683 53.7397 22.8572C53.7397 22.1461 53.4349 21.5365 53.0286 21.0286C52.1143 20.1143 50.3873 20.1143 49.473 21.0286L38.2984 32.2032L31.4921 25.3969L30.781 24.6858V5.38417C30.781 3.96194 29.6635 2.84448 28.2413 2.84448C26.819 2.84448 25.7016 4.06353 25.7016 5.48575V24.7873L25.3968 25.0921L12.8 12.4953C11.7841 11.4794 10.1587 11.4794 9.24445 12.4953C8.73651 13.0032 8.53333 13.6127 8.53333 14.3238C8.53333 15.035 8.8381 15.6445 9.24445 16.1524L31.4921 38.4V55.8731H32.5079V38.0953C32.5079 37.9937 32.4064 37.7905 32.4064 37.6889L26.2095 31.4921L31.2889 26.4127L38.0952 33.2191C38.2984 33.4223 38.6032 33.4223 38.8064 33.2191L50.2857 21.7397C50.8952 21.1302 51.9111 21.1302 52.419 21.7397C53.0286 22.3492 53.0286 23.2635 52.419 23.8731L35.6571 40.635C35.5556 40.7365 35.5556 40.8381 35.5556 41.0413V55.8731H36.5714V41.2445L53.0286 24.6858ZM9.54921 14.3238C9.54921 13.9175 9.75238 13.5111 9.95556 13.2064C10.5651 12.5969 11.4794 12.5969 12.0889 13.2064L24.9905 26.108C25.1937 26.3111 25.4984 26.3111 25.7016 26.108L26.5143 25.2953C26.6159 25.1937 26.6159 25.0921 26.6159 24.8889V5.48575C26.6159 4.67305 27.327 3.96194 28.1397 3.96194C28.9524 3.96194 29.6635 4.67305 29.6635 5.48575V24.9905C29.6635 25.0921 29.7651 25.2953 29.7651 25.3969L30.273 25.9048L25.3968 30.781L9.95556 15.3397C9.65079 15.1365 9.54921 14.7302 9.54921 14.3238Z" fill="#181F4E"/>
<path d="M36.5714 55.8731H35.5556H32.5079H31.4921H0V56.8889H64V55.8731H36.5714Z" fill="#181F4E"/>
</g>
<defs>
<clipPath id="clip0_4580_1727">
<rect width="64" height="64" fill="white"/>
</clipPath>
</defs>
</svg>
