<svg width="64" height="64" viewBox="0 0 64 64" fill="none" xmlns="http://www.w3.org/2000/svg">
<g clip-path="url(#clip0_4580_1371)">
<path d="M37.6889 32.8127C38.6032 32.8127 39.5175 32.5079 40.2286 31.7968C40.9397 31.0857 41.2444 30.273 41.2444 29.2571C41.2444 28.3429 40.8381 27.4286 40.2286 26.7175C38.9079 25.3968 36.5714 25.3968 35.2508 26.7175C33.8286 28.1397 33.8286 30.3746 35.2508 31.6952C35.8603 32.4064 36.7746 32.8127 37.6889 32.8127ZM35.8603 27.4286C36.3683 26.9206 36.9778 26.7175 37.6889 26.7175C38.4 26.7175 39.0095 27.0222 39.5175 27.4286C40.0254 27.8349 40.2286 28.546 40.2286 29.2571C40.2286 29.9683 39.9238 30.5778 39.5175 31.0857C38.5016 32.1016 36.8762 32.1016 35.9619 31.0857C34.946 30.0698 34.946 28.4445 35.8603 27.4286Z" fill="#181F4E"/>
<path d="M41.1429 49.473C41.0413 49.7778 40.9397 50.0825 40.7365 50.3873L64 59.9365V58.9206L41.1429 49.473Z" fill="#181F4E"/>
<path d="M28.0381 43.9873L27.5302 43.7841L21.4349 41.2445L21.0286 41.0413L0 32.4064V33.5238L33.6254 47.4413L31.7968 45.5111L28.0381 43.9873Z" fill="#181F4E"/>
<path d="M48.3556 38.1968C48.4571 38.2984 48.5587 38.5016 48.6603 38.6032L51.8095 35.454C52.2159 35.7587 52.7238 35.8603 53.2318 35.8603C53.9429 35.8603 54.5524 35.5556 55.0603 35.1492L59.327 30.8825C59.5302 30.6794 59.5302 30.3746 59.327 30.1714L56.4825 27.327C56.2794 27.1238 55.9746 27.1238 55.7714 27.327L51.5048 31.5937C50.9968 32.1016 50.7937 32.7111 50.7937 33.4222C50.7937 33.9302 50.8952 34.4381 51.2 34.8445L48.0508 37.9937C48.0508 37.9937 48.1524 38.0952 48.3556 38.1968ZM52.1143 32.3048L56.0762 28.3429L58.2095 30.4762L54.2476 34.4381C53.6381 35.0476 52.6222 35.0476 52.1143 34.4381C51.8095 34.1333 51.7079 33.727 51.7079 33.3206C51.7079 32.9143 51.8095 32.6095 52.1143 32.3048Z" fill="#181F4E"/>
<path d="M31.5937 54.2476C31.6952 54.2476 31.7968 54.3492 31.8984 54.4508C32.1016 54.5524 32.4063 54.654 32.6095 54.654L36.673 50.5905L36.0635 49.7778L31.5937 54.2476Z" fill="#181F4E"/>
<path d="M45.0032 42.0572C44.9016 41.9556 44.8 41.9556 44.6984 41.854C44.5968 41.7524 44.5968 41.6508 44.4952 41.5492L44.3937 41.4476L39.619 46.2222L40.3302 46.9333L44.6984 42.5651L45.1048 42.1587C45.1048 42.0572 45.1048 42.0572 45.0032 42.0572Z" fill="#181F4E"/>
<path d="M41.2444 48.8635C41.2444 48.1524 40.9397 47.5429 40.5333 47.0349L40.3302 46.8318L39.619 46.2222L35.454 42.0572V40.6349L36.5714 41.7524C37.0794 42.2603 37.6889 42.4635 38.4 42.4635H43.2762L44.2921 41.4476H38.4C37.9937 41.4476 37.5873 41.2445 37.2825 41.0413L35.454 39.2127V34.946L38.9079 38.4C39.0095 38.5016 39.1111 38.5016 39.3143 38.5016H44.5968C43.9873 39.3143 43.8857 40.5333 44.4952 41.4476L44.5968 41.5492C44.6984 41.6508 44.6984 41.7524 44.8 41.854C44.9016 41.9556 45.0032 42.0572 45.1048 42.0572L45.2064 42.1587L44.6984 42.5651L46.527 42.5651C46.7302 42.5651 46.8317 42.5651 46.9333 42.5651C47.0349 42.5651 47.1365 42.4635 47.2381 42.4635H47.3397C47.4413 42.4635 47.5429 42.3619 47.6444 42.2603C47.6444 42.2603 47.746 42.2603 47.746 42.1587C47.8476 42.0572 48.0508 41.9556 48.1524 41.854C48.254 41.7524 48.3556 41.6508 48.4571 41.4476L48.5587 41.346C48.6603 41.2445 48.6603 41.1429 48.7619 41.0413V40.9397C48.7619 40.8381 48.8635 40.7365 48.8635 40.6349C48.8635 40.5333 48.8635 40.3302 48.8635 40.2286C48.8635 40.127 48.8635 39.9238 48.8635 39.8222C48.8635 39.7206 48.7619 39.6191 48.7619 39.5175V39.4159C48.7619 39.3143 48.6603 39.2127 48.6603 39.1111C48.6603 39.1111 48.6603 39.0095 48.5587 39.0095C48.4571 38.9079 48.3556 38.7048 48.254 38.6032C48.1524 38.5016 48.0508 38.4 47.8476 38.2984L47.746 38.1968C47.6444 38.0952 47.5429 38.0952 47.4413 38.0952H47.3397C47.2381 38.0952 47.1365 37.9937 47.0349 37.9937C46.9333 37.9937 46.7302 37.9937 46.6286 37.9937H39.5175L34.4381 32.5079C34.3365 32.4064 34.1333 32.3048 34.0317 32.2032C32.6095 31.1873 30.6794 31.2889 29.3587 32.5079L21.4349 40.4318C21.2317 40.6349 21.0286 40.8381 20.927 41.1429L21.4349 41.346L27.4286 43.8857L27.9365 44.0889L30.3746 41.6508V43.2762C30.3746 43.9873 30.6794 44.5968 31.0857 45.1048L36.7746 50.7937C37.2825 51.3016 37.8921 51.5048 38.6032 51.5048C39.3143 51.5048 39.9238 51.3016 40.4317 50.7937C40.5333 50.6921 40.6349 50.5905 40.6349 50.4889C40.8381 50.1841 40.9397 49.8794 41.0413 49.5746C41.2444 49.2698 41.2444 49.0667 41.2444 48.8635ZM45.4095 38.9079C45.7143 38.6032 46.1206 38.5016 46.527 38.5016C46.7302 38.5016 46.9333 38.5016 47.1365 38.6032C47.1365 38.6032 47.1365 38.6032 47.2381 38.6032H47.3397C47.5429 38.7048 47.746 38.9079 47.9492 39.2127V39.3143C47.9492 39.3143 47.9492 39.3143 47.9492 39.4159C48.0508 39.8222 48.0508 40.2286 47.9492 40.5333C47.746 40.9397 47.4413 41.2445 47.1365 41.346C46.7302 41.5492 46.3238 41.4476 45.9175 41.346C45.7143 41.2445 45.6127 41.1429 45.5111 41.0413C45.4095 40.9397 45.3079 40.7365 45.2064 40.6349C44.9016 40.127 45.0032 39.4159 45.4095 38.9079ZM40.2286 49.0667C40.2286 49.3714 40.0254 49.7778 39.8222 49.981C39.2127 50.5905 38.2984 50.5905 37.6889 49.981L32 44.2921C31.6952 43.9873 31.5937 43.581 31.5937 43.1746V37.181C31.5937 36.9778 31.4921 36.8762 31.3905 36.7746C31.2889 36.673 31.1873 36.673 31.0857 36.673C30.781 36.673 30.5778 36.8762 30.5778 37.181V40.2286L27.1238 43.6825L22.0444 41.5492C22.146 41.4476 22.2476 41.2445 22.3492 41.1429L30.273 33.2191C30.3746 33.1175 30.5778 33.0159 30.6794 32.9143C31.0857 32.7111 31.4921 32.5079 31.8984 32.5079C32.6095 32.4064 33.3206 32.7111 33.8286 33.2191C33.8286 33.2191 33.8286 33.2191 33.8286 33.3206C34.2349 33.8286 34.5397 34.4381 34.5397 35.0476V42.4635C34.5397 42.5651 34.6413 42.7683 34.6413 42.8699L39.8222 48.0508C40.127 48.3556 40.2286 48.7619 40.2286 49.1683C40.2286 48.9651 40.2286 48.9651 40.2286 49.0667Z" fill="#181F4E"/>
<path d="M31.5937 54.2476C30.6794 53.8413 30.0698 53.1302 29.6635 52.2159L29.1556 51.2C29.054 50.9968 28.7492 50.7937 28.546 50.8952L27.5302 51.3016C25.4984 52.1143 23.0603 51.0984 22.2476 49.0667L21.7397 48.0508C21.6381 47.8476 21.3333 47.6445 21.1302 47.746L20.1143 48.1524C18.0825 48.9651 15.6444 47.9492 14.8317 45.9175L14.3238 44.9016C14.2222 44.6984 13.9175 44.4952 13.7143 44.5968L12.6984 45.0032C10.6667 45.8159 8.22857 44.8 7.41587 42.7683L6.90794 41.7524C6.50159 41.6508 6.29841 41.5492 5.99365 41.6508L4.97778 42.0572C3.25079 42.7683 1.11746 42.0571 0 40.4318V41.9556C1.42222 43.1746 3.45397 43.6825 5.28254 42.9714L5.89206 42.7683L6.19683 43.3778C7.31429 45.8159 10.2603 47.0349 12.8 46.1206L13.4095 45.9175L13.7143 46.527C14.8317 48.9651 17.7778 50.1841 20.3175 49.2698L20.927 49.0667L21.2317 49.6762C22.3492 52.1143 25.2952 53.3333 27.8349 52.4191L28.4444 52.2159L28.7492 52.8254C29.2571 54.0445 30.273 54.9587 31.4921 55.4667C32.7111 55.9746 34.1333 55.9746 35.3524 55.5683L35.9619 55.3651L36.2667 55.9746C36.7746 57.1937 37.7905 58.1079 39.0095 58.6159C40.2286 59.1238 41.6508 59.1238 42.8698 58.7175L43.4794 58.5143L43.7841 59.1238C44.9016 61.5619 47.8476 62.781 50.3873 61.8667L50.9968 61.6635L51.3016 62.273C51.6064 62.8825 51.9111 63.3905 52.419 63.8984C52.6222 64.1016 52.8254 64.2032 53.0286 64.3048H55.9746C55.4667 64.3048 54.9587 64.2032 54.4508 64C53.9429 63.7968 53.5365 63.4921 53.1302 63.1873C52.7238 62.781 52.4191 62.3746 52.2159 61.8667L51.7079 60.8508C51.6064 60.6476 51.3016 60.4445 51.0984 60.546L50.0825 60.9524C48.0508 61.7651 45.6127 60.7492 44.8 58.7175L44.2921 57.7016C44.1905 57.4984 43.8857 57.2952 43.6825 57.3968L42.6667 57.8032C41.6508 58.2095 40.5333 58.1079 39.619 57.7016C38.6032 57.2952 37.7905 56.4825 37.3841 55.5683L36.8762 54.5524C36.7746 54.3492 36.4698 54.146 36.2667 54.2476L35.2508 54.654C34.5397 54.9587 33.727 54.9587 32.9143 54.8572C32.6095 54.7556 32.4064 54.7556 32.2032 54.654C31.7968 54.3492 31.6952 54.2476 31.5937 54.2476Z" fill="#181F4E"/>
</g>
<defs>
<clipPath id="clip0_4580_1371">
<rect width="64" height="64" fill="white"/>
</clipPath>
</defs>
</svg>
