<svg width="64" height="64" viewBox="0 0 64 64" fill="none" xmlns="http://www.w3.org/2000/svg">
<g clip-path="url(#clip0_4580_1388)">
<path d="M20.0127 42.9714C20.419 43.2762 20.927 43.4794 21.5365 43.4794H23.1619L21.3333 47.746H22.3492L24.1778 43.4794H30.9841L32.8127 47.746H33.8286L31.7968 42.7683C31.6952 42.5651 31.4921 42.4635 31.2889 42.4635H21.4349C21.0286 42.4635 20.6222 42.2603 20.3175 42.0571C20.2159 41.9556 20.0127 41.7524 20.0127 41.5492C19.9111 41.346 19.9111 41.1429 19.9111 41.0413V39.619H32.5079C33.1175 39.619 33.727 40.0254 33.9302 40.5333L36.9778 47.9492H37.9937L34.7429 40.127C34.3365 39.2127 33.4222 38.6032 32.4064 38.6032H26.3111L29.2571 31.5937L40.9397 36.4698C41.1429 36.5714 41.2444 36.5714 41.4476 36.5714C41.6508 36.5714 41.7524 36.5714 41.9556 36.5714C42.1587 36.5714 42.2603 36.5714 42.4635 36.4698C43.2762 36.2667 43.9873 35.7587 44.2921 34.946C44.8 33.6254 44.1905 32.2032 42.8698 31.5937L42.6667 31.2889L41.6508 30.8825L33.4222 27.4286L41.6508 23.9746V23.873C41.854 23.873 42.1587 23.7714 42.3619 23.6698C42.4635 23.6698 42.5651 23.5683 42.6667 23.4667C43.1746 23.1619 43.4794 22.7556 43.6825 22.2476C43.9873 21.6381 43.9873 20.927 43.6825 20.3175C43.4794 19.8095 43.1746 19.5048 42.7683 19.2C42.6667 19.0984 42.4635 18.9968 42.3619 18.9968C42.1587 18.8952 42.0571 18.8952 41.854 18.8952C41.7524 18.8952 41.6508 18.8952 41.5492 18.8952C41.4476 18.8952 41.4476 18.8952 41.346 18.8952C41.0413 18.8952 40.7365 18.9968 40.3302 19.0984L25.3968 25.2952C24.4825 25.7016 23.873 26.3111 23.4667 27.2254L19.2 37.5873V37.6889C18.9968 38.0952 18.9968 38.5016 18.9968 38.9079V40.9397C18.9968 41.346 19.0984 41.7524 19.3016 42.1587L16.8635 47.746H17.981L20.0127 42.9714ZM40.7365 20.0127C40.9397 19.9111 41.1429 19.9111 41.346 19.9111C41.5492 19.9111 41.7524 19.9111 41.9556 20.0127C42.1587 20.1143 42.2603 20.2159 42.3619 20.3175C42.4635 20.419 42.5651 20.6222 42.6667 20.8254C42.8698 21.2317 42.8698 21.6381 42.6667 21.9429C42.6667 22.0444 42.5651 22.0444 42.5651 22.146C42.3619 22.4508 42.1587 22.654 41.854 22.8571C41.7524 22.8571 41.6508 22.9587 41.5492 22.9587C40.8381 23.0603 40.127 22.7556 39.8222 22.0444C39.6191 21.2317 40.0254 20.3175 40.7365 20.0127ZM38.9079 20.8254C38.8064 21.3333 38.8064 21.9429 39.0095 22.4508C39.2127 22.9587 39.619 23.3651 40.127 23.6698L32.1016 27.0222L28.1397 25.3968L38.9079 20.8254ZM20.1143 37.8921L23.9746 28.546L24.2794 27.7333L24.381 27.6317C24.6857 27.0222 25.0921 26.5143 25.8032 26.2095C26.4127 25.9048 27.1238 25.9048 27.7333 26.2095C27.7333 26.2095 27.8349 26.2095 27.8349 26.3111L32.1016 28.1397L41.7524 32.1016L42.7683 32.5079H42.8698C43.6825 32.8127 43.9873 33.727 43.6825 34.5397C43.4794 34.946 43.1746 35.2508 42.7683 35.3524C42.4635 35.454 42.0571 35.454 41.7524 35.3524H41.6508L29.9683 30.4762L28.9524 30.0698L28.1397 29.7651L27.5302 29.4603L27.4286 29.4603C27.2254 29.4603 27.1238 29.4603 27.0222 29.6635L26.9206 29.7651C26.819 29.8667 26.9206 30.0698 26.9206 30.1714C27.0222 30.273 27.0222 30.3746 27.2254 30.3746L28.6476 30.9841L25.6 38.4H20.2159C20.0127 38.2984 20.0127 38.0952 20.1143 37.8921Z" fill="#181F4E"/>
<path d="M39.7206 47.746H22.3492H21.3333H0V48.7619H39.619V48.254C39.619 48.1524 39.619 47.9492 39.7206 47.746Z" fill="#181F4E"/>
<path d="M44.6984 48.7619H64V47.746H44.5968C44.5968 47.9492 44.5968 48.0508 44.5968 48.254L44.6984 48.7619Z" fill="#181F4E"/>
<path d="M40.127 53.8413C40.2286 53.8413 40.3302 53.8413 40.4317 53.9429L40.6349 54.0444V48.1524C40.6349 47.9492 40.6349 47.8476 40.7365 47.6444C40.9397 47.0349 41.5492 46.6286 42.1587 46.6286C42.5651 46.6286 42.9714 46.8317 43.2762 47.0349C43.4794 47.2381 43.581 47.4413 43.581 47.6444C43.6825 47.8476 43.6825 47.9492 43.6825 48.1524V55.6698C43.8857 55.6698 43.9873 55.6698 44.1905 55.6698C44.3937 55.6698 44.4952 55.6698 44.6984 55.6698V48.1524C44.6984 47.9492 44.6984 47.8476 44.6984 47.6444C44.5968 47.1365 44.3937 46.7302 43.9873 46.3238C43.581 45.9175 43.1746 45.7143 42.6667 45.6127V36.1651C42.4635 36.1651 42.3619 36.2667 42.1587 36.2667C41.9556 36.2667 41.854 36.2667 41.6508 36.2667V45.7143C40.6349 45.9175 39.8222 46.7302 39.7206 47.6444C39.7206 47.8476 39.7206 47.9492 39.7206 48.1524V54.0444L39.9238 53.9429C39.9238 53.9429 40.0254 53.8413 40.127 53.8413Z" fill="#181F4E"/>
<path d="M42.3619 23.7714C42.1587 23.873 41.854 23.873 41.6508 23.9746V24.0762V30.8825L42.6667 31.2889V23.5683C42.5651 23.6698 42.4635 23.7714 42.3619 23.7714Z" fill="#181F4E"/>
<path d="M25.0921 23.1619C25.4984 23.3651 26.0064 23.4667 26.4127 23.4667C26.9206 23.4667 27.327 23.3651 27.7333 23.1619C28.6476 22.7556 29.2571 22.146 29.6635 21.2317C30.0698 20.3175 30.0698 19.4032 29.6635 18.4889C29.2571 17.5746 28.6476 16.9651 27.7333 16.5587C26.819 16.1524 25.9048 16.1524 24.9905 16.5587C24.0762 16.9651 23.4667 17.5746 23.0603 18.4889C22.654 19.4032 22.654 20.3175 23.0603 21.2317C23.5683 22.146 24.1778 22.8571 25.0921 23.1619ZM24.0762 18.8952C24.381 18.2857 24.7873 17.7778 25.4984 17.473C25.8032 17.3714 26.1079 17.2698 26.5143 17.2698C26.819 17.2698 27.1238 17.3714 27.5302 17.473C28.1397 17.7778 28.6476 18.1841 28.9524 18.8952C29.2571 19.5048 29.2571 20.2159 28.9524 20.8254C28.6476 21.4349 28.2413 21.9429 27.5302 22.2476C26.9206 22.5524 26.2095 22.5524 25.6 22.2476C24.9905 21.9429 24.4825 21.5365 24.1778 20.8254C23.873 20.2159 23.873 19.6063 24.0762 18.8952Z" fill="#181F4E"/>
<path d="M64 54.146L63.2889 54.7556C61.7651 56.1778 59.0222 56.1778 57.4984 54.7556L56.6857 53.9429C56.4825 53.7397 56.1778 53.7397 55.9746 53.9429L55.1619 54.7556C53.5365 56.2794 50.9968 56.2794 49.3714 54.7556L48.5587 53.9429C48.3556 53.7397 48.0508 53.7397 47.8476 53.9429L47.0349 54.7556C46.4254 55.3651 45.5111 55.6698 44.6984 55.7714C44.4952 55.7714 44.3937 55.7714 44.1905 55.7714C43.9873 55.7714 43.8857 55.7714 43.6825 55.7714C42.7683 55.6698 41.9556 55.3651 41.346 54.7556L40.6349 54.146L40.4317 54.0444C40.3302 53.9429 40.2286 53.9429 40.127 53.9429C40.0254 53.9429 39.9238 53.9429 39.8222 54.0444L39.619 54.146L38.9079 54.7556C37.2825 56.2794 34.7429 56.2794 33.1175 54.7556L32.3048 53.9429C32.1016 53.7397 31.7968 53.7397 31.5937 53.9429L30.781 54.7556C29.1556 56.2794 26.6159 56.2794 24.9905 54.7556L24.1778 53.9429C23.9746 53.7397 23.6698 53.7397 23.4667 53.9429L22.654 54.7556C21.0286 56.2794 18.4889 56.2794 16.8635 54.7556L16.0508 53.9429C15.8476 53.7397 15.5429 53.7397 15.3397 53.9429L14.527 54.7556C12.9016 56.2794 10.3619 56.2794 8.73651 54.7556L7.92381 53.9429C7.72064 53.7397 7.41587 53.7397 7.2127 53.9429L6.4 54.7556C4.7746 56.2794 2.23492 56.2794 0.609524 54.7556L0 54.146V55.5683C1.93016 57.3968 5.18095 57.3968 7.11111 55.5683L7.61905 55.1619L8.12698 55.5683C10.0571 57.3968 13.3079 57.3968 15.2381 55.5683L15.746 55.1619L16.254 55.5683C18.1841 57.3968 21.4349 57.3968 23.3651 55.5683L23.873 55.1619L24.381 55.5683C26.3111 57.3968 29.5619 57.3968 31.4921 55.5683L32 55.1619L32.5079 55.5683C34.4381 57.3968 37.6889 57.3968 39.619 55.5683L40.127 55.1619L40.6349 55.5683C41.5492 56.4825 42.8698 56.9905 44.1905 56.9905C45.5111 56.9905 46.8317 56.4825 47.746 55.5683L48.254 55.1619L48.7619 55.5683C50.6921 57.3968 53.9429 57.3968 55.873 55.5683L56.381 55.1619L56.8889 55.5683C57.8032 56.4825 59.1238 56.9905 60.4444 56.9905C61.7651 56.9905 63.0857 56.4825 64 55.5683" fill="#181F4E"/>
</g>
<defs>
<clipPath id="clip0_4580_1388">
<rect width="64" height="64" fill="white"/>
</clipPath>
</defs>
</svg>
