<svg width="64" height="64" viewBox="0 0 64 64" fill="none" xmlns="http://www.w3.org/2000/svg">
<path d="M43.1752 34.4381C42.972 34.6413 42.972 34.946 43.1752 35.1492C43.2768 35.2508 43.3784 35.2508 43.5816 35.2508C43.7847 35.2508 43.8863 35.2508 43.9879 35.1492L56.0768 23.0603H54.6546L43.1752 34.4381Z" fill="#181F4E"/>
<path d="M57.8038 18.0826H41.5498C41.5498 18.0826 41.5498 18.0826 41.4482 18.0826H32.0006C31.2895 18.0826 30.68 18.3873 30.172 18.7937L24.4831 24.4826C24.0768 24.8889 23.8736 25.2952 23.772 25.8032C23.6705 26.1079 23.6705 26.5143 23.772 26.8191C23.8736 27.1238 23.9752 27.5302 24.1784 27.8349C24.5847 28.4445 25.2958 28.8508 26.007 28.8508C26.1085 28.8508 26.1085 28.8508 26.2101 28.8508C26.9212 28.8508 27.5308 28.546 28.0387 28.1397L33.0165 23.1619H34.8451L30.9847 27.0222L29.6641 28.4445C29.0546 29.054 28.8514 29.8667 28.953 30.5778L23.8736 35.5556H14.8324C13.5117 35.5556 12.3943 36.4699 12.1911 37.6889C12.0895 38.4 12.2927 39.2127 12.8006 39.7206C13.3085 40.3302 14.0197 40.6349 14.7308 40.6349H24.8895C25.6006 40.6349 26.2101 40.3302 26.7181 39.9238L32.1022 34.5397L36.7752 39.2127V48.254C36.7752 49.5746 37.6895 50.6921 38.9085 50.8953C39.0101 50.8953 39.2133 50.8953 39.3149 50.8953C39.9244 50.8953 40.5339 50.6921 40.9403 50.2857C41.5498 49.7778 41.8546 49.0667 41.8546 48.3556V38.1968C41.8546 37.4857 41.5498 36.8762 41.1435 36.3683L36.4705 31.6953L43.9879 24.1778C44.2927 23.873 44.4959 23.5683 44.699 23.1619H57.8038C59.226 23.1619 60.3435 22.0445 60.3435 20.6222C60.3435 19.2 59.226 18.0826 57.8038 18.0826ZM45.0038 22.146C45.207 21.0286 44.8006 19.9111 43.9879 19.0984H57.8038C58.6165 19.0984 59.3276 19.8095 59.3276 20.6222C59.3276 21.4349 58.6165 22.146 57.8038 22.146H45.0038ZM43.48 23.1619C43.3784 23.2635 43.3784 23.3651 43.2768 23.4667L35.7593 30.9841L32.2038 27.4286L36.4705 23.1619H37.5879C37.8927 23.1619 38.0958 22.9587 38.0958 22.654C38.0958 22.5524 38.0959 22.4508 37.9943 22.4508C37.8927 22.2476 37.7911 22.146 37.5879 22.146H33.0165C32.9149 22.146 32.7117 22.2476 32.6101 22.2476L27.3276 27.4286C27.0228 27.7333 26.6165 27.9365 26.1085 27.8349C25.7022 27.8349 25.2958 27.5302 24.9911 27.2254C24.8895 27.1238 24.8895 27.0222 24.7879 26.8191C24.6863 26.5143 24.6863 26.1079 24.7879 25.8032C24.8895 25.6 24.9911 25.3968 25.1943 25.1937L30.8831 19.5048C31.1879 19.2 31.5943 19.0984 32.0006 19.0984H41.5498C41.5498 19.0984 41.5498 19.0984 41.6514 19.0984C41.6514 19.0984 41.6514 19.0984 41.753 19.0984C42.2609 19.0984 42.7689 19.4032 43.2768 19.7079L43.3784 19.8095C43.9879 20.4191 44.1911 21.3333 44.0895 22.146C44.0895 22.3492 43.9879 22.4508 43.8863 22.654C43.6832 22.7556 43.5816 22.9587 43.48 23.1619ZM40.8387 48.254C40.8387 48.6603 40.6355 49.1683 40.3308 49.3714C40.026 49.6762 39.5181 49.7778 39.1117 49.6762C38.4006 49.5746 37.7911 48.8635 37.7911 48.0508V38.8064C37.7911 38.7048 37.6895 38.5016 37.6895 38.4L32.9149 33.6254L32.5085 33.4222L30.2736 31.1873C30.172 31.0857 30.0705 30.8826 29.9689 30.781C29.8673 30.5778 29.8673 30.3746 29.8673 30.1714C29.8673 29.7651 29.9689 29.3587 30.2736 29.054L31.2895 27.9365L40.4324 37.0794C40.7371 37.3841 40.8387 37.7905 40.8387 38.1968V48.254ZM14.8324 39.6191C14.426 39.6191 13.9181 39.4159 13.6133 39.1111C13.3085 38.8064 13.207 38.2984 13.3085 37.8921C13.4101 37.181 14.1212 36.673 14.9339 36.673H24.1784C24.28 36.673 24.4832 36.5714 24.5847 36.5714L29.4609 31.6953C29.5625 31.7968 29.6641 32 29.7657 32.1016L31.5943 33.9302L26.2101 39.3143C25.8038 39.5175 25.3974 39.6191 24.9911 39.6191H14.8324Z" fill="#181F4E"/>
<path d="M44.4958 17.0667C46.426 17.0667 48.0514 15.4413 48.0514 13.5111C48.0514 11.581 46.426 9.95557 44.4958 9.95557C42.5657 9.95557 40.9403 11.581 40.9403 13.5111C40.9403 15.4413 42.5657 17.0667 44.4958 17.0667ZM44.4958 10.9714C45.9181 10.9714 47.0355 12.0889 47.0355 13.5111C47.0355 14.9333 45.9181 16.0508 44.4958 16.0508C43.0736 16.0508 41.9562 14.9333 41.9562 13.5111C41.9562 12.0889 43.1752 10.9714 44.4958 10.9714Z" fill="#181F4E"/>
<path d="M52.5212 49.7778C52.2165 49.7778 52.0133 49.981 52.0133 50.2857C52.0133 51.0984 51.3022 51.8095 50.4895 51.8095H28.1403C27.8355 51.8095 27.6324 52.0127 27.6324 52.3175C27.6324 52.6222 27.8355 52.8254 28.1403 52.8254H50.4895C51.9117 52.8254 53.0292 51.708 53.0292 50.2857C53.0292 50.0826 52.826 49.7778 52.5212 49.7778Z" fill="#181F4E"/>
<path d="M22.3498 48.5587C21.7403 49.1683 20.826 49.1683 20.2165 48.5587L4.36886 32.7111C4.16569 32.5079 3.86093 32.5079 3.65775 32.7111C3.45458 32.9143 3.45458 33.2191 3.65775 33.4222L19.5054 49.2699C20.0133 49.7778 20.6228 49.981 21.3339 49.981C21.9435 49.981 22.6546 49.7778 23.1625 49.2699C23.3657 49.0667 23.3657 48.7619 23.1625 48.5587C22.9593 48.3556 22.553 48.3556 22.3498 48.5587Z" fill="#181F4E"/>
<path d="M23.8736 25.8032H5.99426C5.6895 25.8032 5.48632 26.0064 5.48632 26.3111C5.48632 26.6159 5.6895 26.8191 5.99426 26.8191H23.8736C23.772 26.5143 23.772 26.2095 23.8736 25.8032Z" fill="#181F4E"/>
</svg>
