<svg width="64" height="64" viewBox="0 0 64 64" fill="none" xmlns="http://www.w3.org/2000/svg">
<path d="M57.0922 41.6508H56.4827C56.2795 40.5333 55.2637 39.619 54.0446 39.619H50.997C50.6922 39.619 50.4891 39.8222 50.4891 40.127C50.4891 40.4317 50.6922 40.6349 50.997 40.6349H54.0446C54.7557 40.6349 55.2637 41.0413 55.4668 41.6508H49.9811C48.8637 41.6508 47.9494 42.5651 47.9494 43.6825V44.6984C47.9494 45.8159 48.8637 46.7301 49.9811 46.7301H57.0922C58.2097 46.7301 59.124 45.8159 59.124 44.6984V43.6825C59.124 42.5651 58.2097 41.6508 57.0922 41.6508ZM58.1081 44.6984C58.1081 45.3079 57.7018 45.7143 57.0922 45.7143H49.9811C49.3716 45.7143 48.9653 45.3079 48.9653 44.6984V43.6825C48.9653 43.073 49.3716 42.6666 49.9811 42.6666H57.0922C57.7018 42.6666 58.1081 43.073 58.1081 43.6825V44.6984Z" fill="#181F4E"/>
<path d="M39.5176 24.7873C40.4319 24.7873 41.3462 24.3809 42.0573 23.7714C42.7684 23.1619 43.0732 22.2476 43.0732 21.2317C43.0732 20.3174 42.6668 19.4032 42.0573 18.692C40.7367 17.3714 38.4002 17.3714 37.0795 18.692C36.3684 19.4032 36.0637 20.2159 36.0637 21.2317C36.0637 22.2476 36.47 23.0603 37.0795 23.7714C37.6891 24.4825 38.6034 24.7873 39.5176 24.7873ZM37.7907 19.4032C38.2986 18.8952 38.9081 18.692 39.6192 18.692C40.3303 18.692 40.9399 18.9968 41.4478 19.4032C41.9557 19.8095 42.1589 20.5206 42.1589 21.2317C42.1589 21.9428 41.8541 22.5524 41.4478 23.0603C40.5335 23.9746 38.8065 23.9746 37.8922 23.0603C37.3843 22.5524 37.1811 21.9428 37.1811 21.2317C37.1811 20.5206 37.2827 19.9111 37.7907 19.4032Z" fill="#181F4E"/>
<path d="M47.8478 35.9619L36.3684 24.4825C35.0478 23.1619 32.7113 23.1619 31.3907 24.4825L23.3653 32.4063L21.943 33.8286C21.0287 34.7428 20.9272 36.0635 21.6383 36.9778L16.9653 41.6508H7.8224C6.40018 41.6508 5.28271 42.7682 5.28271 44.1905C5.28271 45.6127 6.40018 46.7301 7.8224 46.7301H17.9811C18.6922 46.7301 19.3018 46.4254 19.8097 46.019L26.9208 38.9079H29.4605L26.616 41.7524C26.1081 42.2603 25.9049 42.8698 25.9049 43.5809C25.9049 44.292 26.2097 44.9016 26.616 45.4095C27.124 45.9174 27.7335 46.1206 28.4446 46.1206C29.1557 46.1206 29.7653 45.8159 30.2732 45.4095L37.4859 38.1968C37.9938 37.6889 38.197 37.0793 38.197 36.3682C38.197 34.946 37.0795 33.8286 35.6573 33.8286H32.0002L35.251 30.5778L44.1907 39.5174C44.6986 40.0254 45.3081 40.2286 46.0192 40.2286C46.6287 40.2286 47.3399 40.0254 47.8478 39.5174C48.3557 39.0095 48.5589 38.4 48.5589 37.6889C48.5589 36.9778 48.2541 36.4698 47.8478 35.9619ZM44.9018 38.8063L34.0319 27.9365C34.0319 27.9365 33.9303 27.9365 33.9303 27.8349C33.7272 27.7333 33.524 27.7333 33.3208 27.9365C33.1176 28.1397 33.1176 28.4444 33.3208 28.6476L34.4383 29.7651L27.9367 36.2666L26.4129 34.7428L26.3113 34.5397L24.5843 32.8127L32.1018 25.2952C33.0161 24.3809 34.743 24.3809 35.6573 25.2952L47.2383 36.8762C47.543 37.1809 47.6446 37.5873 47.6446 37.9936C47.6446 38.4 47.4414 38.8063 47.2383 39.1111C46.5272 39.4159 45.5113 39.4159 44.9018 38.8063ZM6.29859 44.1905C6.29859 43.3778 7.0097 42.6666 7.8224 42.6666H17.1684C17.27 42.6666 17.4732 42.5651 17.5748 42.5651L22.7557 37.3841C22.9589 37.1809 22.9589 36.8762 22.7557 36.673C22.1462 36.0635 22.1462 35.1492 22.7557 34.5397L23.8732 33.4222L27.5303 37.0793L19.3018 45.3079C18.997 45.6127 18.5907 45.7143 18.1843 45.7143H8.02557C7.0097 45.7143 6.29859 45.1047 6.29859 44.1905ZM35.6573 34.8444C36.47 34.8444 37.1811 35.5555 37.1811 36.3682C37.1811 36.7746 36.978 37.1809 36.7748 37.4857L29.5621 44.6984C28.9526 45.3079 27.9367 45.3079 27.4287 44.6984C27.124 44.3936 27.0224 43.9873 27.0224 43.5809C27.0224 43.1746 27.2256 42.7682 27.4287 42.4635L31.1875 38.7047C31.2891 38.6032 31.3907 38.2984 31.2891 38.1968C31.1875 37.9936 30.9843 37.892 30.7811 37.892H28.0383L31.0859 34.8444H35.6573Z" fill="#181F4E"/>
</svg>
