<svg width="64" height="64" viewBox="0 0 64 64" fill="none" xmlns="http://www.w3.org/2000/svg">
<g clip-path="url(#clip0_4580_1305)">
<path d="M64 39.619C53.4349 39.7206 42.8698 42.2603 33.5238 46.9333L20.7238 53.3333C17.3714 55.0603 13.7143 55.873 9.95556 55.873H0V56.8889H9.95556C13.8159 56.8889 17.6762 55.9746 21.1302 54.2476L33.9302 47.8476C43.1746 43.1746 53.6381 40.7365 64 40.6349" fill="#181F4E"/>
<path d="M17.8794 44.4952C18.2857 44.8 18.7937 44.9016 19.2 44.9016C19.5048 44.9016 19.7079 44.9016 20.0127 44.8C20.7238 44.5968 21.3333 44.0889 21.6381 43.3778L24.9905 35.2508C24.8889 35.1492 24.6857 35.0476 24.5841 34.946C24.4825 34.8444 24.2794 34.7428 24.1778 34.6412L20.7238 43.073C20.5206 43.4793 20.2159 43.7841 19.8095 43.9873C19.4032 44.0889 18.8952 44.0889 18.4889 43.7841C17.8794 43.3778 17.6762 42.5651 17.981 41.8539L21.4349 33.5238C21.2317 33.5238 21.1302 33.4222 20.927 33.4222C20.7238 33.4222 20.6222 33.4222 20.419 33.4222L17.0667 41.4476C16.3556 42.4635 16.7619 43.8857 17.8794 44.4952Z" fill="#181F4E"/>
<path d="M21.1302 32.3047L18.5905 26.1079L22.5524 27.7333L24.4825 32.4063C24.6857 32.8127 24.6857 33.219 24.4825 33.5238C24.5841 33.6254 24.7873 33.727 24.8889 33.8285C24.9905 33.9301 25.1937 34.0317 25.2952 34.1333L25.3968 33.9301C25.7016 33.3206 25.7016 32.6095 25.3968 32L23.873 28.2412L26.6159 29.3587L30.0698 37.6889C30.4762 38.7047 31.4921 39.3143 32.5079 39.3143C32.7111 39.3143 32.9143 39.3143 33.0159 39.2127C33.727 39.0095 34.3365 38.6031 34.7429 37.892C35.0476 37.1809 35.1492 36.4698 34.8444 35.7587L30.9841 26.4127C30.6794 25.8031 30.273 25.2952 29.5619 24.9904L23.873 22.6539L29.2571 17.2698L32.5079 20.5206C33.0159 21.0285 33.6254 21.2317 34.3365 21.2317C34.6413 21.2317 34.946 21.1301 35.3524 21.0285L42.8698 17.8793C43.4794 17.5746 43.9873 17.1682 44.2921 16.4571C44.4952 15.8476 44.4952 15.1365 44.2921 14.527C43.7841 13.2063 42.2603 12.5968 40.9397 13.1047L35.0476 15.5428L30.4762 10.9714C29.7651 10.2603 28.9524 9.95553 27.9365 9.95553C27.0222 9.95553 26.1079 10.3619 25.3968 10.9714L17.473 18.8952C17.1683 19.2 16.8635 19.6063 16.6603 20.0127L15.8476 21.9428C15.3397 23.2635 15.9492 24.6857 17.1683 25.1936L19.9111 31.8984C20.1143 31.8984 20.3175 31.8984 20.5206 31.8984C20.7238 32.2031 20.927 32.2031 21.1302 32.3047ZM18.1841 19.9111L26.1079 11.9873C26.6159 11.4793 27.2254 11.2762 27.9365 11.2762C28.6476 11.2762 29.2571 11.5809 29.7651 11.9873C29.7651 11.9873 29.7651 12.0889 29.8667 12.0889L34.6413 16.8635C34.7429 16.9651 35.0476 17.0666 35.1492 16.9651L41.4476 14.4254C42.2603 14.1206 43.073 14.4254 43.4794 15.2381C43.6825 15.6444 43.6825 16.0508 43.4794 16.3555C43.2762 16.7619 42.9714 17.0666 42.6667 17.1682L35.1492 20.3174C34.5397 20.5206 33.9302 20.419 33.5238 20.0127L30.273 16.7619L29.6635 16.2539L28.1397 14.7301C28.1397 14.7301 28.0381 14.7301 28.0381 14.6285C27.8349 14.527 27.6317 14.527 27.4286 14.7301C27.2254 14.9333 27.2254 15.2381 27.4286 15.4412L28.546 16.5587L22.8571 22.3492L17.7778 20.2158C17.981 20.1143 18.0825 20.0127 18.1841 19.9111ZM17.981 24.6857L17.6762 24.5841C17.5746 24.4825 17.473 24.4825 17.3714 24.3809C16.9651 24.0762 16.7619 23.6698 16.7619 23.1619C16.7619 23.0603 16.7619 22.8571 16.8635 22.7555V22.6539L16.9651 22.3492L17.3714 21.2317L18.3873 21.7397L20.8254 22.7555L21.5365 23.0603L21.9429 23.2635L22.9587 23.6698L28.9524 26.2095C29.3587 26.4127 29.6635 26.6158 29.7651 27.0222L33.6254 36.3682C33.8286 36.7746 33.8286 37.2825 33.6254 37.6889C33.4222 38.0952 33.0159 38.4 32.6095 38.5016C31.8984 38.7047 31.0857 38.1968 30.781 37.4857L27.2254 28.9524C27.1238 28.8508 27.1238 28.7492 26.9206 28.6476L23.3651 26.9206L22.654 26.6158L22.0444 26.4127L18.6921 24.9904H18.5905L17.981 24.6857Z" fill="#181F4E"/>
<path d="M40.9397 22.6539C38.8064 23.5682 37.181 25.1936 36.2667 27.327C35.3524 29.4603 35.3524 31.7968 36.2667 33.9301C37.181 36.0635 38.8064 37.6889 40.9397 38.6031C41.9556 39.0095 43.1746 39.3143 44.2921 39.3143C45.4095 39.3143 46.527 39.1111 47.6444 38.6031C49.7778 37.6889 51.4032 36.0635 52.3175 33.9301C53.2317 31.7968 53.2317 29.4603 52.3175 27.327C51.4032 25.1936 49.7778 23.5682 47.6444 22.6539C45.4095 21.8412 43.073 21.8412 40.9397 22.6539ZM51.2 27.7333C52.0127 29.6635 52.0127 31.6952 51.2 33.5238C50.3873 35.4539 48.9651 36.8762 47.0349 37.6889C45.1048 38.5016 43.073 38.5016 41.2444 37.6889C39.3143 36.8762 37.8921 35.4539 37.0794 33.5238C36.2667 31.5936 36.2667 29.5619 37.0794 27.7333C37.8921 25.8031 39.3143 24.3809 41.2444 23.5682C42.1587 23.1619 43.1746 22.9587 44.1905 22.9587C45.2064 22.9587 46.1206 23.1619 47.1365 23.5682C48.9651 24.3809 50.4889 25.9047 51.2 27.7333Z" fill="#181F4E"/>
<path d="M16.4571 48.7619C17.473 49.1682 18.6921 49.473 19.8095 49.473C20.927 49.473 22.0444 49.2698 23.1619 48.7619C27.5302 46.9333 29.6635 41.8539 27.8349 37.4857C27.327 36.1651 26.4127 35.0476 25.3968 34.1333C25.2952 34.0317 25.0921 33.9301 24.9905 33.8285C24.8889 33.727 24.6857 33.6254 24.5841 33.5238C23.5683 32.9143 22.4508 32.4063 21.2317 32.2031C21.0286 32.2031 20.8254 32.1016 20.6222 32.1016C20.419 32.1016 20.2159 32.1016 20.0127 32.1016C18.8952 32.1016 17.6762 32.3047 16.5587 32.7111C14.4254 33.6254 12.8 35.2508 11.8857 37.3841C10.9714 39.5174 10.9714 41.8539 11.8857 43.9873C12.8 46.1206 14.3238 47.8476 16.4571 48.7619ZM12.8 37.892C13.6127 35.9619 15.0349 34.5397 16.9651 33.727C17.8794 33.3206 18.8952 33.1174 19.9111 33.1174C20.0127 33.1174 20.2159 33.1174 20.3175 33.1174C20.5206 33.1174 20.7238 33.1174 20.8254 33.1174C21.0286 33.1174 21.1302 33.219 21.3333 33.219C22.3492 33.4222 23.2635 33.8285 24.1778 34.4381C24.2794 34.5397 24.4825 34.6412 24.5841 34.7428C24.6857 34.8444 24.8889 34.946 24.9905 35.0476C25.8032 35.7587 26.5143 36.673 26.9206 37.7905C28.546 41.6508 26.7175 46.1206 22.7556 47.746C20.8254 48.5587 18.7937 48.5587 16.9651 47.746C15.0349 46.9333 13.6127 45.5111 12.8 43.5809C11.9873 41.8539 11.9873 39.7206 12.8 37.892Z" fill="#181F4E"/>
<path d="M31.2889 10.6666L35.3524 12.3936C35.454 12.3936 35.454 12.3936 35.5556 12.3936C35.6571 12.3936 35.8603 12.292 35.9619 12.292L36.9778 11.2762C37.181 11.073 37.181 10.7682 36.9778 10.5651L34.946 8.5333H39.8222C40.0254 8.5333 40.2286 8.33013 40.3302 8.12696C40.4317 7.92378 40.3302 7.72061 40.127 7.51743L35.5556 4.87616C34.946 4.5714 34.4381 4.36823 33.8286 4.36823C31.8984 4.36823 30.273 5.99362 30.273 7.92378C30.273 8.83807 30.6794 9.75235 31.2889 10.4635C31.1873 10.5651 31.1873 10.6666 31.2889 10.6666ZM33.6254 5.48569C34.0317 5.48569 34.5397 5.58727 34.8444 5.79045L37.7905 7.51743H33.6254C33.4222 7.51743 33.219 7.61902 33.1175 7.82219C33.0159 8.02537 33.1175 8.22854 33.2191 8.33013L35.7587 10.8698L35.3524 11.2762L31.6952 9.75235C31.2889 9.24442 30.9841 8.63489 30.9841 8.02537C31.0857 6.60315 32.2032 5.48569 33.6254 5.48569Z" fill="#181F4E"/>
</g>
<defs>
<clipPath id="clip0_4580_1305">
<rect width="64" height="64" fill="white"/>
</clipPath>
</defs>
</svg>
