<svg width="64" height="64" viewBox="0 0 64 64" fill="none" xmlns="http://www.w3.org/2000/svg">
<path d="M53.6377 22.3492L53.2314 21.9429C52.825 22.2476 52.4187 22.3492 51.9107 22.3492C50.4885 22.3492 49.3711 21.2317 49.3711 19.8095C49.3711 19.3016 49.5742 18.7936 49.7774 18.3873L49.0663 17.6762C48.6599 18.2857 48.3552 18.9968 48.3552 19.8095C48.3552 21.7397 49.9806 23.3651 51.9107 23.3651C52.9266 23.3651 53.7393 22.9587 54.4504 22.3492C54.3488 22.4508 54.2473 22.4508 54.1457 22.4508C53.9425 22.5524 53.7393 22.4508 53.6377 22.3492Z" fill="#181F4E"/>
<path d="M55.3647 20.1143C55.3647 20.0127 55.3647 19.9111 55.3647 19.8095C55.4663 19.9111 55.3647 20.0127 55.3647 20.1143Z" fill="#181F4E"/>
<path d="M48.9647 28.546L50.1838 29.7651C54.3488 30.7809 57.498 34.6413 57.498 39.1111C57.498 44.3936 53.1298 48.7619 47.8473 48.7619C42.5647 48.7619 38.1965 44.3936 38.1965 39.1111C38.1965 35.2508 40.4314 32 43.6822 30.3746L42.9711 29.6635C42.9711 29.6635 42.9711 29.6635 42.8695 29.5619C39.4155 31.3905 37.079 34.946 37.079 39.0095C37.079 44.9016 41.8536 49.6762 47.7457 49.6762C53.6377 49.6762 58.4123 44.9016 58.4123 39.0095C58.5139 33.6254 54.2473 29.054 48.9647 28.546Z" fill="#181F4E"/>
<path d="M16.152 28.4444C10.26 28.4444 5.48535 33.219 5.48535 39.1111C5.48535 45.0032 10.3615 49.7778 16.152 49.7778C21.9425 49.7778 26.8187 45.0032 26.8187 39.1111C26.8187 33.219 22.0441 28.4444 16.152 28.4444ZM16.152 48.7619C10.8695 48.7619 6.50122 44.3936 6.50122 39.1111C6.50122 33.8286 10.8695 29.4603 16.152 29.4603C21.4346 29.4603 25.8028 33.8286 25.8028 39.1111C25.8028 44.3936 21.5361 48.7619 16.152 48.7619Z" fill="#181F4E"/>
<path d="M16.152 32.5079C12.4949 32.5079 9.54884 35.454 9.54884 39.1111C9.54884 42.7683 12.4949 45.7143 16.152 45.7143C19.8092 45.7143 22.7552 42.7683 22.7552 39.1111C22.7552 35.454 19.8092 32.5079 16.152 32.5079ZM16.152 44.6984C13.1044 44.6984 10.5647 42.1587 10.5647 39.1111C10.5647 36.0635 13.1044 33.5238 16.152 33.5238C19.1996 33.5238 21.7393 36.0635 21.7393 39.1111C21.7393 42.1587 19.3012 44.6984 16.152 44.6984Z" fill="#181F4E"/>
<path d="M16.152 36.5714C14.7298 36.5714 13.6123 37.6889 13.6123 39.1111C13.6123 40.5333 14.7298 41.6508 16.152 41.6508C17.5742 41.6508 18.6917 40.5333 18.6917 39.1111C18.6917 37.6889 17.5742 36.5714 16.152 36.5714ZM16.152 40.6349C15.3393 40.6349 14.6282 39.9238 14.6282 39.1111C14.6282 38.2984 15.3393 37.5873 16.152 37.5873C16.9647 37.5873 17.6758 38.2984 17.6758 39.1111C17.6758 39.9238 17.0663 40.6349 16.152 40.6349Z" fill="#181F4E"/>
<path d="M49.0663 17.7778L53.7393 22.4508C53.8409 22.5524 53.9425 22.5524 54.1457 22.5524C54.2473 22.5524 54.3488 22.5524 54.4504 22.4508C54.7552 22.146 54.9584 21.8413 55.1615 21.4349C55.1615 21.4349 55.1615 21.3333 55.2631 21.3333C55.3647 21.2317 55.3647 21.0286 55.3647 20.8254C55.3647 20.7238 55.3647 20.7238 55.4663 20.6222C55.4663 20.5206 55.4663 20.3175 55.4663 20.2159C55.4663 20.1143 55.4663 20.0127 55.4663 19.9111C55.4663 19.8095 55.4663 19.7079 55.4663 19.6063C55.4663 19.5048 55.4663 19.3016 55.4663 19.2C55.4663 19.0984 55.4663 19.0984 55.3647 18.9968C55.3647 18.8952 55.2631 18.6921 55.2631 18.5905C55.2631 18.5905 55.2631 18.4889 55.1615 18.4889C54.9584 18.0825 54.7552 17.7778 54.4504 17.473C54.2473 17.2698 54.0441 17.1682 53.8409 16.9651C53.7393 16.9651 53.7393 16.8635 53.6377 16.8635C53.4346 16.7619 53.2314 16.6603 53.0282 16.5587C53.0282 16.5587 52.9266 16.5587 52.9266 16.4571L47.8473 15.1365C47.6441 15.0349 47.4409 15.1365 47.2377 15.3397C47.1361 15.5429 47.1361 15.746 47.3393 15.9492L49.0663 17.7778ZM50.1838 16.7619L52.5203 17.3714H52.6219C52.825 17.473 52.9266 17.473 53.1298 17.5746H53.2314C53.4346 17.6762 53.5361 17.7778 53.7393 17.8794C53.8409 17.9809 53.9425 18.0825 54.0441 18.1841C54.1457 18.2857 54.1457 18.3873 54.2473 18.4889C54.2473 18.4889 54.2473 18.5905 54.3488 18.5905C54.3488 18.6921 54.4504 18.7936 54.4504 18.8952C54.4504 18.9968 54.4504 18.9968 54.552 19.0984C54.552 19.2 54.552 19.2 54.552 19.3016C54.552 19.4032 54.552 19.5048 54.552 19.6063C54.552 19.8095 54.552 20.0127 54.4504 20.2159C54.4504 20.3175 54.4504 20.3175 54.4504 20.419C54.3488 20.6222 54.3488 20.8254 54.2473 20.927C54.2473 20.927 54.2473 20.927 54.2473 21.0286L50.6917 17.473L49.7774 16.9651L49.2695 16.4571L50.1838 16.7619Z" fill="#181F4E"/>
<path d="M43.6822 30.4762L48.66 35.454C49.1679 35.9619 49.879 36.2667 50.5901 36.2667C51.1996 36.2667 51.7076 36.0635 52.2155 35.6571C52.825 35.1492 53.1298 34.4381 53.1298 33.727C53.1298 33.0159 52.825 32.4063 52.4187 31.8984L47.4409 26.9206V19.8095C47.4409 17.8794 45.8155 16.254 43.8854 16.254H32.7107C31.6949 16.254 30.8822 16.6603 30.1711 17.2698L28.7488 18.6921C28.7488 18.6921 28.7488 18.7936 28.6473 18.7936C28.5457 18.8952 28.4441 18.9968 28.4441 19.0984C28.4441 19.2 28.3425 19.2 28.3425 19.3016C28.2409 19.5048 28.1393 19.7079 28.1393 19.9111C28.1393 20.1143 28.0377 20.2159 28.0377 20.419V40.7365C28.0377 42.1587 29.1552 43.2762 30.5774 43.2762C31.9996 43.2762 33.1171 42.1587 33.1171 40.7365V37.2825L40.2282 30.1714C40.7361 29.6635 40.9393 29.054 40.9393 28.3429C40.9393 27.6317 40.6346 27.0222 40.2282 26.5143L36.8758 23.3651H42.2599V27.9365C42.2599 28.546 42.4631 29.1556 42.9711 29.6635C42.9711 29.6635 42.9711 29.6635 43.0727 29.7651L43.6822 30.4762ZM28.8504 22.654L31.898 25.7016V31.2889L29.2568 33.9302C29.0536 34.1333 28.952 34.3365 28.8504 34.5397V22.654ZM31.898 40.8381C31.898 41.6508 31.1869 42.3619 30.3742 42.3619C29.5615 42.3619 28.8504 41.6508 28.8504 40.8381V36.7746C28.952 36.9778 29.1552 37.1809 29.2568 37.3841C29.7647 37.8921 30.3742 38.0952 31.0854 38.0952C31.3901 38.0952 31.5933 37.9936 31.898 37.9936V40.8381ZM39.4155 27.4286C39.7203 27.7333 39.8219 28.1397 39.8219 28.546C39.8219 28.9524 39.6187 29.3587 39.4155 29.6635L32.3044 36.7746C32.2028 36.8762 32.1012 36.8762 31.9996 36.9778C31.3901 37.3841 30.679 37.2825 30.0695 36.7746C29.7647 36.4698 29.6631 36.0635 29.6631 35.6571C29.6631 35.2508 29.8663 34.8444 30.0695 34.5397L31.9996 32.7111L35.86 28.8508C35.9615 28.7492 35.9615 28.6476 35.9615 28.4444C35.9615 28.3429 35.86 28.1397 35.86 28.0381L31.9996 24.1778L30.0695 22.3492L29.3584 21.6381C29.0536 21.3333 28.952 20.927 28.952 20.5206C28.952 20.419 28.952 20.3175 28.952 20.2159C28.952 20.1143 29.0536 20.0127 29.0536 19.9111C29.1552 19.8095 29.2568 19.6063 29.3584 19.5048C29.3584 19.5048 29.3584 19.5048 29.3584 19.4032L30.3742 18.3873L39.4155 27.4286ZM32.9139 30.273V26.7175L34.6409 28.4444L32.9139 30.273ZM42.7679 20.3175C42.4631 20.3175 42.2599 20.5206 42.2599 20.8254V22.3492H35.86L32.3044 18.7936C32.3044 18.7936 32.3044 18.7936 32.2028 18.6921L31.1869 17.6762C31.5933 17.3714 32.1012 17.2698 32.6092 17.2698H43.7838C45.206 17.2698 46.3234 18.3873 46.3234 19.8095V27.1238C46.3234 27.2254 46.425 27.4286 46.425 27.5302L51.606 32.7111C51.9107 33.0159 52.0123 33.4222 52.0123 33.8286C52.0123 34.2349 51.8092 34.7429 51.5044 34.946C50.8949 35.454 49.9806 35.3524 49.3711 34.7429L43.6822 29.054C43.3774 28.7492 43.2758 28.3429 43.2758 27.9365V20.7238C43.1742 20.5206 42.9711 20.3175 42.7679 20.3175Z" fill="#181F4E"/>
</svg>
