<svg width="64" height="64" viewBox="0 0 64 64" fill="none" xmlns="http://www.w3.org/2000/svg">
<g clip-path="url(#clip0_4580_1714)">
<path d="M15.8476 45.8159V32C15.8476 31.6952 15.6444 31.492 15.3397 31.492H0V32.5079H14.8317V45.8159C14.8317 54.2476 20.3175 61.4603 27.9365 64H34.0317C24.0762 64 15.8476 55.873 15.8476 45.8159Z" fill="#181F4E"/>
<path d="M47.3397 17.5746H40.9397L38.5016 11.6825C37.9937 10.3619 36.4698 9.75236 35.1492 10.2603C34.5397 10.5651 34.0317 10.9714 33.727 11.6825C33.5238 12.292 33.5238 13.0032 33.727 13.6127L36.8762 21.1301C37.2825 22.0444 38.1968 22.6539 39.2127 22.6539H43.7841V30.273L38.0952 27.9365C37.4857 27.6317 36.7746 27.6317 36.1651 27.9365L26.819 31.7968C26.1079 32.1016 25.6 32.6095 25.3968 33.3206C25.1937 34.0317 25.2952 34.8444 25.7016 35.454C26.3111 36.4698 27.7333 36.8762 28.9524 36.4698L37.2825 33.0159L40.0254 34.1333L36.2667 35.6571C35.6571 35.9619 35.1492 36.3682 34.8444 37.0793L34.7429 37.2825C34.946 37.2825 35.0476 37.2825 35.2508 37.3841C35.454 37.3841 35.5556 37.4857 35.7587 37.4857C35.9619 37.0793 36.1651 36.7746 36.5714 36.673L41.2444 34.7428L45.2064 36.3682L39.0095 38.9079C39.2127 39.0095 39.3143 39.1111 39.5175 39.3143C39.6191 39.4159 39.8222 39.5174 39.9238 39.7206L46.6286 36.9778C46.9333 37.0793 47.2381 37.1809 47.5429 37.1809C48.5587 37.1809 49.473 36.5714 49.8794 35.6571L50.6921 33.727C50.8952 33.3206 50.9968 32.8127 50.9968 32.4063V21.2317C50.8952 19.0984 49.3714 17.5746 47.3397 17.5746ZM49.0667 34.8444L48.9651 35.1492C48.9651 35.1492 48.9651 35.2508 48.8635 35.2508C48.7619 35.3524 48.7619 35.4539 48.6603 35.5555C48.3556 35.8603 47.8476 36.0635 47.3397 35.9619C47.2381 35.9619 47.0349 35.9619 46.9333 35.8603L46.019 35.5555H45.9175L42.6667 34.1333L41.2444 33.5238L37.3841 31.8984C37.2825 31.8984 37.2825 31.8984 37.181 31.8984C37.0794 31.8984 37.0794 31.8984 36.9778 31.8984L28.546 35.5555C27.8349 35.8603 26.9206 35.6571 26.6159 34.946C26.4127 34.5397 26.3111 34.1333 26.4127 33.6254C26.5143 33.219 26.819 32.8127 27.327 32.7111L36.673 28.8508C37.0794 28.6476 37.4857 28.6476 37.7905 28.8508L43.7841 31.3905L44.8 31.7968L45.2064 32L45.9175 32.3047L48.3556 33.3206L49.3714 33.8286L49.0667 34.8444ZM49.8794 32.3047C49.8794 32.5079 49.8794 32.6095 49.8794 32.8127L44.8 30.6793V22.6539H46.3238C46.6286 22.6539 46.8317 22.4508 46.8317 22.146C46.8317 21.9428 46.6286 21.7397 46.4254 21.6381H39.2127C38.6032 21.6381 38.0952 21.2317 37.7905 20.7238L34.7429 13.2063C34.5397 12.8 34.5397 12.3936 34.7429 12.0889C34.946 11.6825 35.2508 11.3778 35.5556 11.2762C36.3683 10.9714 37.181 11.2762 37.5873 12.0889L40.127 18.3873C40.2286 18.5905 40.4317 18.692 40.6349 18.692H47.3397C48.7619 18.692 49.8794 19.8095 49.8794 21.2317V32.3047Z" fill="#181F4E"/>
<path d="M31.0857 48.5587C31.3905 49.1682 32 49.6762 32.8127 49.8793C33.0159 49.8793 33.219 49.9809 33.3206 49.9809C34.3365 49.9809 35.3524 49.3714 35.7587 48.3555L39.1111 40.2285C39.0095 40.127 38.8063 40.0254 38.7048 39.9238C38.6032 39.8222 38.4 39.7206 38.2984 39.619L34.8444 47.9492C34.5397 48.6603 33.727 49.1682 33.0159 48.9651C32.6095 48.8635 32.2032 48.5587 32 48.1524C31.7968 47.746 31.7968 47.2381 31.8984 46.8317L35.3524 38.4C35.1492 38.4 35.0476 38.2984 34.8444 38.2984C34.6413 38.2984 34.5397 38.2984 34.3365 38.2984L30.9841 46.4254C30.6794 47.1365 30.6794 47.9492 31.0857 48.5587Z" fill="#181F4E"/>
<path d="M20.5206 29.4603C21.5365 29.8666 22.7556 30.1714 23.873 30.1714C24.9905 30.1714 26.1079 29.9682 27.2254 29.4603C29.3587 28.546 30.9841 26.9206 31.8984 24.7873C32.8127 22.6539 32.8127 20.3174 31.8984 18.1841C30.0698 13.8159 24.9905 11.6825 20.6222 13.5111C18.4889 14.4254 16.8635 16.0508 15.9492 18.1841C15.0349 20.3174 15.0349 22.6539 15.9492 24.7873C16.8635 26.9206 18.4889 28.546 20.5206 29.4603ZM16.8635 18.5905C17.6762 16.6603 19.0984 15.2381 21.0286 14.4254C21.9429 14.019 22.9587 13.8159 23.9746 13.8159C26.9206 13.8159 29.7651 15.5428 30.9841 18.4889C31.7968 20.419 31.7968 22.4508 30.9841 24.2793C30.1714 26.1079 28.7492 27.6317 26.819 28.4444C24.8889 29.2571 22.8571 29.2571 21.0286 28.4444C19.0984 27.6317 17.6762 26.2095 16.8635 24.2793C16.0508 22.5524 16.0508 20.419 16.8635 18.5905Z" fill="#181F4E"/>
<path d="M39.1111 38.9079C38.6032 38.5016 37.9937 38.1968 37.3841 37.892C36.8762 37.6889 36.3683 37.5873 35.8603 37.3841C35.6571 37.3841 35.5556 37.2825 35.3524 37.2825C35.1492 37.2825 35.0476 37.1809 34.8444 37.1809C33.4222 37.0793 32.1016 37.2825 30.781 37.7905C28.6476 38.7047 27.0222 40.3301 26.1079 42.4635C25.1937 44.5968 25.1937 46.9333 26.1079 49.0666C27.5302 52.419 30.6794 54.3492 34.1333 54.3492C35.2508 54.3492 36.3683 54.146 37.3841 53.7397C39.5175 52.8254 41.1429 51.2 42.0571 49.0666C42.9714 46.9333 42.9714 44.5968 42.0571 42.4635C41.5492 41.346 40.9397 40.3301 40.0254 39.5174C39.9238 39.4159 39.7206 39.2127 39.619 39.1111C39.4159 39.1111 39.2127 39.0095 39.1111 38.9079ZM41.0413 42.9714C41.854 44.9016 41.854 46.9333 41.0413 48.7619C40.2286 50.692 38.8064 52.1143 36.8762 52.927C33.0159 54.5524 28.546 52.7238 26.9206 48.7619C26.1079 46.8317 26.1079 44.8 26.9206 42.9714C27.7333 41.0412 29.1556 39.619 31.0857 38.8063C32 38.4 33.0159 38.1968 34.0317 38.1968C34.1333 38.1968 34.2349 38.1968 34.4381 38.1968C34.6413 38.1968 34.7429 38.1968 34.946 38.1968C35.1492 38.1968 35.2508 38.1968 35.454 38.2984C35.9619 38.4 36.4698 38.5016 36.9778 38.7047C37.4857 38.9079 37.8921 39.1111 38.2984 39.4158C38.4 39.5174 38.6032 39.619 38.7048 39.7206C38.8063 39.8222 39.0095 39.9238 39.1111 40.0254C39.9238 40.9397 40.5333 41.8539 41.0413 42.9714Z" fill="#181F4E"/>
<path d="M46.1206 12.4952H43.2762C42.9714 12.4952 42.7683 12.6984 42.7683 13.0032V14.4254C42.7683 14.6285 42.8698 14.8317 43.073 14.9333L47.1365 16.6603C47.2381 16.6603 47.2381 16.6603 47.3397 16.6603C48.254 16.6603 49.1683 16.2539 49.8794 15.6444C50.5905 14.9333 50.8952 14.1206 50.8952 13.1047C50.8952 12.1905 50.4889 11.2762 49.8794 10.5651C49.473 10.1587 48.8635 9.85395 48.254 9.65077L43.1746 8.33014C42.9714 8.22855 42.7683 8.33014 42.5651 8.53331C42.3619 8.73649 42.5651 8.83807 42.6667 9.04125L46.1206 12.4952ZM48.0508 10.5651C48.4571 10.6666 48.8635 10.8698 49.1683 11.2762C49.6762 11.7841 49.8794 12.3936 49.8794 13.1047C49.8794 13.8159 49.5746 14.4254 49.1683 14.9333C48.7619 15.3397 48.1524 15.6444 47.4413 15.6444L43.7841 14.1206V13.6127H47.3397C47.5429 13.6127 47.746 13.5111 47.8476 13.3079C47.9492 13.1047 47.8476 12.9016 47.746 12.8L44.8 9.85395L48.0508 10.5651Z" fill="#181F4E"/>
</g>
<defs>
<clipPath id="clip0_4580_1714">
<rect width="64" height="64" fill="white"/>
</clipPath>
</defs>
</svg>
