<svg width="64" height="64" viewBox="0 0 64 64" fill="none" xmlns="http://www.w3.org/2000/svg">
<g clip-path="url(#clip0_4580_1549)">
<path d="M45.2064 55.873C42.0571 55.873 39.1111 54.654 36.9778 52.419L35.9619 51.4032C33.5238 49.0667 30.3746 47.746 26.9206 47.746H20.7238C17.5746 47.746 14.6286 46.527 12.4952 44.292L11.4794 43.2762C9.14286 40.9397 5.99365 39.619 2.53968 39.619H0V40.6349H2.53968C5.68889 40.6349 8.63492 41.854 10.7683 44.0889L11.7841 45.1048C14.2222 47.5428 17.3714 48.8635 20.7238 48.8635H26.9206C30.0698 48.8635 33.0159 50.0825 35.1492 52.3174L36.1651 53.3333C38.6032 55.7714 41.7524 57.0921 45.1048 57.0921H64V56.0762H45.2064V55.873Z" fill="#181F4E"/>
<path d="M47.5429 31.2889C42.0571 29.054 35.8603 31.5936 33.6254 37.0794C32.5079 39.7206 32.5079 42.5651 33.6254 45.2063C34.7429 47.8476 36.7746 49.8794 39.4159 50.9968C40.7365 51.5047 42.1587 51.8095 43.4794 51.8095C47.6444 51.8095 51.6064 49.3714 53.3333 45.2063C55.5683 39.8222 52.927 33.5238 47.5429 31.2889ZM52.3175 44.8C50.2857 49.6762 44.5968 52.0127 39.7206 49.9809C37.3841 48.9651 35.454 47.1365 34.5397 44.8C33.5238 42.4635 33.5238 39.8222 34.5397 37.3841C36.5714 32.5079 42.2603 30.1714 47.1365 32.2032C52.0127 34.2349 54.3492 39.9238 52.3175 44.8Z" fill="#181F4E"/>
<path d="M10.2603 38.9079C11.581 39.4159 13.0032 39.7206 14.3238 39.7206C15.6444 39.7206 17.0667 39.4159 18.3873 38.9079C21.0286 37.7905 23.0603 35.7587 24.1778 33.1174C25.2952 30.4762 25.2952 27.6317 24.1778 24.9905C23.0603 22.3492 21.0286 20.3174 18.3873 19.2C15.746 18.0825 12.9016 18.0825 10.2603 19.2C7.61905 20.3174 5.5873 22.3492 4.46984 24.9905C2.23492 30.4762 4.87619 36.673 10.2603 38.9079ZM5.38413 25.3968C6.4 23.0603 8.22857 21.1301 10.5651 20.2159C12.9016 19.2 15.5429 19.2 17.981 20.2159C20.3175 21.2317 22.2476 23.0603 23.1619 25.3968C24.0762 27.7333 24.1778 30.3746 23.1619 32.8127C22.146 35.2508 20.3175 37.0794 17.981 37.9936C15.6444 39.0095 13.0032 39.0095 10.5651 37.9936C5.79048 35.9619 3.35238 30.273 5.38413 25.3968Z" fill="#181F4E"/>
<path d="M24.7873 36.4698C25.0921 37.0794 25.4984 37.5873 26.2095 37.892C26.5143 37.9936 26.819 38.0952 27.2254 38.0952C27.5302 38.0952 27.8349 37.9936 28.2413 37.892C28.8508 37.5873 29.3587 37.1809 29.6635 36.4698L30.9841 33.219L40.3302 29.3587C41.6508 28.8508 42.2603 27.327 41.7524 26.0063L39.4159 20.419H47.0349V24.9905C47.0349 25.7016 47.3397 26.3111 47.746 26.819L53.5365 32.6095C54.0444 33.1174 54.654 33.3206 55.3651 33.3206C55.9746 33.3206 56.6857 33.1174 57.1937 32.6095C57.7016 32.1016 57.9048 31.492 57.9048 30.7809C57.9048 30.0698 57.6 29.4603 57.1937 28.9524L52.2159 23.9746V16.8635C52.2159 14.9333 50.5905 13.3079 48.6603 13.3079H37.4857C36.9778 13.3079 36.5714 13.4095 36.1651 13.6127L34.3365 14.4254C34.0317 14.527 33.727 14.7301 33.5238 14.9333C33.4222 15.0349 33.3206 15.1365 33.3206 15.2381C33.3206 15.2381 33.3206 15.3397 33.2191 15.3397C33.1175 15.4413 33.1175 15.5428 33.0159 15.746C33.0159 15.746 33.0159 15.746 33.0159 15.8476L24.7873 34.5397C24.4825 35.1492 24.4825 35.7587 24.7873 36.4698ZM37.181 14.3238H48.3556C49.7778 14.3238 50.8952 15.4413 50.8952 16.8635V24.0762C50.8952 24.1778 50.9968 24.3809 50.9968 24.4825L56.1778 29.6635C56.4825 29.9682 56.5841 30.3746 56.5841 30.7809C56.5841 31.1873 56.381 31.5936 56.1778 31.8984C55.5683 32.5079 54.654 32.5079 54.0444 31.8984L48.254 26.1079C47.9492 25.8032 47.8476 25.3968 47.8476 24.9905V17.7778C47.746 17.5746 47.6444 17.3714 47.3397 17.3714C47.0349 17.3714 46.8317 17.5746 46.8317 17.8794V19.4032H38.8064L37.2825 15.746L36.7746 14.4254C36.7746 14.3238 36.9778 14.3238 37.181 14.3238ZM33.4222 16.1524C33.5238 15.9492 33.6254 15.8476 33.727 15.746C33.727 15.746 33.727 15.746 33.8286 15.6444C33.8286 15.6444 33.8286 15.6444 33.9302 15.6444C34.0317 15.5428 34.1333 15.5428 34.2349 15.4413C34.2349 15.4413 34.3365 15.4413 34.3365 15.3397L34.6413 15.2381L35.7587 14.8317L36.2667 16.1524V16.254L37.0794 18.0825L37.6889 19.4032L38.0952 20.419L40.6349 26.4127C40.9397 27.2254 40.6349 28.0381 39.8222 28.4444L31.3905 31.8984L30.3746 32.3047C30.273 32.3047 30.1714 32.4063 30.0698 32.4063C29.7651 32.4063 29.4603 32.4063 29.2571 32.3047C28.8508 32.1016 28.546 31.8984 28.4444 31.4921C28.2413 31.0857 28.2413 30.6794 28.4444 30.3746C28.6476 29.9682 28.8508 29.6635 29.2571 29.5619L31.6952 28.546L33.0159 28.0381L36.7746 26.5143C36.8762 26.4127 36.9778 26.4127 37.0794 26.2095C37.181 26.0063 37.181 25.9047 37.0794 25.8032L35.5556 22.0444L35.0476 20.7238L34.0317 18.2857V18.1841L33.4222 17.2698C33.3206 16.8635 33.3206 16.4571 33.4222 16.1524ZM33.5238 26.6159L34.8444 23.3651L35.7587 25.7016L33.5238 26.6159ZM32.7111 17.9809L34.3365 21.9428L32.2032 27.1238L28.8508 28.546C28.6476 28.6476 28.3429 28.7492 28.2413 28.9524L32.7111 17.9809ZM25.7016 34.8444L27.2254 31.0857C27.2254 31.2889 27.327 31.5936 27.4286 31.7968C27.7333 32.4063 28.1397 32.9143 28.7492 33.219C29.054 33.3206 29.2571 33.4222 29.5619 33.4222L28.4444 36.0635C28.2413 36.4698 28.0381 36.7746 27.6317 36.8762C27.2254 37.0794 26.819 37.0794 26.5143 36.8762C26.2095 36.673 25.8032 36.4698 25.7016 36.0635C25.4984 35.6571 25.4984 35.2508 25.7016 34.8444Z" fill="#181F4E"/>
<path d="M56.4825 20.419C58.4127 20.419 60.0381 18.7936 60.0381 16.8635C60.0381 14.9333 58.4127 13.3079 56.4825 13.3079C54.5524 13.3079 52.927 14.9333 52.927 16.8635C52.927 18.7936 54.4508 20.419 56.4825 20.419ZM56.4825 14.3238C57.9048 14.3238 59.0222 15.4413 59.0222 16.8635C59.0222 18.2857 57.9048 19.4032 56.4825 19.4032C55.0603 19.4032 53.9429 18.2857 53.9429 16.8635C53.9429 15.4413 55.0603 14.3238 56.4825 14.3238Z" fill="#181F4E"/>
</g>
<defs>
<clipPath id="clip0_4580_1549">
<rect width="64" height="64" fill="white"/>
</clipPath>
</defs>
</svg>
