<svg width="64" height="64" viewBox="0 0 64 64" fill="none" xmlns="http://www.w3.org/2000/svg">
<g clip-path="url(#clip0_4580_1616)">
<path d="M57.6 54.7556L56.7873 53.9429C56.5841 53.7397 56.2794 53.7397 56.0762 53.9429L55.2635 54.7556C53.6381 56.2794 51.0984 56.2794 49.473 54.7556L48.6603 53.9429C48.4571 53.7397 48.1524 53.7397 47.9492 53.9429L47.1365 54.7556C45.6127 56.1778 42.8698 56.1778 41.346 54.7556L40.5333 53.9429C40.3302 53.7397 40.0254 53.7397 39.8222 53.9429L39.0095 54.7556C37.4857 56.1778 34.7429 56.1778 33.2191 54.7556L32.4064 53.9429C32.2032 53.7397 31.8984 53.7397 31.6952 53.9429L30.8825 54.7556C29.2571 56.2794 26.7175 56.2794 25.0921 54.7556L24.2794 53.9429C24.0762 53.7397 23.7714 53.7397 23.5683 53.9429L22.7556 54.7556C21.1302 56.2794 18.5905 56.2794 16.9651 54.7556L16.1524 53.9429C15.9492 53.7397 15.6444 53.7397 15.4413 53.9429L14.6286 54.7556C13.0032 56.2794 10.4635 56.2794 8.8381 54.7556L8.0254 53.9429C7.82222 53.7397 7.51746 53.7397 7.31429 53.9429L6.50159 54.7556C4.87619 56.2794 2.33651 56.2794 0.711111 54.7556L0 54.146V55.5683C1.93016 57.3968 5.18095 57.3968 7.11111 55.5683L7.61905 55.1619L8.12698 55.5683C10.0571 57.3968 13.3079 57.3968 15.2381 55.5683L15.746 55.1619L16.254 55.5683C18.1841 57.3968 21.4349 57.3968 23.3651 55.5683L23.873 55.1619L24.381 55.5683C26.3111 57.3968 29.5619 57.3968 31.4921 55.5683L32 55.1619L32.5079 55.5683C33.4222 56.4826 34.7429 56.9905 36.0635 56.9905C37.3841 56.9905 38.7048 56.4826 39.619 55.5683L40.127 55.1619L40.6349 55.5683C41.5492 56.4826 42.8698 56.9905 44.1905 56.9905C45.5111 56.9905 46.8317 56.4826 47.746 55.5683L48.254 55.1619L48.7619 55.5683C50.6921 57.3968 53.9429 57.3968 55.873 55.5683L56.381 55.1619L56.8889 55.5683C57.8032 56.4826 59.1238 56.9905 60.4444 56.9905C61.7651 56.9905 63.0857 56.4826 64 55.5683V54.146L63.2889 54.7556C61.7651 56.2794 59.1238 56.2794 57.6 54.7556Z" fill="#181F4E"/>
<path d="M40.6349 22.8572C38.7048 22.8572 37.0794 24.4826 37.0794 26.4127C37.0794 28.3429 38.7048 29.9683 40.6349 29.9683C42.5651 29.9683 44.1905 28.3429 44.1905 26.4127C44.1905 24.4826 42.5651 22.8572 40.6349 22.8572ZM40.6349 28.9524C39.2127 28.9524 38.0952 27.8349 38.0952 26.4127C38.0952 24.9905 39.2127 23.873 40.6349 23.873C42.0571 23.873 43.1746 24.9905 43.1746 26.4127C43.1746 27.8349 42.0571 28.9524 40.6349 28.9524Z" fill="#181F4E"/>
<path d="M42.3619 21.1302C43.7841 19.708 43.7841 17.473 42.3619 16.0508L34.5397 8.22859C33.8286 7.51748 33.0159 7.21272 32 7.21272H29.9683C28.546 7.11113 27.4286 8.33018 27.4286 9.65081V20.7238L24.9905 23.1619C23.9746 24.1778 23.9746 25.8032 24.9905 26.7175C25.4984 27.2254 26.1079 27.4286 26.819 27.4286C27.0222 27.4286 27.327 27.4286 27.5302 27.327V30.8826C27.5302 32.3048 28.6476 33.4222 30.0698 33.4222C31.4921 33.4222 32.6095 32.3048 32.6095 30.8826V22.7556L33.6254 21.7397H40.7365C41.2444 21.8413 41.9556 21.6381 42.3619 21.1302ZM28.4444 9.7524C28.4444 9.14288 28.8508 8.53335 29.4603 8.33018C29.5619 8.22859 29.7651 8.127 29.9683 8.127H31.4921V16.9651C31.1873 17.0667 30.8825 17.2699 30.6794 17.473L28.4444 19.8095V9.7524ZM29.9683 32.508C29.1556 32.508 28.4444 31.7968 28.4444 30.9841V26.9207C28.4444 26.9207 28.546 26.9207 28.546 26.8191L31.4921 23.873V30.9841C31.4921 31.8984 30.781 32.508 29.9683 32.508ZM33.3206 20.8254C33.219 20.8254 33.0159 20.927 32.9143 20.927L32.5079 21.4349L27.8349 26.108C27.7333 26.2095 27.6317 26.3111 27.4286 26.4127C26.819 26.7175 26.1079 26.6159 25.7016 26.108C25.0921 25.4984 25.0921 24.5841 25.7016 23.9746L31.3905 18.2857C31.3905 18.2857 31.4921 18.2857 31.4921 18.1841C31.5937 18.0826 31.7968 17.981 32 17.8794C32.2032 17.7778 32.3048 17.7778 32.5079 17.7778H37.4857C37.6889 17.7778 37.7905 17.6762 37.8921 17.5746C37.9937 17.473 37.9937 17.3714 37.9937 17.2699C37.9937 16.9651 37.7905 16.7619 37.4857 16.7619H34.4381L32.5079 14.8318V8.22859C33.0159 8.33018 33.4222 8.53335 33.8286 8.9397L41.7524 16.8635C42.7683 17.8794 42.7683 19.4032 41.7524 20.4191C41.7524 20.4191 41.7524 20.4191 41.6508 20.4191C41.346 20.7238 41.0413 20.8254 40.6349 20.8254H33.3206ZM32.5079 16.254L33.0159 16.7619H32.5079V16.254Z" fill="#181F4E"/>
</g>
<defs>
<clipPath id="clip0_4580_1616">
<rect width="64" height="64" fill="white"/>
</clipPath>
</defs>
</svg>
