<svg width="64" height="64" viewBox="0 0 64 64" fill="none" xmlns="http://www.w3.org/2000/svg">
<path d="M13.9174 35.5555C10.565 35.5555 7.31421 36.8762 4.9777 39.3143L4.46976 39.8222C4.26659 40.0254 4.26659 40.3301 4.46976 40.5333C4.57135 40.6349 4.67294 40.6349 4.77453 40.6349C4.87611 40.6349 5.07929 40.6349 5.18087 40.5333L5.68881 40.0254C7.82214 37.892 10.8698 36.5714 13.9174 36.5714H27.1237L26.1079 35.5555H13.9174Z" fill="#181F4E"/>
<path d="M35.4539 32.2031C34.438 33.219 33.4221 33.9301 32.2031 34.5397L33.0158 35.3524C34.2348 34.7428 35.2507 33.9301 36.2666 33.0158L41.6507 27.4285H40.2285L35.4539 32.2031Z" fill="#181F4E"/>
<path d="M59.6317 17.2698H55.5682C52.2158 17.2698 48.965 18.5904 46.6285 21.0285L43.9872 23.6698C44.1904 23.9746 44.292 24.3809 44.292 24.7873L47.3396 21.7397C49.5745 19.5047 52.5206 18.2857 55.5682 18.2857H57.092V32.1016C57.092 32.9143 56.4825 33.5238 55.6698 33.5238C55.1618 33.5238 54.6539 33.219 54.4507 32.8127L52.0126 28.6476C51.8094 28.4444 51.5047 28.4444 51.3015 28.546C51.0983 28.6476 50.9967 28.9524 51.0983 29.2571L53.5364 33.4222C53.9428 34.1333 54.7555 34.6412 55.6698 34.6412C56.9904 34.6412 58.1079 33.5238 58.1079 32.2031V18.2857H59.6317C59.9364 18.2857 60.1396 18.0825 60.1396 17.7777C60.1396 17.473 59.9364 17.2698 59.6317 17.2698Z" fill="#181F4E"/>
<path d="M27.1237 15.2381C29.0539 15.2381 30.6793 13.6127 30.6793 11.6825C30.6793 9.75235 29.1555 8.12695 27.1237 8.12695C25.092 8.12695 23.5682 9.75235 23.5682 11.6825C23.5682 13.6127 25.1936 15.2381 27.1237 15.2381ZM27.1237 9.14283C28.546 9.14283 29.6634 10.2603 29.6634 11.6825C29.6634 13.1047 28.546 14.2222 27.1237 14.2222C25.7015 14.2222 24.5841 13.1047 24.5841 11.6825C24.5841 10.2603 25.7015 9.14283 27.1237 9.14283Z" fill="#181F4E"/>
<path d="M41.7523 22.3492H34.6412L29.6634 17.3714C29.5618 17.2698 29.4602 17.1682 29.3587 17.0666C29.3587 17.0666 29.3587 17.0666 29.2571 16.965C29.0539 16.8635 28.8507 16.6603 28.6475 16.5587C28.6475 16.5587 28.6475 16.5587 28.546 16.5587C28.3428 16.4571 28.2412 16.4571 28.038 16.3555H27.9364C27.7333 16.3555 27.4285 16.2539 27.2253 16.2539C25.2952 16.2539 23.6698 17.8793 23.6698 19.8095V33.0158C23.6698 34.4381 24.7872 35.5555 26.2094 35.5555L31.8983 41.2444V50.3873C31.8983 51.8095 33.0158 52.927 34.438 52.927C35.8602 52.927 36.9777 51.8095 36.9777 50.3873V40.2285C36.9777 39.5174 36.6729 38.9079 36.2666 38.4L30.7809 32.9143V25.3968L31.8983 26.5143C32.4063 27.0222 33.0158 27.2254 33.7269 27.2254H41.7523C43.1745 27.2254 44.292 26.1079 44.292 24.6857V24.5841C44.292 24.1777 44.1904 23.7714 43.9872 23.4666C43.4793 22.8571 42.6666 22.3492 41.7523 22.3492ZM35.8602 50.3873C35.8602 51.2 35.1491 51.9111 34.3364 51.9111C33.5237 51.9111 32.8126 51.2 32.8126 50.3873V41.0412C32.8126 40.9397 32.711 40.7365 32.711 40.6349L28.4444 36.5714L27.5301 35.5555L26.7174 34.7428C26.6158 34.6412 26.4126 34.5397 26.311 34.5397H26.1079C25.2952 34.5397 24.5841 33.8285 24.5841 33.0158V31.492H29.6634V33.219C29.6634 33.3206 29.765 33.5238 29.765 33.6254L35.3523 39.2127C35.6571 39.5174 35.7587 39.9238 35.7587 40.3301V50.3873H35.8602ZM29.6634 30.4762H24.5841V19.8095C24.5841 18.3873 25.7015 17.2698 27.1237 17.2698H27.2253C27.3269 17.2698 27.5301 17.2698 27.6317 17.2698H27.7333C27.8348 17.2698 28.038 17.3714 28.1396 17.3714C28.1396 17.3714 28.1396 17.3714 28.2412 17.3714C28.3428 17.473 28.4444 17.473 28.6475 17.5746C28.6475 17.5746 28.7491 17.5746 28.7491 17.6762C28.8507 17.7777 28.9523 17.7777 29.0539 17.8793L34.1333 22.9587C34.2348 23.0603 34.3364 23.0603 34.5396 23.0603H41.8539C42.565 23.0603 43.0729 23.4666 43.2761 24.1777C43.2761 24.2793 43.3777 24.4825 43.3777 24.5841C43.3777 25.3968 42.6666 26.1079 41.8539 26.1079H33.7269C33.3206 26.1079 32.9142 25.9047 32.6094 25.7016L29.765 22.8571L28.9523 22.3492C28.8507 22.2476 28.6475 22.146 28.4444 22.2476C28.3428 22.2476 28.2412 22.3492 28.2412 22.3492C28.038 22.5524 28.038 22.8571 28.2412 23.0603L29.6634 24.4825V30.4762Z" fill="#181F4E"/>
</svg>
