<svg width="64" height="64" viewBox="0 0 64 64" fill="none" xmlns="http://www.w3.org/2000/svg">
<path d="M29.1551 19.3015C31.0853 19.3015 32.7107 17.6761 32.7107 15.746C32.7107 13.8158 31.1869 12.1904 29.1551 12.1904C27.1234 12.1904 25.5996 13.8158 25.5996 15.746C25.5996 17.6761 27.225 19.3015 29.1551 19.3015ZM29.1551 13.2063C30.5774 13.2063 31.6948 14.3238 31.6948 15.746C31.6948 17.1682 30.5774 18.2857 29.1551 18.2857C27.7329 18.2857 26.6154 17.1682 26.6154 15.746C26.6154 14.3238 27.7329 13.2063 29.1551 13.2063Z" fill="#181F4E"/>
<path d="M41.5488 27.5301V27.0222H33.9297C33.7266 27.0222 33.5234 27.0222 33.3202 26.9206L27.7329 24.5841C27.4281 24.4825 27.225 24.5841 27.0218 24.8888C26.9202 25.1936 27.0218 25.3968 27.3266 25.6L27.8345 25.8031L24.3805 34.1333L20.4186 32.5079L19.7075 32.2031L22.8567 24.5841L23.771 22.4507C23.8726 22.146 24.0758 21.8412 24.2789 21.638C24.4821 21.4349 24.7869 21.2317 25.0916 21.1301C25.7012 20.8254 26.4123 20.8254 27.0218 21.1301L34.1329 24.0761C34.2345 24.0761 34.2345 24.0761 34.3361 24.0761H41.5488V23.5682C41.5488 23.2634 41.752 23.0603 42.0567 23.0603H34.4377L27.4281 20.0127C27.0218 19.8095 26.5139 19.7079 26.1075 19.7079H10.971C9.54878 19.7079 8.43132 20.8254 8.43132 22.2476C8.43132 23.6698 9.54878 24.7873 10.971 24.7873H21.6377L18.5901 32.2031L17.7774 34.0317C17.5742 34.4381 17.5742 34.8444 17.5742 35.1492L4.571 47.746C3.55513 48.7619 3.55513 50.2857 4.46942 51.3015C4.97735 51.8095 5.58688 52.1142 6.29799 52.1142C6.90751 52.1142 7.51704 51.9111 8.02497 51.4031L21.5361 38.5015L27.8345 41.1428V49.5746C27.8345 50.9968 28.952 52.1142 30.3742 52.1142C31.7964 52.1142 32.9139 50.9968 32.9139 49.5746V39.4158C32.9139 38.4 32.3043 37.4857 31.3901 37.0793L25.2948 34.5396L28.7488 26.1079L33.0154 27.8349C33.3202 27.9365 33.625 28.0381 34.0313 28.0381H42.1583C41.8535 28.0381 41.5488 27.7333 41.5488 27.5301ZM10.8694 23.7714C10.0567 23.7714 9.34561 23.0603 9.34561 22.2476C9.34561 21.4349 10.0567 20.7238 10.8694 20.7238H23.5678C23.2631 21.0285 22.9583 21.4349 22.7551 21.8412L21.9424 23.6698L10.8694 23.7714ZM7.41545 50.692C6.80592 51.3015 5.89164 51.3015 5.28211 50.692C4.67259 50.0825 4.67259 49.1682 5.28211 48.5587L17.8789 36.4698C18.1837 36.9777 18.5901 37.2825 19.098 37.5873L20.5202 38.1968L7.41545 50.692ZM30.9837 37.9936C31.5932 38.1968 31.898 38.8063 31.898 39.4158V49.5746C31.898 50.3873 31.1869 51.0984 30.3742 51.0984C29.5615 51.0984 28.8504 50.3873 28.8504 49.5746V40.7365C28.8504 40.5333 28.7488 40.3301 28.5456 40.2285L21.6377 37.3841L19.5043 36.4698C18.6916 36.165 18.3869 35.2508 18.6916 34.4381L19.3012 33.0158L30.9837 37.9936Z" fill="#181F4E"/>
<path d="M60.7488 24.9904H44.5964C44.3932 23.873 43.3774 22.9587 42.1583 22.9587C41.8535 22.9587 41.6504 23.1619 41.6504 23.4666V27.5301C41.6504 27.8349 41.8535 28.0381 42.1583 28.0381C43.3774 28.0381 44.3932 27.1238 44.5964 26.0063H60.7488C61.0535 26.0063 61.2567 25.8031 61.2567 25.4984C61.2567 25.1936 61.0535 24.9904 60.7488 24.9904ZM43.5805 25.9047C43.4789 26.1079 43.4789 26.2095 43.3774 26.3111C43.2758 26.4127 43.1742 26.5142 43.0726 26.6158C43.0726 26.6158 43.0726 26.6158 42.971 26.7174C42.8694 26.819 42.7678 26.819 42.6662 26.9206V24.0761C42.7678 24.0761 42.8694 24.1777 42.971 24.2793C42.971 24.2793 42.971 24.2793 43.0726 24.3809C43.1742 24.4825 43.2758 24.5841 43.3774 24.6857C43.4789 24.7873 43.4789 24.8888 43.5805 25.092V25.1936C43.5805 25.2952 43.6821 25.4984 43.6821 25.6C43.5805 25.6 43.5805 25.8031 43.5805 25.9047Z" fill="#181F4E"/>
</svg>
