<svg width="64" height="64" viewBox="0 0 64 64" fill="none" xmlns="http://www.w3.org/2000/svg">
<path d="M55.5681 25.3968H26.1078L13.5109 12.8C12.4951 11.7841 10.8697 11.7841 9.95538 12.8C8.93951 13.8159 8.93951 15.4413 9.95538 16.3556L23.5681 29.9683V49.2699C23.5681 50.6921 24.6855 51.8095 26.1078 51.8095C27.53 51.8095 28.6474 50.6921 28.6474 49.2699V32.5079H39.3141C39.7205 32.5079 40.1268 32.4064 40.5332 32.3048L43.9871 35.7587C44.4951 36.2667 45.1046 36.4699 45.8157 36.4699C46.4252 36.4699 47.1363 36.2667 47.6443 35.7587L52.9268 30.4762H55.6697C57.0919 30.4762 58.2093 29.3587 58.2093 27.9365C58.2093 26.5143 56.9903 25.3968 55.5681 25.3968ZM55.5681 29.4603H53.7395C53.9427 29.054 54.0443 28.6476 54.0443 28.2413C54.0443 27.5302 53.7395 26.9206 53.3332 26.4127H55.6697C56.4824 26.4127 57.1935 27.1238 57.1935 27.9365C57.1935 28.7492 56.4824 29.4603 55.5681 29.4603ZM46.9332 35.0476C46.3236 35.6572 45.4093 35.6572 44.7998 35.0476L41.549 31.7968L41.1427 31.4921L39.7205 30.0699C39.7205 30.0699 39.6189 30.0698 39.6189 29.9683C39.5173 29.8667 39.3141 29.8667 39.1109 29.9683C39.1109 29.9683 39.0093 29.9683 39.0093 30.0699C38.9078 30.1714 38.8062 30.3746 38.9078 30.4762C38.9078 30.5778 39.0093 30.6794 39.0093 30.781L39.7205 31.4921C39.6189 31.4921 39.5173 31.4921 39.4157 31.4921H28.6474V26.4127H39.3141C40.0252 26.4127 40.6347 26.7175 41.1427 27.1238C41.1427 27.1238 41.1427 27.2254 41.2443 27.2254C41.549 27.6318 41.9554 28.0381 42.3617 28.4445C42.5649 28.6476 42.7681 28.8508 42.8697 29.054C43.0728 29.2572 43.1744 29.3587 43.3776 29.5619C43.5808 29.7651 43.6824 29.8667 43.8855 30.0699C44.0887 30.273 44.2919 30.3746 44.3935 30.5778C45.003 31.1873 45.4093 31.5937 45.4093 31.5937C45.6125 31.7968 45.9173 31.7968 46.1205 31.5937L50.4887 27.2254C50.7935 26.9206 51.1998 26.8191 51.6062 26.8191C52.0125 26.8191 52.4189 27.0222 52.7236 27.2254C53.0284 27.5302 53.13 27.9365 53.13 28.3429C53.13 28.7492 52.9268 29.1556 52.7236 29.4603H52.5205L46.9332 35.0476ZM24.584 49.2699V27.9365C24.584 27.2254 25.0919 26.6159 25.803 26.4127C25.9046 26.4127 26.0062 26.4127 26.1078 26.4127H27.6316V49.2699C27.6316 50.0825 26.9205 50.7937 26.1078 50.7937C25.2951 50.7937 24.584 50.1841 24.584 49.2699ZM11.784 13.1048C12.1903 13.1048 12.5966 13.2064 12.9014 13.5111L25.0919 25.7016C24.2792 26.1079 23.6697 27.0222 23.6697 27.9365V28.546L10.6665 15.746C10.057 15.1365 10.057 14.2222 10.6665 13.6127C10.9713 13.2064 11.3776 13.1048 11.784 13.1048ZM49.7776 26.4127C49.7776 26.5143 49.7776 26.5143 49.7776 26.4127L46.73 29.4603H44.7998C43.8855 28.6476 42.7681 27.5302 41.8538 26.4127H49.7776Z" fill="#181F4E"/>
<path d="M31.1871 52.8254H23.0601C22.7554 52.8254 22.5522 53.0286 22.5522 53.3333C22.5522 53.6381 22.7554 53.8413 23.0601 53.8413H31.1871C31.4919 53.8413 31.6951 53.6381 31.6951 53.3333C31.6951 53.0286 31.4919 52.8254 31.1871 52.8254Z" fill="#181F4E"/>
<path d="M11.3776 9.24445C11.1744 9.04128 10.8697 9.04128 10.6665 9.24445L4.87601 15.0349C4.67284 15.2381 4.67284 15.5429 4.87601 15.746C4.9776 15.8476 5.07919 15.8476 5.28236 15.8476C5.48554 15.8476 5.58712 15.8476 5.68871 15.746L11.4792 9.95556C11.5808 9.75239 11.5808 9.44763 11.3776 9.24445Z" fill="#181F4E"/>
<path d="M39.3141 24.381C41.2443 24.381 42.8697 22.7556 42.8697 20.8254C42.8697 18.8952 41.3459 17.2698 39.3141 17.2698C37.2824 17.2698 35.7586 18.8952 35.7586 20.8254C35.7586 22.7556 37.3839 24.381 39.3141 24.381ZM39.3141 18.2857C40.7363 18.2857 41.8538 19.4032 41.8538 20.8254C41.8538 22.2476 40.7363 23.3651 39.3141 23.3651C37.8919 23.3651 36.7744 22.2476 36.7744 20.8254C36.7744 19.4032 37.8919 18.2857 39.3141 18.2857Z" fill="#181F4E"/>
</svg>
