<svg width="64" height="64" viewBox="0 0 64 64" fill="none" xmlns="http://www.w3.org/2000/svg">
<path d="M31.4922 16.2539C33.4223 16.2539 35.0477 14.6285 35.0477 12.6984C35.0477 10.7682 33.5239 9.14282 31.4922 9.14282C29.4604 9.14282 27.9366 10.7682 27.9366 12.6984C27.9366 14.6285 29.562 16.2539 31.4922 16.2539ZM31.4922 10.1587C32.9144 10.1587 34.0319 11.2762 34.0319 12.6984C34.0319 14.1206 32.9144 15.2381 31.4922 15.2381C30.07 15.2381 28.9525 14.1206 28.9525 12.6984C28.9525 11.2762 30.1715 10.1587 31.4922 10.1587Z" fill="#181F4E"/>
<path d="M51.7081 17.2698H27.4287C26.7176 17.2698 26.1081 17.5746 25.6001 17.9809L14.2223 29.4603C13.3081 30.3746 13.2065 31.7968 13.9176 32.8127C14.3239 33.4222 15.035 33.8285 15.7461 33.8285C15.8477 33.8285 15.8477 33.8285 15.9493 33.8285C16.6604 33.8285 17.27 33.5238 17.7779 33.1174L26.9208 23.9746V33.1174L21.2319 38.8063H12.1906C10.87 38.8063 9.7525 39.7206 9.54932 40.9396C9.44774 41.6508 9.65091 42.4635 10.1588 42.9714C10.6668 43.5809 11.3779 43.8857 12.089 43.8857H22.2477C22.9588 43.8857 23.5684 43.5809 24.0763 43.1746L30.4763 36.7746H31.7969L34.8446 44.0889V53.6381C34.8446 54.9587 35.7588 56.0762 36.9779 56.2793C37.0795 56.2793 37.2827 56.2793 37.3842 56.2793C37.9938 56.2793 38.6033 56.0762 39.0096 55.6698C39.6192 55.1619 39.9239 54.4508 39.9239 53.7396V43.5809C39.9239 43.2762 39.8223 42.8698 39.7208 42.565L36.0636 33.5238V22.3492H51.8096C52.5208 22.3492 53.2319 22.0444 53.7398 21.4349C54.2477 20.8254 54.4509 20.1143 54.3493 19.4031C54.1462 18.1841 53.0287 17.2698 51.7081 17.2698ZM38.8065 42.8698C38.9081 43.073 38.9081 43.2762 38.9081 43.4793V53.6381C38.9081 54.0444 38.7049 54.5523 38.4001 54.7555C38.0954 55.0603 37.5874 55.1619 37.1811 55.0603C36.47 54.9587 35.962 54.2476 35.962 53.4349V43.7841C35.962 43.6825 35.962 43.6825 35.962 43.5809L32.7112 35.8603C32.6096 35.6571 32.4065 35.5555 32.2033 35.5555H30.3747C30.2731 35.5555 30.07 35.6571 29.9684 35.6571L23.3652 42.3619C23.0604 42.6666 22.6541 42.7682 22.2477 42.7682H12.1906C11.7842 42.7682 11.2763 42.565 11.0731 42.2603C10.7684 41.9555 10.6668 41.4476 10.7684 41.0412C10.87 40.3301 11.5811 39.8222 12.3938 39.8222H21.6382C21.7398 39.8222 21.943 39.7206 22.0446 39.7206L28.0382 33.7269C28.1398 33.6254 28.1398 33.5238 28.1398 33.3206V32.5079H35.2509V33.6254C35.2509 33.7269 35.2509 33.7269 35.2509 33.8285L38.8065 42.8698ZM53.0287 20.8254C52.7239 21.1301 52.3176 21.3333 51.8096 21.3333H35.5557C35.2509 21.3333 35.0477 21.5365 35.0477 21.8412V31.492H27.9366V22.6539C27.9366 22.4508 27.835 22.2476 27.6319 22.146C27.4287 22.0444 27.2255 22.146 27.1239 22.2476L17.0668 32.3047C16.762 32.6095 16.3557 32.8127 15.8477 32.7111C15.4414 32.7111 15.035 32.4063 14.7303 32.1016C14.3239 31.492 14.4255 30.6793 14.9335 30.0698L26.4128 18.7936C26.7176 18.4889 27.1239 18.3873 27.5303 18.3873H51.8096C52.6223 18.3873 53.3335 18.8952 53.435 19.6063C53.435 20.0127 53.3335 20.5206 53.0287 20.8254Z" fill="#181F4E"/>
<path d="M22.3493 49.0666C20.4192 49.0666 18.7938 50.692 18.7938 52.6222C18.7938 54.5523 20.4192 56.1777 22.3493 56.1777C24.2795 56.1777 25.9049 54.5523 25.9049 52.6222C25.9049 50.692 24.2795 49.0666 22.3493 49.0666ZM22.3493 55.1619C20.9271 55.1619 19.8096 54.0444 19.8096 52.6222C19.8096 51.2 20.9271 50.0825 22.3493 50.0825C23.7715 50.0825 24.889 51.2 24.889 52.6222C24.889 54.0444 23.67 55.1619 22.3493 55.1619Z" fill="#181F4E"/>
</svg>
