<svg width="64" height="64" viewBox="0 0 64 64" fill="none" xmlns="http://www.w3.org/2000/svg">
<path d="M53.0287 45.8158V25.9047C53.0287 25.5999 52.8255 25.3967 52.5208 25.3967C52.216 25.3967 52.0128 25.5999 52.0128 25.9047V45.7142H52.5208C52.7239 45.7142 52.9271 45.8158 53.0287 45.8158Z" fill="#181F4E"/>
<path d="M12.3938 45.7142V25.9047C12.3938 25.5999 12.1906 25.3967 11.8858 25.3967C11.5811 25.3967 11.3779 25.5999 11.3779 25.9047V45.8158C11.5811 45.8158 11.6827 45.7142 11.8858 45.7142H12.3938Z" fill="#181F4E"/>
<path d="M32.5081 6.29831C33.1176 5.68879 34.1335 5.68879 34.6414 6.29831C34.8446 6.50149 35.1493 6.50149 35.3525 6.29831C35.5557 6.09514 35.5557 5.79038 35.3525 5.5872C34.4382 4.67292 32.7112 4.67292 31.797 5.5872L31.4922 5.79038L31.289 5.5872C30.3747 4.67292 28.6478 4.67292 27.7335 5.5872L11.8858 21.4348C11.6827 21.638 11.6827 21.9428 11.8858 22.1459C11.9874 22.2475 12.089 22.2475 12.2922 22.2475C12.4954 22.2475 12.597 22.2475 12.6985 22.1459L28.4446 6.29831C29.0541 5.68879 30.07 5.68879 30.5779 6.29831L30.7811 6.50149L23.162 14.2221C23.5684 14.2221 23.9747 14.3237 24.2795 14.5269L32.5081 6.29831Z" fill="#181F4E"/>
<path d="M15.9493 21.4348C15.7462 21.638 15.7462 21.9428 15.9493 22.1459C16.0509 22.2475 16.1525 22.2475 16.3557 22.2475C16.5589 22.2475 16.6605 22.2475 16.762 22.1459L20.9271 17.9809C20.7239 17.6761 20.6224 17.2697 20.6224 16.8634L15.9493 21.4348Z" fill="#181F4E"/>
<path d="M32.2033 51.8094C30.2732 51.8094 28.6478 53.4348 28.6478 55.365C28.6478 57.2951 30.2732 58.9205 32.2033 58.9205C34.1335 58.9205 35.7589 57.2951 35.7589 55.365C35.7589 53.4348 34.2351 51.8094 32.2033 51.8094ZM32.2033 57.9047C30.7811 57.9047 29.6636 56.7872 29.6636 55.365C29.6636 53.9428 30.7811 52.8253 32.2033 52.8253C33.6255 52.8253 34.743 53.9428 34.743 55.365C34.743 56.7872 33.6255 57.9047 32.2033 57.9047Z" fill="#181F4E"/>
<path d="M53.0287 45.8158C52.8255 45.8158 52.7239 45.7142 52.5208 45.7142H52.0128H36.7747V23.8729C36.7747 23.1618 36.47 22.5523 36.0636 22.0443L28.8509 14.8316C28.343 14.3237 27.6319 14.0189 26.8192 14.1205C26.1081 14.2221 25.4985 14.5269 24.9906 15.1364L24.6858 14.8316C24.4827 14.6285 24.2795 14.5269 24.1779 14.4253C23.8732 14.2221 23.4668 14.1205 23.0605 14.1205C22.9589 14.1205 22.8573 14.1205 22.7557 14.1205C22.0446 14.2221 21.3335 14.5269 20.9271 15.1364C20.6224 15.6443 20.4192 16.1523 20.5208 16.7618C20.5208 17.1682 20.6224 17.5745 20.8255 17.8793C20.9271 18.0824 21.1303 18.2856 21.3335 18.4888L27.7335 24.8888V45.7142H11.9874C11.7843 45.7142 11.6827 45.7142 11.4795 45.8158C10.362 46.0189 9.44775 47.0348 9.44775 48.2539C9.44775 49.6761 10.5652 50.7935 11.9874 50.7935H52.6224C54.0446 50.7935 55.162 49.6761 55.162 48.2539C55.0605 47.0348 54.2478 46.0189 53.0287 45.8158ZM22.0446 17.8793C21.8414 17.6761 21.7398 17.4729 21.6382 17.1682C21.5366 16.7618 21.5366 16.2539 21.8414 15.8475C22.1462 15.4412 22.5525 15.238 22.9589 15.238C23.162 15.238 23.3652 15.238 23.5684 15.3396C23.7716 15.4412 23.9747 15.5428 24.1779 15.7459L31.3906 22.9586C31.5938 23.1618 31.6954 23.365 31.797 23.5682C31.797 23.6697 31.8985 23.8729 31.8985 24.0761V32.2031C31.8985 32.3047 32.0001 32.5078 32.0001 32.6094C32.0001 32.711 32.2033 32.711 32.4065 32.711C32.7112 32.711 32.9144 32.5078 32.9144 32.2031V24.0761C32.9144 23.365 32.6097 22.7555 32.2033 22.2475L26.0065 16.0507C26.0065 16.0507 26.0065 16.0507 26.0065 15.9491C26.3112 15.5428 26.7176 15.3396 27.1239 15.3396C27.5303 15.3396 28.0382 15.4412 28.343 15.7459L35.5557 22.9586C35.8605 23.2634 35.962 23.6697 35.962 24.0761V35.5555H28.8509V24.7872C28.8509 24.6856 28.7493 24.4824 28.7493 24.3809L22.0446 17.8793ZM52.5208 49.7777H11.8858C11.0732 49.7777 10.362 49.0666 10.362 48.2539C10.362 47.5428 10.7684 47.0348 11.3779 46.8316C11.5811 46.7301 11.6827 46.7301 11.8858 46.7301H28.1398C28.4446 46.7301 28.6478 46.5269 28.6478 46.2221V36.5713H35.7589V46.2221C35.7589 46.5269 35.962 46.7301 36.2668 46.7301H52.5208C52.7239 46.7301 52.8255 46.7301 53.0287 46.8316C53.6382 47.0348 54.0446 47.6443 54.0446 48.2539C54.0446 49.1682 53.3335 49.7777 52.5208 49.7777Z" fill="#181F4E"/>
</svg>
