<svg width="64" height="64" viewBox="0 0 64 64" fill="none" xmlns="http://www.w3.org/2000/svg">
<g clip-path="url(#clip0_4580_1567)">
<path d="M64 55.9746H0V56.9904H64V55.9746Z" fill="#181F4E"/>
<path d="M32 16.0507C33.9302 16.0507 35.5556 14.4254 35.5556 12.4952C35.5556 10.565 33.9302 8.93964 32 8.93964C30.0698 8.93964 28.4444 10.565 28.4444 12.4952C28.4444 14.4254 30.0698 16.0507 32 16.0507ZM32 9.95551C33.4222 9.95551 34.5397 11.073 34.5397 12.4952C34.5397 13.9174 33.4222 15.0349 32 15.0349C30.5778 15.0349 29.4603 13.9174 29.4603 12.4952C29.4603 11.073 30.5778 9.95551 32 9.95551Z" fill="#181F4E"/>
<path d="M52.2159 17.0666H27.9365C27.2254 17.0666 26.6159 17.3714 26.1079 17.7777L14.7302 29.2571C13.8159 30.1714 13.7143 31.5936 14.4254 32.6095C14.8317 33.219 15.5429 33.6253 16.254 33.6253C16.3556 33.6253 16.3556 33.6253 16.4571 33.6253C17.1683 33.6253 17.7778 33.3206 18.2857 32.9142L27.4286 23.7714V32.9142L21.7397 38.6031H12.6984C11.3778 38.6031 10.2603 39.5174 10.0571 40.7365C9.95556 41.4476 10.1587 42.2603 10.6667 42.7682C11.1746 43.2761 11.8857 43.6825 12.5968 43.6825H22.7556C23.4667 43.6825 24.0762 43.3777 24.5841 42.9714L30.9841 36.5714H32.3048L35.3524 43.8857V53.4349C35.3524 54.7555 36.2667 55.873 37.4857 56.0761C37.5873 56.0761 37.7905 56.0761 37.8921 56.0761C38.5016 56.0761 39.1111 55.873 39.5175 55.4666C40.127 54.9587 40.4317 54.2476 40.4317 53.5365V43.3777C40.4317 43.073 40.3302 42.6666 40.2286 42.3619L38.8064 38.9079L36.5714 33.3206V22.146H52.3175C53.0286 22.146 53.7397 21.8412 54.2476 21.2317C54.7556 20.6222 54.9587 19.9111 54.8571 19.2C54.654 17.9809 53.5365 17.0666 52.2159 17.0666ZM39.4159 53.4349C39.4159 53.8412 39.2127 54.3492 38.9079 54.5523C38.6032 54.8571 38.0952 54.9587 37.6889 54.8571C36.9778 54.7555 36.4698 54.0444 36.4698 53.2317V43.5809C36.4698 43.4793 36.4698 43.4793 36.4698 43.3777L33.2191 35.6571C33.1175 35.4539 32.9143 35.3523 32.7111 35.3523H30.8825C30.781 35.3523 30.5778 35.4539 30.4762 35.4539L23.873 42.0571C23.5683 42.3619 23.1619 42.4634 22.7556 42.4634H12.5968C12.1905 42.4634 11.6825 42.2603 11.4794 41.9555C11.1746 41.6507 11.073 41.1428 11.1746 40.7365C11.2762 40.0253 11.9873 39.5174 12.8 39.5174H22.0444C22.146 39.5174 22.3492 39.4158 22.4508 39.4158L28.4444 33.4222C28.546 33.3206 28.546 33.219 28.546 33.0158V32.3047H35.6571V33.4222C35.6571 33.5238 35.6571 33.5238 35.6571 33.6253L39.4159 42.6666C39.5175 42.8698 39.5175 43.073 39.5175 43.2761V53.4349H39.4159ZM53.4349 20.6222C53.1302 20.9269 52.7238 21.1301 52.3175 21.1301H36.0635C35.7587 21.1301 35.5556 21.3333 35.5556 21.638V31.2888H28.4444V22.4507C28.4444 22.2476 28.3429 22.0444 28.1397 21.9428C27.9365 21.8412 27.7333 21.9428 27.6317 22.0444L17.5746 32.1015C17.2698 32.4063 16.8635 32.6095 16.3556 32.5079C15.9492 32.5079 15.5429 32.2031 15.2381 31.8984C14.8317 31.2888 14.9333 30.4761 15.4413 29.8666L26.819 18.4888C27.1238 18.1841 27.5302 18.0825 27.9365 18.0825H52.2159C53.0286 18.0825 53.7397 18.5904 53.8413 19.3015C53.8413 19.8095 53.7397 20.2158 53.4349 20.6222Z" fill="#181F4E"/>
<path d="M22.7556 48.8634C20.8254 48.8634 19.2 50.4888 19.2 52.419C19.2 54.3492 20.8254 55.9746 22.7556 55.9746C24.6857 55.9746 26.3111 54.3492 26.3111 52.419C26.3111 50.4888 24.6857 48.8634 22.7556 48.8634ZM22.7556 54.9587C21.3333 54.9587 20.2159 53.8412 20.2159 52.419C20.2159 50.9968 21.3333 49.8793 22.7556 49.8793C24.1778 49.8793 25.2952 50.9968 25.2952 52.419C25.2952 53.8412 24.1778 54.9587 22.7556 54.9587Z" fill="#181F4E"/>
</g>
<defs>
<clipPath id="clip0_4580_1567">
<rect width="64" height="64" fill="white"/>
</clipPath>
</defs>
</svg>
