<svg width="64" height="64" viewBox="0 0 64 64" fill="none" xmlns="http://www.w3.org/2000/svg">
<path d="M36.5717 13.6127C36.4701 14.019 36.3686 14.3238 36.1654 14.6286H38.9082L39.9241 13.6127H36.5717Z" fill="#181F4E"/>
<path d="M20.9273 13.6127C19.2003 13.6127 17.6765 14.4254 16.7622 15.8476L16.4574 16.3556C15.9495 17.0667 16.1527 17.9809 16.8638 18.4889C17.1686 18.6921 17.3717 18.6921 17.6765 18.6921C18.1844 18.6921 18.6924 18.4889 18.9971 17.9809L21.232 14.527H30.0701C29.867 14.2222 29.7654 13.9175 29.6638 13.5111H20.9273V13.6127ZM18.0828 17.473C17.8797 17.6762 17.5749 17.7778 17.3717 17.5746C17.1686 17.3714 17.067 17.0667 17.2701 16.8635L17.5749 16.3556C18.0828 15.5429 18.9971 14.9333 19.9114 14.7302L18.0828 17.473Z" fill="#181F4E"/>
<path d="M36.6733 12.6984C36.6733 10.7682 35.0479 9.14285 33.1178 9.14285C31.1876 9.14285 29.5622 10.7682 29.5622 12.6984C29.5622 13.0032 29.5622 13.3079 29.6638 13.5111C29.7654 13.9175 29.867 14.2222 30.0701 14.527C30.6797 15.5429 31.7971 16.254 33.1178 16.254C34.4384 16.254 35.4543 15.5429 36.1654 14.527C36.3686 14.2222 36.4701 13.9175 36.5717 13.5111C36.5717 13.3079 36.6733 13.0032 36.6733 12.6984ZM35.4543 13.6127C35.3527 14.019 35.0479 14.3238 34.7432 14.6286C34.3368 15.0349 33.7273 15.3397 33.0162 15.3397C32.3051 15.3397 31.7971 15.0349 31.2892 14.6286C30.9844 14.3238 30.7813 14.019 30.5781 13.6127C30.4765 13.3079 30.3749 13.1048 30.3749 12.8C30.3749 11.3778 31.4924 10.2603 32.9146 10.2603C34.3368 10.2603 35.4543 11.3778 35.4543 12.8C35.6574 13.0032 35.5559 13.3079 35.4543 13.6127Z" fill="#181F4E"/>
<path d="M45.5114 11.5809C45.0035 11.5809 44.4955 11.6825 44.0892 11.8857C43.0733 11.3778 41.8543 11.5809 41.0416 12.3936L36.1654 17.2698H29.0543C28.3432 17.2698 27.7336 17.5746 27.2257 17.9809C27.2257 17.9809 27.1241 18.0825 27.1241 18.1841C27.1241 18.1841 27.1241 18.1841 27.0225 18.2857C26.9209 18.3873 26.9209 18.4889 26.8194 18.5905C26.7178 18.6921 26.7178 18.7936 26.6162 18.8952C26.6162 18.8952 26.6162 18.9968 26.5146 18.9968C26.413 19.0984 26.413 19.3016 26.413 19.4032C26.413 19.5048 26.413 19.6063 26.413 19.7079C26.413 19.8095 26.413 19.9111 26.413 20.0127C26.413 20.1143 26.413 20.2159 26.5146 20.3175V20.5206C26.6162 20.8254 26.7178 21.1302 27.0225 21.3333C27.4289 21.7397 27.9368 22.0444 28.4447 22.146V43.073L22.0447 49.473C21.0289 50.4889 21.0289 52.1143 22.0447 53.0286C23.0606 54.0444 24.686 54.0444 25.6003 53.0286L32.5082 46.1206V54.2476C32.5082 55.6698 33.6257 56.7873 35.0479 56.7873C36.4701 56.7873 37.5876 55.6698 37.5876 54.2476V22.3492H45.2067C46.6289 22.3492 47.7463 21.2317 47.7463 19.8095V14.2222C47.8479 12.8 46.832 11.6825 45.5114 11.5809ZM36.6733 54.3492C36.6733 55.1619 35.9622 55.873 35.1495 55.873C34.3368 55.873 33.6257 55.1619 33.6257 54.3492V36.0635C33.6257 35.7587 33.4225 35.5556 33.1178 35.5556C32.813 35.5556 32.6098 35.7587 32.6098 36.0635V44.1905C32.6098 44.5968 32.4067 45.0032 32.2035 45.3079L24.9908 52.5206C24.3813 53.1302 23.467 53.1302 22.8574 52.5206C22.2479 51.9111 22.2479 50.9968 22.8574 50.3873L29.4606 43.7841C29.5622 43.6825 29.5622 43.581 29.5622 43.3778V32.5079H36.6733V54.3492ZM36.6733 31.4921H29.5622V22.3492H36.6733V31.4921ZM37.1813 21.3333H29.1559C28.3432 21.3333 27.7336 20.8254 27.5305 20.1143V20.0127C27.5305 19.9111 27.5305 19.9111 27.5305 19.8095V19.6063C27.5305 19.5048 27.632 19.3016 27.7336 19.2C27.8352 19.0984 27.8352 18.9968 27.9368 18.8952C28.2416 18.5905 28.5463 18.4889 29.0543 18.4889H36.3686C36.4701 18.4889 36.6733 18.3873 36.7749 18.3873L37.1813 17.9809L37.5876 17.2698L41.8543 13.0032C42.2606 12.5968 42.8701 12.3936 43.3781 12.4952C43.5813 12.4952 43.6828 12.5968 43.886 12.6984C43.886 12.6984 43.886 12.6984 43.9876 12.6984C44.0892 12.8 44.1908 12.9016 44.2924 13.0032C44.4955 13.2063 44.5971 13.5111 44.5971 13.8159C44.5971 14.2222 44.4955 14.7302 44.1908 15.0349L42.9717 16.254L41.8543 17.2698L38.1971 20.927C37.994 21.2317 37.5876 21.3333 37.1813 21.3333ZM46.832 19.8095C46.832 20.6222 46.1209 21.3333 45.3082 21.3333H39.213L42.2606 18.2857H43.2765C43.5813 18.2857 43.7844 18.0825 43.7844 17.7778V16.7619L44.6987 15.8476C45.2067 15.3397 45.5114 14.6286 45.4098 13.8159C45.4098 13.3079 45.2067 12.9016 44.9019 12.4952C45.1051 12.4952 45.2067 12.3936 45.4098 12.4952C46.2225 12.5968 46.832 13.3079 46.832 14.1206V19.8095Z" fill="#181F4E"/>
</svg>
