<svg width="64" height="64" viewBox="0 0 64 64" fill="none" xmlns="http://www.w3.org/2000/svg">
<path d="M32.2033 16.254C34.1335 16.254 35.7589 14.6286 35.7589 12.6984C35.7589 10.7683 34.2351 9.14286 32.2033 9.14286C30.1716 9.14286 28.6478 10.7683 28.6478 12.6984C28.6478 14.6286 30.2732 16.254 32.2033 16.254ZM32.2033 10.1587C33.6256 10.1587 34.743 11.2762 34.743 12.6984C34.743 14.1206 33.6256 15.2381 32.2033 15.2381C30.7811 15.2381 29.6637 14.1206 29.6637 12.6984C29.6637 11.2762 30.7811 10.1587 32.2033 10.1587Z" fill="#181F4E"/>
<path d="M52.5208 17.2698H22.5526V11.6825C22.5526 11.4794 22.5526 11.3778 22.451 11.1746C22.1462 11.4794 21.8414 11.6825 21.5367 11.8857V17.8794C21.5367 18.1841 21.7399 18.3873 22.0446 18.3873H52.5208C53.3335 18.3873 54.0446 19.0984 54.0446 19.9111C54.0446 20.7238 53.3335 21.3333 52.5208 21.3333H36.2668C35.9621 21.3333 35.7589 21.5365 35.7589 21.8413V31.4921H28.6478V21.8413C28.6478 21.5365 28.4446 21.3333 28.1399 21.3333H20.0129C19.2002 21.3333 18.4891 20.6222 18.4891 19.8095V11.7841C18.0827 11.581 17.7779 11.3778 17.5748 11.073C17.5748 11.2762 17.4732 11.3778 17.4732 11.581V19.7079C17.4732 21.1302 18.5906 22.2476 20.0129 22.2476H27.6319V32.9143L14.0192 46.6286C13.5113 47.1365 13.3081 47.746 13.3081 48.4571C13.3081 49.1683 13.6129 49.7778 14.0192 50.2857C14.5272 50.7937 15.1367 50.9968 15.8478 50.9968C16.5589 50.9968 17.1684 50.7937 17.6764 50.2857L31.2891 36.5714H32.6097L34.8446 42.0571L27.8351 45.0032C26.5145 45.5111 25.9049 47.0349 26.4129 48.3556C26.9208 49.6762 28.4446 50.2857 29.7652 49.7778L39.1113 45.9175C39.7208 45.6127 40.2287 45.2064 40.5335 44.4952C40.8383 43.8857 40.8383 43.1746 40.5335 42.5651L36.7748 33.5238V22.3492H52.5208C53.943 22.3492 55.0605 21.2318 55.0605 19.8095C55.0605 18.3873 53.943 17.2698 52.5208 17.2698ZM39.5176 42.8698C39.7208 43.2762 39.7208 43.6825 39.5176 43.9873C39.3145 44.2921 39.1113 44.6984 38.7049 44.8L29.3589 48.7619C28.5462 49.0667 27.7335 48.7619 27.3272 47.9492C27.0224 47.1365 27.3272 46.3238 28.1399 45.9175L35.6573 42.7683C35.7589 42.6667 35.8605 42.6667 35.9621 42.4635C36.0637 42.2603 36.0637 42.1587 35.9621 42.0571L33.3208 35.7587C33.2192 35.5556 33.016 35.454 32.8129 35.454H30.9843C30.8827 35.454 30.6795 35.5556 30.5779 35.5556L16.8637 49.473C16.2541 50.0825 15.3399 50.0825 14.7303 49.473C14.4256 49.1683 14.324 48.7619 14.324 48.3556C14.324 47.9492 14.5272 47.5429 14.7303 47.2381L28.5462 33.4222C28.6478 33.3206 28.6478 33.2191 28.6478 33.0159V32.5079H35.7589V33.6254C35.7589 33.727 35.7589 33.727 35.7589 33.8286L39.5176 42.8698Z" fill="#181F4E"/>
<path d="M20.0129 12.1905C20.5208 12.1905 21.0287 12.0889 21.5367 11.7841C21.943 11.581 22.2478 11.3778 22.451 11.073C23.0605 10.4635 23.5684 9.54921 23.5684 8.53334C23.5684 6.60318 21.943 4.97778 20.0129 4.97778C18.0827 4.97778 16.4573 6.60318 16.4573 8.53334C16.4573 9.54921 16.8637 10.4635 17.5748 11.073C17.8795 11.3778 18.1843 11.581 18.4891 11.7841C18.997 12.0889 19.5049 12.1905 20.0129 12.1905ZM20.0129 6.09524C21.4351 6.09524 22.5526 7.2127 22.5526 8.63493C22.5526 9.24445 22.3494 9.75239 22.0446 10.1587C21.8414 10.4635 21.5367 10.6667 21.3335 10.8698C20.9272 11.073 20.5208 11.1746 20.1145 11.1746C19.7081 11.1746 19.2002 11.073 18.8954 10.8698C18.5906 10.6667 18.3875 10.4635 18.1843 10.1587C17.8795 9.75239 17.6764 9.24445 17.6764 8.63493C17.4732 7.31429 18.5906 6.09524 20.0129 6.09524Z" fill="#181F4E"/>
</svg>
