<svg width="64" height="64" viewBox="0 0 64 64" fill="none" xmlns="http://www.w3.org/2000/svg">
<path d="M57.8036 46.7301C56.6861 46.7301 55.7718 47.6444 55.7718 48.7618C55.7718 49.8793 56.6861 50.7936 57.8036 50.7936C58.9211 50.7936 59.8353 49.8793 59.8353 48.7618C59.8353 47.6444 58.9211 46.7301 57.8036 46.7301ZM57.8036 49.7777C57.1941 49.7777 56.7877 49.3714 56.7877 48.7618C56.7877 48.1523 57.1941 47.746 57.8036 47.746C58.4131 47.746 58.8195 48.1523 58.8195 48.7618C58.8195 49.3714 58.3115 49.7777 57.8036 49.7777Z" fill="#181F4E"/>
<path d="M51.8099 46.5269C51.6068 46.7301 51.6068 47.0349 51.8099 47.238C52.1147 47.5428 52.2163 47.9491 52.2163 48.3555C52.2163 48.7618 52.0131 49.1682 51.8099 49.473C51.2004 50.0825 50.2861 50.0825 49.6766 49.473L37.1814 36.8761C36.9782 37.1809 36.775 37.3841 36.5718 37.5872H36.4703L48.9655 50.0825C49.4734 50.5904 50.083 50.7936 50.7941 50.7936C51.4036 50.7936 52.1147 50.5904 52.6226 50.0825C53.1306 49.5745 53.3338 48.965 53.3338 48.2539C53.3338 47.5428 53.029 46.9333 52.6226 46.4253C52.3179 46.3238 52.0131 46.3238 51.8099 46.5269Z" fill="#181F4E"/>
<path d="M34.0322 19.4031C34.9464 19.4031 35.8607 19.0984 36.5718 18.3872C37.283 17.6761 37.5877 16.8634 37.5877 15.8476C37.5877 14.9333 37.1814 14.019 36.5718 13.3079C35.1496 11.8857 32.9147 11.8857 31.4925 13.3079C30.0703 14.7301 30.0703 16.965 31.4925 18.2857C32.2036 19.0984 33.1179 19.4031 34.0322 19.4031ZM32.2036 14.019C32.7115 13.5111 33.3211 13.3079 34.0322 13.3079C34.6417 13.3079 35.3528 13.5111 35.8607 14.019C36.3687 14.5269 36.5718 15.1364 36.5718 15.8476C36.5718 16.5587 36.2671 17.1682 35.8607 17.6761C34.8449 18.692 33.2195 18.692 32.3052 17.6761C31.2893 16.6603 31.2893 15.0349 32.2036 14.019Z" fill="#181F4E"/>
<path d="M37.1814 36.8761C37.3845 36.5714 37.5877 36.165 37.5877 35.6571C37.6893 34.946 37.3845 34.1333 36.8766 33.6253L31.8988 28.6476V21.5365C31.8988 20.6222 31.4925 19.7079 30.883 18.9968C29.5623 17.6761 27.2258 17.6761 25.9052 18.9968L16.4576 28.4444C15.4417 29.4603 15.4417 30.9841 16.4576 31.9999V38.6031H8.83851C7.41629 38.6031 6.29883 39.7206 6.29883 41.1428C6.29883 42.565 7.41629 43.6825 8.83851 43.6825H18.9972C20.4195 43.6825 21.5369 42.565 21.5369 41.1428V37.0793L23.6703 39.2126V48.2539C23.6703 49.5745 24.5845 50.692 25.8036 50.8952C25.9052 50.8952 26.1084 50.8952 26.2099 50.8952C26.8195 50.8952 27.429 50.692 27.8353 50.2857C28.4449 49.7777 28.7496 49.0666 28.7496 48.3555V38.1968C28.7496 37.4857 28.4449 36.8761 28.0385 36.3682L23.3655 31.6952L26.9211 28.1396V29.765C26.9211 30.4761 27.2258 31.0857 27.6322 31.5936L33.3211 37.2825C33.829 37.7904 34.5401 38.0952 35.2512 38.0952C35.7591 38.0952 36.1655 37.9936 36.5718 37.6888H36.6734C36.775 37.3841 36.9782 37.0793 37.1814 36.8761ZM20.5211 41.1428C20.5211 41.9555 19.8099 42.6666 18.9972 42.6666H8.83851C8.02581 42.6666 7.3147 41.9555 7.3147 41.1428C7.3147 40.3301 7.92423 39.619 8.83851 39.619H16.9655C17.2703 39.619 17.4734 39.4158 17.4734 39.1111V33.0158L20.5211 36.0634V41.1428ZM27.2258 37.0793C27.5306 37.3841 27.6322 37.7904 27.6322 38.1968V48.3555C27.6322 48.7618 27.429 49.2698 27.1242 49.473C26.8195 49.7777 26.3115 49.8793 25.9052 49.7777C25.1941 49.6761 24.6861 48.965 24.6861 48.1523V38.9079C24.6861 38.8063 24.5845 38.6031 24.5845 38.5015L17.2703 31.1872C17.1687 31.0857 17.0671 30.9841 17.0671 30.7809C16.7623 30.1714 16.8639 29.4603 17.2703 28.9523L18.3877 27.8349L21.7401 31.1872L27.2258 37.0793ZM36.3687 36.165C36.2671 36.3682 36.0639 36.5714 35.8607 36.7745C35.7591 36.8761 35.6576 36.8761 35.6576 36.8761C35.048 37.1809 34.3369 36.9777 33.829 36.5714L28.1401 30.8825C27.8353 30.5777 27.7337 30.1714 27.7337 29.765V24.6857C27.7337 24.4825 27.6322 24.3809 27.5306 24.2793C27.429 24.2793 27.3274 24.1777 27.2258 24.1777C26.921 24.1777 26.7179 24.3809 26.7179 24.6857V26.7174L22.4512 30.9841L18.8957 27.4285L26.4131 19.9111C27.3274 18.9968 29.0544 18.9968 29.9687 19.9111L30.0703 20.0126C30.4766 20.5206 30.7814 21.0285 30.7814 21.7396V28.9523C30.7814 29.0539 30.883 29.2571 30.883 29.3587L36.0639 34.5396C36.3687 34.8444 36.5718 35.2507 36.4703 35.7587C36.5718 35.7587 36.4703 35.9618 36.3687 36.165Z" fill="#181F4E"/>
</svg>
