<svg width="64" height="64" viewBox="0 0 64 64" fill="none" xmlns="http://www.w3.org/2000/svg">
<path d="M54.0445 45.7143H47.1365L42.1587 40.7365C42.1587 40.7365 42.1587 40.7365 42.1587 40.8381C41.9556 41.1428 41.7524 41.346 41.4476 41.4476L47.4413 47.4413C48.254 48.3555 49.473 48.7619 50.6921 48.7619H54.0445C54.8572 48.7619 55.5683 48.0508 55.5683 47.2381C55.5683 46.4254 54.8572 45.7143 54.0445 45.7143ZM54.0445 47.746H50.6921C49.7778 47.746 48.8635 47.3397 48.254 46.7301H54.146C54.4508 46.7301 54.654 46.9333 54.654 47.2381C54.654 47.5428 54.3492 47.746 54.0445 47.746Z" fill="#181F4E"/>
<path d="M30.3746 29.054H28.9524L31.6953 31.7968V30.3746L30.3746 29.054Z" fill="#181F4E"/>
<path d="M32.9143 47.746H24.7873C24.4826 47.746 24.2794 47.9492 24.2794 48.254C24.2794 48.5587 24.4826 48.7619 24.7873 48.7619H32.9143C33.2191 48.7619 33.4222 48.5587 33.4222 48.254C33.4222 47.9492 33.2191 47.746 32.9143 47.746Z" fill="#181F4E"/>
<path d="M18.5905 47.746H10.4635C10.1587 47.746 9.95557 47.9492 9.95557 48.254C9.95557 48.5587 10.1587 48.7619 10.4635 48.7619H18.5905C18.8952 48.7619 19.0984 48.5587 19.0984 48.254C19.0984 47.9492 18.7937 47.746 18.5905 47.746Z" fill="#181F4E"/>
<path d="M39.0095 23.2635C39.9238 23.2635 40.8381 22.8571 41.5492 22.2476C42.2603 21.5365 42.5651 20.7238 42.5651 19.7079C42.5651 18.7936 42.1587 17.8794 41.5492 17.1682C40.2286 15.8476 37.8921 15.8476 36.5714 17.1682C35.1492 18.5905 35.1492 20.8254 36.5714 22.146C37.181 22.8571 37.9937 23.2635 39.0095 23.2635ZM37.181 17.8794C37.6889 17.3714 38.2984 17.1682 39.0095 17.1682C39.7206 17.1682 40.3302 17.473 40.8381 17.8794C41.346 18.3873 41.5492 18.9968 41.5492 19.7079C41.5492 20.419 41.2445 21.0286 40.8381 21.5365C39.9238 22.4508 38.1968 22.4508 37.2826 21.5365C36.1651 20.5206 36.1651 18.8952 37.181 17.8794Z" fill="#181F4E"/>
<path d="M42.0572 40.8381C42.0572 40.7365 42.0572 40.7365 42.0572 40.8381C42.7683 39.8222 42.5651 38.4 41.6508 37.4857L36.7746 32.5079V25.3968C36.7746 24.4825 36.3683 23.5682 35.7587 22.8571L29.9683 17.0667C29.2572 16.3555 28.1397 16.1524 27.2254 16.5587C26.2095 16.9651 25.7016 17.8794 25.7016 18.8952V21.8413H22.0445C21.1302 21.8413 20.2159 22.2476 19.5048 22.8571L18.0825 24.3809C17.0667 25.3968 17.0667 26.9206 18.0825 27.9365V35.9619L11.6825 42.3619C10.7683 43.2762 10.6667 44.6984 11.3778 45.7143C11.7841 46.3238 12.4952 46.7301 13.2064 46.7301C13.3079 46.7301 13.3079 46.7301 13.4095 46.7301C14.1206 46.7301 14.7302 46.4254 15.2381 46.019L22.4508 38.8063C22.9587 38.2984 23.1619 37.6889 23.1619 36.9778V32.9143L25.2952 35.0476V44.0889C25.2952 45.4095 26.2095 46.527 27.4286 46.7301C27.5302 46.7301 27.7333 46.7301 27.8349 46.7301C28.4445 46.7301 29.054 46.527 29.4603 46.1206C30.0699 45.6127 30.3746 44.9016 30.3746 44.1905V34.0317C30.3746 33.3206 30.0699 32.7111 29.6635 32.2032L26.4127 28.9524H31.7968V33.5238C31.7968 34.2349 32.1016 34.8444 32.5079 35.3524L38.2984 41.1428C38.8064 41.6508 39.4159 41.854 40.127 41.854C40.2286 41.854 40.2286 41.854 40.3302 41.854C40.7365 41.854 41.1429 41.6508 41.5492 41.4476C41.6508 41.2444 41.854 41.0413 42.0572 40.8381ZM41.346 40.0254C41.346 40.127 41.2445 40.2286 41.2445 40.2286C41.0413 40.4317 40.8381 40.6349 40.6349 40.7365C40.4318 40.8381 40.3302 40.8381 40.127 40.8381C39.7206 40.8381 39.2127 40.7365 38.9079 40.4317L33.1175 34.6413C32.8127 34.3365 32.7111 33.9301 32.7111 33.5238V26.3111C32.6095 26.1079 32.5079 25.9048 32.2032 25.9048C32 25.9048 31.8984 26.0063 31.7968 26.1079C31.6952 26.2095 31.6952 26.3111 31.6952 26.4127V27.9365H25.2952L20.6222 23.3651C21.0286 23.0603 21.5365 22.9587 22.0445 22.9587H33.2191C33.9302 22.9587 34.5397 23.2635 35.0476 23.6698C35.5556 24.1778 35.7587 24.7873 35.7587 25.4984V32.7111C35.7587 32.8127 35.8603 33.0159 35.8603 33.1174L40.9397 38.1968C41.4476 38.7047 41.6508 39.4159 41.346 40.0254ZM29.3587 44.2921C29.3587 44.6984 29.1556 45.2063 28.8508 45.4095C28.4445 45.7143 28.0381 45.8159 27.5302 45.7143C26.8191 45.6127 26.2095 44.9016 26.2095 44.0889V34.8444C26.2095 34.7428 26.1079 34.5397 26.1079 34.4381L18.8952 27.2254C18.7937 27.1238 18.6921 27.0222 18.6921 26.819C18.4889 26.4127 18.3873 25.9048 18.5905 25.4984C18.6921 25.3968 18.7937 25.1936 18.8952 25.0921C18.8952 25.0921 18.8952 25.0921 18.8952 24.9905L19.9111 23.9746L28.8508 32.9143C29.1556 33.219 29.2572 33.6254 29.2572 34.0317V44.2921H29.3587ZM22.146 37.0794C22.146 37.4857 21.9429 37.8921 21.7397 38.1968L14.527 45.4095C14.2222 45.7143 13.7143 45.9174 13.3079 45.8159C12.9016 45.8159 12.4952 45.5111 12.1905 45.2063C11.7841 44.5968 11.8857 43.7841 12.3937 43.1746L18.8952 36.673C18.9968 36.5714 18.9968 36.4698 18.9968 36.2667V29.054L22.0445 32.1016V37.0794H22.146ZM26.7175 18.9968C26.7175 18.2857 27.2254 17.7778 27.6318 17.5746C28.0381 17.3714 28.7492 17.3714 29.2572 17.8794L33.2191 21.8413H26.7175V18.9968Z" fill="#181F4E"/>
</svg>
