<svg width="64" height="64" viewBox="0 0 64 64" fill="none" xmlns="http://www.w3.org/2000/svg">
<path d="M38.5013 44.4952C37.7902 45.2064 37.4854 46.0191 37.4854 47.0349C37.4854 47.9492 37.8917 48.8635 38.5013 49.5746C39.1108 50.2857 40.0251 50.5905 41.0409 50.5905C41.9552 50.5905 42.8695 50.1841 43.5806 49.5746C44.2917 48.8635 44.5965 48.0508 44.5965 47.0349C44.5965 46.1206 44.1902 45.2064 43.5806 44.4952C42.26 43.1746 39.8219 43.1746 38.5013 44.4952ZM42.8695 48.8635C41.9552 49.7778 40.2282 49.7778 39.314 48.8635C38.806 48.3556 38.6029 47.746 38.6029 47.0349C38.6029 46.3238 38.9076 45.7143 39.314 45.2064C39.7203 44.6984 40.4314 44.4952 41.1425 44.4952C41.8536 44.4952 42.4632 44.8 42.9711 45.2064C43.479 45.7143 43.6822 46.3238 43.6822 47.0349C43.5806 47.746 43.2759 48.3556 42.8695 48.8635Z" fill="#181F4E"/>
<path d="M30.9838 20.4191C31.8981 20.4191 32.8124 20.0127 33.5235 19.4032C34.2346 18.7937 34.5394 17.8794 34.5394 16.8635C34.5394 15.9492 34.133 15.0349 33.5235 14.3238C32.2029 13.0032 29.8663 13.0032 28.5457 14.3238C27.8346 15.0349 27.5298 15.8476 27.5298 16.8635C27.5298 17.7778 27.9362 18.6921 28.5457 19.4032C29.1552 20.1143 30.0695 20.4191 30.9838 20.4191ZM29.1552 15.1365C29.6632 14.6286 30.2727 14.4254 30.9838 14.4254C31.6949 14.4254 32.3044 14.7302 32.8124 15.1365C33.3203 15.5429 33.5235 16.254 33.5235 16.8635C33.5235 17.5746 33.2187 18.1841 32.8124 18.6921C31.8981 19.6064 30.1711 19.6064 29.2568 18.6921C28.7489 18.1841 28.5457 17.5746 28.5457 16.8635C28.4441 16.254 28.7489 15.5429 29.1552 15.1365Z" fill="#181F4E"/>
<path d="M56.1775 35.5556L54.4505 33.9302H53.0282L55.3648 36.2667L54.6536 36.9778L51.606 33.9302H50.1838L54.6536 38.4L56.8886 36.2667L56.4822 35.9619L56.1775 35.5556Z" fill="#181F4E"/>
<path d="M19.8092 32.3048L15.1362 27.6318L14.7298 28.0381L13.4092 29.4603C12.3933 30.4762 12.3933 32 13.4092 33.0159V41.0413L7.0092 47.4413C6.09491 48.3556 5.89174 49.7778 6.70444 50.7937C7.11079 51.4032 7.8219 51.8095 8.53301 51.8095C8.6346 51.8095 8.6346 51.8095 8.73618 51.8095C9.4473 51.8095 10.0568 51.5048 10.5648 51.0984L17.7775 43.8857C18.2854 43.3778 18.4886 42.7683 18.4886 42.0572V37.9937L20.6219 40.127V49.1683C20.6219 50.4889 21.5362 51.6064 22.7552 51.8095C22.8568 51.8095 23.06 51.8095 23.1616 51.8095C23.7711 51.8095 24.3806 51.6064 24.787 51.2C25.3965 50.6921 25.7013 49.981 25.7013 49.2698V39.1111C25.7013 38.4 25.3965 37.7905 24.9902 37.2826L20.3171 32.6095L19.8092 32.3048ZM24.5838 49.2698C24.5838 49.6762 24.3806 50.1841 24.0759 50.3873C23.7711 50.6921 23.2632 50.7937 22.8568 50.6921C22.1457 50.5905 21.5362 49.8794 21.5362 49.0667V39.8222C21.5362 39.7206 21.4346 39.5175 21.4346 39.4159L14.1203 32.1016C14.0187 32 13.9171 31.8984 13.9171 31.6952C13.6124 31.1873 13.714 30.4762 14.1203 29.9683C14.1203 29.9683 14.1203 29.9683 14.1203 29.8667L15.2378 28.7492L24.279 37.7905C24.5838 38.0952 24.6854 38.5016 24.6854 38.9079V49.2698H24.5838ZM17.4727 42.1587C17.4727 42.5651 17.2695 42.9714 17.0663 43.2762L9.85364 50.4889C9.54888 50.7937 9.04095 50.9968 8.6346 50.8952C8.22825 50.8952 7.8219 50.5905 7.51714 50.2857C7.11079 49.6762 7.21237 48.8635 7.72031 48.254L14.2219 41.6508C14.3235 41.5492 14.3235 41.4476 14.3235 41.2445V34.0318L17.3711 37.0794V42.1587H17.4727Z" fill="#181F4E"/>
<path d="M17.2695 25.3968L15.1362 27.5302L20.2155 32.6095L22.3489 30.4762L17.2695 25.3968ZM17.3711 26.9206L20.9267 30.4762L20.2155 31.1873L16.66 27.6318L17.3711 26.9206Z" fill="#181F4E"/>
<path d="M55.7711 28.8508L50.0822 23.1619V14.1206C50.0822 12.8 49.1679 11.6826 47.9489 11.4794C47.2378 11.3778 46.4251 11.581 45.9171 12.0889C45.3076 12.5968 45.0029 13.3079 45.0029 14.0191V24.1778C45.0029 24.8889 45.3076 25.4984 45.714 26.0064L48.5584 28.8508H45.6124L39.2124 22.4508C38.2981 21.5365 36.8759 21.4349 35.86 22.146C35.2505 22.5524 34.8441 23.2635 34.8441 23.9746C34.7425 24.6857 35.0473 25.3968 35.5552 26.0064L42.7679 33.2191C43.2759 33.727 43.8854 33.9302 44.5965 33.9302H49.1679L45.4092 37.6889L27.8346 20.1143C26.4124 18.6921 24.1775 18.6921 22.7552 20.1143L17.3711 25.4984L18.1838 26.3111L23.5679 20.927C24.5838 19.9111 26.2092 19.9111 27.1235 20.927L37.2822 31.0857C37.587 31.3905 37.6886 31.7968 37.6886 32.2032C37.6886 32.6095 37.4854 33.0159 37.2822 33.3206C36.6727 33.9302 35.6568 33.9302 35.1489 33.3206L34.2346 32.4064L33.5235 31.5937L25.4981 23.5683C25.4981 23.5683 25.3965 23.5683 25.3965 23.4667C25.1933 23.3651 24.9902 23.3651 24.787 23.5683C24.5838 23.7714 24.5838 24.0762 24.787 24.2794L25.9044 25.3968L21.6378 29.6635L22.4505 30.4762L20.3171 32.6095L26.8187 26.1079L44.2917 43.581C44.2917 43.581 44.2917 43.6825 44.3933 43.6825C45.1044 44.3937 46.0187 44.6984 46.933 44.6984C47.8473 44.6984 48.7616 44.3937 49.4727 43.6825L57.3965 35.7587C57.5997 35.5556 57.7013 35.454 57.8029 35.2508C57.9044 35.0476 58.006 34.8445 58.1076 34.6413V34.5397C58.1076 34.4381 58.2092 34.3365 58.2092 34.2349C58.2092 34.1333 58.3108 34.0318 58.3108 33.8286C58.3108 33.727 58.3108 33.727 58.3108 33.6254C58.3108 33.4222 58.3108 33.3206 58.3108 33.1175V31.1873C58.2092 29.9683 57.0917 28.8508 55.7711 28.8508ZM46.0187 14.0191C46.0187 13.6127 46.2219 13.1048 46.5267 12.8C46.8314 12.5968 47.1362 12.3937 47.5425 12.3937C47.6441 12.3937 47.7457 12.3937 47.8473 12.3937C48.5584 12.4952 49.0663 13.2064 49.0663 14.0191V23.3651C49.0663 23.4667 49.1679 23.6699 49.1679 23.7714L54.3489 28.9524H50.0822L46.5267 25.3968C46.2219 25.0921 46.1203 24.6857 46.1203 24.2794V14.0191H46.0187ZM54.6536 38.4L53.841 37.5873L48.4568 42.9714C47.4409 43.9873 45.9171 43.9873 44.9013 42.9714L36.1648 34.2349C36.6727 34.1333 37.1806 33.9302 37.587 33.5238C37.9933 33.1175 38.1965 32.6095 38.2981 32.1016L46.3235 40.127C46.3235 40.127 46.4251 40.127 46.4251 40.2286C46.6282 40.3302 46.8314 40.3302 47.0346 40.127C47.2378 39.9238 47.2378 39.6191 47.0346 39.4159L45.9171 38.2984L50.1838 34.0318L49.9806 33.8286H54.4505C54.5521 33.8286 54.5521 33.8286 54.6536 33.8286C54.7552 33.8286 54.7552 33.727 54.7552 33.727C54.8568 33.6254 54.8568 33.5238 54.8568 33.3206C54.8568 33.3206 54.8568 33.3206 54.8568 33.2191C54.8568 33.0159 54.6536 32.8127 54.3489 32.8127H44.2917C43.8854 32.8127 43.479 32.6095 43.1743 32.4064L35.9616 25.1937C35.6568 24.8889 35.4536 24.4825 35.5552 23.9746C35.5552 23.5683 35.86 23.1619 36.1648 22.8572C36.7743 22.4508 37.587 22.5524 38.1965 23.0603L44.6981 29.5619C44.7997 29.6635 44.9013 29.6635 45.1044 29.6635H55.3648C55.4663 29.6635 55.6695 29.6635 55.7711 29.7651C56.1775 29.8667 56.5838 30.1714 56.787 30.6794C56.8886 30.781 56.8886 30.9841 56.8886 31.0857C56.8886 31.1873 56.8886 31.1873 56.8886 31.2889V33.2191C56.8886 33.4222 56.8886 33.5238 56.8886 33.727C56.8886 33.8286 56.787 34.0318 56.787 34.1333C56.787 34.1333 56.787 34.1333 56.787 34.2349C56.787 34.3365 56.6854 34.4381 56.5838 34.6413V34.7429C56.4822 34.8445 56.3806 35.0476 56.279 35.1492L56.1775 35.5556L56.9902 36.3683L54.6536 38.4Z" fill="#181F4E"/>
</svg>
