<svg width="64" height="64" viewBox="0 0 64 64" fill="none" xmlns="http://www.w3.org/2000/svg">
<path d="M50.3872 13.0032C48.965 11.5809 46.73 11.5809 45.3078 13.0032C43.8856 14.4254 43.8856 16.6603 45.3078 17.981C46.0189 18.6921 46.9332 18.9968 47.8475 18.9968C48.7618 18.9968 49.6761 18.6921 50.3872 17.981C51.8094 16.6603 51.8094 14.4254 50.3872 13.0032ZM49.6761 17.2698C48.6602 18.2857 47.0348 18.2857 46.1205 17.2698C45.1046 16.254 45.1046 14.6286 46.1205 13.7143C46.6284 13.2063 47.238 13.0032 47.9491 13.0032C48.5586 13.0032 49.2697 13.2063 49.7777 13.7143C50.6919 14.7302 50.6919 16.3556 49.6761 17.2698Z" fill="#181F4E"/>
<path d="M47.5427 21.6381L41.7523 15.8476C41.2443 15.3397 40.6348 15.1365 39.9237 15.1365H34.3364V9.5492C34.3364 8.12698 33.2189 7.00952 31.7967 7.00952C30.3745 7.00952 29.3586 8.12698 29.3586 9.5492V17.6762C29.3586 19.0984 30.4761 20.2159 31.8983 20.2159H36.7745L31.3903 25.6L18.7935 13.0032C17.8792 12.0889 16.1523 12.0889 15.238 13.0032C14.73 13.5111 14.5269 14.1206 14.5269 14.8317C14.5269 15.5429 14.8316 16.1524 15.238 16.6603L31.6951 33.1175V52.419C31.6951 53.8413 32.8126 54.9587 34.2348 54.9587C35.657 54.9587 36.7745 53.8413 36.7745 52.419V33.1175L40.1269 29.7651L43.784 33.4222C43.8856 33.5238 43.9872 33.6254 44.0888 33.6254C44.0888 33.6254 44.1904 33.6254 44.1904 33.727C44.2919 33.8286 44.3935 33.8286 44.5967 33.9302C44.5967 33.9302 44.5967 33.9302 44.6983 33.9302C44.7999 34.0317 44.9015 34.0317 45.1046 34.0317H45.2062C45.4094 34.0317 45.511 34.1333 45.7142 34.1333C47.1364 34.1333 48.2538 33.0159 48.2538 31.5937V23.4667C48.2538 22.7556 48.0507 22.146 47.5427 21.6381ZM45.9173 21.4349H41.9554C41.9554 20.8254 41.9554 19.6063 41.9554 17.473L45.9173 21.4349ZM31.8983 19.2C31.0856 19.2 30.3745 18.4889 30.3745 17.6762V9.5492C30.3745 8.73651 31.0856 8.02539 31.8983 8.02539C32.711 8.02539 33.4221 8.73651 33.4221 9.5492V15.6444C33.4221 15.9492 33.6253 16.1524 33.93 16.1524H40.0253C40.33 16.1524 40.7364 16.254 40.9396 16.4571C40.9396 18.0825 40.9396 20.5206 40.9396 21.4349H36.8761L38.2983 20.0127C38.3999 19.9111 38.5015 19.6063 38.3999 19.5048C38.2983 19.4032 38.0951 19.2 37.8919 19.2H31.8983ZM37.0792 31.2889L32.1015 26.3111L32.8126 25.6L37.7904 30.5778L37.0792 31.2889ZM35.9618 32.5079C35.8602 32.6095 35.8602 32.7111 35.8602 32.9143V52.419C35.8602 53.2317 35.1491 53.9429 34.3364 53.9429C33.5237 53.9429 32.8126 53.2317 32.8126 52.419V32.9143C32.8126 32.8127 32.711 32.6095 32.711 32.5079L15.9491 15.8476C15.6443 15.5429 15.5427 15.1365 15.5427 14.7302C15.5427 14.3238 15.7459 13.9175 15.9491 13.6127C16.1523 13.3079 16.6602 13.2063 17.0665 13.2063C17.4729 13.2063 17.8792 13.4095 18.184 13.6127L36.4697 31.8984L35.9618 32.5079ZM47.238 31.5937C47.238 32.4063 46.5269 33.1175 45.7142 33.1175C45.7142 33.1175 45.7142 33.1175 45.6126 33.1175C45.511 33.1175 45.4094 33.1175 45.4094 33.1175C45.4094 33.1175 45.4094 33.1175 45.3078 33.1175C45.2062 33.1175 45.2062 33.1175 45.1046 33.0159C45.0031 33.0159 45.003 32.9143 44.9015 32.9143C44.7999 32.9143 44.7999 32.8127 44.6983 32.7111L39.0094 27.0222C38.3999 26.4127 38.3999 25.4984 39.0094 24.8889C39.6189 24.2794 40.6348 24.2794 41.1427 24.8889L44.6983 28.4444C44.7999 28.546 45.0031 28.6476 45.1046 28.546C45.2062 28.546 45.3078 28.4444 45.4094 28.4444C45.6126 28.2413 45.6126 27.9365 45.4094 27.7333L44.1904 26.4127V25.3968C44.1904 25.1936 44.0888 24.9905 43.8856 24.8889C43.784 24.8889 43.784 24.8889 43.6824 24.8889C43.5808 24.8889 43.3777 24.9905 43.2761 24.9905L43.0729 25.1936L41.7523 23.873C40.7364 22.8571 39.111 22.8571 38.1967 23.873C37.1808 24.8889 37.1808 26.5143 38.1967 27.4286L39.5173 28.7492L38.603 29.8667L33.5237 24.8889L35.8602 22.5524H46.8316C47.0348 22.8571 47.1364 23.1619 47.1364 23.4667V31.5937H47.238Z" fill="#181F4E"/>
</svg>
