<svg width="64" height="64" viewBox="0 0 64 64" fill="none" xmlns="http://www.w3.org/2000/svg">
<path d="M53.5369 43.2762C53.2321 43.1746 53.029 43.2762 52.8258 43.5809C52.1147 45.4095 49.9813 46.2222 48.1528 45.5111L17.3718 32.6095C17.0671 32.5079 16.8639 32.6095 16.6607 32.9143C16.5591 33.219 16.6607 33.4222 16.9655 33.6254L47.848 46.4254C48.4575 46.6285 48.9655 46.7301 49.575 46.7301C51.4036 46.7301 53.029 45.7143 53.8417 43.8857C53.9432 43.6825 53.7401 43.3777 53.5369 43.2762Z" fill="#181F4E"/>
<path d="M19.5052 20.927C19.5052 18.9968 17.8798 17.3714 15.9496 17.3714C14.0194 17.3714 12.394 18.9968 12.394 20.927C12.394 22.8571 14.0194 24.4825 15.9496 24.4825C17.8798 24.4825 19.5052 22.8571 19.5052 20.927ZM13.4099 20.927C13.4099 19.5047 14.5274 18.3873 15.9496 18.3873C17.3718 18.3873 18.4893 19.5047 18.4893 20.927C18.4893 22.3492 17.3718 23.4666 15.9496 23.4666C14.5274 23.4666 13.4099 22.3492 13.4099 20.927Z" fill="#181F4E"/>
<path d="M27.8353 35.8603L28.0385 35.9619H28.1401L29.9686 36.673L31.7972 37.4857C32.102 37.5873 32.4067 37.6889 32.8131 37.6889C33.5242 37.6889 34.1337 37.3841 34.6417 36.8762L48.4575 44.292C48.8639 44.4952 49.2702 44.5968 49.6766 44.5968C49.9813 44.5968 50.2861 44.5968 50.4893 44.4952C51.2004 44.292 51.7083 43.7841 52.0131 43.073C52.521 41.8539 51.9115 40.4317 50.794 39.8222L34.7432 31.1873C33.5242 30.4762 32.2036 29.8666 30.8829 29.3587L20.521 25.092C18.6925 24.3809 16.6607 25.1936 15.848 27.0222C15.4417 27.9365 15.4417 28.8508 15.848 29.765C16.2544 30.6793 16.8639 31.2889 17.7782 31.6952L27.8353 35.8603ZM50.1845 40.7365C50.8956 41.1428 51.302 41.9555 50.9972 42.6666C50.794 43.073 50.4893 43.3777 50.0829 43.4793C49.6766 43.5809 49.2702 43.5809 48.8639 43.3778L35.1496 35.9619C35.6575 34.6412 35.048 33.219 33.7274 32.7111L30.4766 31.492L30.8829 30.5777C32.0004 31.0857 33.1179 31.5936 34.2353 32.2031L50.1845 40.7365ZM16.7623 27.4285C17.2702 26.1079 18.794 25.4984 20.1147 26.0063L29.9686 30.0698L29.5623 30.9841L20.6226 27.4285C20.3179 27.327 20.1147 27.4285 19.9115 27.7333C19.8099 27.9365 19.9115 28.2412 20.1147 28.3428L20.2163 28.4444L29.1559 32.1016L30.0702 32.5079L33.321 33.8285C34.0321 34.1333 34.4385 34.946 34.2353 35.6571V35.7587C34.1337 36.0635 33.9305 36.2666 33.6258 36.4698C33.2194 36.7746 32.7115 36.7746 32.2036 36.5714L30.375 35.7587L28.9528 35.1492L28.0385 34.7428L26.7179 34.2349L18.2861 30.6793H18.1845C16.8639 30.273 16.1528 28.7492 16.7623 27.4285Z" fill="#181F4E"/>
</svg>
