<svg width="64" height="64" viewBox="0 0 64 64" fill="none" xmlns="http://www.w3.org/2000/svg">
<g clip-path="url(#clip0_4580_1344)">
<path d="M7.2127 26.2095C6.60317 26.6158 6.19682 27.3269 6.19682 28.038C6.09524 28.7491 6.4 29.4603 6.90794 30.0698L7.31429 29.765C7.41587 29.4603 7.61905 29.4603 7.82222 29.5618L7.61905 29.3587C7.31429 29.0539 7.11111 28.546 7.2127 28.1396C7.2127 27.7333 7.51746 27.3269 7.82222 27.0222C8.0254 26.819 8.33016 26.7174 8.63492 26.7174C9.04127 26.7174 9.44762 26.9206 9.85397 27.2253L13.6127 30.9841C13.8159 30.8825 13.9175 30.7809 14.019 30.6793C14.1206 30.5777 14.3238 30.4761 14.4254 30.3745L10.4635 26.4126C9.65079 25.5999 8.22857 25.4984 7.2127 26.2095Z" fill="#181F4E"/>
<path d="M43.581 27.2253C44.4952 27.2253 45.4095 26.819 46.1206 26.2095C47.5429 24.7872 47.5429 22.5523 46.1206 21.2317C44.8 19.9111 42.4635 19.9111 41.1429 21.2317C40.4317 21.9428 40.127 22.7555 40.127 23.7714C40.127 24.7872 40.5333 25.5999 41.1429 26.3111C41.7524 27.0222 42.6667 27.2253 43.581 27.2253ZM43.581 21.1301C44.2921 21.1301 44.9016 21.4349 45.4095 21.8412C46.4254 22.8571 46.4254 24.4825 45.4095 25.3968C44.4952 26.3111 42.7683 26.3111 41.854 25.3968C41.346 24.8888 41.1429 24.2793 41.1429 23.5682C41.1429 22.8571 41.4476 22.2476 41.854 21.7396C42.2603 21.2317 42.8698 21.1301 43.581 21.1301Z" fill="#181F4E"/>
<path d="M40.3302 26.9206L34.6413 21.2317C34.1333 20.7238 33.5238 20.5206 32.8127 20.5206H24.6857C23.9746 20.5206 23.2635 20.8253 22.7556 21.4349C22.2476 22.0444 22.0444 22.7555 22.146 23.4666C22.3492 24.6857 23.4667 25.5999 24.7873 25.5999H31.7968L33.6254 27.4285L26.2095 30.4761L25.4984 30.7809C25.6 30.8825 25.8032 30.9841 25.9048 30.9841C25.9048 30.9841 26.0063 30.9841 26.1079 31.0857C26.3111 31.1872 26.4127 31.2888 26.6159 31.2888C26.819 31.3904 27.0222 31.3904 27.2254 31.492L27.1238 31.1872L34.4381 28.1396L35.454 27.7333L36.8762 27.1238C36.8762 27.1238 36.8762 27.1238 36.9778 27.1238C37.5873 26.819 38.2984 26.819 38.9079 27.1238C39.2127 27.2253 39.4159 27.4285 39.7206 27.6317L43.3778 31.2888C43.6825 31.2888 43.8857 31.3904 44.1905 31.3904C44.3936 31.3904 44.5968 31.3904 44.9016 31.2888L40.3302 26.9206ZM36.4698 26.2095L34.6413 27.0222L32.4063 24.7872C32.3048 24.6857 32.2032 24.6857 32 24.6857H24.7873C23.9746 24.6857 23.2635 24.1777 23.1619 23.365C23.0603 22.9587 23.2635 22.4507 23.4667 22.146C23.7714 21.8412 24.1778 21.638 24.5841 21.638H32.7111C33.1175 21.638 33.5238 21.8412 33.8286 22.0444L37.7905 26.0063C37.5873 26.0063 37.2825 26.0063 37.0794 26.1079C36.9778 26.0063 36.673 26.1079 36.4698 26.2095Z" fill="#181F4E"/>
<path d="M38.1968 30.5777C38.0952 30.4761 37.8921 30.3745 37.6889 30.4761H37.5873C37.5873 30.4761 37.5873 30.4761 37.4857 30.4761C37.3841 30.5777 37.2825 30.7809 37.3841 30.8825C37.3841 30.9841 37.4857 31.0857 37.4857 31.1872C37.5873 31.1872 37.6889 31.0857 37.7905 31.0857C37.8921 31.0857 37.8921 30.9841 37.9937 30.9841C38.1968 30.8825 38.2984 30.7809 38.4 30.6793L38.1968 30.5777Z" fill="#181F4E"/>
<path d="M8.33016 33.1174C7.11111 32.6095 5.79048 33.1174 5.07936 34.1333C4.67302 34.7428 4.57143 35.5555 4.7746 36.2666C4.97778 36.9777 5.48571 37.5872 6.19682 37.7904L15.5429 41.6507C15.8476 41.7523 16.1524 41.8539 16.5587 41.8539C16.8635 41.8539 17.1683 41.7523 17.5746 41.6507L28.8508 36.9777L39.0095 32.8126L42.4635 36.2666C42.9714 36.7745 43.5809 36.9777 44.2921 36.9777H51.8095V40.1269C51.8095 41.5491 52.927 42.6666 54.3492 42.6666H58.4127C59.8349 42.6666 60.9524 41.5491 60.9524 40.1269V32.5079C60.7492 32.5079 60.6476 32.5079 60.4444 32.5079C60.2413 32.5079 60.1397 32.5079 59.9365 32.5079V40.1269C59.9365 40.9396 59.2254 41.6507 58.4127 41.6507H54.3492C53.5365 41.6507 52.8254 40.9396 52.8254 40.1269V36.9777C53.4349 36.8761 53.9429 36.5714 54.3492 36.165C54.8571 35.5555 55.0603 34.8444 54.9587 34.1333C54.8571 33.4222 54.3492 32.7111 53.7397 32.4063C53.4349 32.4063 53.1302 32.5079 52.8254 32.5079C52.8254 32.5079 52.8254 32.5079 52.7238 32.5079C52.6222 32.5079 52.419 32.5079 52.3175 32.5079C52.1143 32.5079 52.0127 32.5079 51.8095 32.5079C51.7079 32.5079 51.5048 32.5079 51.4032 32.5079C50.8952 32.4063 50.3873 32.2031 49.981 31.9999H46.6286C46.2222 32.2031 45.7143 32.4063 45.2063 32.5079C45.0032 32.5079 44.8 32.5079 44.5968 32.6095L44.9016 32.9142C45.0032 33.0158 45.1048 33.0158 45.3079 33.0158H52.3175C52.5206 33.0158 52.6222 33.0158 52.8254 33.1174C53.4349 33.3206 53.8413 33.7269 53.9429 34.3364C54.0444 34.7428 53.8413 35.2507 53.6381 35.5555C53.4349 35.7587 53.1302 35.9618 52.8254 36.0634C52.7238 36.0634 52.6222 36.0634 52.419 36.0634H44.2921C43.8857 36.0634 43.4794 35.8603 43.1746 35.6571L39.9238 32.4063L39.619 31.8984L39.2127 31.492C39.1111 31.5936 38.9079 31.6952 38.8063 31.7968C38.7048 31.8984 38.5016 31.8984 38.4 31.9999H38.2984C38.0952 32.1015 37.9936 32.2031 37.7905 32.2031L29.054 35.8603L28.4444 34.6412C28.4444 34.6412 28.4444 34.6412 28.4444 34.5396L27.6317 32.5079C27.4286 32.5079 27.2254 32.5079 27.0222 32.4063C26.819 32.4063 26.6159 32.3047 26.4127 32.2031L26.7175 32.9142L27.0222 33.5238L27.1238 33.8285L28.0381 35.9618L28.1397 36.165L27.9365 36.2666L25.1936 37.3841L23.9746 37.892L17.2698 40.7364C16.8635 40.9396 16.4571 40.9396 16.1524 40.7364L6.80635 36.8761C6.4 36.673 6.09524 36.3682 5.89206 35.9618C5.79048 35.5555 5.79048 35.0476 6.09524 34.6412C6.4 34.2349 6.90794 33.9301 7.41587 33.9301C7.61905 33.9301 7.82222 33.9301 8.12698 34.0317L13.2063 36.165L14.4254 36.673L16.3556 37.4857L16.6603 37.5872C16.7619 37.6888 16.9651 37.6888 17.0667 37.5872L17.3714 37.4857L18.5905 36.9777L23.7714 34.8444C23.873 34.7428 23.9746 34.7428 24.0762 34.5396C24.1778 34.3365 24.1778 34.2349 24.0762 34.1333C24.0762 34.0317 23.9746 33.9301 23.9746 33.9301C23.9746 33.7269 23.9746 33.6253 23.9746 33.4222C23.9746 33.219 24.0762 33.1174 24.0762 32.9142C24.2794 32.6095 24.4825 32.3047 24.8889 32.2031L25.6 31.8984C25.3968 31.7968 25.2952 31.6952 25.0921 31.5936C24.8889 31.492 24.7873 31.3904 24.5841 31.1872H24.4825C23.873 31.492 23.3651 31.8984 23.0603 32.6095C23.0603 32.7111 23.0603 32.8126 22.9587 32.9142H17.0667L15.2381 31.1872C15.1365 31.2888 14.9333 31.3904 14.8317 31.492C14.7302 31.5936 14.527 31.6952 14.4254 31.7968L16.3556 33.7269C16.4571 33.8285 16.5587 33.8285 16.7619 33.8285H22.7556V33.9301L16.6603 36.4698L13.6127 35.2507L10.7683 32.4063C10.4635 32.3047 10.0571 32.2031 9.75238 32.1015C9.14286 31.8984 8.63492 31.492 8.12698 31.0857L7.61905 30.6793L11.1746 34.2349L8.33016 33.1174Z" fill="#181F4E"/>
<path d="M58.4127 21.3333H54.3492C52.927 21.3333 51.8095 22.4507 51.8095 23.873V31.492C52.0127 31.492 52.1143 31.492 52.3175 31.492C52.5206 31.492 52.6222 31.492 52.8254 31.492V23.873C52.8254 23.0603 53.5365 22.3491 54.3492 22.3491H58.4127C59.2254 22.3491 59.9365 23.0603 59.9365 23.873V31.492C60.2413 31.492 60.6476 31.492 60.9524 31.492V23.9745C60.9524 22.5523 59.8349 21.3333 58.4127 21.3333Z" fill="#181F4E"/>
<path d="M0 31.1872C1.93016 33.0158 5.18095 33.0158 7.11111 31.1872L7.51746 30.7809L8.12698 31.1872C8.63492 31.5936 9.14286 31.9999 9.75238 32.2031C10.0571 32.3047 10.4635 32.4063 10.7683 32.5079C11.9873 32.7111 13.3079 32.5079 14.4254 31.8984C14.527 31.7968 14.7302 31.6952 14.8317 31.5936C14.9333 31.492 15.1365 31.3904 15.2381 31.2888C15.2381 31.2888 15.2381 31.2888 15.3397 31.2888L15.8476 30.8825L16.3556 31.2888C18.2857 33.1174 21.5365 33.1174 23.4667 31.2888L23.9746 30.8825L24.4825 31.2888C24.5841 31.3904 24.7873 31.492 24.9905 31.6952C25.1936 31.7968 25.2952 31.8984 25.4984 31.9999C25.8032 32.2031 26.1079 32.3047 26.5143 32.4063C26.7175 32.5079 26.9206 32.5079 27.1238 32.6095C27.327 32.6095 27.5302 32.6095 27.7333 32.7111C29.1556 32.8126 30.5778 32.4063 31.6952 31.3904L32.2032 30.9841L32.7111 31.3904C34.1333 32.7111 36.1651 33.1174 37.9937 32.5079C38.1968 32.4063 38.4 32.4063 38.5016 32.3047H38.6032C38.7048 32.2031 38.9079 32.2031 39.0095 32.1015C39.1111 31.9999 39.3143 31.8984 39.4159 31.7968C39.619 31.6952 39.7206 31.5936 39.9238 31.492L40.3302 31.0857L40.7365 31.492C40.8381 31.5936 40.9397 31.5936 40.9397 31.6952C41.854 32.5079 43.073 32.9142 44.2921 32.9142C44.3936 32.9142 44.4952 32.9142 44.5968 32.9142C44.8 32.9142 45.0032 32.9142 45.2063 32.8126C45.7143 32.7111 46.2222 32.5079 46.6286 32.3047C47.0349 32.1015 47.4413 31.7968 47.8476 31.492L48.3556 31.0857L48.8635 31.492C49.1682 31.7968 49.5746 32.1015 50.0825 32.3047C50.5905 32.5079 50.9968 32.7111 51.5048 32.8126C51.6063 32.8126 51.8095 32.8126 51.9111 32.8126C52.1143 32.8126 52.2159 32.8126 52.419 32.8126C52.5206 32.8126 52.7238 32.8126 52.8254 32.8126C52.8254 32.8126 52.8254 32.8126 52.927 32.8126C53.2317 32.8126 53.5365 32.7111 53.8413 32.6095C54.146 32.5079 54.3492 32.4063 54.654 32.3047C55.1619 32.1015 55.5682 31.7968 55.9746 31.3904L56.4825 30.9841L56.9905 31.3904C57.3968 31.7968 57.8032 31.9999 58.3111 32.3047C58.819 32.5079 59.4286 32.7111 60.0381 32.8126C60.2413 32.8126 60.3429 32.8126 60.546 32.8126C60.7492 32.8126 60.8508 32.8126 61.054 32.8126C62.1714 32.7111 63.2889 32.3047 64.1016 31.492V29.765L63.3905 30.3745C62.781 30.9841 61.8667 31.2888 61.054 31.3904C60.7492 31.3904 60.3429 31.3904 60.0381 31.3904C59.1238 31.2888 58.3111 30.9841 57.7016 30.3745L56.8889 29.5618C56.6857 29.3587 56.3809 29.3587 56.1778 29.5618L55.3651 30.3745C54.654 30.9841 53.8413 31.3904 53.0286 31.492C52.8254 31.492 52.7238 31.492 52.5206 31.492C52.3175 31.492 52.2159 31.492 52.0127 31.492C51.0984 31.3904 50.2857 31.0857 49.6762 30.3745L48.8635 29.5618C48.6603 29.3587 48.3556 29.3587 48.1524 29.5618L47.3397 30.3745C46.7302 30.9841 45.9175 31.2888 45.1048 31.3904C44.9016 31.3904 44.6984 31.492 44.3936 31.492C44.0889 31.492 43.8857 31.492 43.581 31.3904C42.7683 31.2888 42.0571 30.8825 41.4476 30.3745L41.0413 29.9682H40.9397L40.6349 29.6634C40.6349 29.6634 40.6349 29.6634 40.5333 29.6634C40.3302 29.5618 40.127 29.5618 39.9238 29.6634L39.1111 30.4761C39.0095 30.5777 38.8063 30.6793 38.7048 30.7809C38.6032 30.8825 38.4 30.9841 38.2984 31.0857C38.1968 31.0857 38.1968 31.1872 38.0952 31.1872C37.9936 31.1872 37.8921 31.2888 37.7905 31.2888C36.3683 31.7968 34.6413 31.492 33.4222 30.4761L32.6095 29.6634C32.4063 29.4603 32.1016 29.4603 31.8984 29.6634L31.0857 30.4761C30.0698 31.3904 28.6476 31.7968 27.4286 31.492C27.2254 31.492 27.0222 31.3904 26.819 31.2888C26.6159 31.1872 26.5143 31.1872 26.3111 31.0857C26.2095 31.0857 26.2095 31.0857 26.1079 30.9841C26.0063 30.8825 25.8032 30.7809 25.7016 30.7809C25.6 30.6793 25.3968 30.5777 25.2952 30.4761L24.4825 29.6634C24.2794 29.4603 23.9746 29.4603 23.7714 29.6634L22.9587 30.4761C21.3333 31.9999 18.7936 31.9999 17.1683 30.4761L16.3556 29.6634C16.1524 29.4603 15.8476 29.4603 15.6444 29.6634L14.8317 30.4761C14.8317 30.4761 14.7302 30.4761 14.7302 30.5777C14.6286 30.6793 14.4254 30.7809 14.3238 30.8825C14.2222 30.9841 14.019 31.0857 13.9175 31.1872C12.3936 31.9999 10.3619 31.7968 9.04127 30.5777L8.22857 29.765C8.22857 29.765 8.12698 29.6634 8.0254 29.6634C7.82222 29.5618 7.61905 29.6634 7.51746 29.765L7.11111 30.0698L6.70476 30.4761C5.07936 31.9999 2.53968 31.9999 0.914286 30.4761L0 29.765V31.1872Z" fill="#181F4E"/>
</g>
<defs>
<clipPath id="clip0_4580_1344">
<rect width="64" height="64" fill="white"/>
</clipPath>
</defs>
</svg>
