<svg width="64" height="64" viewBox="0 0 64 64" fill="none" xmlns="http://www.w3.org/2000/svg">
<g clip-path="url(#clip0_4580_1641)">
<path d="M16.1524 11.6826C16.4571 11.7841 16.6603 11.7841 16.9651 11.7841L15.3397 10.1587C15.1365 9.95557 15.0349 9.65081 15.0349 9.34604C15.0349 9.04128 15.2381 8.73652 15.4413 8.63493C15.6444 8.53335 15.746 8.43176 15.9492 8.43176C16.254 8.43176 16.5587 8.53335 16.7619 8.73652L18.8952 10.8699L19.3016 10.5651L19.5048 10.3619C19.6063 10.2603 19.7079 10.2603 19.8095 10.2603L17.5746 8.02541C16.8635 7.3143 15.6444 7.21271 14.9333 7.72065C14.4254 8.02541 14.1206 8.63493 14.1206 9.24446C14.1206 9.85398 14.3238 10.4635 14.7302 10.8699L14.8317 10.9714C15.1365 11.2762 15.6444 11.581 16.1524 11.6826Z" fill="#181F4E"/>
<path d="M42.2603 8.73652C42.9714 8.73652 43.6825 8.43176 44.1905 7.92382C45.3079 6.80636 45.3079 5.07938 44.1905 3.96192C43.1746 2.94604 41.2444 2.94604 40.2286 3.96192C39.7206 4.46985 39.4159 5.18096 39.4159 5.89208C39.4159 6.60319 39.7206 7.3143 40.2286 7.82223C40.7365 8.53335 41.4476 8.73652 42.2603 8.73652ZM40.9397 4.77462C41.2444 4.46985 41.7524 4.26668 42.1587 4.26668C42.5651 4.26668 43.073 4.46985 43.3778 4.77462C44.0889 5.48573 44.0889 6.60319 43.3778 7.3143C42.6667 8.02541 41.5492 8.02541 40.8381 7.3143C40.5333 7.00954 40.3302 6.5016 40.3302 6.09525C40.3302 5.6889 40.6349 5.07938 40.9397 4.77462Z" fill="#181F4E"/>
<path d="M28.8508 11.6826C29.054 11.6826 29.2571 11.6826 29.3587 11.6826C29.5619 11.6826 29.6635 11.581 29.8667 11.581C30.273 11.4794 30.6794 11.2762 30.9841 10.9714L31.4921 10.5651L31.6952 10.4635C31.7968 10.3619 32 10.2603 32.2032 10.3619C32.3048 10.3619 32.4063 10.4635 32.4063 10.4635L32.7111 10.6667L35.3524 9.54922L37.3841 8.73652C37.8921 8.53335 38.5016 8.53335 39.0095 8.83811C39.2127 8.93969 39.3143 9.04128 39.4159 9.14287L41.854 11.581C42.0571 11.581 42.2603 11.4794 42.4635 11.3778C42.6667 11.2762 42.7683 11.2762 42.9714 11.1746L40.127 8.22858C40.0254 8.127 39.8222 7.92382 39.7206 7.82223L36.0635 4.16509C35.6571 3.75874 35.1492 3.55557 34.6413 3.55557H28.546C27.9365 3.55557 27.4286 3.86033 27.0222 4.26668C26.6159 4.67303 26.5143 5.28255 26.5143 5.89208C26.6159 6.90795 27.5302 7.61906 28.6476 7.61906H33.8286L34.8444 8.63493L29.4603 10.8699L28.1397 11.3778C28.4444 11.4794 28.6476 11.581 28.9524 11.581C28.6476 11.6826 28.7492 11.6826 28.8508 11.6826ZM34.0317 6.90795C33.9302 6.80636 33.8286 6.80636 33.6254 6.80636H28.2413C27.7333 6.80636 27.2254 6.40001 27.1238 5.99366C27.1238 5.6889 27.1238 5.38414 27.327 5.18096C27.5302 4.97779 27.8349 4.77462 28.1397 4.77462H34.2349C34.5397 4.77462 34.7429 4.8762 34.946 5.07938L37.5873 7.51747C37.3841 7.51747 37.0794 7.61906 36.8762 7.72065L35.454 8.33017L34.0317 6.90795Z" fill="#181F4E"/>
<path d="M7.92381 11.6826C9.44762 13.1048 11.9873 13.1048 13.5111 11.6826L13.8159 11.3778L14.1206 11.6826C15.6444 13.1048 18.1841 13.1048 19.7079 11.6826L20.0127 11.3778L20.3175 11.6826C21.8413 13.1048 24.381 13.1048 25.9048 11.6826L26.2095 11.3778L26.5143 11.6826C28.0381 13.1048 30.5778 13.1048 32.1016 11.6826L32.4063 11.3778L32.7111 11.6826C34.2349 13.1048 36.7746 13.1048 38.2984 11.6826L38.6032 11.3778L38.9079 11.6826C40.4317 13.1048 42.9714 13.1048 44.4952 11.6826L44.8 11.3778L45.1048 11.6826C46.6286 13.1048 49.1683 13.1048 50.6921 11.6826L50.9968 11.3778L51.3016 11.6826C52.0127 12.3937 53.0286 12.8 54.0444 12.8C55.0603 12.8 56.0762 12.3937 56.7873 11.6826L57.3968 11.073C57.6 10.8699 57.6 10.5651 57.3968 10.3619C57.2952 10.2603 57.1936 10.1587 56.9905 10.1587C56.8889 10.1587 56.7873 10.1587 56.6857 10.2603L56.0762 10.8699C54.9587 11.8857 53.0286 11.8857 51.9111 10.8699L51.3016 10.2603C51.0984 10.0572 50.7936 10.0572 50.5905 10.2603L49.981 10.8699C48.8635 11.9873 46.9333 11.9873 45.8159 10.8699L45.2063 10.2603C45.0032 10.0572 44.6984 10.0572 44.4952 10.2603L43.8857 10.8699C43.7841 10.9714 43.5809 11.073 43.4794 11.1746C43.2762 11.2762 43.1746 11.3778 42.9714 11.3778C42.7683 11.4794 42.5651 11.4794 42.3619 11.581C41.9556 11.6826 41.4476 11.6826 41.0413 11.4794C40.9397 11.4794 40.8381 11.3778 40.6349 11.3778C40.6349 11.3778 40.5333 11.3778 40.5333 11.2762C40.4317 11.1746 40.2286 11.1746 40.127 11.073C40.0254 10.9714 39.8222 10.8699 39.7206 10.7683L39.1111 10.1587C39.1111 10.1587 39.1111 10.1587 39.0095 10.1587C38.8063 10.0572 38.5016 10.0572 38.4 10.1587L37.5873 10.4635L37.1809 10.7683L37.0794 10.8699C36.9778 10.9714 36.8762 10.9714 36.7746 11.073C35.6571 11.8857 33.9302 11.8857 32.9143 10.8699L32.5079 10.5651L32.2032 10.3619C32.1016 10.2603 32.1016 10.2603 32 10.2603C31.7968 10.2603 31.6952 10.2603 31.4921 10.3619V10.4635L30.9841 10.8699C30.6794 11.1746 30.273 11.3778 29.8667 11.4794C29.6635 11.581 29.5619 11.581 29.3587 11.581C29.1556 11.581 28.9524 11.581 28.8508 11.581C28.7492 11.581 28.6476 11.581 28.546 11.581C28.2413 11.581 28.0381 11.4794 27.7333 11.3778C27.4286 11.2762 27.1238 11.073 26.819 10.7683L26.2095 10.1587C26.0063 9.95557 25.7016 9.95557 25.4984 10.1587L24.8889 10.7683C23.7714 11.8857 21.8413 11.8857 20.7238 10.7683L20.1143 10.1587C20.0127 10.0572 19.8095 10.0572 19.7079 10.0572C19.6063 10.0572 19.5048 10.1587 19.4032 10.1587L19.3016 10.4635L18.8952 10.7683L18.7936 10.8699C18.2857 11.3778 17.5746 11.581 16.8635 11.6826C16.5587 11.6826 16.3556 11.6826 16.0508 11.581C15.5429 11.4794 15.0349 11.2762 14.6286 10.8699L14.019 10.2603C13.8159 10.0572 13.5111 10.0572 13.3079 10.2603L12.6984 10.8699C11.581 11.9873 9.65079 11.9873 8.53333 10.8699L7.92381 10.2603C7.82222 10.2603 7.72063 10.1587 7.61905 10.1587C7.51746 10.1587 7.31429 10.2603 7.2127 10.3619C7.00952 10.5651 7.00952 10.8699 7.2127 11.073L7.92381 11.6826Z" fill="#181F4E"/>
<path d="M46.019 29.054H47.4413L52.2159 24.2794C53.8413 22.654 55.9746 21.7397 58.3111 21.7397H59.327V32C59.327 32.508 58.9206 32.9143 58.4127 32.9143C58.1079 32.9143 57.8032 32.7111 57.6 32.4064L55.7714 29.2572C55.6698 29.054 55.2635 28.9524 55.0603 29.054C54.8571 29.1556 54.7556 29.4603 54.8571 29.7651L56.6857 32.9143C56.9905 33.5238 57.7016 33.8286 58.4127 33.8286C59.5302 33.8286 60.3429 32.9143 60.3429 31.8984V21.7397H61.3587C61.6635 21.7397 61.8667 21.5365 61.8667 21.2318C61.8667 20.927 61.6635 20.7238 61.3587 20.7238H58.4127C55.873 20.7238 53.4349 21.7397 51.6063 23.5683L46.019 29.054Z" fill="#181F4E"/>
<path d="M27.1238 34.4381C24.5841 34.4381 22.146 35.454 20.3175 37.2826L19.9111 37.5873C19.7079 37.7905 19.7079 38.0953 19.9111 38.2984C20.0127 38.4 20.1143 38.4 20.3175 38.4C20.5206 38.4 20.6222 38.4 20.7238 38.2984L21.1302 37.8921C22.7556 36.2667 24.8889 35.3524 27.2254 35.3524H35.7587L34.7429 34.3365H27.1238V34.4381Z" fill="#181F4E"/>
<path d="M42.1587 32.8127C41.4476 33.3206 40.7365 33.6254 39.9238 33.9302L40.7365 34.7429C41.6508 34.3365 42.5651 33.8286 43.3778 33.1175H43.1746C42.7683 33.1175 42.4635 33.0159 42.1587 32.8127Z" fill="#181F4E"/>
<path d="M46.9333 23.9746C48.4571 23.9746 49.7778 22.7556 49.7778 21.1302C49.7778 19.5048 48.5587 18.2857 46.9333 18.2857C45.3079 18.2857 44.0889 19.5048 44.0889 21.1302C44.0889 22.7556 45.4095 23.9746 46.9333 23.9746ZM46.9333 19.4032C47.9492 19.4032 48.7619 20.2159 48.7619 21.2318C48.7619 22.2476 47.9492 23.0603 46.9333 23.0603C45.9175 23.0603 45.1048 22.2476 45.1048 21.2318C45.1048 20.2159 46.019 19.4032 46.9333 19.4032Z" fill="#181F4E"/>
<path d="M45.2063 29.054V24.9905C45.2063 24.4826 45.0032 23.9746 44.5968 23.5683C43.581 22.5524 41.7524 22.5524 40.6349 23.5683L33.6254 30.5778C32.8127 31.3905 32.8127 32.6095 33.6254 33.4222L38.0952 37.8921L34.1333 41.854C33.3206 42.6667 33.3206 43.8857 34.1333 44.6984C34.5397 45.1048 35.0476 45.3079 35.5556 45.3079C36.0635 45.3079 36.5714 45.1048 36.9778 44.6984L42.3619 39.3143C42.7683 38.908 42.9714 38.4 42.9714 37.8921C42.9714 37.3841 42.7683 36.8762 42.3619 36.4699L39.0095 33.1175L41.1429 30.9841V31.0857C41.1429 31.7968 41.5492 32.4064 42.0571 32.8127C42.3619 33.0159 42.7683 33.1175 43.1746 33.1175H43.3778H49.2698C50.3873 33.1175 51.3016 32.2032 51.3016 31.0857C51.3016 29.9683 50.3873 29.054 49.2698 29.054H47.4413H46.019H45.2063ZM39.619 35.0476L41.7524 37.181C41.9556 37.3841 42.0571 37.5873 42.0571 37.8921C42.0571 38.1968 41.9556 38.4 41.7524 38.6032L36.3683 43.9873C35.9619 44.3937 35.3524 44.3937 34.946 43.9873C34.5397 43.581 34.5397 42.9714 34.946 42.5651L39.2127 38.2984C39.4159 38.0953 39.4159 37.7905 39.2127 37.5873L34.3365 32.7111C33.9302 32.3048 33.9302 31.6953 34.3365 31.2889L35.0476 30.5778L38.8063 34.3365L39.619 35.0476ZM49.2698 30.0699C49.8794 30.0699 50.2857 30.4762 50.2857 31.0857C50.2857 31.6953 49.8794 32.1016 49.2698 32.1016H43.1746C43.073 32.1016 43.073 32.1016 42.9714 32.1016C42.4635 32 42.1587 31.5937 42.1587 31.0857V27.327C42.1587 27.1238 42.0571 27.0222 41.9556 26.9206C41.854 26.8191 41.7524 26.8191 41.6508 26.8191C41.346 26.8191 41.1429 27.0222 41.1429 27.327V29.5619L38.2984 32.4064L35.7587 29.8667L41.346 24.2794C42.0571 23.5683 43.1746 23.5683 43.8857 24.2794C43.8857 24.2794 43.8857 24.2794 43.8857 24.381C44.0889 24.5841 44.1905 24.7873 44.1905 25.0921V29.6635C44.1905 29.9683 44.3936 30.1714 44.6984 30.1714H49.2698V30.0699Z" fill="#181F4E"/>
<path d="M53.1302 42.4635C52.6222 42.9714 52.3175 43.6826 52.3175 44.3937C52.3175 45.1048 52.6222 45.8159 53.1302 46.3238C53.6381 46.8318 54.3492 47.1365 55.0603 47.1365C55.7714 47.1365 56.4825 46.8318 56.9905 46.3238C58.1079 45.2064 58.1079 43.4794 56.9905 42.3619C55.9746 41.346 54.146 41.346 53.1302 42.4635ZM56.3809 45.6127C55.6698 46.3238 54.5524 46.3238 53.8413 45.6127C53.5365 45.308 53.3333 44.8 53.3333 44.3937C53.3333 43.9873 53.5365 43.4794 53.8413 43.1746C54.146 42.8699 54.654 42.6667 55.0603 42.6667C55.4667 42.6667 55.9746 42.8699 56.2794 43.1746C56.9905 43.7841 56.9905 45.0032 56.3809 45.6127Z" fill="#181F4E"/>
<path d="M29.9683 49.7778H34.0317V50.2857H29.9683C30.6794 50.2857 31.3905 50.6921 31.6952 51.3016H34.5397C34.8444 51.3016 35.0476 51.0984 35.0476 50.7937V49.2699C35.0476 48.9651 34.8444 48.7619 34.5397 48.7619H34.3365V48.5587C34.3365 48.254 34.1333 48.0508 33.8286 48.0508C33.5238 48.0508 33.3206 48.254 33.3206 48.5587V48.7619H30.0698C29.1556 48.7619 28.3429 49.3714 28.1397 50.2857H29.2571C29.2571 49.981 29.5619 49.7778 29.9683 49.7778Z" fill="#181F4E"/>
<path d="M17.7778 44.1905C16.254 44.1905 14.9333 45.4095 14.9333 47.0349C14.9333 48.6603 16.254 49.7778 17.7778 49.7778C19.3016 49.7778 20.6222 48.5587 20.6222 46.9333C20.6222 45.308 19.3016 44.1905 17.7778 44.1905ZM17.7778 48.7619C16.7619 48.7619 15.9492 47.9492 15.9492 46.9333C15.9492 45.9175 16.7619 45.1048 17.7778 45.1048C18.7936 45.1048 19.6063 45.9175 19.6063 46.9333C19.6063 47.9492 18.7936 48.7619 17.7778 48.7619Z" fill="#181F4E"/>
<path d="M10.6667 15.1365C9.14286 15.1365 7.82222 16.3556 7.82222 17.8794C7.82222 19.4032 9.04127 20.7238 10.6667 20.7238C12.2921 20.7238 13.5111 19.5048 13.5111 17.8794C13.5111 16.254 12.1905 15.1365 10.6667 15.1365ZM10.6667 19.7079C9.65079 19.7079 8.83809 18.8953 8.83809 17.8794C8.83809 16.8635 9.65079 16.1524 10.6667 16.1524C11.6825 16.1524 12.4952 16.9651 12.4952 17.8794C12.4952 18.7937 11.6825 19.7079 10.6667 19.7079Z" fill="#181F4E"/>
<path d="M20.8254 26.108C20.927 26.108 20.927 26.0064 21.0286 26.0064C21.0286 26.0064 20.927 26.0064 20.8254 26.108Z" fill="#181F4E"/>
<path d="M20.8254 24.381C20.927 24.4826 20.927 24.4826 21.0286 24.5841C21.0286 24.4826 20.927 24.381 20.8254 24.381Z" fill="#181F4E"/>
<path d="M19.8095 23.6699V26.7175C19.8095 27.0222 20.0127 27.2254 20.3175 27.2254C21.2317 27.2254 22.0444 26.6159 22.2476 25.7016H34.2349C34.5397 25.7016 34.7429 25.4984 34.7429 25.1937C34.7429 24.8889 34.5397 24.6857 34.2349 24.6857H22.3492C22.146 23.7714 21.3333 23.1619 20.419 23.1619C20.1143 23.1619 19.8095 23.4667 19.8095 23.6699ZM20.8254 26.108V24.381C20.927 24.381 20.927 24.4826 21.0286 24.5841C21.1302 24.6857 21.1302 24.7873 21.2317 24.8889V24.9905C21.2317 25.0921 21.3333 25.1937 21.3333 25.2953C21.3333 25.3968 21.3333 25.4984 21.2317 25.6V25.7016C21.2317 25.8032 21.1302 25.9048 21.0286 26.0064C21.0286 26.0064 20.927 26.108 20.8254 26.108Z" fill="#181F4E"/>
<path d="M61.3587 46.7302C60.546 45.9175 59.327 45.9175 58.5143 46.7302L55.6698 49.5746L52.7238 46.7302L48.4571 42.4635C47.6444 41.6508 46.4254 41.6508 45.6127 42.4635L41.2444 46.7302C40.4317 47.5429 40.4317 48.7619 41.2444 49.5746C41.6508 49.981 42.1587 50.1841 42.6667 50.1841C43.1746 50.1841 43.6825 49.981 44.0889 49.5746L46.9333 46.7302L47.8476 47.6445L41.6508 53.8413C41.2444 54.2476 41.0413 54.8572 41.0413 55.4667L32.6095 64H34.0317L41.6508 56.381C41.7524 56.4826 41.7524 56.4826 41.854 56.5841L43.073 57.8032L36.8762 64H38.2984L43.7841 58.5143L46.3238 61.054L43.3778 64H44.8L47.3397 61.4603C47.4413 61.3587 47.4413 61.2572 47.4413 61.054C47.4413 60.8508 47.3397 60.7492 47.3397 60.6476L44.4952 57.9048L43.6825 57.0921L42.5651 55.873C42.4635 55.7714 42.4635 55.7714 42.4635 55.6699C42.3619 55.4667 42.2603 55.2635 42.3619 55.0603C42.3619 54.8572 42.4635 54.5524 42.6667 54.4508L43.4794 53.6381L50.1841 60.3429C50.3873 60.546 50.4889 60.7492 50.4889 61.054C50.4889 61.3587 50.3873 61.5619 50.1841 61.7651L47.6444 64H49.0667L50.5905 62.4762C51.4032 61.6635 51.4032 60.4445 50.5905 59.6318L47.1365 56.1778L51.8095 51.5048L54.146 53.8413C54.5524 54.2476 55.0603 54.4508 55.5683 54.4508C56.0762 54.4508 56.5841 54.2476 56.9905 53.8413L61.2571 49.5746C62.1714 48.8635 62.1714 47.5429 61.3587 46.7302ZM47.3397 45.6127C47.1365 45.4095 46.8317 45.4095 46.6286 45.6127L43.3778 48.8635C42.9714 49.2699 42.3619 49.2699 41.9556 48.8635C41.5492 48.4572 41.5492 47.8476 41.9556 47.4413L46.2222 43.1746C46.6286 42.7683 47.2381 42.7683 47.6444 43.1746L50.4889 46.0191C49.8794 46.0191 49.1683 46.3238 48.7619 46.8318L48.5587 47.0349L47.3397 45.6127ZM60.6476 48.8635L56.3809 53.1302C56.1778 53.3333 55.9746 53.4349 55.6698 53.4349C55.3651 53.4349 55.1619 53.3333 54.9587 53.1302L51.0984 49.2699C51.0984 49.2699 50.9968 49.2699 50.9968 49.1683C50.8952 49.0667 50.7936 49.0667 50.6921 49.0667C50.5905 49.0667 50.4889 49.1683 50.3873 49.1683C50.2857 49.2699 50.2857 49.3714 50.2857 49.473C50.2857 49.5746 50.2857 49.7778 50.3873 49.8794L51.0984 50.5905L46.4254 55.2635L43.9873 52.8254L49.6762 47.1365C50.3873 46.4254 51.5048 46.4254 52.2159 47.1365L55.4667 50.3873C55.6698 50.5905 55.9746 50.5905 56.1778 50.3873L59.4286 47.1365C59.8349 46.7302 60.4444 46.7302 60.8508 47.1365C61.054 47.8476 61.054 48.4572 60.6476 48.8635Z" fill="#181F4E"/>
<path d="M29.9683 50.2857H17.7778C16.254 50.2857 14.9333 51.5048 14.9333 53.1302V64H15.9492V61.9683H19.5048V64H20.5206V54.3492H29.9683C31.0857 54.3492 32 53.4349 32 52.3175C32 51.9111 31.8984 51.6064 31.6952 51.3016C31.3905 50.6921 30.6794 50.2857 29.9683 50.2857ZM29.9683 53.3333H18.4889C18.1841 53.3333 17.981 53.5365 17.981 53.8413C17.981 54.146 18.1841 54.3492 18.4889 54.3492H19.5048V60.9524H15.9492V53.0286C15.9492 52.0127 16.7619 51.2 17.7778 51.2H29.9683C30.5778 51.2 30.9841 51.6064 30.9841 52.2159C30.9841 52.8254 30.5778 53.3333 29.9683 53.3333Z" fill="#181F4E"/>
<path d="M13.5111 27.1238C13.7143 27.2254 14.019 27.327 14.3238 27.327H20.419C20.1143 27.327 19.9111 27.1238 19.9111 26.8191V26.3111H14.3238C14.2222 26.3111 14.019 26.3111 13.9175 26.2095L9.65079 24.381C9.34603 24.2794 9.14286 24.381 8.93968 24.6857C8.83809 24.9905 8.93968 25.1937 9.24444 25.3968L9.44762 25.4984L6.90794 31.5937L3.65714 30.273L5.99365 24.6857L6.70476 23.0603C6.80635 22.654 6.90794 22.5524 7.11111 22.3492C7.31429 22.146 7.51746 22.0445 7.72063 21.9429C8.12698 21.7397 8.63492 21.7397 9.04127 21.9429L14.4254 24.1778C14.527 24.1778 14.527 24.1778 14.6286 24.1778H19.9111V23.6699C19.9111 23.3651 20.1143 23.1619 20.419 23.1619H14.7302L9.44762 21.0286C9.14286 20.927 8.73651 20.8254 8.43175 20.8254H0.101587V21.8413H6.29841C6.09524 22.0445 5.99365 22.2476 5.89206 22.5524L5.38413 23.873H0.203175V24.8889H4.97778L2.74286 30.273L2.13333 31.6953C2.03175 32 1.93016 32.3048 2.03175 32.6095L0 34.3365V35.7587L2.13333 33.6254C2.33651 33.9302 2.64127 34.2349 3.04762 34.3365L3.9619 34.7429L0 38.5016V39.9238L4.97778 35.1492L9.54921 37.0794V43.3778C9.54921 44.4953 10.4635 45.4095 11.581 45.4095C12.6984 45.4095 13.6127 44.4953 13.6127 43.3778V35.7587C13.6127 34.946 13.1048 34.2349 12.3936 33.9302L7.92381 32.1016L10.4635 26.0064L13.5111 27.1238ZM11.9873 34.7429C12.3937 34.946 12.5968 35.2508 12.5968 35.6572V43.2762C12.5968 43.8857 12.1905 44.2921 11.581 44.2921C10.9714 44.2921 10.5651 43.8857 10.5651 43.2762V36.673C10.5651 36.4699 10.4635 36.2667 10.2603 36.1651L3.45397 33.3206C2.94603 33.1175 2.64127 32.508 2.94603 32L3.35238 31.0857L7.11111 32.6095L11.9873 34.7429Z" fill="#181F4E"/>
</g>
<defs>
<clipPath id="clip0_4580_1641">
<rect width="64" height="64" fill="white"/>
</clipPath>
</defs>
</svg>
