<svg width="64" height="64" viewBox="0 0 64 64" fill="none" xmlns="http://www.w3.org/2000/svg">
<path d="M48.1521 44.9016C47.9489 45.1047 47.9489 45.4095 48.1521 45.6127C48.2537 45.7143 48.3553 45.7143 48.5584 45.7143C48.7616 45.7143 48.8632 45.7143 48.9648 45.6127L58.0061 36.5714H56.5838L48.1521 44.9016Z" fill="#181F4E"/>
<path d="M59.1235 32.6095H39.9235C39.4156 32.6095 38.9076 32.8127 38.5013 33.219L34.2346 37.4857C33.9299 37.7905 33.7267 38.0952 33.6251 38.5016C33.5235 38.8063 33.5235 39.2127 33.6251 39.5174C33.7267 39.7206 33.8283 40.0254 33.9299 40.2286C34.2346 40.7365 34.8442 41.0413 35.4537 41.0413C35.5553 41.0413 35.5553 41.0413 35.6568 41.0413C36.1648 41.0413 36.6727 40.8381 37.0791 40.4317L40.8378 36.673H41.8537L38.0949 40.4317C37.6886 40.8381 37.4854 41.4476 37.4854 42.0571L33.7267 45.7143H27.0219C26.0061 45.7143 25.0918 46.4254 24.8886 47.4413C24.787 48.0508 24.9902 48.6603 25.2949 49.0667C25.7013 49.473 26.2092 49.7778 26.8188 49.7778H34.5394C35.0473 49.7778 35.5553 49.5746 35.9616 49.1682L39.9235 45.2063L43.2759 48.5587V55.2635C43.2759 56.2794 43.987 57.1936 45.0029 57.3968C45.1045 57.3968 45.2061 57.3968 45.3076 57.3968C45.8156 57.3968 46.2219 57.1936 46.6283 56.8889C47.0346 56.4825 47.3394 55.9746 47.3394 55.3651V47.746C47.3394 47.2381 47.1362 46.7301 46.7299 46.3238L43.2759 42.8698L48.8632 37.2825C49.0664 37.0794 49.2695 36.8762 49.3711 36.5714H59.1235C59.6315 36.5714 60.1394 36.3682 60.5457 35.9619C60.9521 35.5555 61.1553 35.0476 61.1553 34.5397C61.1553 33.5238 60.241 32.6095 59.1235 32.6095ZM59.8346 35.3524C59.6315 35.5555 59.4283 35.6571 59.1235 35.6571H49.6759C49.6759 35.5555 49.6759 35.454 49.6759 35.3524C49.6759 34.7428 49.4727 34.0317 49.0664 33.6254H59.1235C59.733 33.6254 60.1394 34.0317 60.1394 34.6413C60.1394 34.946 60.0378 35.1492 59.8346 35.3524ZM48.1521 36.673L42.5648 42.2603L40.0251 39.7206L43.0727 36.673H43.8854C44.1902 36.673 44.3934 36.4698 44.3934 36.1651C44.3934 36.0635 44.3934 35.9619 44.2918 35.9619C44.1902 35.8603 44.1902 35.7587 44.0886 35.7587C43.987 35.7587 43.987 35.7587 43.8854 35.7587H40.4315C40.3299 35.7587 40.1267 35.8603 40.0251 35.8603L36.2664 39.619C36.0632 39.8222 35.7584 39.9238 35.4537 39.9238C35.1489 39.9238 34.8442 39.7206 34.7426 39.5174V39.4159C34.5394 39.1111 34.5394 38.7047 34.7426 38.4C34.8442 38.2984 34.8442 38.1968 34.9457 38.0952L39.2124 33.8286C39.4156 33.6254 39.6188 33.5238 39.9235 33.5238H46.933C46.933 33.5238 46.933 33.5238 47.0346 33.5238C47.0346 33.5238 47.0346 33.5238 47.1362 33.5238H47.3394C47.441 33.5238 47.441 33.5238 47.5426 33.6254H47.6442C47.7457 33.6254 47.7457 33.727 47.8473 33.727H47.9489L48.1521 33.9301C48.4568 34.2349 48.66 34.7428 48.66 35.1492C48.66 35.2508 48.66 35.3524 48.66 35.454C48.66 35.6571 48.5584 35.7587 48.4568 35.9619C48.4568 36.3682 48.3553 36.4698 48.1521 36.673ZM46.3235 47.746V55.3651C46.3235 55.6698 46.2219 55.9746 46.0188 56.1778C45.8156 56.3809 45.5108 56.4825 45.2061 56.3809C44.6981 56.2794 44.3934 55.873 44.3934 55.2635V48.3555C44.3934 48.254 44.2918 48.0508 44.2918 47.9492L40.6346 44.5968L38.6029 42.5651C38.5013 42.4635 38.5013 42.4635 38.5013 42.3619C38.3997 42.1587 38.2981 41.9555 38.3997 41.7524C38.3997 41.5492 38.5013 41.2444 38.7045 41.1428L39.4156 40.4317L45.9172 46.9333C46.2219 47.2381 46.3235 47.5428 46.3235 47.746ZM26.9203 48.7619C26.6156 48.7619 26.3108 48.6603 26.1076 48.3555C25.9045 48.1524 25.8029 47.8476 25.9045 47.5428C26.0061 47.0349 26.4124 46.7301 27.0219 46.7301H33.9299C34.0315 46.7301 34.2346 46.6286 34.3362 46.6286L37.8918 43.073C37.9934 43.1746 37.9934 43.1746 38.0949 43.2762L39.314 44.4952L35.3521 48.4571C35.0473 48.6603 34.8441 48.7619 34.5394 48.7619H26.9203Z" fill="#181F4E"/>
<path d="M49.168 32.1016C50.6918 32.1016 52.0124 30.8825 52.0124 29.2571C52.0124 27.6317 50.7934 26.4127 49.168 26.4127C47.5426 26.4127 46.3235 27.6317 46.3235 29.2571C46.3235 30.8825 47.6442 32.1016 49.168 32.1016ZM49.168 27.5301C50.1838 27.5301 50.9965 28.3428 50.9965 29.3587C50.9965 30.3746 50.1838 31.1873 49.168 31.1873C48.1521 31.1873 47.3394 30.3746 47.3394 29.3587C47.3394 28.3428 48.2537 27.5301 49.168 27.5301Z" fill="#181F4E"/>
<path d="M55.1616 56.3809C54.8569 56.3809 54.6537 56.5841 54.6537 56.8889C54.6537 57.4984 54.2473 57.9048 53.6378 57.9048H36.8759C36.5711 57.9048 36.368 58.1079 36.368 58.4127C36.368 58.7175 36.5711 58.9206 36.8759 58.9206H53.6378C54.7553 58.9206 55.6695 58.0063 55.6695 56.8889C55.6695 56.6857 55.4664 56.3809 55.1616 56.3809Z" fill="#181F4E"/>
<path d="M32.5076 55.4667C32.1013 55.873 31.4918 55.873 31.0854 55.4667L19.1997 43.6825C18.9965 43.4794 18.6918 43.4794 18.4886 43.6825C18.2854 43.8857 18.2854 44.1905 18.4886 44.3936L30.3743 56.2794C30.7807 56.6857 31.2886 56.8889 31.7965 56.8889C32.3045 56.8889 32.8124 56.6857 33.2188 56.2794C33.4219 56.0762 33.4219 55.7714 33.2188 55.5682C33.0156 55.3651 32.7108 55.2635 32.5076 55.4667Z" fill="#181F4E"/>
<path d="M33.6251 38.4H20.3172C20.0124 38.4 19.8092 38.6032 19.8092 38.9079C19.8092 39.2127 20.0124 39.4159 20.3172 39.4159H33.5235C33.5235 39.1111 33.5235 38.8063 33.6251 38.4Z" fill="#181F4E"/>
<path d="M34.8442 12.4952C35.1489 12.5968 35.5553 12.6984 35.9616 12.6984C36.368 12.6984 36.6727 12.5968 36.9775 12.4952C37.6886 12.1905 38.1965 11.6825 38.5013 10.9714C38.8061 10.2603 38.8061 9.54919 38.5013 8.83808C38.1965 8.12697 37.6886 7.61903 36.9775 7.31427C36.2664 7.1111 35.5553 7.1111 34.8442 7.31427C34.133 7.61903 33.6251 8.12697 33.3203 8.83808C33.0156 9.54919 33.0156 10.2603 33.3203 10.9714C33.6251 11.6825 34.133 12.1905 34.8442 12.4952ZM34.2346 9.24443C34.4378 8.83808 34.7426 8.43173 35.1489 8.33015C35.4537 8.22856 35.6569 8.12697 35.9616 8.12697C36.1648 8.12697 36.4695 8.12697 36.6727 8.22856C37.0791 8.43173 37.4854 8.7365 37.587 9.14284C37.7902 9.54919 37.7902 10.0571 37.587 10.4635C37.3838 10.8698 37.0791 11.2762 36.6727 11.3778C36.2664 11.5809 35.7584 11.5809 35.3521 11.3778C34.9457 11.1746 34.5394 10.8698 34.4378 10.4635C34.133 10.1587 34.133 9.75237 34.2346 9.24443Z" fill="#181F4E"/>
<path d="M37.4854 18.0825C37.3838 17.7778 37.0791 17.6762 36.7743 17.7778C36.4695 17.8794 36.368 18.1841 36.4696 18.4889C36.6727 18.9968 36.4696 19.6063 35.9616 19.8095L3.55526 33.219C3.2505 33.3206 3.14891 33.6254 3.2505 33.9301C3.35208 34.1333 3.55526 34.2349 3.75843 34.2349C3.86002 34.2349 3.86002 34.2349 3.96161 34.2349L36.368 20.8254C37.3838 20.3174 37.8918 19.0984 37.4854 18.0825Z" fill="#181F4E"/>
<path d="M10.6664 29.5619C11.1743 29.5619 11.6822 29.3587 12.0886 28.9524L22.5521 18.4889L23.568 18.0825L31.2886 14.8317C31.9997 14.527 32.5076 14.019 32.8124 13.3079C33.1172 12.5968 33.1172 11.8857 32.8124 11.1746C32.6092 10.7682 32.3045 10.3619 31.9997 10.0571C31.7965 9.85396 31.5934 9.75237 31.2886 9.65078L20.114 5.07935C19.6061 4.87618 19.0981 4.87618 18.5902 5.07935C18.0822 5.28253 17.6759 5.68888 17.4727 6.19681C17.2695 6.70475 17.2695 7.21269 17.4727 7.72062C17.6759 8.22856 18.0822 8.63491 18.5902 8.83808L24.9902 11.4794L21.5362 12.9016L20.114 13.5111C19.0981 13.9174 18.5902 15.1365 18.9965 16.1524L19.0981 16.3555L9.24415 26.2095C8.8378 26.6159 8.63462 27.1238 8.63462 27.6317C8.63462 28.1397 8.8378 28.6476 9.24415 29.054C9.54891 29.3587 10.0568 29.5619 10.6664 29.5619ZM26.3108 11.9873L27.0219 12.2921C27.1235 12.2921 27.1235 12.2921 27.2251 12.2921C27.4283 12.2921 27.6315 12.1905 27.733 11.9873C27.733 11.8857 27.733 11.7841 27.733 11.7841C27.733 11.6825 27.733 11.5809 27.6315 11.4794C27.6315 11.3778 27.5299 11.3778 27.4283 11.3778L26.3108 10.9714L18.8949 7.9238C18.6918 7.82221 18.4886 7.61904 18.387 7.41586C18.2854 7.21269 18.2854 6.90792 18.387 6.60316C18.4886 6.39999 18.6918 6.19681 18.8949 6.09523C19.0981 5.99364 19.4029 5.99364 19.7076 6.09523L28.9521 9.95554L30.9838 10.7682C31.187 10.8698 31.3902 10.9714 31.5934 11.1746C31.6949 11.2762 31.7965 11.4794 31.8981 11.5809L31.9997 11.6825C32.2029 12.0889 32.2029 12.5968 31.9997 13.0032C31.7965 13.4095 31.4918 13.8159 31.0854 13.9174L23.7711 16.9651L23.06 15.3397L22.3489 13.6127L26.3108 11.9873ZM9.95526 26.819L20.0124 16.7619C20.114 16.6603 20.2156 16.3555 20.114 16.254L19.9108 15.746C19.7076 15.2381 19.9108 14.6286 20.4188 14.4254L21.333 14.019L22.7553 17.2698L22.1457 17.5746C22.0441 17.5746 22.0441 17.6762 21.9426 17.6762L11.3775 28.2413C10.9711 28.6476 10.3616 28.6476 9.95526 28.2413C9.75209 28.0381 9.6505 27.8349 9.6505 27.5301C9.6505 27.2254 9.75209 27.0222 9.95526 26.819Z" fill="#181F4E"/>
</svg>
