<svg width="64" height="64" viewBox="0 0 64 64" fill="none" xmlns="http://www.w3.org/2000/svg">
<g clip-path="url(#clip0_4580_1677)">
<path d="M14.9333 22.5523C16.254 22.146 17.3714 21.1301 17.981 19.9111L20.927 13.9174C21.5365 12.6984 22.7556 11.7841 24.0762 11.5809C25.4984 11.3777 26.819 11.7841 27.8349 12.7999C29.8667 14.8317 33.3206 14.8317 35.3524 12.7999L39.619 8.63487L45.2064 19.7079V19.8095C45.3079 19.7079 45.5111 19.6063 45.7143 19.5047C45.8159 19.4031 46.0191 19.4031 46.1206 19.4031L40.2286 7.51741C40.127 7.41582 40.0254 7.31423 39.8222 7.21265C39.6191 7.21265 39.5175 7.21265 39.4159 7.31423L34.7429 11.9873C33.0159 13.7142 30.3746 13.7142 28.6476 11.9873C27.4286 10.7682 25.7016 10.2603 24.0762 10.4634C22.3492 10.7682 20.927 11.7841 20.2159 13.3079L17.2698 19.3015C16.7619 20.3174 15.8476 21.1301 14.7302 21.4349C13.6127 21.8412 12.4952 21.7396 11.4794 21.2317L0 15.746V16.8634L10.8698 22.2476C12.0889 22.9587 13.5111 23.0603 14.9333 22.5523Z" fill="#181F4E"/>
<path d="M47.8476 24.0761C47.9492 23.9746 47.9492 24.0761 47.8476 24.0761C47.9492 23.9746 47.9492 23.9746 47.8476 24.0761Z" fill="#181F4E"/>
<path d="M28.546 24.9904C28.9524 24.9904 29.4603 24.8888 29.8667 24.6857C31.6952 23.9746 32.5079 21.8412 31.7968 20.0126C31.3905 19.0984 30.781 18.4888 29.8667 18.0825C28.9524 17.6761 28.0381 17.6761 27.1238 18.0825C26.2095 18.4888 25.6 19.0984 25.1937 20.0126C24.7873 20.9269 24.7873 21.8412 25.1937 22.7555C25.8032 24.1777 27.1238 24.9904 28.546 24.9904ZM26.1079 20.419C26.4127 19.8095 26.819 19.3015 27.5302 18.9968C27.8349 18.8952 28.1397 18.7936 28.546 18.7936C28.8508 18.7936 29.1556 18.8952 29.5619 18.9968C30.1714 19.3015 30.6794 19.7079 30.9841 20.419C31.4921 21.7396 30.8825 23.1619 29.5619 23.7714C28.2413 24.2793 26.819 23.6698 26.2095 22.3492C25.9048 21.7396 25.9048 21.0285 26.1079 20.419Z" fill="#181F4E"/>
<path d="M45.2064 19.7079L15.6444 31.8984C14.3238 32.4063 13.7143 33.9301 14.2222 35.2507C14.6286 36.2666 15.5429 36.7746 16.5587 36.7746C16.8635 36.7746 17.1683 36.673 17.5746 36.5714L28.4444 32.1015V42.1587L15.8476 54.7555C14.8317 55.7714 14.8317 57.3968 15.8476 58.3111C16.3556 58.819 16.9651 59.0222 17.6762 59.0222C18.2857 59.0222 18.9968 58.819 19.5048 58.3111L33.0159 44.6984H52.3175C53.7397 44.6984 54.8571 43.5809 54.8571 42.1587C54.8571 40.7365 53.7397 39.619 52.3175 39.619H35.5556V29.1555L47.6444 24.1777C47.746 24.1777 47.8476 24.0761 47.9492 24.0761C47.9492 24.0761 47.9492 24.0761 48.0508 24.0761C48.0508 24.0761 48.1524 24.0761 48.1524 23.9746C48.254 23.873 48.3556 23.7714 48.5587 23.6698L48.6603 23.5682C48.7619 23.4666 48.8635 23.365 48.8635 23.2634V23.1619C48.9651 23.0603 48.9651 22.9587 49.0667 22.8571C49.0667 22.8571 49.0667 22.8571 49.0667 22.7555C49.1683 22.6539 49.1683 22.4507 49.1683 22.3492V22.2476C49.1683 22.146 49.1683 22.0444 49.1683 21.8412C49.1683 21.7396 49.1683 21.638 49.1683 21.5365C49.1683 21.4349 49.1683 21.4349 49.1683 21.3333C49.1683 21.1301 49.0667 21.0285 49.0667 20.8253C48.9651 20.6222 48.9651 20.5206 48.8635 20.419C48.5587 20.0126 48.1524 19.7079 47.746 19.5047C47.2381 19.3015 46.7302 19.3015 46.2222 19.4031C46.0191 19.4031 45.9175 19.5047 45.8159 19.5047C45.5111 19.6063 45.3079 19.6063 45.2064 19.7079ZM17.1683 35.6571C16.3556 35.9619 15.5429 35.6571 15.1365 34.8444C14.8317 34.0317 15.1365 33.219 15.9492 32.8126L28.6476 27.5301L29.054 27.3269L29.3587 27.2253L30.6794 26.7174C30.781 26.7174 30.781 26.6158 30.8825 26.6158C31.1873 26.5142 31.4921 26.4126 31.8984 26.4126C33.1175 26.4126 34.1333 27.3269 34.4381 28.4444C34.4381 28.6476 34.4381 28.7492 34.4381 28.9523V39.619H29.3587V31.6952L30.5778 31.1873C30.8825 31.0857 30.9841 30.7809 30.8825 30.4761C30.781 30.273 30.6794 30.1714 30.4762 30.1714C30.3746 30.1714 30.3746 30.1714 30.273 30.1714L29.4603 30.5777L28.4444 30.9841L17.1683 35.6571ZM18.6921 57.6C18.0825 58.2095 17.1683 58.2095 16.5587 57.6C15.9492 56.9904 15.9492 56.0761 16.5587 55.4666L28.7492 43.2761C29.1556 44.0888 30.0698 44.6984 30.9841 44.6984H31.5937L18.6921 57.6ZM52.3175 40.6349C53.1302 40.6349 53.8413 41.346 53.8413 42.1587C53.8413 42.9714 53.1302 43.6825 52.3175 43.6825H30.9841C30.273 43.6825 29.6635 43.1746 29.4603 42.4634C29.4603 42.3619 29.4603 42.2603 29.4603 42.1587V40.6349H52.3175ZM35.454 28.1396C35.1492 27.0222 34.3365 26.1079 33.3206 25.7015L44.1905 21.2317C44.0889 21.7396 44.0889 22.3492 44.2921 22.8571C44.4952 23.365 44.9016 23.7714 45.3079 24.0761L35.454 28.1396ZM46.6286 20.3174C46.8318 20.3174 47.0349 20.3174 47.2381 20.419C47.6444 20.6222 47.9492 20.8253 48.0508 21.2317C48.254 21.638 48.254 22.0444 48.0508 22.3492C47.9492 22.4507 47.9492 22.5523 47.8476 22.6539C47.8476 22.7555 47.746 22.7555 47.746 22.8571C47.6444 22.9587 47.4413 23.0603 47.2381 23.1619C47.1365 23.1619 47.0349 23.2634 47.0349 23.2634C46.7302 23.365 46.4254 23.2634 46.1206 23.1619C45.7143 22.9587 45.4095 22.7555 45.3079 22.3492C45.0032 21.7396 45.2064 21.0285 45.7143 20.6222C45.8159 20.5206 45.9175 20.419 46.1206 20.3174C46.2222 20.3174 46.4254 20.3174 46.6286 20.3174Z" fill="#181F4E"/>
</g>
<defs>
<clipPath id="clip0_4580_1677">
<rect width="64" height="64" fill="white"/>
</clipPath>
</defs>
</svg>
