<svg width="64" height="64" viewBox="0 0 64 64" fill="none" xmlns="http://www.w3.org/2000/svg">
<path d="M41.346 23.2635C42.2602 23.2635 43.1745 22.9587 43.8856 22.2476C45.3079 20.8254 45.3079 18.5905 43.8856 17.2698C42.4634 15.8476 40.2285 15.8476 38.9079 17.2698C37.4856 18.6921 37.4856 20.927 38.9079 22.2476C39.5174 22.9587 40.4317 23.2635 41.346 23.2635ZM39.619 17.8794C40.1269 17.3714 40.7364 17.1682 41.4475 17.1682C42.1587 17.1682 42.7682 17.3714 43.2761 17.8794C44.292 18.8952 44.292 20.5206 43.2761 21.4349C42.2602 22.4508 40.6348 22.4508 39.7206 21.4349C38.8063 20.419 38.6031 18.8952 39.619 17.8794Z" fill="#181F4E"/>
<path d="M20.9269 47.746H12.7999C12.4952 47.746 12.292 47.9492 12.292 48.254C12.292 48.5587 12.4952 48.7619 12.7999 48.7619H20.9269C21.2317 48.7619 21.4348 48.5587 21.4348 48.254C21.4348 47.9492 21.2317 47.746 20.9269 47.746Z" fill="#181F4E"/>
<path d="M46.1206 23.0603L42.1587 27.0222L26.7174 11.5809C25.8031 10.6667 24.0761 10.6667 23.1618 11.5809C22.6539 12.0889 22.4507 12.6984 22.4507 13.4095C22.4507 14.1206 22.7555 14.7302 23.1618 15.2381L29.9682 22.0444H24.4825C23.5682 22.0444 22.6539 22.4508 22.0444 23.0603C22.0444 23.0603 22.0444 23.0603 21.9428 23.0603L20.5206 24.3809C19.5047 25.3968 19.5047 26.9206 20.5206 27.9365V35.9619L14.1206 42.3619C13.2063 43.2762 13.1047 44.6984 13.8158 45.7143C14.2222 46.3238 14.9333 46.7302 15.6444 46.7302C15.746 46.7302 15.746 46.7302 15.8475 46.7302C16.5587 46.7302 17.1682 46.4254 17.6761 46.019L24.8888 38.8063C25.3968 38.2984 25.5999 37.6889 25.5999 36.9778V32.9143L27.7333 35.0476V44.0889C27.7333 45.4095 28.6475 46.527 29.8666 46.7302C29.9682 46.7302 30.1714 46.7302 30.2729 46.7302C30.8825 46.7302 31.492 46.527 31.8983 46.1206C32.5079 45.6127 32.8126 44.9016 32.8126 44.1905V34.0317C32.8126 33.3206 32.5079 32.7111 32.1015 32.2032L28.8507 28.9524H35.7587C36.165 28.9524 36.5714 28.8508 36.9777 28.7492L40.5333 32.3048C41.0412 32.8127 41.6507 33.0159 42.3618 33.0159C43.0729 33.0159 43.6825 32.7111 44.1904 32.3048L49.9809 26.5143C50.9968 25.4984 50.9968 23.873 49.9809 22.9587C48.7618 22.0444 47.1364 22.0444 46.1206 23.0603ZM41.1428 31.6952L36.0634 26.6159C36.0634 26.6159 35.9618 26.6159 35.9618 26.5143C35.7587 26.4127 35.5555 26.4127 35.4539 26.5143C35.4539 26.5143 35.4539 26.5143 35.3523 26.5143C35.2507 26.6159 35.1491 26.819 35.2507 26.9206C35.2507 27.0222 35.3523 27.1238 35.3523 27.2254L35.9618 27.8349C35.8602 27.8349 35.7587 27.8349 35.6571 27.8349H27.7333L23.0602 23.3651C23.4666 23.0603 23.9745 22.9587 24.4825 22.9587H35.6571C36.3682 22.9587 36.9777 23.2635 37.3841 23.6698C37.3841 23.6698 37.4856 23.7714 37.4856 23.873L41.6507 28.0381C41.8539 28.2413 42.1587 28.2413 42.3618 28.0381L46.6285 23.7714C47.238 23.1619 48.2539 23.1619 48.7618 23.7714C49.3714 24.3809 49.3714 25.2952 48.7618 25.9048L42.9714 31.6952C42.6666 32.2032 41.6507 32.2032 41.1428 31.6952ZM31.6952 44.1905C31.6952 44.5968 31.492 45.1048 31.1872 45.3079C30.8825 45.6127 30.3745 45.7143 29.9682 45.6127C29.2571 45.5111 28.6475 44.8 28.6475 43.9873V34.7429C28.6475 34.6413 28.546 34.4381 28.546 34.3365L21.2317 27.0222C21.1301 26.9206 21.0285 26.819 21.0285 26.6159C20.8253 26.2095 20.7237 25.7016 20.9269 25.2952C21.0285 25.1936 21.1301 24.9905 21.2317 24.8889C21.2317 24.8889 21.2317 24.8889 21.2317 24.7873L22.2475 23.7714L31.0856 32.6095C31.3904 32.9143 31.492 33.3206 31.492 33.727V44.1905H31.6952ZM24.5841 37.0794C24.5841 37.4857 24.3809 37.8921 24.1777 38.1968L16.965 45.4095C16.6602 45.7143 16.1523 45.9175 15.746 45.8159C15.3396 45.8159 14.9333 45.5111 14.6285 45.2063C14.2222 44.5968 14.3237 43.7841 14.8317 43.1746L21.3333 36.5714C21.4348 36.4698 21.4348 36.3682 21.4348 36.1651V28.9524L24.4825 32V37.0794H24.5841ZM26.0063 12.2921L35.6571 21.9429H31.3904L23.8729 14.4254C23.5682 14.1206 23.4666 13.7143 23.4666 13.3079C23.4666 12.9016 23.6698 12.4952 23.8729 12.1905C24.1777 11.8857 24.5841 11.7841 24.9904 11.7841C25.3968 11.7841 25.7015 11.9873 26.0063 12.2921Z" fill="#181F4E"/>
<path d="M20.419 51.0984C20.3174 51.0984 20.1142 50.9968 20.0126 50.9968C19.911 50.8952 19.911 50.7936 19.911 50.5905C19.911 50.4889 20.0126 50.2857 20.0126 50.1841C20.1142 50.0825 20.2158 50.0825 20.419 50.0825C20.6222 50.0825 20.7237 50.1841 20.8253 50.1841C20.9269 50.2857 20.9269 50.3873 20.9269 50.5905C20.9269 50.6921 20.8253 50.8952 20.8253 50.9968C20.6222 50.9968 20.5206 51.0984 20.419 51.0984ZM17.9809 51.0984C17.8793 51.0984 17.6761 50.9968 17.5745 50.9968C17.4729 50.8952 17.4729 50.7936 17.4729 50.5905C17.4729 50.4889 17.5745 50.2857 17.5745 50.1841C17.6761 50.0825 17.7777 50.0825 17.9809 50.0825C18.1841 50.0825 18.2856 50.1841 18.3872 50.1841C18.4888 50.2857 18.4888 50.3873 18.4888 50.5905C18.4888 50.6921 18.3872 50.8952 18.3872 50.9968C18.2856 50.9968 18.1841 51.0984 17.9809 51.0984ZM15.6444 51.0984C15.5428 51.0984 15.3396 50.9968 15.238 50.9968C15.0348 50.7937 15.0348 50.4889 15.238 50.2857C15.3396 50.1841 15.4412 50.1841 15.6444 50.1841C15.746 50.1841 15.9491 50.2857 16.0507 50.2857C16.1523 50.3873 16.1523 50.4889 16.1523 50.6921C16.1523 50.7937 16.0507 50.9968 16.0507 51.0984C15.9491 50.9968 15.746 51.0984 15.6444 51.0984ZM13.3079 51.0984C13.2063 51.0984 13.0031 50.9968 12.9015 50.9968C12.7999 50.8952 12.7999 50.7936 12.7999 50.5905C12.7999 50.4889 12.9015 50.2857 12.9015 50.1841C13.0031 50.0825 13.1047 50.0825 13.3079 50.0825C13.511 50.0825 13.6126 50.1841 13.7142 50.1841C13.8158 50.2857 13.8158 50.3873 13.8158 50.5905C13.8158 50.6921 13.7142 50.8952 13.7142 50.9968C13.511 50.9968 13.4095 51.0984 13.3079 51.0984Z" fill="#181F4E"/>
<path d="M20.419 49.5746C20.1142 49.5746 19.911 49.6762 19.7079 49.8794C19.3015 50.2857 19.3015 50.8952 19.7079 51.3016C19.911 51.5048 20.2158 51.6063 20.419 51.6063C20.6222 51.6063 20.9269 51.5048 21.1301 51.3016C21.5364 50.8952 21.5364 50.2857 21.1301 49.8794C20.9269 49.6762 20.6222 49.5746 20.419 49.5746ZM17.9809 49.5746C17.6761 49.5746 17.4729 49.6762 17.2698 49.8794C16.8634 50.2857 16.8634 50.8952 17.2698 51.3016C17.4729 51.5048 17.7777 51.6063 17.9809 51.6063C18.1841 51.6063 18.4888 51.5048 18.692 51.3016C19.0983 50.8952 19.0983 50.2857 18.692 49.8794C18.5904 49.6762 18.2856 49.5746 17.9809 49.5746ZM15.6444 49.5746C15.3396 49.5746 15.1364 49.6762 14.9333 49.8794C14.5269 50.2857 14.5269 50.8952 14.9333 51.3016C15.1364 51.5048 15.4412 51.6063 15.6444 51.6063C15.8475 51.6063 16.1523 51.5048 16.3555 51.3016C16.7618 50.8952 16.7618 50.2857 16.3555 49.8794C16.1523 49.6762 15.9491 49.5746 15.6444 49.5746ZM13.3079 49.5746C13.0031 49.5746 12.7999 49.6762 12.5968 49.8794C12.1904 50.2857 12.1904 50.8952 12.5968 51.3016C12.7999 51.5048 13.1047 51.6063 13.3079 51.6063C13.511 51.6063 13.8158 51.5048 14.019 51.3016C14.4253 50.8952 14.4253 50.2857 14.019 49.8794C13.8158 49.6762 13.511 49.5746 13.3079 49.5746Z" fill="#181F4E"/>
<path d="M34.7428 51.0984C34.6412 51.0984 34.438 50.9968 34.3364 50.9968C34.2348 50.8952 34.2348 50.7936 34.2348 50.5905C34.2348 50.4889 34.3364 50.2857 34.3364 50.1841C34.438 50.0825 34.5396 50.0825 34.7428 50.0825C34.946 50.0825 35.0475 50.1841 35.1491 50.1841C35.2507 50.2857 35.2507 50.3873 35.2507 50.5905C35.2507 50.6921 35.1491 50.8952 35.1491 50.9968C35.0475 50.9968 34.946 51.0984 34.7428 51.0984ZM32.4063 51.0984C32.3047 51.0984 32.1015 50.9968 31.9999 50.9968C31.8983 50.8952 31.8983 50.7936 31.8983 50.5905C31.8983 50.4889 31.9999 50.2857 31.9999 50.1841C32.1015 50.0825 32.2031 50.0825 32.4063 50.0825C32.5079 50.0825 32.711 50.1841 32.8126 50.1841C32.9142 50.2857 32.9142 50.3873 32.9142 50.5905C32.9142 50.6921 32.8126 50.8952 32.8126 50.9968C32.6095 50.9968 32.5079 51.0984 32.4063 51.0984ZM30.0698 51.0984C29.9682 51.0984 29.765 50.9968 29.6634 50.9968C29.5618 50.8952 29.5618 50.7936 29.5618 50.5905C29.5618 50.4889 29.6634 50.2857 29.6634 50.1841C29.765 50.0825 29.8666 50.0825 30.0698 50.0825C30.2729 50.0825 30.3745 50.1841 30.4761 50.1841C30.5777 50.2857 30.5777 50.3873 30.5777 50.5905C30.5777 50.6921 30.4761 50.8952 30.4761 50.9968C30.2729 50.9968 30.1714 51.0984 30.0698 51.0984ZM27.6317 51.0984C27.5301 51.0984 27.3269 50.9968 27.2253 50.9968C27.1237 50.8952 27.1237 50.7936 27.1237 50.5905C27.1237 50.4889 27.2253 50.2857 27.2253 50.1841C27.3269 50.0825 27.4285 50.0825 27.6317 50.0825C27.8348 50.0825 27.9364 50.1841 28.038 50.1841C28.1396 50.2857 28.1396 50.3873 28.1396 50.5905C28.1396 50.6921 28.038 50.8952 28.038 50.9968C27.9364 50.9968 27.8348 51.0984 27.6317 51.0984Z" fill="#181F4E"/>
<path d="M34.7428 49.5746C34.438 49.5746 34.2348 49.6762 34.0317 49.8794C33.6253 50.2857 33.6253 50.8952 34.0317 51.3016C34.2348 51.5048 34.5396 51.6063 34.7428 51.6063C34.946 51.6063 35.2507 51.5048 35.4539 51.3016C35.8602 50.8952 35.8602 50.2857 35.4539 49.8794C35.2507 49.6762 35.0475 49.5746 34.7428 49.5746ZM32.4063 49.5746C32.1015 49.5746 31.8983 49.6762 31.6952 49.8794C31.2888 50.2857 31.2888 50.8952 31.6952 51.3016C31.8983 51.5048 32.2031 51.6063 32.4063 51.6063C32.711 51.6063 32.9142 51.5048 33.1174 51.3016C33.5237 50.8952 33.5237 50.2857 33.1174 49.8794C32.9142 49.6762 32.6095 49.5746 32.4063 49.5746ZM30.0698 49.5746C29.765 49.5746 29.5618 49.6762 29.3587 49.8794C28.9523 50.2857 28.9523 50.8952 29.3587 51.3016C29.5618 51.5048 29.8666 51.6063 30.0698 51.6063C30.2729 51.6063 30.5777 51.5048 30.7809 51.3016C31.1872 50.8952 31.1872 50.2857 30.7809 49.8794C30.5777 49.6762 30.2729 49.5746 30.0698 49.5746ZM27.6317 49.5746C27.3269 49.5746 27.1237 49.6762 26.9206 49.8794C26.5142 50.2857 26.5142 50.8952 26.9206 51.3016C27.1237 51.5048 27.4285 51.6063 27.6317 51.6063C27.8349 51.6063 28.1396 51.5048 28.3428 51.3016C28.7491 50.8952 28.7491 50.2857 28.3428 49.8794C28.1396 49.6762 27.9364 49.5746 27.6317 49.5746Z" fill="#181F4E"/>
<path d="M35.2507 47.746H27.1237C26.819 47.746 26.6158 47.9492 26.6158 48.254C26.6158 48.5587 26.819 48.7619 27.1237 48.7619H35.2507C35.5555 48.7619 35.7587 48.5587 35.7587 48.254C35.7587 47.9492 35.5555 47.746 35.2507 47.746Z" fill="#181F4E"/>
</svg>
