<svg width="64" height="64" viewBox="0 0 64 64" fill="none" xmlns="http://www.w3.org/2000/svg">
<g clip-path="url(#clip0_4580_1447)">
<path d="M37.8921 29.8667C38.2984 28.8508 39.3143 28.2413 40.3302 28.3429H56.4825C57.2952 28.3429 58.0064 29.054 58.0064 29.8667C58.0064 30.6794 57.2952 31.3905 56.4825 31.3905H41.2444C41.0413 31.4921 40.8381 31.5937 40.8381 31.8984C40.8381 32.2032 41.0413 32.4064 41.346 32.4064H42.4635L39.4159 39.7206H40.5333L43.581 32.4064H53.3333H54.7556H56.5841C58.0064 32.4064 59.1238 31.2889 59.1238 29.8667C59.1238 28.4445 58.0064 27.327 56.5841 27.327H40.3302C38.9079 27.327 37.5873 28.1397 37.0794 29.5619L32.9143 39.7206H34.0317L37.8921 29.8667Z" fill="#181F4E"/>
<path d="M48.6603 35.9619L49.1683 36.4699L49.8794 35.7587L49.3714 35.2508C48.4571 34.3365 46.7302 34.3365 45.8159 35.2508L41.346 39.6191H42.7683L46.4254 35.9619C47.1365 35.3524 48.1524 35.3524 48.6603 35.9619Z" fill="#181F4E"/>
<path d="M52.419 39.6191H53.8413L50.5905 36.4699L49.8794 37.181L52.419 39.6191Z" fill="#181F4E"/>
<path d="M24.9905 35.2508C24.0762 34.3365 22.3492 34.3365 21.4349 35.2508L16.9651 39.6191H18.3873L22.0444 35.9619C22.654 35.3524 23.6698 35.3524 24.1778 35.9619L24.6857 36.4699L25.3968 35.7587L24.9905 35.2508Z" fill="#181F4E"/>
<path d="M28.0381 39.6191H29.4603L26.2095 36.4699L25.4984 37.181L28.0381 39.6191Z" fill="#181F4E"/>
<path d="M18.3873 39.6191H16.9651L9.54921 39.6191H8.43175H0V40.6349H20.6222L21.6381 39.6191L18.3873 39.6191Z" fill="#181F4E"/>
<path d="M47.4413 39.6191L46.4254 40.6349H64V39.6191H53.8413H52.419H47.4413Z" fill="#181F4E"/>
<path d="M23.0603 39.6191L22.0444 40.6349H45.0032L46.019 39.6191L42.7683 39.6191H41.346L29.4603 39.6191H28.0381H23.0603Z" fill="#181F4E"/>
<path d="M64 46.0191L63.2889 46.6286C61.7651 48.0508 59.0222 48.0508 57.4984 46.6286L56.6857 45.8159C56.4825 45.6127 56.1778 45.6127 55.9746 45.8159L55.1619 46.6286C53.5365 48.1524 50.9968 48.1524 49.3714 46.6286L48.5587 45.8159C48.3556 45.6127 48.0508 45.6127 47.8476 45.8159L47.0349 46.6286C45.5111 48.0508 42.7683 48.0508 41.2444 46.6286L40.4317 45.8159C40.2286 45.6127 39.9238 45.6127 39.7206 45.8159L38.9079 46.6286C37.2825 48.1524 34.7429 48.1524 33.1175 46.6286L32.3048 45.8159C32.1016 45.6127 31.7968 45.6127 31.5937 45.8159L30.781 46.6286C29.1556 48.1524 26.6159 48.1524 24.9905 46.6286L24.1778 45.8159C23.9746 45.6127 23.6698 45.6127 23.4667 45.8159L22.654 46.6286C21.0286 48.1524 18.4889 48.1524 16.8635 46.6286L16.0508 45.8159C15.8476 45.6127 15.5429 45.6127 15.3397 45.8159L14.527 46.6286C12.9016 48.1524 10.3619 48.1524 8.73651 46.6286L7.92381 45.8159C7.72064 45.6127 7.41587 45.6127 7.2127 45.8159L6.4 46.6286C4.7746 48.1524 2.23492 48.1524 0.609524 46.6286L0 46.0191V47.4413C1.93016 49.2699 5.18095 49.2699 7.11111 47.4413L7.61905 47.0349L8.12698 47.4413C10.0571 49.2699 13.3079 49.2699 15.2381 47.4413L15.746 47.0349L16.254 47.4413C18.1841 49.2699 21.4349 49.2699 23.3651 47.4413L23.873 47.0349L24.381 47.4413C26.3111 49.2699 29.5619 49.2699 31.4921 47.4413L32 47.0349L32.5079 47.4413C34.4381 49.2699 37.6889 49.2699 39.619 47.4413L40.127 47.0349L40.6349 47.4413C41.5492 48.3556 42.8698 48.8635 44.1905 48.8635C45.5111 48.8635 46.8317 48.3556 47.746 47.4413L48.254 47.0349L48.7619 47.4413C50.6921 49.2699 53.9429 49.2699 55.873 47.4413L56.381 47.0349L56.8889 47.4413C57.8032 48.3556 59.1238 48.8635 60.4444 48.8635C61.7651 48.8635 63.0857 48.3556 64 47.4413" fill="#181F4E"/>
<path d="M49.8794 35.7587L49.1683 36.4699L46.019 39.6191L45.0032 40.6349L39.8222 45.8159C40.0254 45.6127 40.3302 45.6127 40.5333 45.8159L40.9397 46.2222L54.7556 32.4064H53.3333L49.8794 35.7587Z" fill="#181F4E"/>
<path d="M16.0508 45.9175L16.4571 46.3238L30.273 32.5079H28.8508L24.7873 36.5714L21.6381 39.6191L20.6222 40.6349L15.4413 45.8159C15.6444 45.7143 15.9492 45.7143 16.0508 45.9175Z" fill="#181F4E"/>
<path d="M13.5111 29.8667C13.8159 29.2572 14.2222 28.7492 14.9333 28.546C15.3397 28.4445 15.6444 28.3429 16.0508 28.3429H32.2032C33.0159 28.3429 33.727 29.054 33.727 29.8667C33.727 30.6794 33.0159 31.3905 32.2032 31.3905H16.8635C16.6603 31.4921 16.4571 31.5937 16.4571 31.8984C16.4571 32.2032 16.6603 32.4064 16.9651 32.4064H18.0825L15.0349 39.7206H16.1524L19.2 32.4064H32.2032C33.6254 32.4064 34.7429 31.2889 34.7429 29.8667C34.7429 28.4445 33.6254 27.327 32.2032 27.327H15.9492C15.4413 27.327 15.0349 27.4286 14.6286 27.6318C13.7143 28.0381 13.1048 28.6476 12.6984 29.5619L8.43175 39.6191H9.54921L13.5111 29.8667Z" fill="#181F4E"/>
<path d="M43.3778 26.3111C45.3079 26.3111 46.9333 24.6857 46.9333 22.7556C46.9333 20.8254 45.3079 19.2 43.3778 19.2C41.4476 19.2 39.8222 20.8254 39.8222 22.7556C39.8222 24.6857 41.346 26.3111 43.3778 26.3111ZM43.3778 20.2159C44.8 20.2159 45.9175 21.3333 45.9175 22.7556C45.9175 24.1778 44.8 25.2952 43.3778 25.2952C41.9556 25.2952 40.8381 24.1778 40.8381 22.7556C40.8381 21.3333 41.9556 20.2159 43.3778 20.2159Z" fill="#181F4E"/>
<path d="M18.9968 26.3111C20.927 26.3111 22.5524 24.6857 22.5524 22.7556C22.5524 20.8254 20.927 19.2 18.9968 19.2C17.0667 19.2 15.4413 20.8254 15.4413 22.7556C15.4413 24.6857 16.9651 26.3111 18.9968 26.3111ZM18.9968 20.2159C20.419 20.2159 21.5365 21.3333 21.5365 22.7556C21.5365 24.1778 20.419 25.2952 18.9968 25.2952C17.5746 25.2952 16.4571 24.1778 16.4571 22.7556C16.4571 21.3333 17.5746 20.2159 18.9968 20.2159Z" fill="#181F4E"/>
</g>
<defs>
<clipPath id="clip0_4580_1447">
<rect width="64" height="64" fill="white"/>
</clipPath>
</defs>
</svg>
