<svg width="64" height="64" viewBox="0 0 64 64" fill="none" xmlns="http://www.w3.org/2000/svg">
<path d="M44.2922 30.273C43.8858 30.273 43.4795 30.0698 43.1747 29.8667L39.9239 26.6159L40.3303 26.2095C41.0414 25.4984 41.3461 24.6857 41.3461 23.6698L44.6985 27.0222C44.6985 27.0222 44.8001 27.1238 44.9017 27.1238C45.0033 26.7175 45.1049 26.4127 45.2064 26.1079L34.5398 15.4413C33.5239 14.4254 31.8985 14.4254 30.9842 15.4413L25.1938 21.2318C24.1779 22.2476 24.1779 23.873 25.1938 24.7873C25.7017 25.2952 26.3112 25.4984 27.0223 25.4984C27.6318 25.4984 28.343 25.2952 28.8509 24.7873L32.8128 20.8254L34.235 22.2476L26.0065 30.4762C25.6001 30.8825 25.3969 31.3905 25.2953 32L12.2922 45.0032C11.7842 45.5111 11.5811 46.1206 11.5811 46.8318C11.5811 47.5429 11.8858 48.1524 12.2922 48.6603C12.8001 49.1683 13.4096 49.3714 14.1207 49.3714C14.7303 49.3714 15.4414 49.1683 15.9493 48.6603L28.1398 36.3683L32.1017 40.3302L26.7176 45.7143C26.2096 46.2222 26.0065 46.8318 26.0065 47.5429C26.0065 48.254 26.3112 48.8635 26.7176 49.3714C27.2255 49.8794 27.835 50.0825 28.5461 50.0825C29.2572 50.0825 29.8668 49.8794 30.3747 49.3714L37.5874 42.1587C37.9938 41.7524 38.2985 41.1429 38.2985 40.5333V40.4318C38.2985 40.4318 38.2985 40.4318 38.2985 40.3302C38.2985 40.2286 38.2985 40.2286 38.2985 40.127V40.0254C38.1969 39.4159 37.9938 38.9079 37.5874 38.5016L32.9144 33.8286L39.416 27.327L42.6668 30.5778C43.1747 31.0857 43.7842 31.2889 44.4953 31.2889H45.5112C45.4096 30.9841 45.2064 30.5778 45.1049 30.273H44.2922ZM37.1811 40.2286C37.1811 40.7365 36.9779 41.0413 36.7747 41.346L29.562 48.5587C28.9525 49.1683 28.0382 49.1683 27.4287 48.5587C27.1239 48.254 27.0223 47.8476 27.0223 47.4413C27.0223 47.0349 27.2255 46.6286 27.4287 46.3238L33.2191 40.6349C33.3207 40.5333 33.3207 40.4318 33.3207 40.2286C33.3207 40.127 33.2191 39.9238 33.2191 39.8222L28.8509 35.5556L28.4445 35.2508L26.616 33.4222C26.3112 33.1175 26.2096 32.8127 26.2096 32.5079C26.2096 32.2032 26.3112 31.7968 26.5144 31.4921C26.616 31.3905 26.616 31.2889 26.7176 31.2889L27.835 30.1714L36.5715 38.9079C36.8763 39.2127 36.9779 39.5175 36.9779 39.9238C37.1811 40.127 37.1811 40.2286 37.1811 40.2286ZM13.0033 47.8476C12.6985 47.5429 12.5969 47.1365 12.5969 46.7302C12.5969 46.3238 12.8001 45.9175 13.0033 45.6127L25.3969 33.3206C25.4985 33.6254 25.7017 33.9302 25.9049 34.1333L27.4287 35.5556L15.2382 47.8476C14.6287 48.4571 13.6128 48.4571 13.0033 47.8476ZM32.0001 33.0159L28.4445 29.4603L34.9461 22.9587L36.0636 24.0762C36.1652 24.1778 36.2668 24.1778 36.3684 24.1778C36.4699 24.1778 36.6731 24.1778 36.7747 24.0762C36.9779 23.873 36.9779 23.6698 36.8763 23.4667C36.8763 23.4667 36.8763 23.3651 36.7747 23.3651L33.016 19.6064C32.8128 19.4032 32.508 19.4032 32.3049 19.6064L28.0382 23.873C27.4287 24.4825 26.5144 24.4825 25.9049 23.873C25.2953 23.2635 25.2953 22.3492 25.9049 21.7397L31.6953 15.9492C32.3049 15.3397 33.2191 15.3397 33.8287 15.9492L39.6191 21.7397C40.1271 22.2476 40.3303 22.8571 40.3303 23.5683C40.3303 24.2794 40.0255 24.8889 39.6191 25.3968L32.0001 33.0159Z" fill="#181F4E"/>
<path d="M43.5811 21.5365C44.4953 21.5365 45.4096 21.1302 46.1207 20.5206C47.543 19.0984 47.543 16.8635 46.1207 15.5429C44.6985 14.1206 42.4636 14.1206 41.143 15.5429C40.4318 16.254 40.1271 17.0667 40.1271 18.0825C40.1271 18.9968 40.5334 19.9111 41.143 20.6222C41.7525 21.3333 42.5652 21.5365 43.5811 21.5365ZM41.7525 16.1524C42.2604 15.6444 42.8699 15.4413 43.5811 15.4413C44.2922 15.4413 44.9017 15.6444 45.4096 16.1524C46.4255 17.1683 46.4255 18.7937 45.4096 19.7079C44.4953 20.6222 42.7684 20.6222 41.8541 19.7079C41.3461 19.2 41.143 18.5905 41.143 17.8794C41.0414 17.2698 41.2445 16.6603 41.7525 16.1524Z" fill="#181F4E"/>
<path d="M49.6763 31.1873C49.4731 31.1873 49.3715 31.0857 49.1684 30.9841C49.1684 31.0857 49.0668 31.1873 49.0668 31.2889C48.8636 31.6952 48.5588 32.1016 48.3557 32.4064C48.0509 32.8127 47.4414 32.8127 47.1366 32.4064C46.9334 32.1016 46.6287 31.6952 46.4255 31.2889C46.2223 30.9841 46.1207 30.6794 46.0191 30.273C45.816 29.7651 45.7144 29.2572 45.7144 28.6476C45.7144 28.1397 45.816 27.6318 45.9176 27.2254C46.0191 26.8191 46.1207 26.5143 46.3239 26.2095C46.5271 25.7016 46.8318 25.2952 47.1366 24.8889C47.2382 24.6857 47.543 24.5841 47.7461 24.5841C47.9493 24.5841 48.1525 24.6857 48.3557 24.8889C48.6604 25.2952 48.8636 25.7016 49.1684 26.2095C49.1684 26.3111 49.2699 26.4127 49.2699 26.5143C49.3715 26.4127 49.5747 26.4127 49.7779 26.3111C49.9811 26.3111 50.0826 26.2095 50.2858 26.2095C49.9811 25.4984 49.5747 24.7873 49.1684 24.2794C48.4572 23.3651 47.035 23.3651 46.3239 24.2794C45.9176 24.7873 45.5112 25.3968 45.2064 26.1079C45.1049 26.4127 44.9017 26.8191 44.9017 27.1238C44.8001 27.6318 44.6985 28.1397 44.6985 28.6476C44.6985 29.2572 44.8001 29.7651 44.9017 30.273C45.0033 30.5778 45.1049 30.9841 45.308 31.2889C45.6128 32 46.0191 32.6095 46.3239 33.0159C46.6287 33.4222 47.1366 33.727 47.7461 33.727C48.3557 33.727 48.8636 33.4222 49.1684 33.0159C49.4731 32.5079 49.8795 31.8984 50.1842 31.2889C49.9811 31.2889 49.8795 31.1873 49.6763 31.1873Z" fill="#181F4E"/>
<path d="M50.3874 26.2095L50.2858 26.2095C50.2858 26.2095 50.2858 26.2095 50.3874 26.2095C50.0826 26.2095 49.9811 26.2095 49.7779 26.3111C49.5747 26.3111 49.4731 26.4127 49.2699 26.5143C48.8636 26.7175 48.5588 26.9206 48.3557 27.2254C48.0509 27.6318 47.8477 28.1397 47.8477 28.7492C47.8477 29.3587 48.0509 29.8667 48.3557 30.273C48.5588 30.5778 48.8636 30.781 49.1684 30.9841C49.2699 31.0857 49.4731 31.0857 49.6763 31.1873C49.8795 31.1873 49.9811 31.2889 50.1842 31.2889L50.3874 31.2889C51.8096 31.2889 52.9271 30.1714 52.9271 28.7492C52.9271 27.327 51.708 26.2095 50.3874 26.2095ZM50.5906 30.273C50.489 30.273 50.489 30.273 50.3874 30.273C50.2858 30.273 50.1842 30.273 50.0826 30.273C49.8795 30.273 49.7779 30.1714 49.5747 30.0698C49.1684 29.7651 48.8636 29.3587 48.8636 28.7492C48.8636 28.1397 49.1684 27.7333 49.6763 27.4286C49.7779 27.327 49.9811 27.327 50.1842 27.2254C50.2858 27.2254 50.3874 27.2254 50.489 27.2254C50.5906 27.2254 50.6922 27.2254 50.6922 27.2254C51.4033 27.327 52.0128 27.9365 52.0128 28.7492C51.9112 29.5619 51.3017 30.1714 50.5906 30.273Z" fill="#181F4E"/>
</svg>
