<svg width="64" height="64" viewBox="0 0 64 64" fill="none" xmlns="http://www.w3.org/2000/svg">
<path d="M56.6857 0H55.5683L40.9397 26.2095C41.2444 26.3111 41.5492 26.5143 41.854 26.7175L56.6857 0Z" fill="#181F4E"/>
<path d="M42.5651 29.1556H64V28.1397H42.5651C42.5651 28.3429 42.6667 28.4444 42.6667 28.6476C42.6667 28.8508 42.6667 28.9524 42.5651 29.1556Z" fill="#181F4E"/>
<path d="M63.2889 46.6286C61.7651 48.0508 59.0222 48.0508 57.4984 46.6286L56.6857 45.8159C56.4825 45.6127 56.1778 45.6127 55.9746 45.8159L55.1619 46.6286C53.5365 48.1524 50.9968 48.1524 49.3714 46.6286L48.5587 45.8159C48.3556 45.6127 48.0508 45.6127 47.8476 45.8159L47.0349 46.6286C45.5111 48.0508 42.7683 48.0508 41.2444 46.6286L40.4317 45.8159C40.2286 45.6127 39.9238 45.6127 39.7206 45.8159L38.9079 46.6286C37.2825 48.1524 34.7429 48.1524 33.1175 46.6286L32.3048 45.8159C32.1016 45.6127 31.7968 45.6127 31.5937 45.8159L30.781 46.6286C29.1556 48.1524 26.6159 48.1524 24.9905 46.6286L24.1778 45.8159C23.9746 45.6127 23.6698 45.6127 23.4667 45.8159L22.654 46.6286C21.0286 48.1524 18.4889 48.1524 16.8635 46.6286L16.0508 45.8159C15.8476 45.6127 15.5429 45.6127 15.3397 45.8159L14.527 46.6286C12.9016 48.1524 10.3619 48.1524 8.73651 46.6286L7.92381 45.8159C7.72064 45.6127 7.41587 45.6127 7.2127 45.8159L6.4 46.6286C4.7746 48.1524 2.23492 48.1524 0.609524 46.6286L0 46.019V47.4413C1.93016 49.2698 5.18095 49.2698 7.11111 47.4413L7.61905 47.0349L8.12698 47.4413C10.0571 49.2698 13.3079 49.2698 15.2381 47.4413L15.746 47.0349L16.254 47.4413C18.1841 49.2698 21.4349 49.2698 23.3651 47.4413L23.873 47.0349L24.381 47.4413C26.3111 49.2698 29.5619 49.2698 31.4921 47.4413L32 47.0349L32.5079 47.4413C34.4381 49.2698 37.6889 49.2698 39.619 47.4413L40.127 47.0349L40.6349 47.4413C41.5492 48.3556 42.8698 48.8635 44.1905 48.8635C45.5111 48.8635 46.8317 48.3556 47.746 47.4413L48.254 47.0349L48.7619 47.4413C50.6921 49.2698 53.9429 49.2698 55.873 47.4413L56.381 47.0349L56.8889 47.4413C57.8032 48.3556 59.1238 48.8635 60.4444 48.8635C61.7651 48.8635 63.0857 48.3556 64 47.4413V46.019L63.2889 46.6286Z" fill="#181F4E"/>
<path d="M24.2794 24.9905C26.2095 24.9905 27.8349 23.3651 27.8349 21.4349C27.8349 19.5048 26.2095 17.8794 24.2794 17.8794C22.3492 17.8794 20.7238 19.5048 20.7238 21.4349C20.7238 23.3651 22.3492 24.9905 24.2794 24.9905ZM24.2794 18.8952C25.7016 18.8952 26.819 20.0127 26.819 21.4349C26.819 22.8571 25.7016 23.9746 24.2794 23.9746C22.8571 23.9746 21.7397 22.8571 21.7397 21.4349C21.7397 20.0127 22.8571 18.8952 24.2794 18.8952Z" fill="#181F4E"/>
<path d="M64 39.619H42.1587L41.0413 36.8762C40.7365 36.2667 40.3302 35.7587 39.619 35.454C39.0095 35.1492 38.2984 35.1492 37.6889 35.454L31.5937 37.9937L28.7492 31.0857H40.127C41.346 31.0857 42.3619 30.1714 42.6667 29.054C42.6667 28.8508 42.7683 28.7492 42.7683 28.546C42.7683 28.3429 42.7683 28.2413 42.6667 28.0381C42.5651 27.4286 42.2603 27.0222 41.854 26.6159C41.5492 26.4127 41.346 26.2095 40.9397 26.1079C40.7365 26.0064 40.4317 26.0064 40.127 26.0064H23.873C23.5683 26.0064 23.1619 26.1079 22.8571 26.2095C21.9429 26.6159 21.3333 27.2254 20.927 28.1397C20.5206 29.054 20.5206 29.9683 20.927 30.8825L24.5841 39.619H9.65079C9.44762 39.619 9.24444 39.7206 9.14286 39.9238C9.04127 40.127 9.14286 40.3302 9.24445 40.4317L14.9333 46.1206L15.3397 45.7143C15.5429 45.5111 15.8476 45.5111 16.0508 45.7143L10.8698 40.6349H24.9905L25.1937 41.2444L26.0064 43.1746C26.3111 43.7841 26.7175 44.2921 27.4286 44.5968C27.7333 44.6984 28.0381 44.8 28.4444 44.8C28.7492 44.8 29.054 44.6984 29.4603 44.5968L38.6032 40.6349H64V39.619ZM26.0064 40.4317L25.7016 39.619L21.9429 30.4762C21.6381 29.8667 21.6381 29.1556 21.9429 28.546C22.2476 27.9365 22.654 27.4286 23.3651 27.1238H23.4667C23.5683 27.1238 23.7714 27.0222 23.9746 27.0222H40.2286C40.3302 27.0222 40.4317 27.0222 40.5333 27.0222C40.8381 27.1238 41.1429 27.2254 41.4476 27.5302C41.5492 27.6317 41.6508 27.8349 41.7524 28.0381C41.6508 28.3429 41.6508 28.4444 41.6508 28.6476C41.6508 28.8508 41.6508 28.9524 41.5492 29.1556C41.346 29.7651 40.7365 30.1714 40.127 30.1714H26.0064C25.9048 30.1714 25.8032 30.1714 25.7016 30.273C25.4984 30.3746 25.3968 30.4762 25.3968 30.6794C25.3968 30.9841 25.6 31.1873 25.9048 31.1873H27.6317L30.6794 38.5016L27.8349 39.619L26.0064 40.4317ZM38.5016 39.619C38.4 39.619 38.4 39.619 38.2984 39.619L35.9619 40.6349L28.9524 43.581C28.546 43.7841 28.1397 43.7841 27.8349 43.581C27.4286 43.3778 27.1238 43.1746 27.0222 42.7683L26.4127 41.346L28.0381 40.6349L30.4762 39.619L31.5937 39.2127L38.1968 36.4698C38.6032 36.2667 39.0095 36.2667 39.3143 36.4698C39.6191 36.673 40.0254 36.8762 40.127 37.2825L41.1429 39.619H38.5016Z" fill="#181F4E"/>
</svg>
