<svg width="64" height="64" viewBox="0 0 64 64" fill="none" xmlns="http://www.w3.org/2000/svg">
<path d="M29.1552 16.2539C31.0853 16.2539 32.7107 14.6285 32.7107 12.6984C32.7107 10.7682 31.1869 9.14282 29.1552 9.14282C27.1234 9.14282 25.5996 10.7682 25.5996 12.6984C25.5996 14.6285 27.225 16.2539 29.1552 16.2539ZM29.1552 10.1587C30.5774 10.1587 31.6949 11.2762 31.6949 12.6984C31.6949 14.1206 30.5774 15.2381 29.1552 15.2381C27.733 15.2381 26.6155 14.1206 26.6155 12.6984C26.6155 11.2762 27.733 10.1587 29.1552 10.1587Z" fill="#181F4E"/>
<path d="M42.3615 18.2857H41.6504L37.9933 21.9428L34.3361 18.2857L33.3203 18.692L37.5869 22.9587C37.7901 23.1619 38.0949 23.1619 38.298 22.9587L42.5647 18.692C43.1742 18.0825 43.9869 17.9809 44.5965 18.4889C45.0028 18.7936 45.206 19.2 45.206 19.6063C45.206 20.0127 45.1044 20.5206 44.7996 20.8254L39.0092 26.6158C38.3996 27.2254 37.4853 27.2254 36.8758 26.6158L32.6092 22.3492C32.5076 22.2476 32.2028 22.146 32.1012 22.2476C31.898 22.3492 31.7965 22.5523 31.7965 22.7555V31.492H24.6853V22.3492C25.0917 22.2476 25.498 22.0444 25.8028 21.7396C26.2092 21.3333 26.5139 20.9269 26.6155 20.3174C26.6155 20.1143 26.6155 20.0127 26.6155 19.8095C26.6155 19.2 26.4123 18.692 26.1076 18.2857C26.006 18.0825 25.8028 17.8793 25.5996 17.7777C25.1933 17.473 24.6853 17.2698 24.1774 17.2698H16.0504C14.6282 17.2698 13.5107 18.3873 13.5107 19.8095C13.5107 21.2317 14.6282 22.3492 16.0504 22.3492H23.6695V33.5238L16.0504 51.8095C15.5425 53.1301 16.152 54.5523 17.4726 55.1619C18.0822 55.4666 18.7933 55.4666 19.4028 55.1619C20.0123 54.8571 20.5203 54.4508 20.825 53.7396L27.9361 36.5714H28.6473L35.7584 53.7396C36.0631 54.3492 36.4695 54.8571 37.1806 55.1619C37.4853 55.2635 37.7901 55.365 38.1965 55.365C38.6028 55.365 38.806 55.2635 39.2123 55.1619C39.8219 54.8571 40.3298 54.4508 40.6346 53.7396C40.9393 53.1301 40.9393 52.419 40.6346 51.8095L33.0155 33.5238V23.873L36.4695 27.3269C37.4853 28.3428 39.1107 28.3428 40.025 27.3269L45.8155 21.5365C46.3234 21.0285 46.6282 20.3174 46.5266 19.5047C46.5266 18.9968 46.3234 18.5904 46.0187 18.1841H42.3615V18.2857ZM15.9488 21.3333C15.1361 21.3333 14.425 20.6222 14.425 19.8095C14.425 18.9968 15.1361 18.2857 15.9488 18.2857H24.0758C24.0758 18.2857 24.0758 18.2857 24.1774 18.2857C24.3806 18.2857 24.4822 18.2857 24.5838 18.3873C25.1933 18.5904 25.5996 19.2 25.5996 19.8095C25.5996 20.2158 25.3965 20.6222 25.1933 20.8254C24.8885 21.1301 24.4822 21.3333 24.0758 21.3333H15.9488ZM39.4155 52.2158C39.6187 52.6222 39.6187 53.0285 39.4155 53.3333C39.2123 53.6381 39.0092 54.0444 38.6028 54.146C38.1965 54.2476 37.7901 54.3492 37.4853 54.146C37.079 53.9428 36.7742 53.7396 36.6726 53.3333L29.4599 35.8603C29.3584 35.6571 29.1552 35.5555 28.952 35.5555H27.6314C27.4282 35.5555 27.225 35.6571 27.1234 35.8603L19.9107 53.3333C19.7076 53.7396 19.5044 54.0444 19.098 54.146C18.6917 54.3492 18.2853 54.3492 17.9806 54.146C17.1679 53.8412 16.8631 52.9269 17.1679 52.1142L24.7869 33.7269C24.7869 33.6254 24.7869 33.6254 24.7869 33.5238V32.5079H31.898V33.6254C31.898 33.7269 31.898 33.7269 31.898 33.8285L39.4155 52.2158Z" fill="#181F4E"/>
<path d="M54.552 17.2698H54.0441V16.7619C54.0441 16.4571 53.8409 16.2539 53.5361 16.2539C53.2314 16.2539 53.0282 16.4571 53.0282 16.7619V17.2698H24.1774H24.0758C24.5838 17.2698 25.0917 17.473 25.498 17.7777C25.7012 17.8793 25.9044 18.0825 26.006 18.2857H31.4917L26.4123 20.3174C26.3107 20.9269 26.006 21.4349 25.5996 21.7396L33.1171 18.692L34.133 18.2857H41.6504H42.3615H54.552C54.8568 18.2857 55.06 18.0825 55.06 17.7777C55.06 17.473 54.8568 17.2698 54.552 17.2698Z" fill="#181F4E"/>
</svg>
