<svg width="64" height="64" viewBox="0 0 64 64" fill="none" xmlns="http://www.w3.org/2000/svg">
<path d="M40.8381 14.4254C39.9238 13.5111 38.1968 13.5111 37.2825 14.4254C36.2667 15.4413 36.2667 17.0667 37.2825 17.981L44.1905 24.8889H38.6032C37.6889 24.8889 36.7746 25.2953 36.0635 25.9048L34.6413 27.327C34.1333 27.8349 33.9302 28.4445 33.9302 29.1556C33.9302 29.2572 33.9302 29.3588 33.9302 29.4603L21.0286 42.4635C20.5206 42.9714 20.3175 43.581 20.3175 44.2921C20.3175 45.0032 20.6222 45.6127 21.0286 46.1207C21.5365 46.6286 22.146 46.8318 22.8571 46.8318C23.5683 46.8318 24.1778 46.527 24.6857 46.1207L37.2825 33.5238L40.8381 37.0794L35.454 42.4635C34.946 42.9714 34.7429 43.581 34.7429 44.2921C34.7429 45.0032 35.0476 45.6127 35.454 46.1207C35.9619 46.6286 36.5714 46.8318 37.2825 46.8318C37.9936 46.8318 38.6032 46.6286 39.1111 46.1207L46.3238 38.908C47.3397 37.8921 47.3397 36.2667 46.3238 35.3524L43.073 32.1016H48.4571V44.6984C48.4571 46.1207 49.5746 47.2381 50.9968 47.2381C52.419 47.2381 53.5365 46.1207 53.5365 44.6984V28.4445C53.5365 27.5302 53.1302 26.6159 52.5206 25.9048L40.8381 14.4254ZM37.9937 17.2699C37.3841 16.6603 37.3841 15.7461 37.9937 15.1365C38.2984 14.8318 38.7048 14.7302 39.1111 14.7302C39.5175 14.7302 39.9238 14.9334 40.2286 15.1365L49.981 24.8889H45.7143L37.9937 17.2699ZM23.873 45.308C23.2635 45.9175 22.2476 45.9175 21.7397 45.308C21.4349 45.0032 21.3333 44.5968 21.3333 44.1905C21.3333 43.7841 21.5365 43.3778 21.7397 43.073L34.3365 30.4762C34.4381 30.5778 34.5397 30.781 34.6413 30.8826L36.4698 32.7111L23.873 45.308ZM45.4095 35.9619C46.019 36.5714 46.019 37.4857 45.4095 38.0953L38.1968 45.308C37.5873 45.9175 36.673 45.9175 36.0635 45.308C35.7587 45.0032 35.6571 44.5968 35.6571 44.1905C35.6571 43.7841 35.8603 43.3778 36.0635 43.073L41.854 37.3841C41.9556 37.2826 41.9556 37.181 41.9556 36.9778C41.9556 36.8762 41.854 36.673 41.854 36.5714L37.8921 32.6095L37.5873 32.4064L35.3524 30.1714C35.2508 30.0699 35.1492 29.8667 35.0476 29.7651C34.946 29.5619 34.946 29.3588 34.946 29.1556V29.054C34.946 28.8508 34.946 28.6476 35.0476 28.4445C35.1492 28.2413 35.2508 28.1397 35.3524 28.0381L36.4698 26.9207L41.346 31.7968L45.4095 35.9619ZM52.3175 28.5461V44.6984C52.3175 45.5111 51.6063 46.2222 50.7936 46.2222C49.9809 46.2222 49.2698 45.5111 49.2698 44.6984V29.3588C49.1683 29.1556 49.0667 28.9524 48.7619 28.9524C48.5587 28.9524 48.4571 29.054 48.3556 29.1556C48.254 29.2572 48.254 29.3588 48.254 29.4603V30.9841H41.854L37.1809 26.3111C37.5873 26.0064 38.0952 25.9048 38.6032 25.9048H49.7778C50.4889 25.9048 51.0984 26.2095 51.6063 26.6159C52.1143 27.1238 52.3175 27.7334 52.3175 28.4445C52.3175 28.4445 52.3175 28.5461 52.3175 28.5461Z" fill="#181F4E"/>
<path d="M58.3111 24.381C58.2095 24.381 58.2095 24.381 58.1079 24.381L57.6 24.1778C57.1936 24.8889 56.3809 25.2953 55.4667 25.2953C54.0444 25.2953 52.927 24.1778 52.927 22.7556C52.927 22.5524 52.927 22.4508 52.927 22.2476L52.0127 21.8413C51.9111 22.1461 51.9111 22.4508 51.9111 22.7556C51.9111 24.6857 53.5365 26.3111 55.4667 26.3111C56.9905 26.3111 58.2095 25.3968 58.7175 24.0762C58.7175 24.2794 58.5143 24.381 58.3111 24.381Z" fill="#181F4E"/>
<path d="M42.2603 47.7461H34.1333C33.8286 47.7461 33.6254 47.9492 33.6254 48.254C33.6254 48.5587 33.8286 48.7619 34.1333 48.7619H42.2603C42.5651 48.7619 42.7682 48.5587 42.7682 48.254C42.7682 47.9492 42.5651 47.7461 42.2603 47.7461Z" fill="#181F4E"/>
<path d="M27.9365 47.7461H19.8095C19.5048 47.7461 19.3016 47.9492 19.3016 48.254C19.3016 48.5587 19.5048 48.7619 19.8095 48.7619H27.9365C28.2413 48.7619 28.4444 48.5587 28.4444 48.254C28.4444 47.9492 28.1397 47.7461 27.9365 47.7461Z" fill="#181F4E"/>
<path d="M59.0222 21.9429C59.0222 21.8413 58.9206 21.7397 58.9206 21.5365C58.9206 21.4349 58.819 21.3334 58.819 21.2318V21.1302C58.4127 20.3175 57.8032 19.6064 56.9905 19.3016C56.8889 19.3016 56.7873 19.3016 56.6857 19.2C56.4825 19.0984 56.3809 19.0984 56.1778 19.0984C56.0762 19.0984 55.9746 19.0984 55.873 19.0984C55.6698 19.0984 55.5683 19.0984 55.3651 19.0984C55.2635 19.0984 55.2635 19.0984 55.1619 19.0984L49.8794 19.8095C49.6762 19.8095 49.473 20.0127 49.473 20.2159C49.473 20.4191 49.5746 20.6222 49.7778 20.7238L52.2159 21.7397L53.1302 22.1461L57.7016 24.0762L58.2095 24.2794C58.3111 24.2794 58.3111 24.2794 58.4127 24.2794C58.6159 24.2794 58.819 24.1778 58.9206 23.9746C59.0222 23.7714 59.1238 23.5683 59.1238 23.3651V23.2635C59.1238 23.0603 59.2254 22.8572 59.2254 22.654C59.1238 22.4508 59.1238 22.2476 59.0222 21.9429ZM58.0063 23.1619L53.4349 21.2318L52.5206 20.8254L51.8095 20.6222L52.7238 20.5207L55.1619 20.2159C55.2635 20.2159 55.2635 20.2159 55.3651 20.2159C55.4667 20.2159 55.5682 20.2159 55.6698 20.2159C55.7714 20.2159 55.873 20.2159 55.9746 20.2159C56.0762 20.2159 56.1778 20.2159 56.2794 20.3175C56.381 20.3175 56.4825 20.3175 56.4825 20.4191C57.0921 20.7238 57.6 21.1302 57.8032 21.7397C57.9048 21.9429 57.9048 22.1461 58.0063 22.3492C58.0063 22.4508 58.0063 22.4508 58.0063 22.5524C58.1079 22.7556 58.1079 22.9588 58.0063 23.1619Z" fill="#181F4E"/>
<path d="M23.4667 24.381C23.3651 24.381 23.3651 24.381 23.2635 24.381L22.7556 24.1778C22.654 24.2794 22.5524 24.4826 22.4508 24.5841C21.5365 25.4984 19.8095 25.4984 18.8952 24.5841C18.3873 24.0762 18.1841 23.4667 18.1841 22.7556C18.1841 22.5524 18.1841 22.4508 18.1841 22.2476L17.2698 21.8413C17.1683 22.1461 17.1683 22.4508 17.1683 22.7556C17.1683 23.6699 17.5746 24.5841 18.1841 25.2953C18.7936 26.0064 19.7079 26.3111 20.7238 26.3111C21.6381 26.3111 22.5524 25.9048 23.2635 25.2953C23.5683 24.9905 23.873 24.5841 24.0762 24.1778C23.7714 24.2794 23.5683 24.381 23.4667 24.381Z" fill="#181F4E"/>
<path d="M7.31429 47.7461H0V48.7619H7.31429C7.61905 48.7619 7.82222 48.5587 7.82222 48.254C7.82222 47.9492 7.61905 47.7461 7.31429 47.7461Z" fill="#181F4E"/>
<path d="M14.7302 20.8254L17.1683 21.8413L18.0825 22.2476L22.654 24.1778L23.1619 24.381C23.2635 24.381 23.2635 24.381 23.3651 24.381C23.5683 24.381 23.7714 24.2794 23.873 24.0762C23.873 23.9746 23.873 23.9746 23.9746 23.873C23.9746 23.7714 24.0762 23.5683 24.0762 23.4667C24.0762 23.2635 24.1778 23.0603 24.1778 22.8572V22.7556C24.1778 22.5524 24.1778 22.2476 24.0762 22.0445C24.0762 21.8413 23.9746 21.6381 23.873 21.3334C23.4667 20.4191 22.8571 19.8095 21.9429 19.4032C21.4349 19.2 20.8254 19.0984 20.1143 19.2L14.8317 19.9111C14.6286 19.9111 14.4254 20.1143 14.4254 20.3175C14.4254 20.5207 14.527 20.7238 14.7302 20.8254ZM17.8794 20.5207L20.3175 20.2159C20.419 20.2159 20.419 20.2159 20.5206 20.2159C20.6222 20.2159 20.7238 20.2159 20.8254 20.2159C20.927 20.2159 21.0286 20.2159 21.1302 20.2159C21.2317 20.2159 21.3333 20.2159 21.4349 20.3175C21.5365 20.3175 21.6381 20.3175 21.6381 20.4191C22.2476 20.7238 22.7556 21.1302 23.0603 21.8413C23.1619 22.0445 23.1619 22.2476 23.2635 22.4508C23.2635 22.5524 23.2635 22.5524 23.2635 22.654C23.2635 22.8572 23.2635 23.0603 23.2635 23.2635L18.6921 21.3334L17.7778 20.927L17.1683 20.6222L17.8794 20.5207Z" fill="#181F4E"/>
<path d="M21.3333 35.9619C21.9429 35.9619 22.654 35.7587 23.1619 35.2508L28.9524 29.4603C29.9683 28.4445 29.9683 26.8191 28.9524 25.9048C27.9365 24.8889 26.3111 24.8889 25.3968 25.9048L21.3333 29.8667L5.89206 14.4254C4.87619 13.4095 3.25079 13.4095 2.33651 14.4254C1.32063 15.4413 1.32063 17.0667 2.33651 17.981L9.14286 24.8889H3.65714C2.74286 24.8889 1.82857 25.2953 1.11746 25.9048L0 27.1238V29.1556C0 28.9524 0 28.7492 0.101587 28.5461C0.203175 28.4445 0.304762 28.2413 0.406349 28.1397L1.52381 27.0222L10.4635 35.9619C10.7683 36.2667 10.8698 36.673 10.8698 37.0794C10.8698 37.4857 10.6667 37.8921 10.4635 38.1968L3.25079 45.4095C2.64127 46.0191 1.6254 46.0191 1.11746 45.4095C0.812698 45.1048 0.711111 44.6984 0.711111 44.2921C0.711111 43.8857 0.914286 43.4794 1.11746 43.1746L6.90794 37.4857C7.00952 37.2826 7.11111 37.181 7.11111 37.0794C7.11111 36.9778 7.00952 36.7746 7.00952 36.673L0.507936 30.1714C0.406349 30.0699 0.304762 29.8667 0.203175 29.7651C0.101587 29.5619 0 29.3588 0 29.1556V31.1873L1.52381 32.7111L0 34.2349V35.6572L2.23492 33.4222L5.79048 36.9778L0.406349 42.3619C0.304762 42.6667 0.101587 42.8699 0 43.073V45.4095C0.101587 45.6127 0.304762 45.8159 0.406349 46.0191C0.914286 46.527 1.52381 46.7302 2.23492 46.7302C2.94603 46.7302 3.55556 46.4254 4.06349 46.0191L11.2762 38.8064C11.7841 38.2984 11.9873 37.6889 11.9873 36.9778C11.9873 36.2667 11.6825 35.6572 11.2762 35.1492L8.0254 31.8984H14.9333C15.3397 31.8984 15.746 31.7968 16.1524 31.6953L19.6063 35.1492C20.0127 35.7587 20.6222 35.9619 21.3333 35.9619ZM3.04762 17.2699C2.4381 16.6603 2.4381 15.7461 3.04762 15.1365C3.35238 14.8318 3.75873 14.7302 4.16508 14.7302C4.57143 14.7302 4.97778 14.8318 5.28254 15.1365L15.0349 24.8889H10.7683L3.04762 17.2699ZM16.6603 30.8826L16.254 30.5778L15.4413 29.7651L15.2381 29.4603C15.2381 29.4603 15.1365 29.4603 15.1365 29.3588C14.9333 29.2572 14.7302 29.2572 14.6286 29.3588C14.6286 29.3588 14.6286 29.3588 14.527 29.3588C14.4254 29.4603 14.3238 29.6635 14.4254 29.7651C14.4254 29.8667 14.527 29.9683 14.527 30.0699L15.2381 30.781C15.1365 30.781 15.0349 30.781 14.9333 30.781H6.90794L4.06349 28.0381L2.33651 26.3111C2.74286 26.0064 3.25079 25.9048 3.75873 25.9048H14.8317C15.5429 25.9048 16.1524 26.2095 16.6603 26.6159L20.8254 30.781C21.0286 30.9841 21.3333 30.9841 21.5365 30.781L25.8032 26.5143C26.4127 25.9048 27.327 25.9048 27.9365 26.5143C28.546 27.1238 28.546 28.0381 27.9365 28.6476L22.3492 34.5397C21.7397 35.1492 20.8254 35.1492 20.2159 34.5397L16.9651 31.2889L16.6603 30.8826Z" fill="#181F4E"/>
</svg>
