<svg width="64" height="64" viewBox="0 0 64 64" fill="none" xmlns="http://www.w3.org/2000/svg">
<path d="M32.2027 14.2222C34.1328 14.2222 35.7582 12.5968 35.7582 10.6666C35.7582 8.73648 34.2344 7.11108 32.2027 7.11108C30.1709 7.11108 28.6471 8.73648 28.6471 10.6666C28.6471 12.5968 30.2725 14.2222 32.2027 14.2222ZM32.2027 8.12696C33.6249 8.12696 34.7423 9.24442 34.7423 10.6666C34.7423 12.0889 33.6249 13.2063 32.2027 13.2063C30.7804 13.2063 29.663 12.0889 29.663 10.6666C29.663 9.24442 30.7804 8.12696 32.2027 8.12696Z" fill="#181F4E"/>
<path d="M48.355 10.2603L43.3773 15.2381H28.1392C27.4281 15.2381 26.8185 15.5428 26.3106 16.0508L14.8312 27.5301C14.3233 28.0381 14.1201 28.6476 14.1201 29.3587C14.1201 30.0698 14.4249 30.6793 14.8312 31.1873C15.3392 31.6952 15.9487 31.8984 16.6598 31.8984C17.3709 31.8984 17.9804 31.6952 18.4884 31.1873L27.6312 21.9428V41.6508L23.9741 50.5905C23.4662 51.9111 24.0757 53.3333 25.3963 53.9428C25.7011 54.0444 26.0058 54.146 26.4122 54.146C26.8185 54.146 27.0217 54.0444 27.4281 53.9428C28.0376 53.6381 28.5455 53.2317 28.8503 52.5206L32.7106 43.1746C32.8122 42.8698 32.9138 42.5651 32.9138 42.1587V34.5397H40.6344L38.1963 40.4317C37.6884 41.7524 38.2979 43.1746 39.6185 43.7841C40.9392 44.292 42.3614 43.6825 42.9709 42.3619C42.9709 42.3619 46.7296 33.219 46.8312 33.0158C46.9328 32.7111 47.0344 32.4063 47.0344 32C47.0344 30.5778 45.9169 29.4603 44.4947 29.4603H36.8757V20.3174H44.4947C45.2058 20.3174 45.8154 20.0127 46.3233 19.6063L52.1138 13.8158C53.1296 12.8 53.1296 11.1746 52.1138 10.2603C50.9963 9.346 49.3709 9.346 48.355 10.2603ZM44.3931 30.4762C45.2058 30.4762 45.9169 31.1873 45.9169 32C45.9169 32.2031 45.9169 32.4063 45.8154 32.6095C45.8154 32.7111 41.955 41.9555 41.955 41.9555C41.7519 42.3619 41.5487 42.6666 41.1423 42.7682C40.736 42.9714 40.3296 42.9714 40.0249 42.7682C39.2122 42.4635 38.9074 41.5492 39.2122 40.7365L41.955 34.1333C42.0566 33.9301 41.955 33.8285 41.955 33.6254C41.955 33.4222 41.5487 33.5238 41.3455 33.5238H32.2027C31.8979 33.5238 31.6947 33.727 31.6947 34.0317V42.1587C31.6947 42.3619 31.6947 42.5651 31.5931 42.7682L27.7328 52.1143C27.4281 52.927 26.5138 53.2317 25.7011 52.927C24.8884 52.6222 24.5836 51.7079 24.8884 50.8952L28.6471 41.8539C28.6471 41.7524 28.6471 41.7524 28.6471 41.6508V30.4762H44.3931ZM51.1995 13.1047L45.409 18.8952C45.1042 19.2 44.6979 19.3016 44.2915 19.3016H36.1646C35.8598 19.3016 35.6566 19.5047 35.6566 19.8095V29.4603H28.5455V20.6222C28.5455 20.419 28.4439 20.2158 28.2408 20.1143C28.0376 20.0127 27.8344 20.1143 27.7328 20.2158L17.6757 30.273C17.0661 30.8825 16.1519 30.8825 15.5423 30.273C15.2376 29.9682 15.136 29.5619 15.136 29.1555C15.136 28.7492 15.3392 28.3428 15.5423 28.0381L27.0217 16.5587C27.3265 16.2539 27.7328 16.0508 28.1392 16.0508H43.5804C43.682 16.0508 43.8852 15.9492 43.9868 15.9492L49.1677 10.7682C49.7773 10.1587 50.7931 10.1587 51.3011 10.7682C51.809 11.5809 51.809 12.5968 51.1995 13.1047Z" fill="#181F4E"/>
<path d="M44.7995 41.4476C44.5963 41.6508 44.4947 41.9555 44.6979 42.1587C44.9011 42.3619 44.7995 42.6666 44.5963 42.8698L26.4122 55.873C26.209 56.0762 25.9042 55.9746 25.7011 55.7714C25.4979 55.5682 25.1931 55.4666 24.99 55.6698C24.7868 55.873 24.6852 56.1778 24.8884 56.3809C25.1931 56.7873 25.7011 56.9905 26.1074 56.9905C26.4122 56.9905 26.7169 56.8889 27.0217 56.6857L45.2058 43.6825C45.9169 43.1746 46.0185 42.2603 45.5106 41.5492C45.3074 41.346 45.0027 41.346 44.7995 41.4476Z" fill="#181F4E"/>
<path d="M29.9677 56.1778C29.663 56.1778 29.4598 56.1778 29.2566 56.3809C29.0535 56.5841 28.8503 56.7873 28.8503 56.9905C28.8503 57.2952 28.8503 57.4984 29.0535 57.7016C29.2566 58.0063 29.5614 58.1079 29.8661 58.1079C30.0693 58.1079 30.2725 58.0063 30.4757 57.9047C30.882 57.6 31.0852 56.9905 30.6788 56.4825C30.4757 56.3809 30.2725 56.2793 29.9677 56.1778Z" fill="#181F4E"/>
<path d="M45.5106 46.019C45.2058 45.6127 44.5963 45.4095 44.0884 45.8158C43.5804 46.2222 43.4789 46.7301 43.8852 47.2381C44.0884 47.5428 44.3931 47.6444 44.6979 47.6444C44.9011 47.6444 45.1042 47.5428 45.3074 47.4412C45.7138 47.0349 45.8154 46.4254 45.5106 46.019Z" fill="#181F4E"/>
</svg>
