<svg width="64" height="64" viewBox="0 0 64 64" fill="none" xmlns="http://www.w3.org/2000/svg">
<g clip-path="url(#clip0_4580_1232)">
<path d="M64 55.6698L0 29.1555V30.273L64 56.7873" fill="#181F4E"/>
<path d="M11.6825 25.6L21.0286 29.4603L21.4349 29.5619L32.3048 34.0317L36.9778 35.9619L36.4698 36.1651C35.454 36.5714 34.946 37.4857 34.946 38.5016C34.946 39.5174 35.5556 40.4317 36.4698 40.8381L43.8857 43.8857C44.1905 43.9873 44.5968 44.0889 44.9016 44.0889C45.8159 44.0889 46.6286 43.6825 47.0349 42.8698C47.4413 42.2603 47.5429 41.4476 47.2381 40.7365C47.0349 40.0254 46.527 39.4159 45.8159 39.2127L44.0889 38.6032L45.9175 37.7905C46.527 37.4857 47.0349 37.0794 47.3397 36.4698C47.6444 35.5555 47.6444 34.6413 47.3397 33.8286C46.9333 32.9143 46.3238 32.3047 45.4095 31.8984L35.0476 27.6317L33.2191 26.819C32.1016 26.3111 30.781 26.7174 30.1714 27.7333L29.3587 27.4286L24.0762 25.1936L20.6222 16.8635C20.1143 15.5428 18.6921 14.9333 17.473 15.3397C16.7619 15.5428 16.1524 16.1524 15.9492 16.7619C15.6444 17.3714 15.6444 18.0825 15.9492 18.692L17.473 22.4508L13.7143 20.927C12.3937 20.419 10.9714 21.0286 10.3619 22.3492C9.75238 23.5682 10.4635 25.0921 11.6825 25.6ZM35.1492 28.6476L45.0032 32.7111C45.6127 33.0159 46.1206 33.4222 46.4254 34.1333C46.7302 34.7428 46.7302 35.454 46.4254 36.0635C46.2222 36.3682 46.0191 36.673 45.6127 36.8762L43.3778 37.7905L42.5651 38.0952C42.4635 38.0952 42.4635 38.1968 42.3619 38.1968C42.2603 38.2984 42.2603 38.4 42.2603 38.5016C42.2603 38.7047 42.3619 38.9079 42.5651 39.0095L45.5111 40.2286C45.9175 40.4317 46.2222 40.7365 46.4254 41.1428C46.527 41.5492 46.527 42.0571 46.2222 42.4635C45.8159 43.073 45.0032 43.3778 44.2921 43.073L36.8762 40.0254C36.1651 39.7206 35.9619 39.1111 35.9619 38.6032C35.9619 38.0952 36.1651 37.4857 36.8762 37.1809L38.2984 36.5714L39.619 36.0635L41.5492 35.2508C41.6508 35.1492 41.7524 35.0476 41.854 34.946C41.854 34.8444 41.854 34.7428 41.854 34.6413C41.7524 34.3365 41.4476 34.2349 41.1429 34.3365L38.2984 35.5555L33.2191 33.4222L34.2349 31.0857L35.1492 28.6476ZM16.7619 18.2857C16.5587 17.8794 16.5587 17.473 16.7619 17.1682C16.9651 16.7619 17.2698 16.4571 17.6762 16.254C17.7778 16.254 17.981 16.1524 18.0825 16.1524C18.6921 16.1524 19.3016 16.5587 19.6063 17.1682L22.654 24.5841L18.6921 22.9587L16.7619 18.2857ZM11.2762 22.654C11.4794 22.2476 11.6825 21.9428 12.0889 21.8413C12.2921 21.7397 12.4952 21.7397 12.6984 21.7397C12.9016 21.7397 13.1048 21.7397 13.3079 21.8413L17.981 23.7714L19.4032 24.3809L28.4444 28.1397L30.273 28.8508C30.5778 28.9524 30.781 28.8508 30.9841 28.546C31.0857 28.3428 31.1873 28.2413 31.2889 28.1397C31.6952 27.6317 32.4064 27.5301 33.0159 27.7333L34.4381 28.3428L33.8286 29.7651L33.5238 30.3746L33.4222 30.6794L32.5079 32.8127L32.4063 33.0159L32.2032 32.9143L23.1619 29.1555L21.5365 28.546L20.3175 28.0381L19.6063 27.7333L12.0889 24.5841C11.2762 24.2794 10.9714 23.4667 11.2762 22.654Z" fill="#181F4E"/>
<path d="M50.1841 41.5492C50.5905 41.7524 51.0984 41.854 51.5048 41.854C52.0127 41.854 52.4191 41.7524 52.8254 41.5492C53.7397 41.1428 54.3492 40.5333 54.7556 39.619C55.1619 38.7047 55.1619 37.7905 54.7556 36.8762C54.3492 35.9619 53.7397 35.3524 52.8254 34.946C50.9968 34.2349 48.9651 35.0476 48.1524 36.8762C47.746 37.7905 47.746 38.7047 48.1524 39.619C48.6603 40.4317 49.2698 41.1428 50.1841 41.5492ZM49.1683 37.2825C49.5746 36.2667 50.4889 35.7587 51.5048 35.7587C51.8095 35.7587 52.1143 35.8603 52.5206 35.9619C53.1302 36.2667 53.6381 36.673 53.9429 37.3841C54.2476 38.0952 54.2476 38.7047 53.9429 39.3143C53.6381 39.9238 53.2317 40.4317 52.5206 40.7365C51.9111 41.0413 51.2 41.0413 50.5905 40.7365C49.981 40.4317 49.473 40.0254 49.1683 39.3143C48.8635 38.6032 48.9651 37.892 49.1683 37.2825Z" fill="#181F4E"/>
<path d="M46.1206 46.019L17.981 34.4381C17.6762 34.3365 17.473 34.4381 17.2698 34.7428C17.1683 35.0476 17.2698 35.2508 17.5746 35.454L45.7143 47.0349C46.0191 47.1365 46.3238 47.2381 46.7302 47.2381C47.746 47.2381 48.6603 46.6286 49.0667 45.7143C49.1683 45.4095 49.0667 45.2063 48.7619 45.0032C48.4571 44.9016 48.254 45.0032 48.0508 45.3079C47.746 46.019 46.9333 46.3238 46.1206 46.019Z" fill="#181F4E"/>
</g>
<defs>
<clipPath id="clip0_4580_1232">
<rect width="64" height="64" fill="white"/>
</clipPath>
</defs>
</svg>
