<svg width="64" height="64" viewBox="0 0 64 64" fill="none" xmlns="http://www.w3.org/2000/svg">
<path d="M24.3813 20.0127C24.4828 20.1143 24.5844 20.1143 24.7876 20.1143C24.9908 20.1143 25.0924 20.1143 25.194 20.0127L31.3908 13.8159C31.4924 13.7143 31.4924 13.6127 31.4924 13.4095C31.4924 13.2063 31.3908 13.1047 31.3908 13.0032L28.8511 10.4635C28.6479 10.2603 28.3432 10.2603 28.14 10.4635L21.9432 16.6603C21.74 16.8635 21.74 17.1682 21.9432 17.3714L24.3813 20.0127ZM28.3432 11.5809L30.1717 13.4095L24.686 18.8952L22.8574 17.0666L28.3432 11.5809Z" fill="#181F4E"/>
<path d="M45.7146 26.1079V47.2381C45.7146 47.5428 45.9178 47.746 46.2225 47.746C46.5273 47.746 46.7305 47.5428 46.7305 47.2381V26.0063C46.5273 26.0063 46.3241 26.1079 46.1209 26.1079H45.7146Z" fill="#181F4E"/>
<path d="M46.2225 21.0286H39.1114L34.1336 16.0508C32.7114 14.6286 30.4765 14.6286 29.1559 16.0508L21.2321 23.9746C20.5209 24.6857 20.2162 25.4984 20.2162 26.5143V48.8635C20.2162 50.2857 21.3336 51.4032 22.7559 51.4032C24.1781 51.4032 25.2955 50.2857 25.2955 48.8635V30.9841H31.3908V37.5873C31.3908 38.2984 31.6955 38.9079 32.1019 39.4159C32.6098 39.9238 33.2194 40.127 33.9305 40.127C35.3527 40.127 36.4701 39.0095 36.4701 37.5873V28.3428C36.4701 26.9206 35.3527 25.8032 33.9305 25.8032H29.2574L33.0162 22.0444L36.267 25.2952C36.7749 25.8032 37.3844 26.0063 38.0955 26.0063H46.1209C46.3241 26.0063 46.5273 26.0063 46.7305 25.9047C47.8479 25.7016 48.6606 24.7873 48.7622 23.6698C48.8638 22.9587 48.559 22.146 48.0511 21.6381C47.5432 21.3333 46.9336 21.0286 46.2225 21.0286ZM46.7305 24.9905C46.5273 25.092 46.3241 25.092 46.1209 25.092H38.0955C37.6892 25.092 37.2828 24.8889 36.9781 24.6857L31.7971 19.5047C31.7971 19.5047 31.6955 19.5047 31.6955 19.4032C31.4924 19.3016 31.2892 19.3016 31.086 19.5047C30.8828 19.7079 30.8828 20.0127 31.086 20.2159L32.2035 21.3333L27.7336 25.8032H21.1305C21.2321 25.2952 21.4352 24.8889 21.8416 24.4825L29.7654 16.5587C30.2733 16.0508 30.8828 15.8476 31.594 15.8476C32.2035 15.8476 32.9146 16.0508 33.4225 16.5587L38.6035 21.7397C38.7051 21.8413 38.8067 21.8413 39.0098 21.8413H46.3241C46.7305 21.8413 47.1368 22.0444 47.4416 22.2476C47.7463 22.5524 47.9495 22.9587 47.8479 23.4666C47.7463 24.2793 47.34 24.7873 46.7305 24.9905ZM35.4543 37.6889C35.4543 38.5016 34.7432 39.2127 33.9305 39.2127C33.5241 39.2127 33.1178 39.0095 32.813 38.8063C32.5082 38.5016 32.4067 38.0952 32.4067 37.6889V30.5778C32.4067 30.4762 32.3051 30.273 32.3051 30.1714C32.2035 30.0698 32.1019 30.0698 31.8987 30.0698H22.6543C22.2479 30.0698 21.8416 29.8667 21.5368 29.6635C21.4352 29.5619 21.2321 29.3587 21.2321 29.1555C21.1305 28.9524 21.1305 28.7492 21.1305 28.6476V27.1238H33.9305C34.7432 27.1238 35.4543 27.8349 35.4543 28.6476V37.6889ZM24.2797 48.7619C24.2797 49.5746 23.5686 50.2857 22.7559 50.2857C21.9432 50.2857 21.2321 49.5746 21.2321 48.7619V30.4762C21.6384 30.7809 22.2479 30.9841 22.7559 30.9841H24.2797V48.7619Z" fill="#181F4E"/>
<path d="M37.486 16.3555C38.4003 16.3555 39.3146 15.9492 40.0257 15.3397C40.7368 14.7301 41.0416 13.8159 41.0416 12.8C41.0416 11.8857 40.6352 10.9714 40.0257 10.2603C38.6035 8.83808 36.3686 8.83808 35.0479 10.2603C33.6257 11.6825 33.6257 13.9174 35.0479 15.2381C35.5559 15.9492 36.4701 16.3555 37.486 16.3555ZM35.6574 10.9714C36.1654 10.4635 36.7749 10.2603 37.486 10.2603C38.0955 10.2603 38.8067 10.4635 39.3146 10.9714C39.8225 11.4793 40.0257 12.0889 40.0257 12.8C40.0257 13.5111 39.7209 14.1206 39.3146 14.6286C38.4003 15.5428 36.6733 15.5428 35.759 14.6286C34.6416 13.6127 34.6416 11.9873 35.6574 10.9714Z" fill="#181F4E"/>
<path d="M40.4321 33.219C40.2289 33.4222 40.2289 33.727 40.4321 33.9301C40.7368 34.2349 40.8384 34.6413 40.8384 35.0476C40.8384 35.454 40.6352 35.8603 40.4321 36.1651L18.8955 57.6C18.6924 57.8032 18.6924 58.1079 18.8955 58.3111C18.9971 58.4127 19.0987 58.4127 19.3019 58.4127C19.5051 58.4127 19.6067 58.4127 19.7082 58.3111L41.2447 36.7746C41.7527 36.2666 41.9559 35.6571 41.9559 34.946C41.9559 34.2349 41.6511 33.6254 41.2447 33.1174C40.94 33.0159 40.6352 33.0159 40.4321 33.219Z" fill="#181F4E"/>
</svg>
