<svg width="64" height="64" viewBox="0 0 64 64" fill="none" xmlns="http://www.w3.org/2000/svg">
<path d="M51.4035 15.6444C50.4892 15.2381 49.5749 15.2381 48.6606 15.6444C47.7464 16.0508 47.1368 16.6603 46.7305 17.5746C46.3241 18.4889 46.3241 19.4031 46.7305 20.3174C47.1368 21.2317 47.7464 21.8412 48.6606 22.2476C49.067 22.4508 49.5749 22.5524 49.9813 22.5524C50.4892 22.5524 50.8956 22.4508 51.3019 22.2476C52.2162 21.8412 52.8257 21.2317 53.2321 20.3174C53.6384 19.4031 53.6384 18.4889 53.2321 17.5746C52.8257 16.6603 52.3178 16.0508 51.4035 15.6444ZM52.4194 19.9111C52.1146 20.5206 51.7083 21.0285 50.9972 21.3333C50.3876 21.6381 49.6765 21.6381 49.067 21.3333C48.4575 21.0285 47.9495 20.6222 47.6448 19.9111C47.34 19.2 47.34 18.5904 47.6448 17.9809C47.9495 17.3714 48.3559 16.8635 49.067 16.5587C49.3718 16.4571 49.6765 16.3555 50.0829 16.3555C50.3876 16.3555 50.6924 16.4571 51.0987 16.5587C51.7083 16.8635 52.2162 17.2698 52.521 17.9809C52.7241 18.5904 52.7241 19.3016 52.4194 19.9111Z" fill="#181F4E"/>
<path d="M51.3019 29.6635C50.9972 29.7651 50.8956 30.0698 50.9972 30.3746C51.2003 30.7809 51.2003 31.1873 50.9972 31.492C50.794 31.7968 50.5908 32.2031 50.1845 32.3047L7.00985 50.1841C6.70509 50.2857 6.6035 50.5904 6.70509 50.8952C6.80667 51.0984 7.00985 51.2 7.21302 51.2C7.31461 51.2 7.31461 51.2 7.4162 51.2L50.5908 33.3206C51.9114 32.8127 52.521 31.2889 52.013 29.9682C51.9114 29.6635 51.6067 29.5619 51.3019 29.6635Z" fill="#181F4E"/>
<path d="M16.3559 45.0031C16.9654 45.0031 17.6765 44.8 18.1845 44.292L32.2035 30.273L33.6257 29.6635L43.9876 25.3968C44.9019 24.9904 45.5114 24.3809 45.9178 23.4666C46.3241 22.5524 46.3241 21.6381 45.9178 20.7238C45.8162 20.419 45.613 20.1143 45.3083 19.8095C44.9019 19.4031 44.4956 18.9968 43.9876 18.7936L28.9527 12.5968C28.3432 12.292 27.6321 12.292 27.0225 12.5968C26.413 12.9016 25.9051 13.3079 25.6003 14.019C25.0924 15.3397 25.7019 16.7619 27.0225 17.3714L35.9622 21.1301L30.8829 23.2635L29.0543 24.0762C27.7337 24.5841 27.1241 26.1079 27.6321 27.4285L27.7337 27.7333L14.5273 40.9397C13.5114 41.9555 13.5114 43.5809 14.5273 44.4952C15.1368 44.6984 15.7464 45.0031 16.3559 45.0031ZM37.2829 21.5365L39.213 22.3492C39.3146 22.3492 39.3146 22.3492 39.4162 22.3492C39.6194 22.3492 39.8225 22.2476 39.9241 22.0444C39.9241 21.9428 39.9241 21.8412 39.9241 21.7397C39.9241 21.5365 39.8225 21.4349 39.6194 21.3333L38.6035 20.927L37.2829 20.419L27.4289 16.3555C27.0225 16.1524 26.7178 15.9492 26.6162 15.5428C26.5146 15.1365 26.413 14.7301 26.6162 14.4254C26.8194 14.1206 27.0225 13.7143 27.4289 13.6127C27.8352 13.4095 28.2416 13.4095 28.5464 13.6127L41.2448 18.8952L43.5813 19.8095C44.1908 20.0127 44.5972 20.5206 44.9019 21.0285C44.9019 21.0285 44.9019 21.1301 45.0035 21.1301C45.3083 21.7397 45.3083 22.4508 45.0035 23.0603C44.6987 23.6698 44.2924 24.1778 43.5813 24.4825L33.7273 28.546L31.8987 24.1777L31.7972 23.873L37.2829 21.5365ZM15.34 41.346L28.7495 27.9365C28.8511 27.8349 28.9527 27.5301 28.8511 27.4285L28.5464 26.819C28.2416 26.0063 28.5464 25.1936 29.3591 24.7873L30.7813 24.1777L32.7114 28.8508L31.6956 29.2571C31.594 29.2571 31.594 29.3587 31.4924 29.3587L17.4733 43.4793C16.8638 44.0889 15.9495 44.0889 15.34 43.4793C14.7305 42.9714 14.7305 41.9555 15.34 41.346Z" fill="#181F4E"/>
</svg>
