<svg width="64" height="64" viewBox="0 0 64 64" fill="none" xmlns="http://www.w3.org/2000/svg">
<path d="M54.4508 17.2698H30.1715C29.4604 17.2698 28.8508 17.5746 28.3429 17.9809L24.381 21.9429L20.5207 18.0825C19.6064 17.1682 18.1842 17.0667 17.1683 17.7778C16.5588 18.1841 16.1524 18.8952 16.1524 19.6063C16.0508 20.3175 16.3556 21.1302 16.8635 21.6381L22.654 27.4286C23.5683 28.3429 25.2953 28.3429 26.2096 27.4286L29.6635 23.9746V31.4921H22.0445C20.6223 31.4921 19.5048 32.6095 19.5048 34.0317V43.2762L20.5207 42.8698V34.1333C20.5207 33.3206 21.2318 32.6095 22.0445 32.6095H33.727V35.6571H24.0762C23.7715 35.6571 23.5683 35.8603 23.5683 36.1651V41.6508L24.5842 41.2444V36.5714H33.727V37.3841L34.7429 36.9778V29.9682C34.7429 29.1555 35.454 28.4444 36.2667 28.4444C37.0794 28.4444 37.7905 29.1555 37.7905 29.9682V35.6571L38.2985 35.454H38.4L38.8064 35.2508V22.3492H54.5524C55.2635 22.3492 55.9746 22.0444 56.4826 21.4349C56.9905 20.8254 57.1937 20.1143 57.0921 19.4032C56.8889 18.1841 55.7715 17.2698 54.4508 17.2698ZM55.7715 20.8254C55.4667 21.1302 55.0604 21.3333 54.654 21.3333H38.4C38.0953 21.3333 37.8921 21.5365 37.8921 21.8413V27.9365C37.4858 27.6317 36.9778 27.4286 36.3683 27.4286C34.9461 27.4286 33.8286 28.546 33.8286 29.9682V31.4921H30.781V22.654C30.781 22.4508 30.6794 22.2476 30.4762 22.146C30.2731 22.0444 30.0699 22.146 29.9683 22.2476L25.7016 26.5143C25.0921 27.1238 24.0762 27.1238 23.5683 26.5143L17.7778 20.7238C17.4731 20.419 17.2699 20.0127 17.3715 19.5048C17.3715 19.0984 17.6762 18.6921 17.981 18.3873C18.5905 17.9809 19.4032 18.0825 20.0127 18.5905L24.2794 22.8571C24.4826 23.0603 24.7873 23.0603 24.9905 22.8571L29.2572 18.5905C29.5619 18.2857 29.9683 18.1841 30.3746 18.1841H54.654C55.4667 18.1841 56.1778 18.6921 56.2794 19.4032C56.1778 20.0127 56.0762 20.5206 55.7715 20.8254Z" fill="#181F4E"/>
<path d="M34.235 16.254C36.1651 16.254 37.7905 14.6286 37.7905 12.6984C37.7905 10.7682 36.2667 9.14285 34.235 9.14285C32.2032 9.14285 30.6794 10.7682 30.6794 12.6984C30.6794 14.6286 32.3048 16.254 34.235 16.254ZM34.235 10.1587C35.6572 10.1587 36.7746 11.2762 36.7746 12.6984C36.7746 14.1206 35.6572 15.2381 34.235 15.2381C32.8127 15.2381 31.6953 14.1206 31.6953 12.6984C31.6953 11.2762 32.8127 10.1587 34.235 10.1587Z" fill="#181F4E"/>
<path d="M38.2985 35.454L37.7905 35.6571L35.6572 36.5714L34.8445 36.9778L33.8286 37.3841L24.6858 41.1429L19.6064 43.1746L8.63497 47.746C7.51751 48.254 6.60322 49.0667 6.19687 50.1841C5.68893 51.3016 5.68893 52.5206 6.19687 53.6381C6.70481 54.7555 7.51751 55.6698 8.63497 56.0762C9.24449 56.2794 9.75243 56.3809 10.3619 56.3809C10.9715 56.3809 11.581 56.2794 12.0889 56.0762L49.6762 40.5333C52.0127 39.619 53.1302 36.8762 52.1143 34.5397C51.2 32.2032 48.4572 31.0857 46.1207 32.1016L38.7048 35.1492L38.2985 35.454ZM47.9493 32.9143C49.3715 32.9143 50.6921 33.727 51.2 35.1492C51.6064 36.0635 51.6064 36.9778 51.2 37.8921C50.7937 38.8063 50.1842 39.4159 49.2699 39.8222L11.6826 55.3651C10.7683 55.7714 9.85401 55.7714 8.93973 55.3651C8.02544 54.9587 7.41592 54.3492 7.00957 53.4349C6.60322 52.5206 6.60322 51.6063 7.00957 50.6921C7.51751 49.7778 8.12703 49.0667 9.04131 48.7619L19.5048 44.3936L24.5842 42.3619L33.727 38.6032L38.8064 36.5714L46.527 33.3206C47.035 33.0159 47.4413 32.9143 47.9493 32.9143Z" fill="#181F4E"/>
</svg>
