<svg width="64" height="64" viewBox="0 0 64 64" fill="none" xmlns="http://www.w3.org/2000/svg">
<path d="M41.346 23.2635C42.2602 23.2635 43.1745 22.9587 43.8856 22.2476C45.3079 20.8254 45.3079 18.5904 43.8856 17.2698C42.4634 15.8476 40.2285 15.8476 38.9079 17.2698C37.4856 18.692 37.4856 20.9269 38.9079 22.2476C39.5174 22.9587 40.4317 23.2635 41.346 23.2635ZM39.619 17.8793C40.1269 17.3714 40.7364 17.1682 41.4475 17.1682C42.1587 17.1682 42.7682 17.3714 43.2761 17.8793C44.292 18.8952 44.292 20.5206 43.2761 21.4349C42.2602 22.4508 40.6348 22.4508 39.7206 21.4349C38.8063 20.419 38.6031 18.8952 39.619 17.8793Z" fill="#181F4E"/>
<path d="M35.2507 47.746H27.1237C26.819 47.746 26.6158 47.9492 26.6158 48.2539C26.6158 48.5587 26.819 48.7619 27.1237 48.7619H35.2507C35.5555 48.7619 35.7587 48.5587 35.7587 48.2539C35.7587 47.9492 35.5555 47.746 35.2507 47.746Z" fill="#181F4E"/>
<path d="M20.9269 47.746H12.7999C12.4952 47.746 12.292 47.9492 12.292 48.2539C12.292 48.5587 12.4952 48.7619 12.7999 48.7619H20.9269C21.2317 48.7619 21.4348 48.5587 21.4348 48.2539C21.4348 47.9492 21.2317 47.746 20.9269 47.746Z" fill="#181F4E"/>
<path d="M46.1206 23.0603L42.1587 27.0222L26.7174 11.5809C25.8031 10.6666 24.0761 10.6666 23.1618 11.5809C22.6539 12.0889 22.4507 12.6984 22.4507 13.4095C22.4507 14.1206 22.7555 14.7301 23.1618 15.2381L29.9682 22.0444H24.4825C23.5682 22.0444 22.6539 22.4508 22.0444 23.0603C22.0444 23.0603 22.0444 23.0603 21.9428 23.0603L20.5206 24.3809C19.5047 25.3968 19.5047 26.9206 20.5206 27.9365V35.9619L14.1206 42.3619C13.2063 43.2762 13.1047 44.6984 13.8158 45.7143C14.2222 46.3238 14.9333 46.7301 15.6444 46.7301C15.746 46.7301 15.746 46.7301 15.8475 46.7301C16.5587 46.7301 17.1682 46.4254 17.6761 46.019L24.8888 38.8063C25.3968 38.2984 25.5999 37.6889 25.5999 36.9777V32.9143L27.7333 35.0476V44.0889C27.7333 45.4095 28.6475 46.527 29.8666 46.7301C29.9682 46.7301 30.1714 46.7301 30.2729 46.7301C30.8825 46.7301 31.492 46.527 31.8983 46.1206C32.5079 45.6127 32.8126 44.9016 32.8126 44.1904V34.0317C32.8126 33.3206 32.5079 32.7111 32.1015 32.2031L28.8507 28.9523H35.7587C36.165 28.9523 36.5714 28.8508 36.9777 28.7492L40.5333 32.3047C41.0412 32.8127 41.6507 33.0158 42.3618 33.0158C43.0729 33.0158 43.6825 32.7111 44.1904 32.3047L49.9809 26.5143C50.9968 25.4984 50.9968 23.873 49.9809 22.9587C48.7618 22.0444 47.1364 22.0444 46.1206 23.0603ZM41.1428 31.6952L36.0634 26.6158C36.0634 26.6158 35.9618 26.6158 35.9618 26.5143C35.7587 26.4127 35.5555 26.4127 35.4539 26.5143C35.4539 26.5143 35.4539 26.5143 35.3523 26.5143C35.2507 26.6158 35.1491 26.819 35.2507 26.9206C35.2507 27.0222 35.3523 27.1238 35.3523 27.2254L35.9618 27.8349C35.8602 27.8349 35.7587 27.8349 35.6571 27.8349H27.7333L23.0602 23.365C23.4666 23.0603 23.9745 22.9587 24.4825 22.9587H35.6571C36.3682 22.9587 36.9777 23.2635 37.3841 23.6698C37.3841 23.6698 37.4856 23.7714 37.4856 23.873L41.6507 28.0381C41.8539 28.2412 42.1587 28.2412 42.3618 28.0381L46.6285 23.7714C47.238 23.1619 48.2539 23.1619 48.7618 23.7714C49.3714 24.3809 49.3714 25.2952 48.7618 25.9047L42.9714 31.6952C42.6666 32.2031 41.6507 32.2031 41.1428 31.6952ZM31.6952 44.1904C31.6952 44.5968 31.492 45.1047 31.1872 45.3079C30.8825 45.6127 30.3745 45.7143 29.9682 45.6127C29.2571 45.5111 28.6475 44.8 28.6475 43.9873V34.7428C28.6475 34.6412 28.546 34.4381 28.546 34.3365L21.2317 27.0222C21.1301 26.9206 21.0285 26.819 21.0285 26.6158C20.8253 26.2095 20.7237 25.7016 20.9269 25.2952C21.0285 25.1936 21.1301 24.9904 21.2317 24.8889C21.2317 24.8889 21.2317 24.8889 21.2317 24.7873L22.2475 23.7714L31.0856 32.6095C31.3904 32.9142 31.492 33.3206 31.492 33.727V44.1904H31.6952ZM24.5841 37.0793C24.5841 37.4857 24.3809 37.892 24.1777 38.1968L16.965 45.4095C16.6602 45.7143 16.1523 45.9174 15.746 45.8158C15.3396 45.8158 14.9333 45.5111 14.6285 45.2063C14.2222 44.5968 14.3237 43.7841 14.8317 43.1746L21.3333 36.5714C21.4348 36.4698 21.4348 36.3682 21.4348 36.165V28.9523L24.4825 32V37.0793H24.5841ZM26.0063 12.292L35.6571 21.9428H31.3904L23.8729 14.4254C23.5682 14.1206 23.4666 13.7143 23.4666 13.3079C23.4666 12.9016 23.6698 12.4952 23.8729 12.1904C24.1777 11.8857 24.5841 11.7841 24.9904 11.7841C25.3968 11.7841 25.7015 11.9873 26.0063 12.292Z" fill="#181F4E"/>
</svg>
