<svg width="64" height="64" viewBox="0 0 64 64" fill="none" xmlns="http://www.w3.org/2000/svg">
<g clip-path="url(#clip0_4580_1366)">
<path d="M23.9748 21.6381C24.8891 21.6381 25.8033 21.3333 26.5145 20.6222C27.2256 19.9111 27.5303 19.0984 27.5303 18.0825C27.5303 17.1683 27.124 16.254 26.5145 15.5429C25.1938 14.2222 22.8573 14.2222 21.5367 15.5429C20.1145 16.9651 20.1145 19.2 21.5367 20.5206C22.1462 21.2317 23.0605 21.6381 23.9748 21.6381ZM22.1462 16.254C22.6541 15.746 23.2637 15.5429 23.9748 15.5429C24.6859 15.5429 25.2954 15.8476 25.8033 16.254C26.3113 16.7619 26.5145 17.3714 26.5145 18.0825C26.5145 18.7937 26.2097 19.4032 25.8033 19.9111C24.7875 20.927 23.1621 20.927 22.2478 19.9111C21.2319 18.8952 21.2319 17.2698 22.1462 16.254Z" fill="#181F4E"/>
<path d="M32.9145 10.9714C33.2192 11.2762 33.3208 11.6825 33.3208 12.0889V22.2476C33.3208 22.3492 33.4224 22.5524 33.4224 22.654L39.6192 28.8508L34.6414 33.8286L28.4446 27.6317C28.4446 27.5302 28.343 27.4286 28.1398 27.4286H9.85414C9.04144 27.4286 8.33033 26.7175 8.33033 25.9048C8.33033 25.0921 9.04144 24.381 9.85414 24.381H25.2954C25.397 24.381 25.6002 24.2794 25.7018 24.2794L30.2732 19.7079C30.3748 19.6063 30.3748 19.5048 30.3748 19.3016V12.9016C30.3748 12.8 30.2732 12.5968 30.2732 12.4952L25.0922 7.31429L24.3811 8.12698L29.3589 13.1048V19.0984L25.0922 23.3651H9.85414C9.24461 23.3651 8.73668 23.5683 8.33033 23.873V27.9365C8.73668 28.2413 9.3462 28.4444 9.85414 28.4444H27.9367L34.0319 34.5397L28.6478 39.9238C28.1398 40.4317 27.9367 41.0413 27.9367 41.7524V51.9111C27.9367 53.3333 29.0541 54.4508 30.4764 54.4508C31.8986 54.4508 33.016 53.3333 33.016 51.9111V42.7683L40.5335 35.2508L45.9176 40.6349C46.4256 41.1429 47.0351 41.346 47.7462 41.346H57.9049C59.3271 41.346 60.4446 40.2286 60.4446 38.8064C60.4446 37.3841 59.3271 36.2667 57.9049 36.2667H48.7621L40.8383 28.4444L34.4383 22.0444V12.0889C34.4383 11.3778 34.1335 10.7683 33.7271 10.2603L28.0383 4.57143L27.3272 5.28254L32.9145 10.9714ZM48.5589 37.3841H57.9049C58.7176 37.3841 59.4287 38.0952 59.4287 38.9079C59.4287 39.7206 58.7176 40.4317 57.9049 40.4317H47.7462C47.3398 40.4317 46.9335 40.2286 46.6287 40.0254L40.8383 34.2349C40.6351 34.0317 40.3303 34.0317 40.1271 34.2349L32.1018 42.2603C32.0002 42.3619 32.0002 42.4635 32.0002 42.6667V52.0127C32.0002 52.8254 31.2891 53.5365 30.4764 53.5365C29.6637 53.5365 28.9525 52.8254 28.9525 52.0127V41.854C28.9525 41.4476 29.1557 41.0413 29.3589 40.7365L40.5335 29.5619L48.1525 37.181C48.2541 37.2825 48.3557 37.3841 48.5589 37.3841Z" fill="#181F4E"/>
<path d="M9.3462 55.5683L13.4097 51.5048C14.324 50.5905 14.7303 49.473 14.7303 48.254C14.7303 47.0349 14.2224 45.9175 13.4097 45.0032L9.3462 40.9397C8.63509 40.2286 8.33033 39.3143 8.33033 38.4V19.7079C8.33033 17.7778 9.95572 16.1524 11.8859 16.1524H14.2224C15.4414 16.1524 16.5589 15.6444 17.4732 14.8317L24.3811 8.12698L27.9367 4.57143L32.4065 0H30.9843L16.7621 14.2222C16.051 14.9333 15.2383 15.2381 14.2224 15.2381H11.8859C9.3462 15.2381 7.31445 17.2698 7.31445 19.8095V38.4C7.31445 39.619 7.82239 40.7365 8.63509 41.6508L12.6986 45.7143C14.1208 47.1365 14.1208 49.3714 12.6986 50.7937L8.63509 54.8571C7.82239 55.6698 7.31445 56.8889 7.31445 58.1079V64H8.33033V58.1079C8.33033 57.1937 8.73668 56.2794 9.3462 55.5683Z" fill="#181F4E"/>
</g>
<defs>
<clipPath id="clip0_4580_1366">
<rect width="64" height="64" fill="white"/>
</clipPath>
</defs>
</svg>
