<svg width="64" height="64" viewBox="0 0 64 64" fill="none" xmlns="http://www.w3.org/2000/svg">
<g clip-path="url(#clip0_4580_1189)">
<path d="M27.9365 23.3651C29.8667 23.3651 31.4921 21.7397 31.4921 19.8095C31.4921 17.8794 29.8667 16.254 27.9365 16.254C26.0064 16.254 24.381 17.8794 24.381 19.8095C24.381 21.7397 26.0064 23.3651 27.9365 23.3651ZM27.9365 17.2698C29.3587 17.2698 30.4762 18.3873 30.4762 19.8095C30.4762 21.2318 29.3587 22.3492 27.9365 22.3492C26.5143 22.3492 25.3968 21.2318 25.3968 19.8095C25.3968 18.3873 26.5143 17.2698 27.9365 17.2698Z" fill="#181F4E"/>
<path d="M40.127 38.6032H32.5079V30.9841L35.9619 34.4381C36.8762 35.3524 38.6032 35.3524 39.5175 34.4381L45.3079 28.6476C45.8159 28.1397 46.1206 27.4286 46.019 26.6159C45.9175 25.9048 45.6127 25.1937 45.0032 24.7873C43.9873 24.0762 42.5651 24.1778 41.6508 25.0921L37.7905 28.9524L33.8286 24.9905C33.3206 24.4825 32.7111 24.2794 32 24.2794H23.873C23.1619 24.2794 22.5524 24.5841 22.0444 24.9905L17.0667 29.9683H9.95556C8.53333 29.9683 7.41587 31.0857 7.41587 32.5079C7.41587 33.9302 8.53333 35.0476 9.95556 35.0476H18.0825C18.7937 35.0476 19.4032 34.7429 19.9111 34.3365L23.3651 30.8825V42.6667C23.5683 42.7683 23.6698 42.7683 23.873 42.8698C23.9746 42.8698 24.0762 42.9714 24.1778 42.9714C24.2794 42.9714 24.2794 42.9714 24.381 43.073V37.0794C24.381 36.2667 25.0921 35.5556 25.9048 35.5556C26.7175 35.5556 27.4286 36.2667 27.4286 37.0794V44.1905C27.6317 44.2921 27.7333 44.2921 27.9365 44.3937C28.1397 44.4952 28.2413 44.4952 28.4444 44.5968V43.6825H37.5873V49.0667C37.7905 49.1683 37.8921 49.2698 38.0952 49.3714C38.2984 49.473 38.4 49.5746 38.6032 49.6762V43.1746C38.6032 42.8698 38.4 42.6667 38.0952 42.6667H28.4444V39.6191H40.127C40.9397 39.6191 41.6508 40.3302 41.6508 41.1429V51.3016C41.6508 51.4032 41.6508 51.4032 41.6508 51.5048C41.7524 51.6064 41.9556 51.7079 42.0571 51.8095C42.1587 51.9111 42.3619 52.0127 42.4635 52.1143C42.5651 51.9111 42.5651 51.6064 42.5651 51.3016V41.1429C42.6667 39.8222 41.5492 38.6032 40.127 38.6032ZM19.2 33.8286C18.8952 34.1333 18.4889 34.2349 18.0825 34.2349H9.95556C9.14286 34.2349 8.43175 33.5238 8.43175 32.7111C8.43175 31.8984 9.14286 31.1873 9.95556 31.1873H17.2698C17.3714 31.1873 17.5746 31.0857 17.6762 31.0857L22.8571 25.9048C23.1619 25.6 23.5683 25.4984 23.9746 25.4984H32.1016C32.5079 25.4984 32.9143 25.7016 33.2191 25.9048L37.4857 30.1714C37.6889 30.3746 37.9937 30.3746 38.1968 30.1714L42.4635 25.9048C43.073 25.2952 43.8857 25.1937 44.4952 25.7016C44.9016 26.0064 45.1048 26.4127 45.1048 26.8191C45.1048 27.2254 45.0032 27.7333 44.6984 28.0381L38.9079 33.8286C38.2984 34.4381 37.3841 34.4381 36.7746 33.8286L32.4063 29.4603C32.3048 29.3587 32 29.2571 31.8984 29.3587C31.5937 29.4603 31.4921 29.6635 31.4921 29.8667V38.6032H28.4444V37.0794C28.4444 35.6571 27.327 34.5397 25.9048 34.5397C25.2952 34.5397 24.7873 34.7429 24.381 35.0476V29.7651C24.381 29.5619 24.2794 29.3587 24.0762 29.2571C23.873 29.1556 23.6698 29.2571 23.5683 29.3587L19.2 33.8286Z" fill="#181F4E"/>
<path d="M41.6508 51.6064C40.6349 50.9968 39.619 50.3873 38.6032 49.7778C38.4 49.6762 38.2984 49.5746 38.0952 49.473C37.8921 49.3714 37.7905 49.2698 37.5873 49.1683C34.946 47.6445 32.2032 46.2222 29.3587 45.0032C29.054 44.9016 28.7492 44.8 28.4444 44.6984C28.2413 44.5968 28.1397 44.5968 27.9365 44.4952C27.7333 44.3937 27.6317 44.3937 27.4286 44.2921C27.0222 44.0889 26.5143 43.9873 26.1079 43.7841C25.4984 43.581 24.8889 43.3778 24.381 43.1746C24.2794 43.1746 24.2794 43.1746 24.1778 43.073C24.0762 43.073 23.9746 42.9714 23.873 42.9714C23.6698 42.8698 23.5683 42.8698 23.3651 42.7683C11.4794 38.9079 5.68889 40.6349 5.48571 40.7365C5.38413 40.7365 5.18095 40.8381 5.18095 41.0413C5.18095 41.2445 5.18095 41.346 5.18095 41.4476C5.38413 41.7524 9.14286 48.7619 25.0921 55.3651C25.6 55.5683 26.1079 55.7714 26.7175 55.9746H29.7651C29.6635 55.9746 29.6635 55.9746 29.5619 55.873C28.1397 55.3651 26.819 54.9587 25.4984 54.3492C12.4952 48.9651 7.72064 43.2762 6.4 41.5492C8.22857 41.2445 13.8159 40.7365 23.3651 43.8857C23.5683 43.9873 23.6698 43.9873 23.873 44.0889C24.0762 44.1905 24.1778 44.1905 24.381 44.2921C25.3968 44.5968 26.4127 45.0032 27.4286 45.4095C27.6317 45.5111 27.7333 45.5111 27.9365 45.6127C28.1397 45.7143 28.2413 45.7143 28.4444 45.8159C28.6476 45.9175 28.7492 45.9175 28.9524 46.0191C31.8984 47.2381 34.8444 48.7619 37.5873 50.3873C37.7905 50.4889 37.8921 50.5905 38.0952 50.6921C38.2984 50.7937 38.4 50.8952 38.6032 50.9968C39.3143 51.4032 40.0254 51.9111 40.7365 52.3175C40.8381 52.4191 41.0413 52.5206 41.1429 52.6222C41.2444 52.7238 41.4476 52.8254 41.5492 52.927C41.5492 52.927 41.5492 52.927 41.6508 52.927C41.7524 53.0286 41.854 53.1302 41.9556 53.1302C43.1746 53.9429 44.2921 54.7556 45.3079 55.4667C45.5111 55.4667 45.7143 55.3651 46.019 55.2635C46.2222 55.1619 46.4254 55.1619 46.6286 55.0603C45.4095 54.2476 43.9873 53.2318 42.4635 52.2159C42.3619 52.1143 42.1587 52.0127 42.0571 51.9111C41.9556 51.7079 41.7524 51.7079 41.6508 51.6064Z" fill="#181F4E"/>
<path d="M47.1365 8.12699H48.254C53.6381 8.12699 58.9206 9.04127 64 10.7683V9.75238C58.9206 8.0254 53.6381 7.11111 48.254 7.11111H27.9365C21.3333 7.11111 15.0349 9.75238 10.3619 14.4254C10.1587 14.6286 10.1587 14.9333 10.3619 15.1365C10.4635 15.2381 10.5651 15.2381 10.7683 15.2381C10.9714 15.2381 11.073 15.2381 11.1746 15.1365C15.5429 10.6667 21.5365 8.12699 27.9365 8.12699C41.1429 8.12699 51.8095 18.8952 51.8095 32C51.8095 39.6191 48.254 46.4254 42.6667 50.7937V51.3016C42.6667 51.6064 42.5651 51.8095 42.5651 52.1143C48.7619 47.6444 52.8254 40.3302 52.8254 32C52.8254 20.7238 45.3079 11.1746 34.946 8.12699H40.127C53.3333 8.12699 64 18.8952 64 32V24.9905C61.6635 16.9651 55.2635 10.5651 47.1365 8.12699Z" fill="#181F4E"/>
<path d="M46.7302 54.9587C46.527 55.0603 46.3238 55.0603 46.1206 55.1619C45.9175 55.2635 45.7143 55.2635 45.4095 55.3651C43.6825 55.6698 41.9556 55.873 40.127 55.873H0V56.8889H40.0254C40.6349 56.8889 41.2444 56.8889 41.9556 56.7873C42.0571 56.7873 42.1587 56.7873 42.3619 56.7873C42.9714 56.6857 43.581 56.6857 44.0889 56.5841C44.1905 56.5841 44.2921 56.5841 44.3937 56.4825C45.0032 56.381 45.5111 56.2794 46.1206 56.1778H46.2222C46.3238 56.1778 46.3238 56.1778 46.4254 56.0762C46.6286 55.9746 46.8317 55.9746 47.0349 55.873C47.2381 55.7714 47.4413 55.7714 47.6444 55.6698C47.746 55.6698 47.8476 55.5683 47.9492 55.5683C48.0508 55.5683 48.1524 55.4667 48.254 55.4667C48.7619 55.2635 49.3714 55.0603 49.8794 54.8571C49.981 54.8571 50.0825 54.7556 50.1841 54.7556C50.6921 54.5524 51.2 54.3492 51.6064 54.0445C51.7079 54.0445 51.7079 53.9429 51.8095 53.9429C52.3175 53.6381 52.8254 53.3333 53.3333 53.0286C53.4349 52.927 53.5365 52.927 53.6381 52.8254C54.146 52.5206 54.5524 52.2159 55.0603 51.8095C55.1619 51.8095 55.1619 51.7079 55.2635 51.7079C55.6698 51.4032 56.0762 50.9968 56.4825 50.6921C56.5841 50.5905 56.5841 50.5905 56.6857 50.4889C57.0921 50.0825 57.4984 49.6762 57.9048 49.2698C58.0064 49.1683 58.1079 49.0667 58.2095 48.9651C58.6159 48.5587 59.0222 48.1524 59.327 47.6445L59.4286 47.5429C59.7333 47.1365 60.1397 46.7302 60.4444 46.2222C60.546 46.1206 60.546 46.0191 60.6476 45.9175C60.9524 45.4095 61.2571 45.0032 61.5619 44.4952C61.6635 44.3937 61.6635 44.2921 61.7651 44.1905C62.0698 43.6825 62.3746 43.1746 62.5778 42.6667C62.781 42.1587 63.0857 41.6508 63.2889 41.0413C63.2889 40.9397 63.3905 40.8381 63.3905 40.7365C63.5937 40.2286 63.7968 39.6191 64 39.1111V32C64 42.9714 56.6857 52.1143 46.7302 54.9587Z" fill="#181F4E"/>
</g>
<defs>
<clipPath id="clip0_4580_1189">
<rect width="64" height="64" fill="white"/>
</clipPath>
</defs>
</svg>
