<svg width="64" height="64" viewBox="0 0 64 64" fill="none" xmlns="http://www.w3.org/2000/svg">
<g clip-path="url(#clip0_4580_1683)">
<path d="M7.2127 26.2095C6.60317 26.6159 6.19683 27.327 6.19683 28.0381C6.09524 28.7492 6.4 29.4603 6.90794 30.0698L7.31429 29.7651C7.41587 29.4603 7.61905 29.4603 7.82222 29.5619L7.61905 29.3587C7.31429 29.054 7.11111 28.546 7.2127 28.1397C7.2127 27.7333 7.51746 27.327 7.82222 27.0222C8.0254 26.819 8.33016 26.7175 8.63492 26.7175C9.04127 26.7175 9.44762 26.9206 9.85397 27.2254L13.6127 30.9841C13.8159 30.8825 13.9175 30.781 14.019 30.6794C14.1206 30.5778 14.3238 30.4762 14.4254 30.3746L10.4635 26.4127C9.65079 25.6 8.22857 25.4984 7.2127 26.2095Z" fill="#181F4E"/>
<path d="M43.581 27.2254C44.4952 27.2254 45.4095 26.819 46.1206 26.2095C47.5429 24.7873 47.5429 22.5524 46.1206 21.2317C44.8 19.9111 42.4635 19.9111 41.1429 21.2317C40.4317 21.9429 40.127 22.7556 40.127 23.7714C40.127 24.7873 40.5333 25.6 41.1429 26.3111C41.7524 27.0222 42.6667 27.2254 43.581 27.2254ZM43.581 21.1302C44.2921 21.1302 44.9016 21.4349 45.4095 21.8413C46.4254 22.8571 46.4254 24.4825 45.4095 25.3968C44.4952 26.3111 42.7683 26.3111 41.854 25.3968C41.346 24.8889 41.1429 24.2794 41.1429 23.5683C41.1429 22.8571 41.4476 22.2476 41.854 21.7397C42.2603 21.2317 42.8698 21.1302 43.581 21.1302Z" fill="#181F4E"/>
<path d="M40.3302 26.9206L34.6413 21.2317C34.1333 20.7238 33.5238 20.5206 32.8127 20.5206H24.6857C23.9746 20.5206 23.2635 20.8254 22.7556 21.4349C22.2476 22.0444 22.0444 22.7556 22.146 23.4667C22.3492 24.6857 23.4667 25.6 24.7873 25.6H31.7968L33.6254 27.4286L26.2095 30.4762L25.4984 30.781C25.6 30.8825 25.8032 30.9841 25.9048 30.9841C25.9048 30.9841 26.0064 30.9841 26.1079 31.0857C26.3111 31.1873 26.4127 31.2889 26.6159 31.2889C26.819 31.3905 27.0222 31.3905 27.2254 31.4921L27.1238 31.1873L34.4381 28.1397L35.454 27.7333L36.8762 27.1238C36.8762 27.1238 36.8762 27.1238 36.9778 27.1238C37.5873 26.8191 38.2984 26.8191 38.9079 27.1238C39.2127 27.2254 39.4159 27.4286 39.7206 27.6317L43.3778 31.2889C43.6825 31.2889 43.8857 31.3905 44.1905 31.3905C44.3937 31.3905 44.5968 31.3905 44.9016 31.2889L40.3302 26.9206ZM36.4698 26.2095L34.6413 27.0222L32.4064 24.7873C32.3048 24.6857 32.2032 24.6857 32 24.6857H24.7873C23.9746 24.6857 23.2635 24.1778 23.1619 23.3651C23.0603 22.9587 23.2635 22.4508 23.4667 22.146C23.7714 21.8413 24.1778 21.6381 24.5841 21.6381H32.7111C33.1175 21.6381 33.5238 21.8413 33.8286 22.0444L37.7905 26.0064C37.5873 26.0064 37.2825 26.0064 37.0794 26.1079C36.9778 26.0064 36.673 26.1079 36.4698 26.2095Z" fill="#181F4E"/>
<path d="M38.1968 30.5778C38.0952 30.4762 37.8921 30.3746 37.6889 30.4762H37.5873C37.5873 30.4762 37.5873 30.4762 37.4857 30.4762C37.3841 30.5778 37.2825 30.781 37.3841 30.8825C37.3841 30.9841 37.4857 31.0857 37.4857 31.1873C37.5873 31.1873 37.6889 31.0857 37.7905 31.0857C37.8921 31.0857 37.8921 30.9841 37.9937 30.9841C38.1968 30.8825 38.2984 30.781 38.4 30.6794L38.1968 30.5778Z" fill="#181F4E"/>
<path d="M8.33016 33.1175C7.11111 32.6095 5.79048 33.1175 5.07937 34.1333C4.67302 34.7429 4.57143 35.5556 4.7746 36.2667C4.97778 36.9778 5.48571 37.5873 6.19683 37.7905L15.5429 41.6508C15.8476 41.7524 16.1524 41.854 16.5587 41.854C16.8635 41.854 17.1683 41.7524 17.5746 41.6508L28.8508 36.9778L39.0095 32.8127L42.4635 36.2667C42.9714 36.7746 43.581 36.9778 44.2921 36.9778H52.419C53.1302 36.9778 53.8413 36.673 54.3492 36.0635C54.8571 35.454 55.0603 34.7429 54.9587 34.0317C54.8571 33.3206 54.3492 32.6095 53.7397 32.3048C53.4349 32.4064 53.1302 32.4064 52.7238 32.5079C52.2159 32.5079 51.8095 32.5079 51.3016 32.5079C50.7937 32.4064 50.2857 32.2032 49.8794 32H46.527C46.1206 32.2032 45.6127 32.4064 45.1048 32.5079C44.9016 32.5079 44.6984 32.5079 44.4952 32.6095L44.8 32.9143C44.9016 33.0159 45.0032 33.0159 45.2064 33.0159H52.419C53.2317 33.0159 53.9429 33.5238 54.0444 34.3365C54.146 34.7429 53.9429 35.2508 53.7397 35.5556C53.4349 35.8603 53.0286 36.0635 52.6222 36.0635H44.4952C44.0889 36.0635 43.6825 35.8603 43.3778 35.6571L39.2127 31.4921C39.1111 31.5937 38.9079 31.6952 38.8064 31.7968C38.7048 31.8984 38.5016 31.8984 38.4 32H38.2984C38.0952 32.1016 37.9937 32.2032 37.7905 32.2032L29.054 35.8603L28.4444 34.6413C28.4444 34.6413 28.4444 34.6413 28.4444 34.5397L27.6317 32.5079C27.4286 32.5079 27.2254 32.5079 27.0222 32.4064C26.819 32.4064 26.6159 32.3048 26.4127 32.2032L26.7175 32.9143L27.0222 33.5238L27.1238 33.8286L28.0381 35.9619L28.1397 36.1651L27.9365 36.2667L25.1937 37.3841L23.9746 37.8921L17.2698 40.7365C16.8635 40.9397 16.4571 40.9397 16.1524 40.7365L6.80635 36.8762C6.4 36.673 6.09524 36.3683 5.89206 35.9619C5.79048 35.5556 5.79048 35.0476 6.09524 34.6413C6.4 34.2349 6.90794 33.9302 7.41587 33.9302C7.61905 33.9302 7.82222 33.9302 8.12698 34.0317L13.2063 36.1651L14.4254 36.673L16.3556 37.4857L16.6603 37.5873C16.7619 37.6889 16.9651 37.6889 17.0667 37.5873L17.3714 37.4857L18.5905 36.9778L23.7714 34.8444C23.873 34.7429 23.9746 34.7429 24.0762 34.5397C24.1778 34.3365 24.1778 34.2349 24.0762 34.1333C24.0762 34.0317 23.9746 33.9302 23.9746 33.9302C23.9746 33.727 23.9746 33.6254 23.9746 33.4222C23.9746 33.2191 24.0762 33.1175 24.0762 32.9143C24.2794 32.6095 24.4825 32.3048 24.8889 32.2032L25.6 31.8984C25.3968 31.7968 25.2952 31.6952 25.0921 31.5937C24.8889 31.4921 24.7873 31.3905 24.5841 31.1873H24.4825C23.873 31.4921 23.3651 31.8984 23.0603 32.6095C23.0603 32.7111 23.0603 32.8127 22.9587 32.9143H17.0667L15.2381 31.1873C15.1365 31.2889 14.9333 31.3905 14.8317 31.4921C14.7302 31.5937 14.527 31.6952 14.4254 31.7968L16.3556 33.727C16.4571 33.8286 16.5587 33.8286 16.7619 33.8286H22.7556V33.9302L16.6603 36.4698L13.6127 35.2508L10.7683 32.4064C10.4635 32.3048 10.0571 32.2032 9.75238 32.1016C9.14286 31.8984 8.63492 31.4921 8.12698 31.0857L7.61905 30.6794L11.1746 34.2349L8.33016 33.1175Z" fill="#181F4E"/>
<path d="M0 31.1873C1.93016 33.0159 5.18095 33.0159 7.11111 31.1873L7.51746 30.781L8.12698 31.1873C8.63492 31.5937 9.14286 32 9.75238 32.2032C10.0571 32.3048 10.4635 32.4064 10.7683 32.5079C11.9873 32.7111 13.3079 32.5079 14.4254 31.8984C14.527 31.7968 14.7302 31.6952 14.8317 31.5937C14.9333 31.4921 15.1365 31.3905 15.2381 31.2889C15.2381 31.2889 15.2381 31.2889 15.3397 31.2889L15.8476 30.8825L16.3556 31.2889C18.2857 33.1175 21.5365 33.1175 23.4667 31.2889L23.9746 30.8825L24.4825 31.2889C24.5841 31.3905 24.7873 31.4921 24.9905 31.6952C25.1937 31.7968 25.2952 31.8984 25.4984 32C25.8032 32.2032 26.1079 32.3048 26.5143 32.4064C26.7175 32.5079 26.9206 32.5079 27.1238 32.6095C27.327 32.6095 27.5302 32.6095 27.7333 32.7111C29.1556 32.8127 30.5778 32.4064 31.6952 31.3905L32.2032 30.9841L32.7111 31.3905C34.1333 32.7111 36.1651 33.1175 37.9937 32.5079C38.1968 32.4064 38.4 32.4064 38.5016 32.3048H38.6032C38.7048 32.2032 38.9079 32.2032 39.0095 32.1016C39.1111 32 39.3143 31.8984 39.4159 31.7968C39.619 31.6952 39.7206 31.5937 39.9238 31.4921L40.3302 31.0857L40.7365 31.4921C40.8381 31.5937 40.9397 31.5937 40.9397 31.6952C41.854 32.5079 43.073 32.9143 44.2921 32.9143C44.3937 32.9143 44.4952 32.9143 44.5968 32.9143C44.8 32.9143 45.0032 32.9143 45.2064 32.8127C45.7143 32.7111 46.2222 32.5079 46.6286 32.3048C47.0349 32.1016 47.4413 31.7968 47.8476 31.4921L48.3556 31.0857L48.8635 31.4921C49.1683 31.7968 49.5746 32.1016 50.0825 32.3048C50.5905 32.5079 50.9968 32.7111 51.5048 32.8127C51.9111 32.9143 52.419 32.9143 52.927 32.8127C53.2317 32.8127 53.5365 32.7111 53.9429 32.6095C54.7556 32.4063 55.4667 32 56.0762 31.3905L56.5841 30.9841L57.0921 31.3905C58.0064 32.3048 59.327 32.8127 60.6476 32.8127C61.9683 32.8127 63.2889 32.3048 64.2032 31.3905V29.7651L63.4921 30.3746C61.9683 31.7968 59.2254 31.7968 57.7016 30.3746L56.8889 29.5619C56.6857 29.3587 56.381 29.3587 56.1778 29.5619L55.3651 30.3746C53.7397 31.8984 51.2 31.8984 49.5746 30.3746L48.7619 29.5619C48.5587 29.3587 48.254 29.3587 48.0508 29.5619L47.2381 30.3746C46.6286 30.9841 45.8159 31.2889 45.0032 31.3905C44.8 31.3905 44.5968 31.4921 44.2921 31.4921C43.9873 31.4921 43.7841 31.4921 43.4794 31.3905C42.6667 31.2889 41.9556 30.8825 41.346 30.3746L40.9397 29.9683H40.8381L40.5333 29.6635C40.5333 29.6635 40.5333 29.6635 40.4317 29.6635C40.2286 29.5619 40.0254 29.5619 39.8222 29.6635L39.0095 30.4762C38.9079 30.5778 38.7048 30.6794 38.6032 30.781C38.5016 30.8825 38.2984 30.9841 38.1968 31.0857C38.0952 31.0857 38.0952 31.1873 37.9937 31.1873C37.8921 31.1873 37.7905 31.2889 37.6889 31.2889C36.2667 31.7968 34.5397 31.4921 33.3206 30.4762L32.5079 29.6635C32.3048 29.4603 32 29.4603 31.7968 29.6635L30.9841 30.4762C29.9683 31.3905 28.546 31.7968 27.327 31.4921C27.1238 31.4921 26.9206 31.3905 26.7175 31.2889C26.5143 31.1873 26.4127 31.1873 26.2095 31.0857C26.1079 31.0857 26.1079 31.0857 26.0064 30.9841C25.9048 30.8825 25.7016 30.781 25.6 30.781C25.4984 30.6794 25.2952 30.5778 25.1937 30.4762L24.381 29.6635C24.1778 29.4603 23.873 29.4603 23.6698 29.6635L22.8571 30.4762C21.2317 32 18.6921 32 17.0667 30.4762L16.254 29.6635C16.0508 29.4603 15.746 29.4603 15.5429 29.6635L14.7302 30.4762C14.7302 30.4762 14.6286 30.4762 14.6286 30.5778C14.527 30.6794 14.3238 30.781 14.2222 30.8825C14.1206 30.9841 13.9175 31.0857 13.8159 31.1873C12.2921 32 10.2603 31.7968 8.93968 30.5778L8.12698 29.7651C8.12698 29.7651 8.0254 29.6635 7.92381 29.6635C7.72064 29.5619 7.51746 29.6635 7.41587 29.7651L7.00952 30.0698L6.60317 30.4762C4.97778 32 2.4381 32 0.812698 30.4762L0 29.7651V31.1873Z" fill="#181F4E"/>
</g>
<defs>
<clipPath id="clip0_4580_1683">
<rect width="64" height="64" fill="white"/>
</clipPath>
</defs>
</svg>
