<svg width="64" height="64" viewBox="0 0 64 64" fill="none" xmlns="http://www.w3.org/2000/svg">
<path d="M44.6986 32.5079H43.9875L36.8764 39.619C36.7748 39.7206 36.7748 39.8222 36.7748 40.0253V49.2698C36.7748 50.0825 36.2668 50.7936 35.4541 50.8952C34.9462 50.9968 34.5399 50.7936 34.2351 50.5904C33.9303 50.2857 33.7272 49.8793 33.7272 49.473V39.3142C33.7272 38.9079 33.9303 38.5015 34.1335 38.1968L39.7208 32.6095H37.8922L38.0954 32.8126L33.4224 37.4857C32.9145 37.9936 32.7113 38.6031 32.7113 39.3142V49.473C32.7113 50.1841 33.016 50.8952 33.6256 51.4031C34.1335 51.8095 34.6414 52.0127 35.251 52.0127C35.3525 52.0127 35.5557 52.0127 35.6573 52.0127C36.8764 51.8095 37.7906 50.692 37.7906 49.3714V40.3301L39.924 38.1968V42.2603C39.924 42.9714 40.2287 43.5809 40.6351 44.0888L47.8478 51.3015C48.3557 51.8095 48.9652 52.0127 49.6764 52.0127C49.7779 52.0127 49.7779 52.0127 49.8795 52.0127C50.5906 51.9111 51.3018 51.6063 51.7081 50.9968C52.4192 49.9809 52.3176 48.5587 51.4033 47.6444L45.0033 41.2444V33.219C45.2065 33.0158 45.3081 32.9142 45.4097 32.7111H44.6986V32.5079ZM49.6764 50.8952C49.27 50.8952 48.7621 50.7936 48.4573 50.4888L41.2446 43.2761C40.9398 42.9714 40.8383 42.565 40.8383 42.1587V37.0793L43.8859 34.0317V41.2444C43.8859 41.346 43.9875 41.5492 43.9875 41.6507L50.4891 48.1523C51.0986 48.7619 51.2002 49.5746 50.6922 50.1841C50.4891 50.5904 50.1843 50.8952 49.6764 50.8952Z" fill="#181F4E"/>
<path d="M30.9843 18.0825C32.9145 18.0825 34.5399 16.4571 34.5399 14.5269C34.5399 12.5968 32.9145 10.9714 30.9843 10.9714C29.0541 10.9714 27.4287 12.5968 27.4287 14.5269C27.4287 16.4571 29.0541 18.0825 30.9843 18.0825ZM30.9843 11.9872C32.4065 11.9872 33.524 13.1047 33.524 14.5269C33.524 15.9492 32.4065 17.0666 30.9843 17.0666C29.5621 17.0666 28.4446 15.9492 28.4446 14.5269C28.4446 13.1047 29.6637 11.9872 30.9843 11.9872Z" fill="#181F4E"/>
<path d="M38.2986 31.492L32.3049 25.4984L33.4224 24.3809C33.524 24.3809 33.524 24.2793 33.524 24.1777C33.524 24.0761 33.524 23.873 33.4224 23.7714C33.2192 23.5682 33.016 23.5682 32.8129 23.6698C32.8129 23.6698 32.7113 23.6698 32.7113 23.7714L27.6319 28.8507C27.3272 29.1555 26.9208 29.2571 26.5145 29.2571H18.3875C17.9811 29.2571 17.4732 29.0539 17.27 28.7492C16.9652 28.4444 16.8637 27.9365 16.9652 27.5301C17.0668 26.819 17.7779 26.3111 18.5906 26.3111H25.8033C25.9049 26.3111 26.1081 26.2095 26.2097 26.2095L31.3906 21.0285C32.0002 20.419 32.8129 20.2158 33.6256 20.3174C34.1335 20.419 34.6414 20.6222 35.0478 21.0285L42.5652 28.546L39.5176 31.5936H40.9399L43.3779 29.1555L44.4954 30.273C44.4954 30.273 44.4954 30.273 44.4954 30.3746C44.8002 30.6793 44.9018 31.1873 44.9018 31.5936H45.9176C46.0192 30.8825 45.7145 30.1714 45.2065 29.5619L43.7843 28.1396L35.5557 20.2158C35.0478 19.7079 34.3367 19.4031 33.7272 19.3015C33.524 19.1999 33.3208 19.1999 33.1176 19.1999H26.0065L21.3335 14.5269C21.2319 14.4253 21.1303 14.3238 21.0287 14.1206C20.9272 14.019 20.724 13.9174 20.6224 13.8158C20.0129 13.4095 19.3018 13.3079 18.5906 13.5111H18.4891C18.3875 13.5111 18.2859 13.6126 18.1843 13.6126C18.0827 13.6126 17.9811 13.7142 17.8795 13.7142L17.6764 13.9174C17.5748 14.019 17.5748 14.019 17.4732 14.1206C17.4732 14.1206 17.4732 14.1206 17.4732 14.2222C17.4732 14.3238 17.3716 14.3238 17.3716 14.4253C17.27 14.5269 17.27 14.6285 17.1684 14.7301C17.1684 14.8317 17.0668 14.8317 17.0668 14.9333C17.0668 15.0349 16.9652 15.1365 16.9652 15.238C16.9652 15.3396 16.9652 15.3396 16.8637 15.4412C16.8637 15.5428 16.8637 15.6444 16.7621 15.746V15.9492C16.7621 16.0507 16.7621 16.1523 16.7621 16.2539C16.7621 16.3555 16.7621 16.3555 16.7621 16.4571C16.7621 16.5587 16.7621 16.6603 16.8637 16.7619C16.8637 16.8634 16.8637 16.8634 16.9652 16.965C16.9652 17.0666 17.0668 17.1682 17.1684 17.2698C17.1684 17.2698 17.1684 17.3714 17.27 17.3714C17.3716 17.473 17.4732 17.6761 17.5748 17.7777L23.3652 23.5682C23.8732 24.0761 24.4827 24.2793 25.1938 24.2793H26.7176L25.8033 25.1936H18.7938C17.4732 25.1936 16.3557 26.1079 16.1525 27.3269C16.051 28.038 16.2541 28.8507 16.7621 29.3587C17.27 29.9682 17.9811 30.273 18.6922 30.273H26.8192C27.5303 30.273 28.1399 29.9682 28.6478 29.5619L31.8986 26.3111L37.1811 31.5936H38.2986V31.492ZM18.0827 17.0666C17.9811 16.965 17.8795 16.7619 17.7779 16.5587C17.7779 16.5587 17.7779 16.5587 17.7779 16.4571C17.6764 16.2539 17.6764 16.1523 17.6764 15.9492V15.8476C17.6764 15.6444 17.6764 15.5428 17.7779 15.3396C17.7779 15.3396 17.7779 15.3396 17.7779 15.238C17.8795 15.0349 17.9811 14.9333 18.0827 14.8317L18.2859 14.6285C18.3875 14.5269 18.4891 14.5269 18.6922 14.4253C18.7938 14.4253 18.997 14.3238 19.2002 14.3238C19.4033 14.3238 19.6065 14.4253 19.8097 14.4253C20.0129 14.5269 20.1145 14.6285 20.216 14.7301C20.3176 14.8317 20.4192 15.0349 20.5208 15.1365C20.8256 15.746 20.724 16.3555 20.216 16.8634C19.7081 17.5746 18.6922 17.5746 18.0827 17.0666ZM24.8891 23.1619C24.4827 23.1619 24.0764 22.9587 23.7716 22.7555L19.4033 18.3873C19.9113 18.2857 20.4192 18.0825 20.8256 17.6761C21.2319 17.2698 21.4351 16.7619 21.5367 16.2539L25.2954 20.0126C25.397 20.1142 25.4986 20.1142 25.7018 20.1142H30.4764L27.4287 23.1619H24.8891Z" fill="#181F4E"/>
<path d="M56.5843 31.492H7.82239C7.51763 31.492 7.31445 31.6952 7.31445 32C7.31445 32.3047 7.51763 32.5079 7.82239 32.5079H43.9875H44.6986H56.5843C56.8891 32.5079 57.0922 32.3047 57.0922 32C57.0922 31.6952 56.8891 31.492 56.5843 31.492Z" fill="#181F4E"/>
<path d="M20.0129 22.6539C20.0129 21.8412 19.3018 21.1301 18.4891 21.1301C17.6764 21.1301 16.9652 21.8412 16.9652 22.6539C16.9652 23.4666 17.6764 24.1777 18.4891 24.1777C19.3018 24.1777 20.0129 23.4666 20.0129 22.6539ZM17.9811 22.6539C17.9811 22.3492 18.1843 22.146 18.4891 22.146C18.7938 22.146 18.997 22.3492 18.997 22.6539C18.997 22.9587 18.7938 23.1619 18.4891 23.1619C18.1843 23.1619 17.9811 22.9587 17.9811 22.6539Z" fill="#181F4E"/>
<path d="M21.0287 14.2222C21.1303 14.3238 21.2319 14.4253 21.3335 14.6285L22.0446 13.9174C22.6541 14.4253 23.3652 14.6285 24.1779 14.6285C25.0922 14.6285 26.0065 14.3238 26.7176 13.6126C27.4287 12.9015 27.7335 12.0888 27.7335 11.073C27.7335 10.1587 27.3272 9.24439 26.7176 8.53328C25.2954 7.11106 23.0605 7.11106 21.7399 8.53328C21.0287 9.24439 20.724 10.0571 20.724 11.073C20.724 11.8857 21.0287 12.5968 21.4351 13.2063L20.6224 14.019C20.724 13.9174 20.8256 14.019 21.0287 14.2222C21.0287 14.1206 21.0287 14.1206 21.0287 14.2222ZM22.451 9.1428C22.9589 8.63487 23.5684 8.43169 24.2795 8.43169C24.9906 8.43169 25.6002 8.63487 26.1081 9.1428C26.616 9.65074 26.8192 10.2603 26.8192 10.9714C26.8192 11.6825 26.5145 12.292 26.1081 12.7999C25.0922 13.8158 23.4668 13.8158 22.5526 12.7999C22.0446 12.292 21.8414 11.6825 21.8414 10.9714C21.6383 10.2603 21.943 9.54915 22.451 9.1428Z" fill="#181F4E"/>
</svg>
