<svg width="64" height="64" viewBox="0 0 64 64" fill="none" xmlns="http://www.w3.org/2000/svg">
<path d="M19.0986 18.0825C20.5209 16.6603 20.5209 14.4254 19.0986 13.1047C17.778 11.7841 15.4415 11.7841 14.1209 13.1047C13.4097 13.8158 13.105 14.6285 13.105 15.6444C13.105 16.5587 13.5113 17.473 14.1209 18.1841C14.832 18.8952 15.7463 19.2 16.6605 19.2C17.4732 19.0984 18.3875 18.692 19.0986 18.0825ZM14.0193 15.5428C14.0193 14.8317 14.324 14.2222 14.7304 13.7142C15.1367 13.2063 15.8478 13.0031 16.5589 13.0031C17.2701 13.0031 17.8796 13.3079 18.3875 13.7142C19.4034 14.7301 19.4034 16.3555 18.3875 17.2698C17.3716 18.2857 15.7463 18.2857 14.832 17.2698C14.2224 16.8635 14.0193 16.1523 14.0193 15.5428Z" fill="#181F4E"/>
<path d="M23.3653 16.5587C23.6701 16.2539 24.0764 16.1523 24.4828 16.1523H27.5304L29.4605 18.0825C29.5621 18.1841 29.6637 18.1841 29.8669 18.1841C30.0701 18.1841 30.1716 18.1841 30.2732 18.0825C30.3748 17.9809 30.4764 17.7777 30.3748 17.5746C30.3748 17.473 30.2732 17.473 30.2732 17.3714L26.0066 13.1047C25.397 12.4952 25.397 11.5809 26.0066 10.9714C26.6161 10.3619 27.5304 10.3619 28.1399 10.9714L33.7272 16.5587H33.6256C33.9304 16.7619 34.2351 17.1682 34.3367 17.5746C34.4383 18.0825 34.3367 18.4889 34.032 18.7936C33.7272 19.0984 33.3209 19.3016 32.9145 19.3016H26.8193C26.9209 19.3016 27.124 19.4031 27.2256 19.4031L28.1399 20.3174H33.0161C33.7272 20.3174 34.4383 20.0127 34.9463 19.4031C35.4542 18.7936 35.6574 18.0825 35.5558 17.3714C35.4542 16.8635 35.251 16.4571 34.9463 16.1523C34.9463 16.1523 34.9463 16.0508 34.8447 16.0508L28.6478 10.1587C27.632 9.14282 26.0066 9.14282 25.0923 10.1587C24.178 11.1746 24.0764 12.8 25.0923 13.7143L26.5145 15.1365H24.8891L23.3653 16.5587Z" fill="#181F4E"/>
<path d="M45.6129 13.0031L33.1177 25.6L33.524 26.0063C33.524 26.0063 33.6256 26.1079 33.6256 26.2095C33.6256 26.3111 33.6256 26.3111 33.6256 26.4127C33.6256 26.5143 33.6256 26.5143 33.6256 26.6158C33.6256 26.7174 33.524 26.7174 33.524 26.819L46.4256 13.9174C47.0351 13.3079 47.9494 13.3079 48.559 13.9174C48.8637 14.2222 48.9653 14.6285 48.9653 15.0349C48.9653 15.4412 48.7621 15.8476 48.559 16.1523L31.8986 32.5079C31.797 32.6095 31.797 32.7111 31.797 32.9143V52.419C31.797 53.2317 31.0859 53.9428 30.2732 53.9428C29.4605 53.9428 28.7494 53.2317 28.7494 52.419V32.9143C28.7494 32.8127 28.6478 32.6095 28.6478 32.5079L28.2415 32.1016C28.1399 32.2031 27.9367 32.3047 27.8351 32.4063C27.5304 32.5079 27.4288 32.5079 27.3272 32.5079C27.2256 32.5079 27.0224 32.5079 26.9209 32.4063L27.632 33.1174V52.419C27.632 53.8412 28.7494 54.9587 30.1716 54.9587C31.5939 54.9587 32.7113 53.8412 32.7113 52.419V33.1174L49.1685 16.6603C49.6764 16.1523 49.8796 15.5428 49.8796 14.8317C49.8796 14.1206 49.5748 13.5111 49.1685 13.0031C48.2542 12.0889 46.6288 12.0889 45.6129 13.0031Z" fill="#181F4E"/>
<path d="M18.7939 21.9428C18.8955 21.9428 18.8955 21.9428 18.7939 21.9428Z" fill="#181F4E"/>
<path d="M27.3272 32.5079C27.4288 32.5079 27.632 32.5079 27.7336 32.4063C27.8351 32.3047 28.0383 32.2031 28.1399 32.1016C28.6478 31.7968 29.2574 31.6952 29.9685 31.6952C30.6796 31.7968 31.4923 31.492 32.0002 30.9841C32.5082 30.4762 32.8129 29.6635 32.7113 28.9523C32.6097 28.0381 32.9145 27.2254 33.4224 26.7174C33.4224 26.7174 33.524 26.6158 33.524 26.5143C33.524 26.4127 33.524 26.4127 33.524 26.3111C33.524 26.2095 33.524 26.2095 33.524 26.1079C33.524 26.0063 33.4224 26.0063 33.4224 25.9047L26.8193 19.3016C26.7177 19.2 26.6161 19.2 26.4129 19.2H24.4828C23.6701 19.2 22.8574 18.5904 22.8574 17.7777C22.8574 17.3714 22.9589 16.8635 23.2637 16.5587L24.6859 15.1365C24.8891 14.9333 24.8891 14.6285 24.6859 14.4254C24.4828 14.2222 24.178 14.2222 23.9748 14.4254L15.4415 22.9587C15.2383 23.1619 15.2383 23.4666 15.4415 23.6698C15.5431 23.7714 15.6447 23.7714 15.8478 23.7714C15.9494 23.7714 16.051 23.7714 16.1526 23.6698L17.5748 22.2476C17.5748 22.2476 17.5748 22.2476 17.6764 22.2476C17.778 22.146 17.778 22.146 17.8796 22.146C17.8796 22.146 17.9812 22.146 17.9812 22.0444C18.0828 22.0444 18.0828 21.9428 18.1843 21.9428H18.2859C18.3875 21.9428 18.3875 21.9428 18.4891 21.9428H18.5907C18.6923 21.9428 18.6923 21.9428 18.7939 21.9428C18.7939 21.9428 18.7939 21.9428 18.8955 21.9428H18.997C19.0986 21.9428 19.0986 21.9428 19.2002 21.9428C19.2002 21.9428 19.2002 21.9428 19.3018 21.9428C19.9113 22.146 20.4193 22.7555 20.4193 23.5682V25.4984C20.4193 25.6 20.5209 25.8031 20.5209 25.9047L20.724 26.1079L21.5367 25.2952L21.4351 25.1936V23.4666C21.4351 22.4508 20.9272 21.6381 20.1145 21.1301C20.0129 21.0285 19.9113 21.0285 19.8097 20.9269C19.7082 20.9269 19.7082 20.9269 19.6066 20.8254C19.505 20.8254 19.4034 20.8254 19.4034 20.7238C19.4034 20.7238 19.4034 20.7238 19.3018 20.7238L22.1463 17.8793C22.3494 19.0984 23.4669 20.0127 24.7875 20.0127H26.5145L32.6097 26.1079C32.2034 26.7174 32.0002 27.4285 31.8986 28.1396C31.8986 28.3428 31.8986 28.546 31.8986 28.7492C31.8986 29.1555 31.797 29.6635 31.4923 29.9682C31.1875 30.273 30.6796 30.4762 30.2732 30.3746C30.0701 30.3746 29.8669 30.3746 29.6637 30.3746C28.851 30.3746 28.1399 30.6793 27.632 31.0857L25.1939 28.6476L24.3812 29.4603L27.124 32.2031C27.0224 32.5079 27.2256 32.5079 27.3272 32.5079Z" fill="#181F4E"/>
<path d="M26.2097 27.6317C26.7177 27.1238 26.9209 26.5143 26.9209 25.8031C26.9209 25.092 26.6161 24.4825 26.2097 23.9746C25.2955 23.0603 23.5685 23.0603 22.6542 23.9746L20.5209 26.1079L20.3177 25.9047C20.2161 25.8031 20.2161 25.7016 20.2161 25.4984V26.5143L18.2859 28.4444C18.0828 28.6476 18.0828 28.9523 18.2859 29.1555C18.3875 29.2571 18.5907 29.3587 18.7939 29.2571C18.8955 29.2571 18.8955 29.1555 18.997 29.1555L23.3653 24.7873C23.9748 24.1777 24.9907 24.1777 25.4986 24.7873C25.8034 25.092 25.905 25.4984 25.905 25.9047C25.905 26.3111 25.7018 26.7174 25.4986 27.0222L19.3018 33.219C19.3018 33.219 19.2002 33.219 19.2002 33.3206C19.0986 33.3206 19.0986 33.3206 18.997 33.3206C18.997 33.3206 18.8955 33.3206 18.7939 33.3206C18.6923 33.3206 18.6923 33.3206 18.5907 33.3206C18.4891 33.3206 18.4891 33.3206 18.3875 33.3206H18.2859C18.0828 33.3206 17.9812 33.219 17.778 33.1174C17.3716 32.8127 17.0669 32.3047 17.0669 31.6952V23.6698C17.0669 23.5682 17.0669 23.4666 17.0669 23.365C17.0669 23.2635 17.0669 23.2635 17.0669 23.1619V23.0603C17.0669 23.0603 17.0669 22.9587 17.1685 22.9587C17.1685 22.9587 17.1685 22.8571 17.2701 22.8571C17.2701 22.7555 17.3716 22.7555 17.3716 22.6539L17.4732 22.5523C17.4732 22.5523 17.4732 22.5523 17.3716 22.5523L15.9494 23.9746V31.6952C15.9494 32.6095 16.4574 33.4222 17.1685 33.8285C17.1685 33.8285 17.2701 33.8285 17.2701 33.9301C17.3716 33.9301 17.4732 34.0317 17.4732 34.0317C17.5748 34.0317 17.6764 34.1333 17.778 34.1333C17.8796 34.1333 17.8796 34.1333 17.9812 34.1333C17.9812 34.1333 17.9812 34.1333 18.0828 34.1333C18.1843 34.1333 18.3875 34.1333 18.4891 34.1333C18.4891 34.1333 18.4891 34.1333 18.5907 34.1333C18.6923 34.1333 18.8955 34.1333 18.997 34.1333C19.0986 34.1333 19.0986 34.1333 19.2002 34.1333C19.3018 34.1333 19.4034 34.1333 19.505 34.0317C19.6066 34.0317 19.6066 33.9301 19.7082 33.9301C19.8097 33.9301 19.9113 33.8285 19.9113 33.8285C20.0129 33.8285 20.0129 33.727 20.1145 33.727L20.2161 33.6254C20.2161 33.6254 20.2161 33.6254 20.3177 33.5238C20.3177 33.5238 20.4193 33.5238 20.4193 33.4222L26.2097 27.6317Z" fill="#181F4E"/>
</svg>
