<svg width="64" height="64" viewBox="0 0 64 64" fill="none" xmlns="http://www.w3.org/2000/svg">
<path d="M24.6854 25.1936C25.5997 25.1936 26.514 24.8889 27.2251 24.1778C28.6473 22.7555 28.6473 20.5206 27.2251 19.2C25.9045 17.8793 23.5679 17.8793 22.2473 19.2C21.5362 19.9111 21.2314 20.7238 21.2314 21.7397C21.2314 22.6539 21.6378 23.5682 22.2473 24.2793C22.8568 24.7873 23.7711 25.1936 24.6854 25.1936ZM22.8568 19.8095C23.3648 19.3016 23.9743 19.0984 24.6854 19.0984C25.3965 19.0984 26.006 19.4032 26.514 19.8095C27.5298 20.8254 27.5298 22.4508 26.514 23.3651C25.4981 24.3809 23.8727 24.3809 22.9584 23.3651C22.4505 22.8571 22.2473 22.2476 22.2473 21.5365C22.1457 20.927 22.3489 20.3174 22.8568 19.8095Z" fill="#181F4E"/>
<path d="M39.4156 9.65077C39.9235 9.65077 40.4314 9.4476 40.8378 9.04125C41.6505 8.22855 41.6505 7.0095 40.8378 6.1968C40.0251 5.38411 38.7045 5.38411 37.9933 6.1968C37.1806 7.0095 37.1806 8.22855 37.9933 9.04125C38.2981 9.4476 38.806 9.65077 39.4156 9.65077ZM38.7045 6.90792C38.9076 6.70474 39.1108 6.60315 39.4156 6.60315C39.7203 6.60315 39.9235 6.70474 40.1267 6.90792C40.533 7.31426 40.533 7.92379 40.1267 8.33014C39.7203 8.73649 39.1108 8.73649 38.7045 8.33014C38.2981 7.92379 38.2981 7.31426 38.7045 6.90792Z" fill="#181F4E"/>
<path d="M15.8473 27.0222V22.8571C17.8791 22.5524 19.4029 20.419 19.4029 17.8793C19.4029 15.0349 17.5743 12.8 15.3394 12.8C13.1045 12.8 11.2759 15.0349 11.2759 17.8793C11.2759 20.419 12.7997 22.5524 14.8314 22.8571V27.0222C15.0346 27.0222 15.1362 26.9206 15.3394 26.9206C15.5425 26.9206 15.6441 27.0222 15.8473 27.0222ZM12.2918 17.8793C12.2918 15.6444 13.6124 13.8159 15.3394 13.8159C17.0664 13.8159 18.387 15.6444 18.387 17.8793C18.387 20.1143 17.0664 21.9428 15.3394 21.9428C13.6124 21.9428 12.2918 20.1143 12.2918 17.8793Z" fill="#181F4E"/>
<path d="M15.8473 32C15.7457 32 15.7457 32 15.6441 32C15.5425 32 15.441 32 15.3394 32C15.1362 32 15.0346 32 14.8314 31.8984V33.5238C14.8314 33.8285 15.0346 34.0317 15.3394 34.0317C15.6441 34.0317 15.8473 33.8285 15.8473 33.5238V32Z" fill="#181F4E"/>
<path d="M41.5489 32L34.7425 25.1936L45.9171 14.019C46.4251 13.5111 46.6283 12.9016 46.6283 12.1905C46.6283 11.4793 46.3235 10.8698 45.9171 10.3619C45.0029 9.4476 43.2759 9.4476 42.3616 10.3619L21.1298 31.6952L17.1679 27.7333C17.1679 27.7333 17.0664 27.7333 17.0664 27.6317C16.7616 27.327 16.3552 27.1238 15.8473 27.0222C15.6441 27.0222 15.5425 26.9206 15.3394 26.9206C15.1362 26.9206 15.0346 26.9206 14.8314 27.0222C14.3235 27.1238 13.9171 27.327 13.6124 27.6317C13.6124 27.6317 13.6124 27.6317 13.5108 27.7333C13.3076 27.9365 13.1045 28.2412 13.0029 28.546C12.9013 28.6476 12.9013 28.8508 12.9013 28.9524V29.0539C12.9013 29.2571 12.7997 29.3587 12.7997 29.5619C12.7997 29.7651 12.7997 29.8666 12.9013 30.0698V30.1714C12.9013 30.273 13.0029 30.4762 13.0029 30.5778C13.1045 30.7809 13.206 30.8825 13.3076 31.0857L13.4092 31.1873C13.5108 31.2889 13.5108 31.2889 13.6124 31.3905L14.933 32.7111V32.1016C15.1362 32.1016 15.2378 32.2032 15.441 32.2032C15.5425 32.2032 15.6441 32.2032 15.7457 32.2032C15.8473 32.2032 15.8473 32.2032 15.9489 32.2032C16.9648 32 17.7775 31.0857 17.9806 30.0698L20.8251 32.9143C21.0283 33.1174 21.333 33.1174 21.5362 32.9143L42.9711 11.1746C43.5806 10.5651 44.5965 10.5651 45.1045 11.1746C45.4092 11.4793 45.5108 11.8857 45.5108 12.292C45.5108 12.6984 45.3076 13.1047 45.1045 13.4095L33.6251 24.8889C33.4219 25.092 33.4219 25.3968 33.6251 25.6L40.4314 32.4063L35.4537 37.3841L28.6473 30.5778C28.5457 30.4762 28.3425 30.4762 28.241 30.4762C28.1394 30.4762 27.9362 30.4762 27.8346 30.5778L22.0441 36.3682C21.4346 36.9778 20.5203 36.9778 19.9108 36.3682L15.7457 32.2032V33.6254L19.1997 37.0793C20.2156 38.0952 21.841 38.0952 22.7552 37.0793L28.1394 31.6952L35.6568 39.2127V47.2381L29.2568 53.6381C28.241 54.6539 28.241 56.2793 29.2568 57.1936C29.7648 57.7016 30.3743 57.9047 31.0854 57.9047C31.7965 57.9047 32.406 57.7016 32.914 57.1936L40.1267 49.9809C40.6346 49.473 40.8378 48.8635 40.8378 48.1524V39.0095L41.1425 38.7047L45.8156 43.3778V52.419C45.8156 53.7397 46.7298 54.8571 47.9489 55.0603C48.66 55.1619 49.4727 54.9587 49.9806 54.4508C50.5902 53.9428 50.8949 53.2317 50.8949 52.5206V42.3619C50.8949 41.6508 50.5902 41.0412 50.1838 40.5333L41.5489 32ZM15.8473 30.9841C15.6441 31.0857 15.5425 31.0857 15.3394 31.0857C15.1362 31.0857 15.0346 31.0857 14.8314 30.9841C14.5267 30.8825 14.2219 30.6793 14.1203 30.3746C14.1203 30.273 14.0187 30.273 14.0187 30.1714C14.0187 30.0698 13.9171 30.0698 13.9171 29.9682C13.9171 29.9682 13.9171 29.9682 13.9171 29.8666C13.9171 29.7651 13.9171 29.6635 13.9171 29.5619C13.9171 29.4603 13.9171 29.3587 13.9171 29.2571C13.9171 29.2571 13.9171 29.2571 13.9171 29.1555C13.9171 29.0539 13.9171 28.9524 14.0187 28.9524C14.0187 28.8508 14.1203 28.7492 14.1203 28.7492C14.2219 28.6476 14.2219 28.6476 14.3235 28.546C14.5267 28.3428 14.6283 28.2412 14.933 28.2412C15.1362 28.1397 15.2378 28.1397 15.441 28.1397C15.6441 28.1397 15.7457 28.1397 15.9489 28.2412C16.1521 28.3428 16.3552 28.4444 16.5584 28.546C16.8632 28.8508 16.9648 29.1555 16.9648 29.6635C16.8632 30.1714 16.4568 30.7809 15.8473 30.9841ZM49.8791 52.6222C49.8791 53.0285 49.6759 53.5365 49.3711 53.7397C49.0664 54.0444 48.5584 54.146 48.1521 54.0444C47.441 53.9428 46.933 53.2317 46.933 52.419V43.1746C46.933 43.073 46.8314 42.8698 46.8314 42.7682L41.6505 37.5873C41.4473 37.3841 41.1425 37.3841 40.9394 37.5873L40.0251 38.6032C39.9235 38.7047 39.9235 38.8063 39.9235 39.0095V48.3555C39.9235 48.7619 39.7203 49.1682 39.5172 49.473L32.3045 56.6857C31.6949 57.2952 30.7806 57.2952 30.1711 56.6857C29.5616 56.0762 29.5616 55.1619 30.1711 54.5524L36.7743 47.9492C36.8759 47.8476 36.8759 47.746 36.8759 47.5428V39.1111C36.8759 39.0095 36.7743 38.8063 36.7743 38.7047L36.2664 38.1968L41.2441 33.219L49.4727 41.4476C49.7775 41.7524 49.8791 42.1587 49.8791 42.5651V52.6222Z" fill="#181F4E"/>
</svg>
