<svg width="64" height="64" viewBox="0 0 64 64" fill="none" xmlns="http://www.w3.org/2000/svg">
<g clip-path="url(#clip0_4580_1157)">
<path d="M8.12698 53.5365L0 51.9111V52.927L7.92381 54.5524C15.9492 56.1778 23.9746 56.8889 32 56.8889C40.0254 56.8889 48.0508 56.0762 56.0762 54.5524L64 52.927V51.9111L55.873 53.5365C40.0254 56.6857 23.9746 56.6857 8.12698 53.5365Z" fill="#181F4E"/>
<path d="M41.1429 7.11111H19.8095C18.3873 7.11111 17.2698 8.33016 17.2698 9.6508C17.2698 11.073 18.3873 12.1905 19.8095 12.1905H25.3968C25.3968 12.8 25.7016 13.4095 26.1079 13.9175L37.5873 25.3968C37.6889 25.4984 37.7905 25.6 37.8921 25.7016L37.9937 25.8032C38.1968 25.9048 38.4 26.1079 38.7048 26.2095C38.9079 26.3111 39.1111 26.3111 39.3143 26.4127H39.4159C39.619 26.4127 39.9238 26.5143 40.127 26.5143C42.0571 26.5143 43.6825 24.8889 43.6825 22.9587V9.75238C43.6825 8.33016 42.5651 7.11111 41.1429 7.11111ZM42.6667 22.8571C42.6667 24.2794 41.5492 25.3968 40.127 25.3968H40.0254C39.9238 25.3968 39.7206 25.3968 39.619 25.3968C39.619 25.3968 39.6191 25.3968 39.5175 25.3968C39.4159 25.3968 39.2127 25.2952 39.1111 25.2952C39.0095 25.1937 38.9079 25.1937 38.7048 25.0921L38.6032 24.9905C38.5016 24.8889 38.5016 24.8889 38.4 24.7873C38.4 24.7873 38.2984 24.7873 38.2984 24.6857L26.819 13.2064C26.5143 12.9016 26.4127 12.5968 26.4127 12.1905C26.4127 11.9873 26.4127 11.8857 26.5143 11.6825C26.5143 11.4794 26.6159 11.3778 26.819 11.1746C26.819 11.073 26.9206 11.073 26.9206 10.9714C27.5302 10.3619 28.4444 10.3619 29.054 10.9714L38.4 20.3175C38.5016 20.4191 38.7048 20.5206 38.9079 20.4191C39.0095 20.4191 39.1111 20.3175 39.1111 20.3175C39.3143 20.1143 39.3143 19.8095 39.1111 19.6064L37.5873 18.1841V12.1905H42.6667V22.8571ZM31.5937 12.1905H36.5714V17.1683L31.5937 12.1905ZM42.6667 11.1746H30.5778L29.6635 10.2603C28.6476 9.24445 27.0222 9.24445 26.1079 10.2603C25.8032 10.5651 25.7016 10.8698 25.4984 11.1746H19.7079C18.8952 11.1746 18.1841 10.4635 18.1841 9.6508C18.2857 8.8381 18.9968 8.12699 19.8095 8.12699H41.1429C41.9556 8.12699 42.6667 8.8381 42.6667 9.6508V11.1746Z" fill="#181F4E"/>
<path d="M31.8984 26.1079C31.1873 26.8191 30.8825 27.6318 30.8825 28.6476C30.8825 29.5619 31.2889 30.4762 31.8984 31.1873C32.5079 31.8984 33.4222 32.2032 34.4381 32.2032C35.3524 32.2032 36.2667 31.7968 36.9778 31.1873C37.6889 30.5778 37.9937 29.6635 37.9937 28.6476C37.9937 27.7333 37.5873 26.8191 36.9778 26.1079C35.5556 24.7873 33.219 24.7873 31.8984 26.1079ZM36.1651 30.4762C35.2508 31.3905 33.5238 31.3905 32.6095 30.4762C32.1016 29.9683 31.8984 29.3587 31.8984 28.6476C31.8984 27.9365 32.2032 27.327 32.6095 26.8191C33.1175 26.3111 33.727 26.1079 34.4381 26.1079C35.1492 26.1079 35.7587 26.3111 36.2667 26.8191C36.7746 27.327 36.9778 27.9365 36.9778 28.6476C36.8762 29.3587 36.673 29.9683 36.1651 30.4762Z" fill="#181F4E"/>
</g>
<defs>
<clipPath id="clip0_4580_1157">
<rect width="64" height="64" fill="white"/>
</clipPath>
</defs>
</svg>
