<svg width="64" height="64" viewBox="0 0 64 64" fill="none" xmlns="http://www.w3.org/2000/svg">
<g clip-path="url(#clip0_4580_1626)">
<path d="M11.4794 43.1746C11.4794 43.8857 11.7841 44.4952 12.1905 45.0032C12.6984 45.5111 13.3079 45.7143 14.019 45.7143C14.7302 45.7143 15.3397 45.4095 15.8476 45.0032L24.8889 35.9619C24.7873 35.7587 24.7873 35.6571 24.6857 35.454C24.5841 35.2508 24.5841 35.1492 24.4825 34.946L15.1365 44.292C14.527 44.9016 13.5111 44.9016 13.0032 44.292C12.6984 43.9873 12.5968 43.5809 12.5968 43.1746C12.5968 42.7682 12.8 42.3619 13.0032 42.0571L22.654 32.4063C22.5524 32.3047 22.4508 32.2032 22.2476 32.1016C22.0444 32 22.0444 31.8984 21.8413 31.7968L12.1905 41.4476C11.7841 41.854 11.4794 42.5651 11.4794 43.1746Z" fill="#181F4E"/>
<path d="M23.3651 31.6952L25.6 29.4603C25.7016 29.5619 25.8032 29.7651 25.9048 29.8667L27.7333 31.6952L25.1937 34.2349C25.2952 34.4381 25.3968 34.5397 25.3968 34.7428C25.4984 34.946 25.4984 35.0476 25.6 35.2508L28.3429 32.5079L31.8984 36.0635L26.5143 41.4476C26.0064 41.9555 25.8032 42.5651 25.8032 43.2762C25.8032 43.9873 26.1079 44.5968 26.5143 45.1048C27.0222 45.6127 27.6317 45.8159 28.3429 45.8159C29.054 45.8159 29.6635 45.5111 30.1714 45.1048L35.5556 39.619L36.5714 38.6032L37.3841 37.7905C38.2984 36.8762 38.4 35.5555 37.6889 34.5397C37.5873 34.4381 37.4857 34.2349 37.3841 34.1333L32.7111 29.4603L39.2127 22.9587L42.4635 26.2095C42.9714 26.7174 43.581 26.9206 44.2921 26.9206C45.0032 26.9206 45.6127 26.6159 46.1206 26.2095L51.9111 20.419C52.927 19.4032 52.927 17.7778 51.9111 16.8635C50.8952 15.8476 49.2698 15.8476 48.3556 16.8635L44.3937 20.8254L40.4317 16.8635L34.5397 11.2762C33.6254 10.3619 31.8984 10.3619 30.9841 11.2762L25.1937 17.0667C24.1778 18.0825 24.1778 19.7079 25.1937 20.6222C25.7016 21.1301 26.3111 21.3333 27.0222 21.3333C27.7333 21.3333 28.3429 21.0286 28.8508 20.6222L32.8127 16.6603L34.2349 18.0825L26.0064 26.3111C25.3968 26.9206 25.1937 27.7333 25.2952 28.4444L22.7556 30.9841C22.8571 31.0857 22.9587 31.1873 23.1619 31.2889C23.3651 31.3905 23.2635 31.5936 23.3651 31.6952ZM32.4064 15.5428L28.0381 19.8095C27.7333 20.1143 27.4286 20.3174 27.0222 20.3174C26.6159 20.3174 26.2095 20.1143 25.9048 19.9111C25.2952 19.3016 25.2952 18.3873 25.9048 17.7778L31.6952 11.9873C32.3048 11.3778 33.3206 11.3778 33.8286 11.9873L37.8921 16.0508C36.9778 16.0508 35.9619 16.3555 35.2508 17.0667L34.946 17.3714L33.1175 15.5428C32.9143 15.3397 32.6095 15.3397 32.4064 15.5428ZM35.2508 18.3873L35.9619 17.6762C36.8762 16.7619 38.6032 16.7619 39.5175 17.6762L43.8857 22.0444C44.0889 22.2476 44.3937 22.2476 44.5968 22.0444L48.8635 17.7778C49.473 17.1682 50.3873 17.1682 50.9968 17.7778C51.6064 18.3873 51.6064 19.3016 50.9968 19.9111L45.2064 25.7016C44.9016 26.0063 44.4952 26.1079 44.0889 26.1079C43.6825 26.1079 43.2762 25.9047 42.9714 25.7016L39.9238 22.3492L37.9937 20.419C37.9937 20.419 37.8921 20.419 37.8921 20.3174C37.6889 20.2159 37.4857 20.2159 37.2825 20.419C37.0794 20.6222 37.0794 20.927 37.2825 21.1301L38.4 22.2476L31.8984 28.7492L28.4444 25.2952L34.946 18.7936L35.2508 18.3873ZM26.6159 27.0222L27.7333 25.9047L36.7746 34.946C37.0794 35.2508 37.181 35.6571 37.181 35.9619C37.181 36.2667 37.0794 36.4698 36.9778 36.7746C36.8762 36.8762 36.8762 36.9778 36.7746 37.0793L29.6635 44.1905C29.054 44.8 28.0381 44.8 27.5302 44.1905C27.2254 43.8857 27.1238 43.4794 27.1238 43.073C27.1238 42.6667 27.327 42.2603 27.5302 41.9555L33.3206 36.1651C33.5238 35.9619 33.5238 35.6571 33.3206 35.454L28.9524 31.0857L28.4444 30.9841L26.6159 29.1555C26.5143 29.054 26.4127 28.8508 26.3111 28.7492C26.2095 28.546 26.2095 28.3428 26.2095 28.1397C26.2095 27.7333 26.3111 27.327 26.6159 27.0222Z" fill="#181F4E"/>
<path d="M37.6889 34.6413C39.3143 31.5936 42.5651 29.5619 46.2222 29.5619C51.5048 29.5619 55.873 33.9301 55.873 39.2127C55.873 44.4952 51.5048 48.7619 46.2222 48.7619C40.9397 48.7619 36.5714 44.4952 36.5714 39.1111C36.5714 38.9079 36.5714 38.7047 36.5714 38.6032L35.5556 39.619C35.7587 45.3079 40.4317 49.7778 46.2222 49.7778C52.1143 49.7778 56.8889 45.0032 56.8889 39.1111C56.8889 33.219 52.1143 28.4444 46.2222 28.4444C42.2603 28.4444 38.8064 30.5778 36.9778 33.8286L37.3841 34.2349C37.4857 34.3365 37.5873 34.4381 37.6889 34.6413Z" fill="#181F4E"/>
<path d="M63.2889 54.7555C61.7651 56.1778 59.0222 56.1778 57.4984 54.7555L56.6857 53.9428C56.4825 53.7397 56.1778 53.7397 55.9746 53.9428L55.1619 54.7555C53.5365 56.2793 50.9968 56.2793 49.3714 54.7555L48.5587 53.9428C48.3556 53.7397 48.0508 53.7397 47.8476 53.9428L47.0349 54.7555C45.4095 56.2793 42.8698 56.2793 41.2444 54.7555L40.4317 53.9428C40.2286 53.7397 39.9238 53.7397 39.7206 53.9428L38.9079 54.7555C37.2825 56.2793 34.7429 56.2793 33.1175 54.7555L32.3048 53.9428C32.1016 53.7397 31.7968 53.7397 31.5937 53.9428L30.781 54.7555C29.1556 56.2793 26.6159 56.2793 24.9905 54.7555L24.1778 53.9428C23.9746 53.7397 23.6698 53.7397 23.4667 53.9428L22.654 54.7555C21.0286 56.2793 18.4889 56.2793 16.8635 54.7555L16.0508 53.9428C15.8476 53.7397 15.5429 53.7397 15.3397 53.9428L14.527 54.7555C12.9016 56.2793 10.3619 56.2793 8.73651 54.7555L7.92381 53.9428C7.72064 53.7397 7.41587 53.7397 7.2127 53.9428L6.4 54.7555C4.7746 56.2793 2.23492 56.2793 0.609524 54.7555L0 54.146V55.5682C1.93016 57.3968 5.18095 57.3968 7.11111 55.5682L7.61905 55.1619L8.12698 55.5682C10.0571 57.3968 13.3079 57.3968 15.2381 55.5682L15.746 55.1619L16.254 55.5682C18.1841 57.3968 21.4349 57.3968 23.3651 55.5682L23.873 55.1619L24.381 55.5682C26.3111 57.3968 29.5619 57.3968 31.4921 55.5682L32 55.1619L32.5079 55.5682C34.4381 57.3968 37.6889 57.3968 39.619 55.5682L40.127 55.1619L40.6349 55.5682C42.5651 57.3968 45.8159 57.3968 47.746 55.5682L48.254 55.1619L48.7619 55.5682C50.6921 57.3968 53.9429 57.3968 55.873 55.5682L56.381 55.1619L56.8889 55.5682C57.8032 56.4825 59.1238 56.9905 60.4444 56.9905C61.7651 56.9905 63.0857 56.4825 64 55.5682V54.146L63.2889 54.7555Z" fill="#181F4E"/>
<path d="M15.746 49.7778C21.6381 49.7778 26.4127 45.0032 26.4127 39.1111C26.4127 37.6889 26.1079 36.3682 25.6 35.1492C25.4984 34.946 25.4984 34.8444 25.3968 34.6413C25.2952 34.4381 25.2952 34.3365 25.1937 34.1333C24.6857 33.219 24.0762 32.4063 23.3651 31.5936C23.2635 31.492 23.1619 31.3905 22.9587 31.2889C22.7556 31.1873 22.7556 31.0857 22.5524 30.9841C20.8254 29.4603 18.3873 28.4444 15.746 28.4444C9.85397 28.4444 5.07937 33.219 5.07937 39.1111C5.07937 45.0032 9.85397 49.7778 15.746 49.7778ZM15.746 29.4603C18.0825 29.4603 20.2159 30.273 21.9429 31.6952C22.0444 31.7968 22.146 31.8984 22.3492 32C22.5524 32.1016 22.5524 32.2032 22.7556 32.3047C23.4667 33.0159 24.0762 33.9301 24.4825 34.8444C24.5841 35.0476 24.6857 35.1492 24.6857 35.3524C24.7873 35.5555 24.7873 35.6571 24.8889 35.8603C25.1937 36.8762 25.3968 37.892 25.3968 39.0095C25.3968 44.292 21.0286 48.6603 15.746 48.6603C10.4635 48.6603 6.09524 44.4952 6.09524 39.1111C6.09524 33.727 10.4635 29.4603 15.746 29.4603Z" fill="#181F4E"/>
<path d="M43.4794 17.2698C44.3937 17.2698 45.3079 16.9651 46.019 16.254C47.4413 14.8317 47.4413 12.5968 46.019 11.2762C44.5968 9.95554 42.3619 9.85396 40.9397 11.2762C40.2286 11.9873 39.9238 12.8 39.9238 13.8159C39.9238 14.7301 40.3302 15.6444 40.9397 16.3555C41.6508 16.9651 42.5651 17.2698 43.4794 17.2698ZM43.4794 11.1746C44.0889 11.1746 44.8 11.3778 45.3079 11.8857C46.3238 12.9016 46.3238 14.527 45.3079 15.4413C44.2921 16.4571 42.6667 16.4571 41.7524 15.4413C41.2444 14.9333 41.0413 14.3238 41.0413 13.6127C41.0413 12.9016 41.346 12.2921 41.7524 11.7841C42.1587 11.4794 42.8698 11.1746 43.4794 11.1746Z" fill="#181F4E"/>
</g>
<defs>
<clipPath id="clip0_4580_1626">
<rect width="64" height="64" fill="white"/>
</clipPath>
</defs>
</svg>
