<svg width="64" height="64" viewBox="0 0 64 64" fill="none" xmlns="http://www.w3.org/2000/svg">
<path d="M46.0189 15.3397C45.4093 15.035 44.6982 15.035 44.0887 15.3397L23.8728 23.6699L21.7395 18.4889C21.4347 17.8794 21.0284 17.3715 20.3173 17.0667C19.7078 16.7619 18.9966 16.7619 18.3871 17.0667C17.7776 17.3715 17.2697 17.7778 16.9649 18.4889C16.6601 19.0984 16.6601 19.8096 16.9649 20.4191L20.1141 27.9365C20.5205 28.9524 21.4347 29.4603 22.4506 29.4603C22.7554 29.4603 23.0601 29.3588 23.4665 29.2572L27.6316 27.5302L31.2887 36.4699L32.1014 38.2984L29.5617 44.3937L21.3332 47.9492C20.1141 48.4572 19.403 49.8794 19.8093 51.0984C20.0125 51.8096 20.5205 52.3175 21.13 52.6223C21.4347 52.8254 21.8411 52.8254 22.2474 52.8254C22.5522 52.8254 22.9585 52.7238 23.2633 52.6223L32.5078 48.7619C33.1173 48.4572 33.6252 48.0508 33.93 47.3397L35.4538 43.581L36.5712 46.3238L33.1173 54.8572C32.8125 55.4667 32.8125 56.1778 33.1173 56.7873C33.422 57.3969 33.8284 57.9048 34.5395 58.2096C34.8443 58.3111 35.149 58.4127 35.5554 58.4127C35.8601 58.4127 36.1649 58.3111 36.4697 58.2096C37.0792 57.9048 37.5871 57.4984 37.8919 56.7873L41.7522 47.4413C42.057 46.8318 42.057 46.1207 41.7522 45.5111L38.1966 36.9778C38.5014 35.9619 38.3998 34.8445 37.9935 33.8286L34.3363 24.8889L46.1205 20.0127C46.73 19.708 47.2379 19.3016 47.5427 18.5905C47.8474 17.981 47.8474 17.2699 47.5427 16.6603C47.1363 16.1524 46.6284 15.6445 46.0189 15.3397ZM40.7363 47.035L36.876 56.381C36.6728 56.7873 36.4697 57.0921 36.0633 57.1937C35.657 57.3969 35.2506 57.2953 34.9459 57.1937C34.5395 56.9905 34.2347 56.7873 34.1332 56.381C33.93 55.9746 34.0316 55.5683 34.1332 55.2635L37.6887 46.6286C37.7903 46.527 37.7903 46.3238 37.6887 46.2223L36.0633 42.3619L37.6887 38.4L40.7363 45.9175C40.9395 46.2223 40.9395 46.6286 40.7363 47.035ZM33.0157 47.035C32.8125 47.4413 32.6093 47.7461 32.203 47.8476L22.7554 51.8096C22.349 52.0127 21.9427 52.0127 21.5363 51.8096C21.13 51.6064 20.8252 51.3016 20.7236 50.8953C20.5205 50.1842 20.9268 49.3715 21.7395 48.9651L30.2728 45.4096C30.3744 45.308 30.476 45.308 30.5776 45.1048L33.3205 38.6032C33.422 38.5016 33.3205 38.1969 33.2189 38.0953L32.5078 36.673L33.0157 36.4699L33.6252 36.1651L36.0633 35.1492L37.0792 34.6413C37.1808 34.8445 37.1808 35.0477 37.1808 35.2508C37.1808 35.5556 37.1808 35.8603 37.1808 36.1651C37.1808 36.4699 37.0792 36.7746 36.9776 36.9778C36.9776 37.0794 36.9776 37.0794 36.876 37.181L35.3522 40.9397L34.7427 42.3619L33.0157 47.035ZM34.5395 34.7429L32.203 35.7588L28.749 27.327L30.1712 26.7175C30.2728 26.7175 30.3744 26.6159 30.3744 26.5143C30.476 26.4127 30.476 26.2096 30.3744 26.108C30.3744 26.108 30.3744 26.108 30.3744 26.0064C30.2728 25.8032 30.0697 25.7016 29.8665 25.8032H29.7649L29.4601 25.9048L28.8506 26.2096L27.3268 26.8191L23.0601 28.4445C22.6538 28.5461 22.349 28.5461 21.9427 28.4445C21.5363 28.2413 21.2316 28.0381 21.13 27.6318L17.9808 20.1143C17.7776 19.708 17.7776 19.3016 17.9808 18.9969C18.1839 18.5905 18.3871 18.2857 18.7935 18.1842C19.1998 17.981 19.6062 17.981 19.9109 18.1842C20.3173 18.3873 20.622 18.5905 20.7236 18.9969L23.0601 24.5842C23.1617 24.6857 23.1617 24.7873 23.3649 24.8889C23.4665 24.9905 23.6697 24.9905 23.7712 24.8889L27.1236 23.4667L27.53 23.2635L28.1395 23.0603L29.257 22.5524C29.257 22.5524 29.3585 22.5524 29.3585 22.4508C30.6792 21.9429 32.1014 22.5524 32.7109 23.873L33.3205 25.3969L36.7744 33.8286L34.5395 34.7429ZM33.7268 23.5683C33.3205 22.654 32.6093 21.9429 31.7966 21.6381L44.4951 16.3556C44.6982 16.254 44.9014 16.254 45.1046 16.254C45.3078 16.254 45.5109 16.254 45.7141 16.3556C46.1205 16.5588 46.4252 16.7619 46.5268 17.1683C46.8316 17.981 46.5268 18.7937 45.7141 19.2L33.93 24.0762L33.7268 23.5683Z" fill="#181F4E"/>
<path d="M25.9046 20.6223C26.3109 20.8254 26.8189 20.927 27.2252 20.927C27.7332 20.927 28.1395 20.8254 28.5459 20.6223C29.4601 20.2159 30.0697 19.6064 30.476 18.6921C30.8824 17.7778 30.8824 16.8635 30.476 15.9492C29.7649 14.1207 27.6316 13.308 25.803 14.0191C24.8887 14.4254 24.2792 15.035 23.8728 15.9492C23.4665 16.8635 23.4665 17.7778 23.8728 18.6921C24.3808 19.6064 25.0919 20.3175 25.9046 20.6223ZM24.9903 16.3556C25.2951 15.7461 25.7014 15.2381 26.4125 14.9334C26.7173 14.8318 27.022 14.7302 27.4284 14.7302C28.4443 14.7302 29.3585 15.3397 29.7649 16.254C30.0697 16.8635 30.0697 17.5746 29.7649 18.1842C29.4601 18.7937 29.0538 19.3016 28.3427 19.6064C27.7332 19.9111 27.022 19.9111 26.4125 19.6064C25.803 19.3016 25.2951 18.8953 24.9903 18.1842C24.6855 17.473 24.6855 17.0667 24.9903 16.3556Z" fill="#181F4E"/>
<path d="M34.5395 13.7143C35.4538 13.7143 36.3681 13.308 37.0792 12.6984C37.7903 12.0889 38.0951 11.1746 38.0951 10.1588C38.0951 9.24447 37.6887 8.33019 37.0792 7.61908C35.7585 6.29844 33.422 6.29844 32.1014 7.61908C31.3903 8.33019 31.0855 9.14289 31.0855 10.1588C31.0855 11.073 31.4919 11.9873 32.1014 12.6984C32.7109 13.4096 33.5236 13.7143 34.5395 13.7143ZM32.7109 8.43178C33.2189 7.92384 33.8284 7.72066 34.5395 7.72066C35.2506 7.72066 35.8601 8.02543 36.3681 8.43178C36.876 8.93971 37.0792 9.54924 37.0792 10.2603C37.0792 10.9715 36.7744 11.581 36.3681 12.0889C35.4538 13.0032 33.7268 13.0032 32.8125 12.0889C32.3046 11.581 32.1014 10.9715 32.1014 10.2603C31.9998 9.54924 32.203 8.83813 32.7109 8.43178Z" fill="#181F4E"/>
</svg>
