<svg width="64" height="64" viewBox="0 0 64 64" fill="none" xmlns="http://www.w3.org/2000/svg">
<g clip-path="url(#clip0_4580_1583)">
<path d="M32 16.2539C33.9302 16.2539 35.5556 14.6286 35.5556 12.6984C35.5556 10.7682 33.9302 9.14284 32 9.14284C30.0698 9.14284 28.4444 10.7682 28.4444 12.6984C28.4444 14.6286 30.0698 16.2539 32 16.2539ZM32 10.1587C33.4222 10.1587 34.5397 11.2762 34.5397 12.6984C34.5397 14.1206 33.4222 15.2381 32 15.2381C30.5778 15.2381 29.4603 14.1206 29.4603 12.6984C29.4603 11.2762 30.5778 10.1587 32 10.1587Z" fill="#181F4E"/>
<path d="M52.3175 22.3492C53.7397 22.3492 54.8571 21.2317 54.8571 19.8095C54.8571 18.3873 53.7397 17.2698 52.3175 17.2698H22.3492V11.6825C22.3492 11.4793 22.3492 11.3778 22.2476 11.1746C21.9429 11.4793 21.6381 11.6825 21.3333 11.8857V17.8793C21.3333 18.1841 21.5365 18.3873 21.8413 18.3873H52.3175C53.1302 18.3873 53.8413 19.0984 53.8413 19.9111C53.8413 20.7238 53.1302 21.3333 52.3175 21.3333H36.0635C35.7587 21.3333 35.5556 21.5365 35.5556 21.8413V31.492C35.7587 31.492 35.8603 31.492 36.0635 31.492C36.2667 31.492 36.3683 31.492 36.5714 31.492V22.3492H52.3175Z" fill="#181F4E"/>
<path d="M27.9365 21.3333H19.8095C18.9968 21.3333 18.2857 20.6222 18.2857 19.8095V11.7841C17.8794 11.5809 17.5746 11.3778 17.3714 11.073C17.3714 11.2762 17.2698 11.3778 17.2698 11.5809V19.7079C17.2698 21.1301 18.3873 22.2476 19.8095 22.2476H27.4286V31.3905C27.6317 31.3905 27.7333 31.3905 27.9365 31.3905C28.1397 31.3905 28.2413 31.3905 28.4444 31.3905V21.7397C28.4444 21.6381 28.2413 21.3333 27.9365 21.3333Z" fill="#181F4E"/>
<path d="M21.0286 49.5746C20.1143 50.4889 20.0127 51.9111 20.7238 52.927C21.1302 53.5365 21.8413 53.9428 22.5524 53.9428C22.654 53.9428 22.654 53.9428 22.7556 53.9428C23.4667 53.9428 24.0762 53.6381 24.5841 53.2317L31.7968 46.019C32.3048 45.5111 32.5079 44.9016 32.5079 44.1905V36.5714H33.0159L38.7048 42.2603V51.3016C38.7048 52.6222 39.6191 53.7397 40.8381 53.9428C41.5492 54.0444 42.3619 53.8413 42.8698 53.3333C43.3778 52.8254 43.7841 52.1143 43.7841 51.4032V41.2444C43.7841 40.5333 43.4794 39.9238 43.073 39.4159L36.5714 33.0159V32.5079C36.3683 32.5079 36.2667 32.5079 36.0635 32.5079C34.946 32.5079 33.8286 32.2032 32.9143 31.492H30.9841C30.0698 32.2032 28.9524 32.5079 27.8349 32.5079C27.6317 32.5079 27.5302 32.5079 27.327 32.5079V43.1746L21.0286 49.5746ZM28.3429 43.7841C28.4444 43.6825 28.4444 43.5809 28.4444 43.3778V32.5079H35.5556V33.219C35.5556 33.3206 35.6571 33.5238 35.6571 33.6254L42.2603 40.2286C42.5651 40.5333 42.6667 40.9397 42.6667 41.346V51.5047C42.6667 51.9111 42.4635 52.419 42.1587 52.6222C41.854 52.927 41.346 53.0286 40.9397 52.927C40.2286 52.8254 39.7206 52.1143 39.7206 51.3016V42.0571C39.7206 41.9555 39.619 41.7524 39.619 41.6508L33.5238 35.7587C33.4222 35.6571 33.3206 35.6571 33.1175 35.6571H31.8984C31.5937 35.6571 31.3905 35.8603 31.3905 36.1651V44.292C31.3905 44.6984 31.1873 45.1047 30.9841 45.4095L23.7714 52.6222C23.4667 52.927 23.0603 53.1301 22.5524 53.0286C22.146 53.0286 21.7397 52.7238 21.4349 52.419C21.0286 51.8095 21.1302 50.9968 21.6381 50.3873L28.3429 43.7841Z" fill="#181F4E"/>
<path d="M19.8095 12.1905C20.3175 12.1905 20.8254 12.0889 21.3333 11.7841C21.7397 11.5809 22.0444 11.3778 22.2476 11.073C22.8571 10.4635 23.3651 9.54919 23.3651 8.53331C23.3651 6.70474 21.7397 5.07935 19.8095 5.07935C17.8794 5.07935 16.254 6.70474 16.254 8.6349C16.254 9.65077 16.6603 10.5651 17.3714 11.1746C17.6762 11.4793 17.981 11.6825 18.2857 11.8857C18.7937 12.0889 19.3016 12.1905 19.8095 12.1905ZM22.3492 8.6349C22.3492 9.24443 22.146 9.75236 21.8413 10.1587C21.6381 10.4635 21.3333 10.6666 21.1302 10.8698C20.7238 11.073 20.3175 11.1746 19.8095 11.1746C19.3016 11.1746 18.8952 11.073 18.5905 10.8698C18.2857 10.6666 18.0825 10.4635 17.8794 10.1587C17.473 9.75236 17.2698 9.24443 17.2698 8.6349C17.2698 7.31427 18.3873 6.09522 19.8095 6.09522C21.2317 6.09522 22.3492 7.31427 22.3492 8.6349Z" fill="#181F4E"/>
<path d="M63.2889 30.3746C61.7651 31.7968 59.0222 31.7968 57.4984 30.3746L56.6857 29.5619C56.4825 29.3587 56.1778 29.3587 55.9746 29.5619L55.1619 30.3746C53.5365 31.8984 50.9968 31.8984 49.3714 30.3746L48.5587 29.5619C48.3556 29.3587 48.0508 29.3587 47.8476 29.5619L47.0349 30.3746C45.4095 31.8984 42.8698 31.8984 41.2444 30.3746L40.4317 29.5619C40.2286 29.3587 39.9238 29.3587 39.7206 29.5619L38.9079 30.3746C38.1968 30.9841 37.3841 31.3905 36.5714 31.492C36.3683 31.492 36.2667 31.492 36.0635 31.492C35.8603 31.492 35.7587 31.492 35.5556 31.492C34.6413 31.3905 33.8286 31.0857 33.2191 30.3746L32.4064 29.5619C32.2032 29.3587 31.8984 29.3587 31.6952 29.5619L30.8825 30.3746C30.1714 30.9841 29.3587 31.3905 28.546 31.492C28.3429 31.492 28.2413 31.492 28.0381 31.492C27.8349 31.492 27.7333 31.492 27.5302 31.492C26.6159 31.3905 25.8032 31.0857 25.1937 30.3746L24.381 29.5619C24.1778 29.3587 23.873 29.3587 23.6698 29.5619L22.8571 30.3746C21.2317 31.8984 18.6921 31.8984 17.0667 30.3746L16.254 29.5619C16.0508 29.3587 15.746 29.3587 15.5429 29.5619L14.7302 30.3746C13.1048 31.8984 10.5651 31.8984 8.93968 30.3746L8.12698 29.5619C7.92381 29.3587 7.61905 29.3587 7.41587 29.5619L6.60317 30.3746C4.97778 31.8984 2.4381 31.8984 0.812698 30.3746L0 29.7651V31.1873C1.93016 33.0159 5.18095 33.0159 7.11111 31.1873L7.61905 30.7809L8.12698 31.1873C10.0571 33.0159 13.3079 33.0159 15.2381 31.1873L15.746 30.7809L16.254 31.1873C18.1841 33.0159 21.4349 33.0159 23.3651 31.1873L23.873 30.7809L24.381 31.1873C25.1937 32 26.3111 32.4063 27.4286 32.5079C27.6317 32.5079 27.7333 32.5079 27.9365 32.5079C29.054 32.5079 30.1714 32.2032 31.0857 31.492C31.2889 31.3905 31.3905 31.2889 31.5937 31.0857L32.1016 30.6793L32.6095 31.0857C32.8127 31.1873 32.9143 31.2889 33.1175 31.492C34.0317 32.2032 35.1492 32.5079 36.2667 32.5079C36.4698 32.5079 36.5714 32.5079 36.7746 32.5079C37.8921 32.4063 39.0095 32 39.8222 31.1873L40.3302 30.7809L40.8381 31.1873C42.7683 33.0159 46.0191 33.0159 47.9492 31.1873L48.4571 30.7809L48.9651 31.1873C50.8952 33.0159 54.146 33.0159 56.0762 31.1873L56.5841 30.7809L57.0921 31.1873C58.0064 32.1016 59.327 32.6095 60.6476 32.6095C61.9683 32.6095 63.2889 32.1016 64.2032 31.1873V29.7651L63.2889 30.3746Z" fill="#181F4E"/>
</g>
<defs>
<clipPath id="clip0_4580_1583">
<rect width="64" height="64" fill="white"/>
</clipPath>
</defs>
</svg>
