<svg width="64" height="64" viewBox="0 0 64 64" fill="none" xmlns="http://www.w3.org/2000/svg">
<path d="M32.2034 19.8095C34.1335 19.8095 35.7589 18.1841 35.7589 16.2539C35.7589 14.3238 34.1335 12.6984 32.2034 12.6984C30.2732 12.6984 28.6478 14.2222 28.6478 16.2539C28.6478 18.2857 30.2732 19.8095 32.2034 19.8095ZM34.743 16.2539C34.743 17.6761 33.6256 18.7936 32.2034 18.7936C30.7811 18.7936 29.6637 17.6761 29.6637 16.2539C29.6637 14.8317 30.7811 13.7142 32.2034 13.7142C33.6256 13.7142 34.743 14.8317 34.743 16.2539Z" fill="#181F4E"/>
<path d="M28.9526 21.8412H35.4542C35.5557 21.8412 35.7589 21.7396 35.8605 21.7396L45.2065 12.3936H43.6827L35.251 20.8254H29.2573L20.8256 12.3936H19.3018L28.6478 21.7396C28.7494 21.7396 28.851 21.8412 28.9526 21.8412Z" fill="#181F4E"/>
<path d="M3.75891 11.2761C3.45415 11.2761 3.25098 11.4793 3.25098 11.7841C3.25098 12.0888 3.45415 12.292 3.75891 12.292H5.28272V11.2761H3.75891Z" fill="#181F4E"/>
<path d="M14.2224 11.2761H10.4637V12.292H14.2224C14.2224 12.0888 14.1208 11.9873 14.1208 11.7841C14.1208 11.6825 14.1208 11.4793 14.2224 11.2761Z" fill="#181F4E"/>
<path d="M50.2859 11.2761C50.2859 11.4793 50.3875 11.5809 50.3875 11.7841C50.3875 11.9873 50.3875 12.0888 50.2859 12.292H54.0446V11.2761H50.2859Z" fill="#181F4E"/>
<path d="M60.6478 11.2761H59.124V12.292H60.6478C60.9526 12.292 61.1557 12.0888 61.1557 11.7841C61.1557 11.4793 60.9526 11.2761 60.6478 11.2761Z" fill="#181F4E"/>
<path d="M19.2002 11.4793C19.2002 11.5809 19.2002 11.6825 19.2002 11.8857C19.2002 11.9873 19.2002 12.0888 19.2002 12.1904C19.2002 12.292 19.2002 12.292 19.2002 12.3936H19.3018H43.6827H45.3081C45.3081 12.292 45.3081 12.292 45.3081 12.1904C45.3081 12.0888 45.3081 11.9873 45.3081 11.8857C45.3081 11.7841 45.3081 11.6825 45.3081 11.4793V11.3777H19.0986C19.2002 11.3777 19.2002 11.3777 19.2002 11.4793Z" fill="#181F4E"/>
<path d="M59.124 7.72059C59.124 7.41583 58.9208 7.21265 58.6161 7.21265H57.0922V5.68884C57.0922 5.38408 56.8891 5.18091 56.5843 5.18091H54.5526C54.2478 5.18091 54.0446 5.38408 54.0446 5.68884V11.2761V12.292V17.8793C54.0446 18.1841 54.2478 18.3873 54.5526 18.3873H56.5843C56.8891 18.3873 57.0922 18.1841 57.0922 17.8793V16.3555H58.6161C58.9208 16.3555 59.124 16.1523 59.124 15.8476V12.292V11.2761V7.72059ZM58.1081 15.3396H57.0922V8.22853H58.1081V15.3396ZM56.0764 17.3714H55.0605V6.19678H56.0764V17.3714Z" fill="#181F4E"/>
<path d="M10.3621 5.68884C10.3621 5.38408 10.1589 5.18091 9.85415 5.18091H7.82241C7.51764 5.18091 7.31447 5.38408 7.31447 5.68884V7.21265H5.79066C5.4859 7.21265 5.28272 7.41583 5.28272 7.72059V11.2761V12.292V15.8476C5.28272 16.1523 5.4859 16.3555 5.79066 16.3555H7.31447V17.8793C7.31447 18.1841 7.51764 18.3873 7.82241 18.3873H9.85415C10.1589 18.3873 10.3621 18.1841 10.3621 17.8793V5.68884ZM9.34622 17.3714H8.33034V6.19678H9.34622V17.3714ZM6.2986 8.22853H7.31447V15.3396H6.2986V8.22853Z" fill="#181F4E"/>
<path d="M50.2859 11.2761C50.1843 10.7682 49.9811 10.3619 49.5748 9.95551C48.5589 8.93964 46.9335 8.93964 46.0192 9.95551L44.6986 11.2761H45.3081L45.3081 11.3777C45.3081 11.4793 45.3081 11.5809 45.3081 11.7841C45.3081 11.8857 45.3081 11.9873 45.3081 12.0888C45.3081 12.1904 45.3081 12.1904 45.3081 12.292C45.4097 12.8 45.6129 13.2063 46.0192 13.6127C46.4256 14.019 46.9335 14.2222 47.4415 14.3238L35.9621 25.8031C35.8605 25.9047 35.8605 26.0063 35.8605 26.2095V35.0476H28.7494V26.2095C28.7494 26.1079 28.6478 25.9047 28.6478 25.8031L16.9653 14.3238C17.4732 14.2222 17.9811 14.019 18.3875 13.6127C18.7938 13.2063 18.997 12.8 19.0986 12.292C19.0986 12.1904 19.0986 12.1904 19.0986 12.0888C19.0986 11.9873 19.0986 11.8857 19.0986 11.7841C19.0986 11.6825 19.0986 11.5809 19.0986 11.3777V11.2761H19.7081L18.3875 9.95551C17.3716 8.93964 15.7462 8.93964 14.8319 9.95551C14.4256 10.3619 14.2224 10.7682 14.1208 11.2761C14.1208 11.4793 14.0192 11.5809 14.0192 11.7841C14.0192 11.9873 14.0192 12.0888 14.1208 12.292C14.1208 12.4952 14.2224 12.6984 14.324 12.9015C14.4256 13.1047 14.6288 13.4095 14.8319 13.6127L27.6319 26.4127V37.0793L20.0129 55.365C19.5049 56.6857 20.1145 58.1079 21.4351 58.7174C21.7399 58.819 22.0446 58.9206 22.3494 58.9206C22.6542 58.9206 23.0605 58.819 23.3653 58.7174C23.9748 58.4127 24.4827 58.0063 24.6859 57.2952L31.797 40.1269H32.5081L39.6192 57.2952C39.924 57.9047 40.3303 58.4127 40.9399 58.7174C41.5494 59.0222 42.2605 59.0222 42.87 58.7174C44.1907 58.2095 44.8002 56.6857 44.1907 55.365L36.5716 37.0793V26.4127L49.3716 13.6127C49.5748 13.4095 49.778 13.2063 49.8796 12.9015C49.9811 12.6984 50.0827 12.4952 50.0827 12.292C50.0827 12.0888 50.1843 11.9873 50.1843 11.7841C50.2859 11.6825 50.2859 11.4793 50.2859 11.2761ZM46.7303 12.9015C46.5272 12.6984 46.4256 12.4952 46.4256 12.292C46.324 12.0888 46.324 11.9873 46.324 11.7841C46.324 11.5809 46.324 11.4793 46.4256 11.2761C46.5272 11.073 46.6288 10.8698 46.7303 10.6666C46.8319 10.565 47.0351 10.4634 47.1367 10.3619C47.2383 10.3619 47.2383 10.3619 47.3399 10.2603C47.4415 10.2603 47.543 10.2603 47.6446 10.1587C47.8478 10.1587 48.051 10.1587 48.2542 10.2603C48.4573 10.3619 48.6605 10.4634 48.8637 10.565C48.9653 10.6666 48.9653 10.7682 49.0669 10.8698C49.1684 10.9714 49.1684 11.073 49.1684 11.1746C49.27 11.3777 49.27 11.4793 49.27 11.6825C49.27 11.8857 49.27 11.9873 49.1684 12.1904V12.292C49.0669 12.4952 48.9653 12.5968 48.8637 12.8C48.2542 13.5111 47.3399 13.5111 46.7303 12.9015ZM41.4478 57.7015C41.0415 57.4984 40.7367 57.2952 40.6351 56.8888L33.3208 39.4158C33.2192 39.2127 33.0161 39.1111 32.8129 39.1111H31.4922C31.2891 39.1111 31.0859 39.2127 30.9843 39.4158L23.7716 56.8888C23.5684 57.2952 23.3653 57.6 22.9589 57.7015C22.5526 57.9047 22.1462 57.9047 21.8415 57.7015C21.0288 57.3968 20.724 56.4825 21.0288 55.6698L28.6478 37.2825C28.6478 37.1809 28.6478 37.1809 28.6478 37.0793V35.9619H35.7589V37.0793C35.7589 37.1809 35.7589 37.1809 35.7589 37.2825L43.378 55.6698C43.6827 56.4825 43.378 57.2952 42.5653 57.7015C42.2605 57.9047 41.8542 57.9047 41.4478 57.7015ZM17.778 12.9015C17.1684 13.5111 16.1526 13.5111 15.6446 12.9015C15.543 12.8 15.3399 12.5968 15.3399 12.3936C15.3399 12.3936 15.3399 12.3936 15.3399 12.292C15.2383 12.0888 15.2383 11.9873 15.2383 11.7841C15.2383 11.5809 15.2383 11.4793 15.3399 11.2761C15.3399 11.1746 15.4415 11.073 15.543 10.9714C15.6446 10.8698 15.6446 10.7682 15.7462 10.7682C15.8478 10.6666 16.051 10.4634 16.2542 10.4634C16.4573 10.3619 16.6605 10.3619 16.8637 10.3619C17.0669 10.3619 17.27 10.3619 17.4732 10.4634C17.6764 10.565 17.778 10.6666 17.9811 10.7682C18.1843 10.9714 18.2859 11.1746 18.2859 11.3777C18.3875 11.5809 18.3875 11.6825 18.3875 11.8857C18.3875 12.0888 18.3875 12.1904 18.2859 12.3936C17.9811 12.4952 17.8795 12.6984 17.778 12.9015Z" fill="#181F4E"/>
</svg>
