<svg width="64" height="64" viewBox="0 0 64 64" fill="none" xmlns="http://www.w3.org/2000/svg">
<path d="M28.6474 22.7555C29.5617 22.7555 30.476 22.4508 31.1871 21.7396C31.8982 21.0285 32.203 20.2158 32.203 19.2C32.203 18.2857 31.7966 17.3714 31.1871 16.6603C29.8664 15.3396 27.5299 15.3396 26.2093 16.6603C25.4982 17.3714 25.1934 18.1841 25.1934 19.2C25.1934 20.1142 25.5998 21.0285 26.2093 21.7396C26.8188 22.4508 27.7331 22.7555 28.6474 22.7555ZM26.8188 17.3714C27.3268 16.8635 27.9363 16.6603 28.6474 16.6603C29.3585 16.6603 29.968 16.965 30.476 17.3714C30.9839 17.7777 31.1871 18.4889 31.1871 19.2C31.1871 19.9111 30.8823 20.5206 30.476 21.0285C29.4601 22.0444 27.8347 22.0444 26.9204 21.0285C26.4125 20.5206 26.2093 19.9111 26.2093 19.2C26.1077 18.4889 26.3109 17.8793 26.8188 17.3714Z" fill="#181F4E"/>
<path d="M35.8601 16.965C36.7744 16.965 37.6887 16.6603 38.3998 15.9492C39.822 14.5269 39.822 12.292 38.3998 10.9714C36.9776 9.54917 34.7426 9.54917 33.422 10.9714C31.9998 12.3936 31.9998 14.6285 33.422 15.9492C34.0315 16.6603 34.9458 16.965 35.8601 16.965ZM34.0315 11.6825C35.0474 10.6666 36.6728 10.6666 37.5871 11.6825C38.5014 12.6984 38.603 14.3238 37.5871 15.2381C36.5712 16.1523 34.9458 16.2539 34.0315 15.2381C33.0157 14.2222 33.0157 12.6984 34.0315 11.6825Z" fill="#181F4E"/>
<path d="M53.4347 37.6888V29.6635C54.349 28.6476 54.349 27.1238 53.4347 26.1079L44.0887 16.7619C42.6664 15.3396 40.4315 15.3396 39.1109 16.7619L33.3204 22.5523L29.3585 26.4127L25.3966 22.4508C23.9744 21.0285 21.7395 21.0285 20.4188 22.4508L11.0728 31.7968C10.0569 32.8127 10.0569 34.3365 11.0728 35.3523V43.3777L4.6728 49.7777C3.75851 50.692 3.65692 52.1142 4.36803 53.1301C4.77438 53.7396 5.48549 54.146 6.19661 54.146C6.29819 54.146 6.29819 54.146 6.39978 54.146C7.11089 54.146 7.72042 53.8412 8.22835 53.4349L15.4411 46.2222C15.949 45.7142 16.1522 45.1047 16.1522 44.3936V40.3301L18.2855 42.4635V51.5047C18.2855 52.8254 19.1998 53.9428 20.4188 54.146C20.5204 54.146 20.7236 54.146 20.8252 54.146C21.4347 54.146 22.0442 53.9428 22.4506 53.5365C23.0601 53.0285 23.3649 52.3174 23.3649 51.6063V41.4476C23.3649 40.7365 23.0601 40.1269 22.6537 39.619L17.9807 34.946L24.4823 28.4444L27.7331 31.6952C28.241 32.2031 28.8506 32.4063 29.5617 32.4063C30.1712 32.4063 30.8823 32.2031 31.3903 31.6952L40.3299 22.7555L46.8315 29.2571L42.1585 33.9301C41.6506 34.4381 41.4474 35.0476 41.4474 35.7587V45.9174C41.4474 46.6285 41.7522 47.3396 42.3617 47.8476C42.8696 48.2539 43.3776 48.4571 43.9871 48.4571C44.0887 48.4571 44.2918 48.4571 44.3934 48.4571C45.6125 48.2539 46.5268 47.1365 46.5268 45.8158V36.7746L48.6601 34.6412V38.7047C48.6601 39.4158 48.9649 40.0254 49.3712 40.5333L56.5839 47.746C57.0918 48.2539 57.7014 48.4571 58.4125 48.4571C58.5141 48.4571 58.5141 48.4571 58.6157 48.4571C59.3268 48.3555 60.0379 48.0508 60.4442 47.4412C61.1553 46.4254 61.0538 45.0031 60.1395 44.0889L53.4347 37.6888ZM58.2093 47.4412C57.803 47.4412 57.295 47.3396 56.9903 47.0349L49.7776 39.8222C49.4728 39.5174 49.3712 39.1111 49.3712 38.7047V33.6254L52.4188 30.5777V37.7904C52.4188 37.892 52.5204 38.0952 52.5204 38.1968L59.022 44.6984C59.6315 45.3079 59.7331 46.1206 59.2252 46.7301C59.022 47.1365 58.6157 47.3396 58.2093 47.4412ZM45.2061 36.5714V45.8158C45.2061 46.6285 44.6982 47.3396 43.8855 47.4412C43.3776 47.5428 42.9712 47.3396 42.6664 47.1365C42.3617 46.8317 42.1585 46.4254 42.1585 46.019V35.8603C42.1585 35.4539 42.3617 35.0476 42.5649 34.7428L47.6442 29.765L51.6061 25.8031L52.7236 26.9206C52.7236 26.9206 52.7236 26.9206 52.7236 27.0222C53.1299 27.5301 53.2315 28.2412 52.9268 28.7492C52.8252 28.8508 52.8252 28.9523 52.7236 29.1555L45.4093 36.4698C45.3077 36.2666 45.2061 36.4698 45.2061 36.5714ZM41.9553 21.0285C42.1585 20.8254 42.1585 20.5206 41.9553 20.3174C41.7522 20.1142 41.549 20.1142 41.3458 20.2158C41.3458 20.2158 41.2442 20.2158 41.2442 20.3174L40.1268 21.3333L37.5871 23.873C37.4855 23.365 37.3839 22.9587 36.9776 22.5523C36.5712 22.0444 35.9617 21.8412 35.3522 21.7396L39.822 17.2698C40.3299 16.7619 40.9395 16.5587 41.6506 16.5587C42.3617 16.5587 42.9712 16.7619 43.4791 17.2698L50.9966 24.7873L47.4411 28.3428L40.9395 21.8412L41.9553 21.0285ZM22.2474 51.6063C22.2474 52.0127 22.0442 52.5206 21.7395 52.7238C21.4347 53.0285 20.9268 53.1301 20.5204 53.0285C19.8093 52.9269 19.1998 52.2158 19.1998 51.4031V42.1587C19.1998 42.0571 19.0982 41.8539 19.0982 41.7523L11.7839 34.4381C11.6823 34.3365 11.5807 34.2349 11.5807 34.0317C11.276 33.5238 11.3776 32.8127 11.7839 32.3047C11.7839 32.3047 11.7839 32.3047 11.7839 32.2031L12.9014 31.0857L21.841 40.0254C22.1458 40.3301 22.2474 40.7365 22.2474 41.1428V51.6063ZM15.0347 44.4952C15.0347 44.9015 14.8315 45.3079 14.6284 45.6127L7.41565 52.8254C7.11089 53.1301 6.60295 53.3333 6.19661 53.2317C5.79026 53.2317 5.38391 52.9269 5.07914 52.6222C4.6728 52.0127 4.77438 51.2 5.28232 50.5904L11.7839 44.0889C11.8855 43.9873 11.8855 43.8857 11.8855 43.6825V36.4698L14.9331 39.5174V44.4952H15.0347ZM17.168 34.3365L13.6125 30.7809L21.1299 23.2635C22.1458 22.2476 23.7712 22.2476 24.6855 23.2635L28.9522 27.5301C29.1553 27.7333 29.4601 27.7333 29.6633 27.5301L33.9299 23.2635C34.5395 22.6539 35.6569 22.6539 36.1649 23.365C36.6728 23.9746 36.5712 24.8889 36.0633 25.4984C36.0633 25.4984 36.0633 25.4984 36.0633 25.6L34.7426 26.9206L30.476 31.0857C29.8664 31.6952 28.9522 31.6952 28.3426 31.0857L23.2633 26.0063C23.2633 26.0063 23.1617 26.0063 23.1617 25.9047C22.9585 25.8031 22.7553 25.8031 22.5522 26.0063C22.349 26.2095 22.349 26.5142 22.5522 26.7174L23.6696 27.8349L17.168 34.3365Z" fill="#181F4E"/>
</svg>
